M48
;Layer_Color=9474304
;FILE_FORMAT=2:5
INCH,TZ
;TYPE=PLATED
T1F00S00C0.00800
T2F00S00C0.03543
T3F00S00C0.03937
T4F00S00C0.04016
;TYPE=NON_PLATED
T5F00S00C0.03900
T6F00S00C0.11811
%
T01
X-56300Y94700
X-49500Y112100
X-49900Y115200
X-20100
X-20700Y110300
Y101900
X-25400Y102400
X6400Y113700
X6200Y80600
X7300Y35500
X68600Y97500
X63700Y109100
X66000Y112400
X105000Y111600
X112300Y115700
X111200Y100200
X99400Y97800
X119000Y153800
X146900Y157200
X145650Y166250
X121300Y188900
X107700Y193800
Y173800
X114600Y149100
X106000Y128500
X104200Y120700
X100800
X110950Y122900
X75800Y147700
X81000Y153400
X84800Y159700
X76700Y166000
X67400Y174700
X59400Y169800
X45900Y171200
X35100Y167000
X30700Y165400
X24400Y167700
X21300Y164200
X22100Y177800
X30000Y176200
X34400
X10200Y174500
X-2434Y180166
X-18900Y182300
X-24300Y182100
X-26600Y179900
X-28000Y176300
X-34200Y179800
X-39100Y179900
X-33747Y171800
X-37800Y167100
X-35117Y160917
X-36700Y157500
X-36600Y154400
X-39600Y152100
X-37600Y142300
X-34800Y126600
X-39400Y120800
X-29700Y118900
X-19600Y121400
X-7800
X-6400Y148820
X-13793Y149593
X-28900Y164000
X-19600Y173600
X-20800Y190400
X-15500Y197300
X-23000Y206500
X-27000Y205600
X-29500Y208200
X-29576Y212970
X-38100Y208100
Y201300
X-24700Y221700
X-22200Y219300
X-17400Y230200
X-24200Y233600
X-31700Y235900
X-27750Y249400
X-32600Y255700
X-34100Y260000
X13900Y265600
X41100Y241500
X80000Y238500
X53300Y202500
X300Y199400
X20747Y124447
X18400Y118700
X30500Y120600
X33400Y123100
X37400Y123400
X26200Y128200
X47000Y136600
X45400Y138700
X57100Y146400
X62400Y134904
X-27800Y130600
X-43700Y132200
X-47000
X-46500Y140400
X-44000Y147200
X-44800Y158700
X-41500Y159300
X-39800Y164700
X-49000Y156300
X-46400Y179000
X-46500Y182900
X-56400Y179600
X-48550Y198100
X-40900Y219300
X-59400Y252500
X-57500Y128000
X-46300Y123500
X-46600Y120900
X-48600Y118900
X-73400Y118400
X-69900Y131400
X-87700Y141300
X-120000Y130400
X-120800Y126400
X-115000Y120800
X-79500Y283500
X-54607Y311007
X-45600Y351100
X-50700Y357400
X-61300Y415300
X-32500Y396800
X-36500Y392500
X-17500Y376700
X-15600Y348600
X-9300Y342300
X-2000Y338300
X-17493Y336793
X-25700Y339700
X-28200Y352100
X-36900Y357800
X-300Y354500
X4300Y368000
X9900Y364700
X3200Y386300
X4900Y401700
X8300Y418700
X43800Y428200
X41800Y402400
X35400Y372600
X39100Y366300
X52700Y370700
X32200Y339700
X46200Y309000
X47835Y287405
X62400Y272840
X11100Y276600
X12750Y294400
X-15000Y272700
X-21900Y277600
X-37200Y290400
X-34800Y299700
X-22200Y314700
X-17800Y317600
X-19800Y325400
X97400Y308300
X52600Y430500
X2500Y431600
X-476Y441624
X-1200Y452200
X-5900Y454600
X22900Y464900
X-6100Y498800
X-5644Y501943
X9200Y518500
X-32100Y435900
T02
X82904Y104558
Y114400
X95896
Y104558
Y124242
X82904
T03
X-9843Y390100
X9843
T04
X-48425Y287405
X1575
T05
X-4000Y27200
X4000
X0Y47200
T06
X-900Y523000
M30
