%TF.GenerationSoftware,Altium Limited,Altium Designer,21.4.1 (30)*%
G04 Layer_Color=16711935*
%FSLAX26Y26*%
%MOIN*%
%TF.SameCoordinates,C79CEFAC-E130-474B-83DD-F1A68A00FB65*%
%TF.FilePolarity,Positive*%
%TF.FileFunction,Other,Mechanical_13*%
%TF.Part,Single*%
G01*
G75*
%TA.AperFunction,NonConductor*%
%ADD47C,0.003937*%
D47*
X377118Y1777748D02*
G03*
X377118Y1777748I-19685J0D01*
G01*
X-311882Y1814748D02*
G03*
X-311882Y1814748I-19685J0D01*
G01*
X-412496Y1342780D02*
G03*
X-412496Y1342780I-19685J0D01*
G01*
X-467331Y867173D02*
Y888827D01*
X-508669Y867173D02*
Y888827D01*
Y867173D02*
X-467331D01*
X-508669Y888827D02*
X-467331D01*
X1085906Y1203646D02*
Y1252858D01*
X1135118Y1203646D02*
Y1252858D01*
X1085906D02*
X1135118D01*
X1085906Y1203646D02*
X1135118D01*
X-27504Y5066063D02*
Y5099528D01*
X-76717Y5066063D02*
Y5099528D01*
X-27504D01*
X-76717Y5066063D02*
X-27504D01*
X52606Y1540268D02*
Y1573732D01*
X3394Y1540268D02*
Y1573732D01*
X52606D01*
X3394Y1540268D02*
X52606D01*
X-198394Y2394268D02*
Y2427732D01*
X-247606Y2394268D02*
Y2427732D01*
X-198394D01*
X-247606Y2394268D02*
X-198394D01*
X-143394Y2771268D02*
Y2804732D01*
X-192606Y2771268D02*
Y2804732D01*
X-143394D01*
X-192606Y2771268D02*
X-143394D01*
X-14394Y3426268D02*
Y3459732D01*
X-63606Y3426268D02*
Y3459732D01*
X-14394D01*
X-63606Y3426268D02*
X-14394D01*
X181606Y3645268D02*
Y3678732D01*
X132394Y3645268D02*
Y3678732D01*
X181606D01*
X132394Y3645268D02*
X181606D01*
X18716Y4566063D02*
Y4599528D01*
X-30496Y4566063D02*
Y4599528D01*
X18716D01*
X-30496Y4566063D02*
X18716D01*
X-253339Y1302419D02*
X-170661D01*
X-253339Y1373285D02*
X-170661D01*
X-253339Y1302419D02*
Y1373285D01*
X-170661Y1302419D02*
Y1373285D01*
X1398409Y1566284D02*
X1449591D01*
X1398409Y1601717D02*
X1449591D01*
X1398409Y1566284D02*
Y1601717D01*
X1449591Y1566284D02*
Y1601717D01*
X1130299Y1894126D02*
X1181480D01*
X1130299Y1929559D02*
X1181480D01*
X1130299Y1894126D02*
Y1929559D01*
X1181480Y1894126D02*
Y1929559D01*
X777409Y1592441D02*
X828591D01*
X777409Y1627874D02*
X828591D01*
X777409Y1592441D02*
Y1627874D01*
X828591Y1592441D02*
Y1627874D01*
X603409Y935441D02*
X654591D01*
X603409Y970874D02*
X654591D01*
X603409Y935441D02*
Y970874D01*
X654591Y935441D02*
Y970874D01*
X232410Y1200284D02*
X283591D01*
X232410Y1235717D02*
X283591D01*
X232410Y1200284D02*
Y1235717D01*
X283591Y1200284D02*
Y1235717D01*
X-661591Y1283441D02*
X-610409D01*
X-661591Y1318874D02*
X-610409D01*
X-661591Y1283441D02*
Y1318874D01*
X-610409Y1283441D02*
Y1318874D01*
X-1291591Y1303441D02*
X-1240409D01*
X-1291591Y1338874D02*
X-1240409D01*
X-1291591Y1303441D02*
Y1338874D01*
X-1240409Y1303441D02*
Y1338874D01*
X-219701Y3811126D02*
X-168520D01*
X-219701Y3846559D02*
X-168520D01*
X-219701Y3811126D02*
Y3846559D01*
X-168520Y3811126D02*
Y3846559D01*
X251134Y1813181D02*
X392866D01*
X251134Y1710819D02*
X392866D01*
Y1813181D01*
X251134Y1710819D02*
Y1813181D01*
X-437866Y1747819D02*
Y1850181D01*
X-296134Y1747819D02*
Y1850181D01*
X-437866Y1747819D02*
X-296134D01*
X-437866Y1850181D02*
X-296134D01*
X221173Y3638331D02*
Y3679669D01*
X242827Y3638331D02*
Y3679669D01*
X221173Y3638331D02*
X242827D01*
X221173Y3679669D02*
X242827D01*
X1009173Y1247008D02*
Y1288347D01*
X1030827Y1247008D02*
Y1288347D01*
X1009173Y1247008D02*
X1030827D01*
X1009173Y1288347D02*
X1030827D01*
X-20669Y1147827D02*
X20669D01*
X-20669Y1126173D02*
X20669D01*
X-20669D02*
Y1147827D01*
X20669Y1126173D02*
Y1147827D01*
X-250827Y1732653D02*
X-229173D01*
X-250827Y1773992D02*
X-229173D01*
X-250827Y1732653D02*
Y1773992D01*
X-229173Y1732653D02*
Y1773992D01*
X69173Y1524331D02*
Y1565669D01*
X90827Y1524331D02*
Y1565669D01*
X69173Y1524331D02*
X90827D01*
X69173Y1565669D02*
X90827D01*
X-232669Y1258827D02*
X-191331D01*
X-232669Y1237173D02*
X-191331D01*
X-232669D02*
Y1258827D01*
X-191331Y1237173D02*
Y1258827D01*
X-358827Y1307653D02*
X-337173D01*
X-358827Y1348992D02*
X-337173D01*
X-358827Y1307653D02*
Y1348992D01*
X-337173Y1307653D02*
Y1348992D01*
X-400685Y1378213D02*
X-396748Y1374276D01*
Y1264039D02*
Y1374276D01*
X-400685Y1260102D02*
X-396748Y1264039D01*
X-510921Y1260102D02*
X-400685D01*
X-514858Y1264039D02*
X-510921Y1260102D01*
X-514858Y1264039D02*
Y1374276D01*
X-510921Y1378213D01*
X-400685D01*
X1087669Y1152173D02*
Y1173827D01*
X1046331Y1152173D02*
Y1173827D01*
Y1152173D02*
X1087669D01*
X1046331Y1173827D02*
X1087669D01*
X460669Y1737173D02*
Y1758827D01*
X419331Y1737173D02*
Y1758827D01*
Y1737173D02*
X460669D01*
X419331Y1758827D02*
X460669D01*
X-152827Y2426669D02*
X-131173D01*
X-152827Y2385331D02*
X-131173D01*
Y2426669D01*
X-152827Y2385331D02*
Y2426669D01*
X-108827Y2761331D02*
Y2802669D01*
X-87173Y2761331D02*
Y2802669D01*
X-108827Y2761331D02*
X-87173D01*
X-108827Y2802669D02*
X-87173D01*
X30173Y3416614D02*
Y3457953D01*
X51827Y3416614D02*
Y3457953D01*
X30173Y3416614D02*
X51827D01*
X30173Y3457953D02*
X51827D01*
X-20669Y3801173D02*
X20669D01*
X-20669Y3822827D02*
X20669D01*
Y3801173D02*
Y3822827D01*
X-20669Y3801173D02*
Y3822827D01*
X52173Y4559331D02*
Y4600669D01*
X73827Y4559331D02*
Y4600669D01*
X52173Y4559331D02*
X73827D01*
X52173Y4600669D02*
X73827D01*
X-1827Y5056331D02*
Y5097669D01*
X19827Y5056331D02*
Y5097669D01*
X-1827Y5056331D02*
X19827D01*
X-1827Y5097669D02*
X19827D01*
X-20669Y815827D02*
X20669D01*
X-20669Y794173D02*
X20669D01*
X-20669D02*
Y815827D01*
X20669Y794173D02*
Y815827D01*
%TF.MD5,e700c08f44c168305eb5b5abec05da84*%
M02*
