G04*
G04 #@! TF.GenerationSoftware,Altium Limited,Altium Designer,21.4.1 (30)*
G04*
G04 Layer_Color=255*
%FSLAX25Y25*%
%MOIN*%
G70*
G04*
G04 #@! TF.SameCoordinates,8EED4449-2E46-416B-BC71-7F67FA958CFC*
G04*
G04*
G04 #@! TF.FilePolarity,Positive*
G04*
G01*
G75*
%ADD17R,0.02165X0.02165*%
%ADD18O,0.03150X0.00787*%
%ADD19R,0.01024X0.03543*%
%ADD20R,0.02756X0.02559*%
%ADD21R,0.01772X0.02362*%
%ADD22R,0.01772X0.02559*%
%ADD23O,0.00984X0.03543*%
%ADD24O,0.03543X0.00984*%
%ADD25R,0.07874X0.03937*%
%ADD26R,0.02559X0.02756*%
%ADD27R,0.06102X0.05118*%
%ADD28R,0.02165X0.02165*%
%ADD29R,0.02441X0.02598*%
%ADD30O,0.01378X0.01968*%
%ADD31O,0.01968X0.01378*%
%ADD32R,0.06693X0.06693*%
%ADD33R,0.02598X0.02441*%
%ADD53C,0.03900*%
%ADD59C,0.31496*%
%ADD60C,0.03100*%
%ADD62C,0.06299*%
%ADD63C,0.05906*%
%ADD64C,0.11811*%
D17*
X-47028Y87800D02*
D03*
X-50572D02*
D03*
X-1772Y113700D02*
D03*
X1772D02*
D03*
X-22972Y124800D02*
D03*
X-19428D02*
D03*
X1772Y381200D02*
D03*
X-1772D02*
D03*
D18*
X107801Y124400D02*
D03*
Y122825D02*
D03*
Y121250D02*
D03*
X114301D02*
D03*
Y122825D02*
D03*
Y124400D02*
D03*
D19*
X111051Y122825D02*
D03*
D20*
X167000Y134530D02*
D03*
Y138270D02*
D03*
X-9800Y493030D02*
D03*
Y496770D02*
D03*
X-16900Y440930D02*
D03*
Y444670D02*
D03*
X-43900Y440800D02*
D03*
Y437060D02*
D03*
X12900Y502630D02*
D03*
Y506370D02*
D03*
X26100Y473270D02*
D03*
Y469530D02*
D03*
X-78000Y406730D02*
D03*
Y410470D02*
D03*
X-44700Y392300D02*
D03*
Y388560D02*
D03*
X4700Y422460D02*
D03*
Y426200D02*
D03*
X-900Y390070D02*
D03*
Y386330D02*
D03*
X32400Y402630D02*
D03*
Y406370D02*
D03*
X58900Y434940D02*
D03*
Y431200D02*
D03*
X88000Y407200D02*
D03*
Y410940D02*
D03*
X-88000Y330100D02*
D03*
Y326360D02*
D03*
X-59800Y357930D02*
D03*
Y361670D02*
D03*
X-28000Y315570D02*
D03*
Y311830D02*
D03*
X-24400Y348660D02*
D03*
Y352400D02*
D03*
X25500Y343340D02*
D03*
Y339600D02*
D03*
X47800Y371030D02*
D03*
Y374770D02*
D03*
X78800Y329440D02*
D03*
Y325700D02*
D03*
X-137900Y268860D02*
D03*
Y272600D02*
D03*
X-85600Y293700D02*
D03*
Y289960D02*
D03*
X-40800Y290030D02*
D03*
Y293770D02*
D03*
X18200Y277200D02*
D03*
Y273460D02*
D03*
X39900Y311430D02*
D03*
Y315170D02*
D03*
X103600Y311840D02*
D03*
Y308100D02*
D03*
X136500Y276400D02*
D03*
Y280140D02*
D03*
X-89200Y225900D02*
D03*
Y222160D02*
D03*
X-65900Y253060D02*
D03*
Y256800D02*
D03*
X-47500Y219500D02*
D03*
Y215760D02*
D03*
X-36700Y248130D02*
D03*
Y251870D02*
D03*
X35100Y246670D02*
D03*
Y242930D02*
D03*
X74400Y236660D02*
D03*
Y240400D02*
D03*
X94000Y273200D02*
D03*
Y269460D02*
D03*
X-120800Y172030D02*
D03*
Y175770D02*
D03*
X-60600Y181870D02*
D03*
Y178130D02*
D03*
X3600Y176760D02*
D03*
Y180500D02*
D03*
X56900Y153200D02*
D03*
Y149460D02*
D03*
X47900Y202560D02*
D03*
Y206300D02*
D03*
X99800Y172800D02*
D03*
Y169060D02*
D03*
X104900Y209430D02*
D03*
Y213170D02*
D03*
X-150300Y119270D02*
D03*
Y115530D02*
D03*
X-94600Y144930D02*
D03*
Y148670D02*
D03*
X-61500Y98370D02*
D03*
Y94630D02*
D03*
X-5800Y125460D02*
D03*
Y129200D02*
D03*
X58600Y112370D02*
D03*
Y108630D02*
D03*
X105800Y100200D02*
D03*
Y103940D02*
D03*
X-31600Y476930D02*
D03*
Y480670D02*
D03*
D21*
X-5211Y510445D02*
D03*
X-3636Y506114D02*
D03*
X-6786D02*
D03*
X2800Y157865D02*
D03*
X4375Y153535D02*
D03*
X1225D02*
D03*
X-22300Y243265D02*
D03*
X-20725Y238935D02*
D03*
X-23875D02*
D03*
X-16800Y280965D02*
D03*
X-15225Y276635D02*
D03*
X-18375D02*
D03*
X-3900Y346465D02*
D03*
X-2325Y342135D02*
D03*
X-5475D02*
D03*
X15700Y368365D02*
D03*
X17275Y364035D02*
D03*
X14125D02*
D03*
X-589Y460445D02*
D03*
X986Y456114D02*
D03*
X-2164D02*
D03*
D22*
X-23759Y129848D02*
D03*
X-18641D02*
D03*
X-21200Y137722D02*
D03*
X140825Y156235D02*
D03*
X143975D02*
D03*
X142400Y160565D02*
D03*
X114014Y189019D02*
D03*
X117164D02*
D03*
X115589Y193350D02*
D03*
X78725Y158850D02*
D03*
X81875D02*
D03*
X80300Y163181D02*
D03*
X61325Y93150D02*
D03*
X64475D02*
D03*
X62900Y97481D02*
D03*
X24225Y119635D02*
D03*
X27375D02*
D03*
X25800Y123965D02*
D03*
X-65175Y127950D02*
D03*
X-62025D02*
D03*
X-63600Y132281D02*
D03*
X-128175Y129950D02*
D03*
X-125025D02*
D03*
X-126600Y134281D02*
D03*
X-20986Y380719D02*
D03*
X-17836D02*
D03*
X-19411Y385050D02*
D03*
D23*
X37121Y180728D02*
D03*
X35153D02*
D03*
X33184D02*
D03*
X31216D02*
D03*
X29247D02*
D03*
X27279D02*
D03*
Y171672D02*
D03*
X29247D02*
D03*
X31216D02*
D03*
X33184D02*
D03*
X35153D02*
D03*
X37121D02*
D03*
X-31779Y175372D02*
D03*
X-33747D02*
D03*
X-35716D02*
D03*
X-37684D02*
D03*
X-39653D02*
D03*
X-41621D02*
D03*
Y184428D02*
D03*
X-39653D02*
D03*
X-37684D02*
D03*
X-35716D02*
D03*
X-33747D02*
D03*
X-31779D02*
D03*
D24*
X25704Y177184D02*
D03*
Y175216D02*
D03*
X38696D02*
D03*
Y177184D02*
D03*
X-30204Y180884D02*
D03*
Y178916D02*
D03*
X-43196D02*
D03*
Y180884D02*
D03*
D25*
X32200Y176200D02*
D03*
X-36700Y179900D02*
D03*
D26*
X770Y535200D02*
D03*
X-2970D02*
D03*
D27*
X-15846Y105558D02*
D03*
Y87842D02*
D03*
X15846Y105558D02*
D03*
Y87842D02*
D03*
D28*
X23200Y364128D02*
D03*
Y367672D02*
D03*
X8000Y152728D02*
D03*
Y156272D02*
D03*
X-14200Y242372D02*
D03*
Y238828D02*
D03*
X-9800Y276428D02*
D03*
Y279972D02*
D03*
X4100Y341957D02*
D03*
Y345500D02*
D03*
X6300Y456228D02*
D03*
Y459772D02*
D03*
X900Y505928D02*
D03*
Y509472D02*
D03*
D29*
X102000Y125035D02*
D03*
Y128500D02*
D03*
X-24000Y173600D02*
D03*
Y177065D02*
D03*
X-34800Y131100D02*
D03*
Y134565D02*
D03*
D30*
X-42628Y136935D02*
D03*
X-44596D02*
D03*
X-46565D02*
D03*
X-48533D02*
D03*
Y126896D02*
D03*
X-46565D02*
D03*
X-44596D02*
D03*
X-42628D02*
D03*
D31*
X-50600Y134869D02*
D03*
Y132900D02*
D03*
Y130931D02*
D03*
Y128963D02*
D03*
X-40561D02*
D03*
Y130931D02*
D03*
Y132900D02*
D03*
Y134869D02*
D03*
D32*
X-45580Y131916D02*
D03*
D33*
X108432Y116300D02*
D03*
X104968D02*
D03*
X45732Y174800D02*
D03*
X42268D02*
D03*
X-1732Y80500D02*
D03*
X1732D02*
D03*
D53*
X0Y47200D02*
D03*
X4000Y27200D02*
D03*
X-4000D02*
D03*
D59*
X136500Y131000D02*
D03*
X31400Y443300D02*
D03*
X5700Y312400D02*
D03*
X59800Y347900D02*
D03*
X-59100Y332400D02*
D03*
X82900Y192700D02*
D03*
X-27400Y413500D02*
D03*
X1100Y219800D02*
D03*
X-79900Y201200D02*
D03*
X-93800Y118600D02*
D03*
D60*
X-2500Y42200D02*
D03*
Y37200D02*
D03*
Y32200D02*
D03*
X2500D02*
D03*
Y37200D02*
D03*
Y42200D02*
D03*
D62*
X1575Y287405D02*
D03*
X-48425D02*
D03*
X9843Y390100D02*
D03*
X-9843D02*
D03*
D63*
X82904Y124242D02*
D03*
Y114400D02*
D03*
Y104558D02*
D03*
X95896Y124242D02*
D03*
Y114400D02*
D03*
Y104558D02*
D03*
D64*
X-900Y523000D02*
D03*
M02*
