G04*
G04 #@! TF.GenerationSoftware,Altium Limited,Altium Designer,21.4.1 (30)*
G04*
G04 Layer_Color=16711935*
%FSLAX25Y25*%
%MOIN*%
G70*
G04*
G04 #@! TF.SameCoordinates,8EED4449-2E46-416B-BC71-7F67FA958CFC*
G04*
G04*
G04 #@! TF.FilePolarity,Negative*
G04*
G01*
G75*
%ADD54C,0.07099*%
%ADD55C,0.04700*%
%ADD56C,0.06706*%
%ADD57C,0.12611*%
%ADD66C,0.02600*%
D54*
X1575Y287405D02*
D03*
X-48425D02*
D03*
X9843Y390100D02*
D03*
X-9843D02*
D03*
D55*
X0Y47200D02*
D03*
X4000Y27200D02*
D03*
X-4000D02*
D03*
D56*
X82904Y124242D02*
D03*
Y114400D02*
D03*
Y104558D02*
D03*
X95896Y124242D02*
D03*
Y114400D02*
D03*
Y104558D02*
D03*
D57*
X-900Y523000D02*
D03*
D66*
X46200Y309000D02*
D03*
X11100Y276600D02*
D03*
X47835Y287405D02*
D03*
X-37200Y290400D02*
D03*
X-54607Y311007D02*
D03*
X104200Y120700D02*
D03*
X100800D02*
D03*
X105000Y111600D02*
D03*
X-17500Y376700D02*
D03*
X-15600Y348600D02*
D03*
X26200Y128200D02*
D03*
X-57500Y128000D02*
D03*
X-120000Y130400D02*
D03*
X-120800Y126400D02*
D03*
X-13793Y149593D02*
D03*
X-27800Y130600D02*
D03*
X68600Y97500D02*
D03*
X121300Y188900D02*
D03*
X-24200Y233600D02*
D03*
X-15000Y272700D02*
D03*
X-2000Y338300D02*
D03*
X-9300Y342300D02*
D03*
X-17493Y336793D02*
D03*
X-5644Y501943D02*
D03*
X-6100Y498800D02*
D03*
X-1200Y452200D02*
D03*
X9900Y364700D02*
D03*
X-24700Y221700D02*
D03*
X-19600Y121400D02*
D03*
X-29700Y118900D02*
D03*
X84800Y159700D02*
D03*
X146900Y157200D02*
D03*
X30500Y120600D02*
D03*
X-5900Y454600D02*
D03*
X-476Y441624D02*
D03*
X2500Y431600D02*
D03*
X4900Y401700D02*
D03*
X-46500Y182900D02*
D03*
X30700Y165400D02*
D03*
X35100Y167000D02*
D03*
X-2434Y180166D02*
D03*
X-300Y354500D02*
D03*
X13900Y265600D02*
D03*
X-17400Y230200D02*
D03*
X-22200Y219300D02*
D03*
X-15500Y197300D02*
D03*
X-20800Y190400D02*
D03*
X-23000Y206500D02*
D03*
X-18900Y182300D02*
D03*
X-34200Y179800D02*
D03*
X34400Y176200D02*
D03*
X30000D02*
D03*
X-39100Y179900D02*
D03*
X-24300Y182100D02*
D03*
X-47000Y132200D02*
D03*
X-43700D02*
D03*
X110950Y122900D02*
D03*
X-17800Y317600D02*
D03*
X-25700Y339700D02*
D03*
X-28200Y352100D02*
D03*
X-19800Y325400D02*
D03*
X-21900Y277600D02*
D03*
X-34100Y260000D02*
D03*
X-31700Y235900D02*
D03*
X-27000Y205600D02*
D03*
X-6400Y148820D02*
D03*
X-26600Y179900D02*
D03*
X-28900Y164000D02*
D03*
X43800Y428200D02*
D03*
X12750Y294400D02*
D03*
X39100Y366300D02*
D03*
X35400Y372600D02*
D03*
X4300Y368000D02*
D03*
X-34800Y299700D02*
D03*
X-29576Y212970D02*
D03*
X-48550Y198100D02*
D03*
X-33747Y171800D02*
D03*
X300Y199400D02*
D03*
X-32500Y396800D02*
D03*
X-36900Y357800D02*
D03*
X-45600Y351100D02*
D03*
X-44000Y147200D02*
D03*
X59400Y169800D02*
D03*
X112300Y115700D02*
D03*
X106000Y128500D02*
D03*
X-20700Y101900D02*
D03*
X-25400Y102400D02*
D03*
X-39400Y120800D02*
D03*
X-46300Y123500D02*
D03*
X-46600Y120900D02*
D03*
X-115000Y120800D02*
D03*
X-73400Y118400D02*
D03*
X-37600Y142300D02*
D03*
X20747Y124447D02*
D03*
X18400Y118700D02*
D03*
X-20100Y115200D02*
D03*
X-49900D02*
D03*
X45400Y138700D02*
D03*
X37400Y123400D02*
D03*
X33400Y123100D02*
D03*
X47000Y136600D02*
D03*
X66000Y112400D02*
D03*
X81000Y153400D02*
D03*
X75800Y147700D02*
D03*
X45900Y171200D02*
D03*
X119000Y153800D02*
D03*
X114600Y149100D02*
D03*
X57100Y146400D02*
D03*
X22100Y177800D02*
D03*
X-28000Y176300D02*
D03*
X-29500Y208200D02*
D03*
X-27750Y249400D02*
D03*
X-38100Y208100D02*
D03*
X-32600Y255700D02*
D03*
X-38100Y201300D02*
D03*
X145650Y166250D02*
D03*
X7300Y35500D02*
D03*
X111200Y100200D02*
D03*
X107700Y173800D02*
D03*
Y193800D02*
D03*
X80000Y238500D02*
D03*
X97400Y308300D02*
D03*
X52700Y370700D02*
D03*
X52600Y430500D02*
D03*
X22900Y464900D02*
D03*
X-7800Y121400D02*
D03*
X3200Y386300D02*
D03*
X9200Y518500D02*
D03*
X63700Y109100D02*
D03*
X76700Y166000D02*
D03*
X67400Y174700D02*
D03*
X53300Y202500D02*
D03*
X41100Y241500D02*
D03*
X32200Y339700D02*
D03*
X-20700Y110300D02*
D03*
X-56300Y94700D02*
D03*
X10200Y174500D02*
D03*
X-40900Y219300D02*
D03*
X-22200Y314700D02*
D03*
X8300Y418700D02*
D03*
X41800Y402400D02*
D03*
X-69900Y131400D02*
D03*
X-87700Y141300D02*
D03*
X-56400Y179600D02*
D03*
X-59400Y252500D02*
D03*
X-79500Y283500D02*
D03*
X-50700Y357400D02*
D03*
X-36500Y392500D02*
D03*
X-32100Y435900D02*
D03*
X99400Y97800D02*
D03*
X-49500Y112100D02*
D03*
X62400Y134904D02*
D03*
Y272840D02*
D03*
X-61300Y415300D02*
D03*
X-49000Y156300D02*
D03*
X-36600Y154400D02*
D03*
X-39600Y152100D02*
D03*
X-44800Y158700D02*
D03*
X-19600Y173600D02*
D03*
X-48600Y118900D02*
D03*
X-41500Y159300D02*
D03*
X-35117Y160917D02*
D03*
X24400Y167700D02*
D03*
X21300Y164200D02*
D03*
X-46400Y179000D02*
D03*
X-36700Y157500D02*
D03*
X-39800Y164700D02*
D03*
X-37800Y167100D02*
D03*
X-46500Y140400D02*
D03*
X6200Y80600D02*
D03*
X6400Y113700D02*
D03*
X-34800Y126600D02*
D03*
M02*
