G04*
G04 #@! TF.GenerationSoftware,Altium Limited,Altium Designer,21.4.1 (30)*
G04*
G04 Layer_Physical_Order=2*
G04 Layer_Color=16711680*
%FSLAX25Y25*%
%MOIN*%
G70*
G04*
G04 #@! TF.SameCoordinates,8EED4449-2E46-416B-BC71-7F67FA958CFC*
G04*
G04*
G04 #@! TF.FilePolarity,Positive*
G04*
G01*
G75*
%ADD11C,0.00500*%
%ADD14C,0.01000*%
%ADD53C,0.03900*%
%ADD61C,0.01500*%
%ADD62C,0.06299*%
%ADD63C,0.05906*%
%ADD64C,0.11811*%
%ADD65C,0.01800*%
G36*
X-466Y540903D02*
X664Y540592D01*
X1673Y539996D01*
X2489Y539155D01*
X2773Y538642D01*
X2773Y538642D01*
X2773Y538641D01*
X3569Y537205D01*
X3569Y537204D01*
X3569Y537204D01*
X4362Y535778D01*
X4363Y535778D01*
X4363Y535777D01*
X5153Y534362D01*
X5153Y534362D01*
X5153Y534361D01*
X5941Y532957D01*
X5942Y532957D01*
X5942Y532956D01*
X6727Y531563D01*
X6727Y531563D01*
X6727Y531562D01*
X7510Y530180D01*
X7510Y530180D01*
X7510Y530179D01*
X8290Y528808D01*
X8291Y528807D01*
X8291Y528807D01*
X9068Y527446D01*
X9069Y527446D01*
X9069Y527445D01*
X9843Y526095D01*
X9844Y526095D01*
X9844Y526094D01*
X10616Y524755D01*
X10617Y524754D01*
X10617Y524754D01*
X11386Y523425D01*
X11387Y523425D01*
X11387Y523424D01*
X12154Y522106D01*
X12154Y522106D01*
X12154Y522105D01*
X12918Y520797D01*
X12919Y520797D01*
X12919Y520796D01*
X13680Y519499D01*
X13681Y519499D01*
X13681Y519498D01*
X14440Y518211D01*
X14440Y518211D01*
X14440Y518210D01*
X15197Y516934D01*
X15197Y516934D01*
X15197Y516933D01*
X15951Y515667D01*
X15951Y515666D01*
X15951Y515666D01*
X16702Y514410D01*
X16702Y514410D01*
X16703Y514409D01*
X17451Y513164D01*
X17451Y513163D01*
X17451Y513163D01*
X18197Y511927D01*
X18197Y511927D01*
X18198Y511926D01*
X18940Y510701D01*
X18941Y510701D01*
X18941Y510700D01*
X19681Y509485D01*
X19682Y509484D01*
X19682Y509484D01*
X20419Y508279D01*
X20420Y508278D01*
X20420Y508278D01*
X21154Y507083D01*
X21155Y507082D01*
X21155Y507082D01*
X21887Y505897D01*
X21888Y505896D01*
X21888Y505896D01*
X22617Y504720D01*
X22617Y504720D01*
X22618Y504719D01*
X23344Y503554D01*
X23345Y503554D01*
X23345Y503553D01*
X24069Y502398D01*
X24069Y502397D01*
X24069Y502397D01*
X24791Y501251D01*
X24791Y501251D01*
X24791Y501250D01*
X25510Y500114D01*
X25510Y500114D01*
X25510Y500113D01*
X26226Y498987D01*
X26226Y498986D01*
X26226Y498986D01*
X26939Y497869D01*
X26940Y497869D01*
X26940Y497868D01*
X27650Y496761D01*
X27651Y496761D01*
X27651Y496760D01*
X28358Y495663D01*
X28359Y495662D01*
X28359Y495662D01*
X29063Y494574D01*
X29064Y494573D01*
X29064Y494573D01*
X29766Y493494D01*
X29766Y493494D01*
X29767Y493493D01*
X30466Y492424D01*
X30466Y492424D01*
X30466Y492423D01*
X31163Y491364D01*
X31163Y491363D01*
X31163Y491363D01*
X31857Y490312D01*
X31857Y490312D01*
X31858Y490311D01*
X32548Y489270D01*
X32549Y489270D01*
X32549Y489269D01*
X33237Y488237D01*
X33237Y488237D01*
X33238Y488237D01*
X33923Y487214D01*
X33923Y487214D01*
X33923Y487213D01*
X34606Y486199D01*
X34606Y486199D01*
X34606Y486198D01*
X35286Y485194D01*
X35287Y485194D01*
X35287Y485193D01*
X35963Y484198D01*
X35964Y484197D01*
X35964Y484197D01*
X36638Y483211D01*
X36639Y483210D01*
X36639Y483210D01*
X37310Y482232D01*
X37310Y482232D01*
X37310Y482231D01*
X37979Y481263D01*
X37979Y481262D01*
X37979Y481262D01*
X38645Y480302D01*
X38645Y480302D01*
X38645Y480301D01*
X39308Y479351D01*
X39308Y479350D01*
X39309Y479350D01*
X39968Y478408D01*
X39969Y478407D01*
X39969Y478407D01*
X40626Y477473D01*
X40626Y477473D01*
X40626Y477472D01*
X41280Y476548D01*
X41281Y476548D01*
X41281Y476547D01*
X41932Y475631D01*
X41933Y475631D01*
X41933Y475630D01*
X42581Y474723D01*
X42582Y474723D01*
X42582Y474722D01*
X43227Y473823D01*
X43228Y473823D01*
X43228Y473822D01*
X43870Y472932D01*
X43871Y472932D01*
X43871Y472931D01*
X44511Y472050D01*
X44511Y472049D01*
X44511Y472049D01*
X45148Y471176D01*
X45149Y471175D01*
X45149Y471174D01*
X45783Y470310D01*
X45783Y470309D01*
X45783Y470309D01*
X46414Y469452D01*
X46415Y469452D01*
X46415Y469451D01*
X47043Y468603D01*
X47043Y468603D01*
X47043Y468602D01*
X47668Y467762D01*
X47669Y467762D01*
X47669Y467761D01*
X48291Y466929D01*
X48292Y466929D01*
X48292Y466928D01*
X48911Y466105D01*
X48912Y466104D01*
X48912Y466104D01*
X49528Y465288D01*
X49529Y465288D01*
X49529Y465287D01*
X50142Y464480D01*
X50143Y464479D01*
X50143Y464479D01*
X50753Y463679D01*
X50754Y463679D01*
X50754Y463678D01*
X51362Y462887D01*
X51362Y462887D01*
X51362Y462886D01*
X51967Y462103D01*
X51967Y462102D01*
X51968Y462101D01*
X52569Y461326D01*
X52570Y461326D01*
X52570Y461325D01*
X53168Y460557D01*
X53169Y460557D01*
X53169Y460556D01*
X53764Y459796D01*
X53765Y459796D01*
X53765Y459795D01*
X54358Y459043D01*
X54359Y459043D01*
X54359Y459042D01*
X54948Y458297D01*
X54949Y458297D01*
X54949Y458296D01*
X55536Y457559D01*
X55536Y457559D01*
X55536Y457558D01*
X56120Y456829D01*
X56121Y456829D01*
X56121Y456828D01*
X56701Y456107D01*
X56702Y456106D01*
X56702Y456105D01*
X57279Y455391D01*
X57280Y455391D01*
X57280Y455390D01*
X57855Y454684D01*
X57856Y454683D01*
X57856Y454682D01*
X58427Y453983D01*
X58428Y453983D01*
X58428Y453982D01*
X58996Y453290D01*
X58997Y453290D01*
X58997Y453289D01*
X59563Y452605D01*
X59563Y452604D01*
X59564Y452604D01*
X60126Y451927D01*
X60127Y451926D01*
X60127Y451926D01*
X60686Y451256D01*
X60687Y451255D01*
X60687Y451255D01*
X61243Y450592D01*
X61244Y450592D01*
X61244Y450591D01*
X61798Y449935D01*
X61798Y449935D01*
X61799Y449934D01*
X62349Y449286D01*
X62349Y449285D01*
X62349Y449285D01*
X62897Y448643D01*
X62897Y448643D01*
X62897Y448642D01*
X63441Y448008D01*
X63442Y448007D01*
X63442Y448007D01*
X63983Y447379D01*
X63984Y447379D01*
X63984Y447378D01*
X64522Y446758D01*
X64523Y446758D01*
X64523Y446757D01*
X65058Y446143D01*
X65059Y446143D01*
X65059Y446142D01*
X65591Y445536D01*
X65591Y445535D01*
X65592Y445535D01*
X66120Y444935D01*
X66121Y444934D01*
X66121Y444934D01*
X66646Y444340D01*
X66647Y444340D01*
X66647Y444339D01*
X67170Y443753D01*
X67171Y443752D01*
X67171Y443752D01*
X67690Y443172D01*
X67691Y443172D01*
X67691Y443171D01*
X68207Y442598D01*
X68208Y442597D01*
X68208Y442597D01*
X68721Y442030D01*
X68722Y442030D01*
X68722Y442029D01*
X69232Y441469D01*
X69233Y441469D01*
X69233Y441468D01*
X69740Y440914D01*
X69740Y440914D01*
X69740Y440913D01*
X70244Y440366D01*
X70245Y440366D01*
X70245Y440365D01*
X70745Y439824D01*
X70746Y439824D01*
X70746Y439823D01*
X71244Y439289D01*
X71245Y439289D01*
X71245Y439288D01*
X71739Y438760D01*
X71740Y438760D01*
X71740Y438759D01*
X72231Y438237D01*
X72232Y438237D01*
X72232Y438236D01*
X72720Y437720D01*
X72720Y437720D01*
X72721Y437719D01*
X73205Y437210D01*
X73206Y437209D01*
X73206Y437209D01*
X73808Y436580D01*
X73808Y436580D01*
X73809Y436579D01*
X74405Y435960D01*
X74406Y435960D01*
X74406Y435959D01*
X74998Y435350D01*
X74999Y435349D01*
X74999Y435348D01*
X75585Y434748D01*
X75586Y434748D01*
X75587Y434747D01*
X76168Y434156D01*
X76169Y434156D01*
X76169Y434155D01*
X76745Y433573D01*
X76746Y433573D01*
X76747Y433572D01*
X77318Y432999D01*
X77319Y432999D01*
X77319Y432998D01*
X77885Y432434D01*
X77886Y432434D01*
X77887Y432433D01*
X78448Y431878D01*
X78449Y431877D01*
X78449Y431877D01*
X79005Y431330D01*
X79006Y431330D01*
X79006Y431329D01*
X79557Y430792D01*
X79558Y430791D01*
X79559Y430790D01*
X80104Y430262D01*
X80105Y430261D01*
X80106Y430260D01*
X80647Y429740D01*
X80647Y429740D01*
X80648Y429739D01*
X81290Y429125D01*
X81291Y429125D01*
X81292Y429124D01*
X81926Y428522D01*
X81927Y428522D01*
X81928Y428521D01*
X82555Y427931D01*
X82556Y427931D01*
X82557Y427930D01*
X83177Y427352D01*
X83178Y427351D01*
X83179Y427350D01*
X83892Y426691D01*
X83894Y426690D01*
X83894Y426689D01*
X84598Y426045D01*
X84599Y426044D01*
X84600Y426043D01*
X85391Y425325D01*
X85393Y425325D01*
X85394Y425323D01*
X86172Y424625D01*
X86174Y424624D01*
X86174Y424623D01*
X87128Y423777D01*
X87130Y423776D01*
X87130Y423775D01*
X87640Y423328D01*
X87641Y423327D01*
X87642Y423326D01*
X88665Y422437D01*
X88667Y422436D01*
X88668Y422435D01*
X89697Y421553D01*
X89699Y421552D01*
X89700Y421550D01*
X90735Y420675D01*
X90737Y420675D01*
X90737Y420674D01*
X91257Y420239D01*
X91258Y420238D01*
X91259Y420237D01*
X92094Y419545D01*
X92096Y419545D01*
X92096Y419544D01*
X92668Y419074D01*
X92669Y419074D01*
X92669Y419073D01*
X93072Y418745D01*
X93072Y418745D01*
X93073Y418745D01*
X93469Y418423D01*
X93470Y418423D01*
X93470Y418422D01*
X93784Y418169D01*
X93784Y418169D01*
X93784Y418168D01*
X94094Y417919D01*
X94095Y417919D01*
X94095Y417918D01*
X94325Y417734D01*
X94326Y417734D01*
X94326Y417733D01*
X94554Y417551D01*
X94554Y417551D01*
X94555Y417550D01*
X94781Y417370D01*
X94781Y417370D01*
X94781Y417370D01*
X95006Y417191D01*
X95006Y417191D01*
X95006Y417191D01*
X95155Y417073D01*
X95155Y417073D01*
X95155Y417073D01*
X95303Y416956D01*
X95303Y416956D01*
X95303Y416956D01*
X95450Y416840D01*
X95450Y416840D01*
X95450Y416839D01*
X95596Y416724D01*
X95596Y416724D01*
X95596Y416724D01*
X95741Y416610D01*
X95741Y416610D01*
X95741Y416609D01*
X95885Y416496D01*
X95886Y416496D01*
X95886Y416496D01*
X96029Y416383D01*
X96029Y416383D01*
X96029Y416383D01*
X96172Y416271D01*
X96172Y416271D01*
X96172Y416271D01*
X96313Y416160D01*
X96314Y416160D01*
X96314Y416160D01*
X96454Y416050D01*
X96454Y416050D01*
X96455Y416050D01*
X96594Y415941D01*
X96594Y415941D01*
X96594Y415941D01*
X96664Y415887D01*
X96664Y415887D01*
X96664Y415887D01*
X96733Y415833D01*
X96733Y415833D01*
X96733Y415833D01*
X96803Y415779D01*
X96803Y415779D01*
X96803Y415779D01*
X96872Y415725D01*
X96872Y415725D01*
X96872Y415725D01*
X96940Y415671D01*
X96940Y415671D01*
X96940Y415671D01*
X97009Y415618D01*
X97009Y415618D01*
X97009Y415618D01*
X97077Y415565D01*
X97077Y415565D01*
X97077Y415565D01*
X97145Y415512D01*
X97145Y415512D01*
X97145Y415512D01*
X97213Y415460D01*
X97213Y415460D01*
X97213Y415459D01*
X97281Y415407D01*
X97281Y415407D01*
X97281Y415407D01*
X97348Y415355D01*
X97348Y415355D01*
X97348Y415355D01*
X97415Y415303D01*
X97415Y415303D01*
X97416Y415303D01*
X97482Y415251D01*
X97482Y415251D01*
X97482Y415251D01*
X97549Y415199D01*
X97549Y415199D01*
X97549Y415199D01*
X97616Y415148D01*
X97616Y415148D01*
X97616Y415148D01*
X97682Y415097D01*
X97682Y415097D01*
X97682Y415097D01*
X97748Y415046D01*
X97748Y415046D01*
X97748Y415046D01*
X97814Y414995D01*
X97814Y414995D01*
X97814Y414995D01*
X97879Y414944D01*
X97880Y414944D01*
X97880Y414944D01*
X97945Y414894D01*
X97945Y414894D01*
X97945Y414894D01*
X98010Y414844D01*
X98010Y414844D01*
X98010Y414843D01*
X98075Y414793D01*
X98075Y414793D01*
X98075Y414793D01*
X98204Y414694D01*
X98204Y414694D01*
X98204Y414694D01*
X98269Y414644D01*
X98269D01*
X98333Y414595D01*
X98333Y414595D01*
X98333Y414595D01*
X98396Y414546D01*
X98397Y414546D01*
X98397Y414546D01*
X98460Y414497D01*
X98460Y414497D01*
X98460Y414497D01*
X98587Y414400D01*
X98587Y414400D01*
X98587Y414400D01*
X98650Y414352D01*
X98650Y414352D01*
X98650Y414352D01*
X98712Y414304D01*
X98712Y414304D01*
X98712Y414304D01*
X98775Y414256D01*
X98775Y414256D01*
X98775Y414256D01*
X98837Y414208D01*
X98837Y414208D01*
X98837Y414208D01*
X98899Y414160D01*
X98899D01*
X98899Y414160D01*
X98961Y414113D01*
X98961Y414113D01*
X98961Y414113D01*
X99023Y414066D01*
X99023Y414066D01*
X99023Y414066D01*
X99145Y413972D01*
X99145Y413972D01*
X99145Y413972D01*
X99266Y413879D01*
X99267Y413879D01*
X99267Y413879D01*
X99327Y413833D01*
X99327Y413833D01*
X99327Y413833D01*
X99387Y413787D01*
X99447Y413741D01*
X99447Y413741D01*
X99447Y413741D01*
X99567Y413650D01*
X99567Y413650D01*
X99567Y413650D01*
X99626Y413604D01*
X99626D01*
X99685Y413559D01*
X99685Y413559D01*
X99744Y413514D01*
X99744Y413514D01*
X99744Y413514D01*
X99802Y413469D01*
X99802Y413469D01*
X99861Y413425D01*
X99919Y413380D01*
X99919Y413380D01*
X99919Y413380D01*
X99977Y413336D01*
X99977D01*
X100035Y413292D01*
X100035Y413292D01*
X100035Y413292D01*
X100092Y413248D01*
X100092Y413248D01*
X100149Y413204D01*
X100149D01*
X100320Y413074D01*
X100376Y413031D01*
X100376D01*
X100544Y412903D01*
X100654Y412818D01*
X100654Y412818D01*
X100709Y412776D01*
X100709Y412776D01*
X100764Y412734D01*
X100764Y412734D01*
X100819Y412692D01*
X100873Y412651D01*
X100981Y412568D01*
X100981D01*
X101088Y412486D01*
X101088Y412486D01*
X101141Y412446D01*
X101141D01*
X101246Y412365D01*
X101351Y412284D01*
X101403Y412244D01*
X101403Y412244D01*
X101454Y412205D01*
X101454Y412205D01*
X101506Y412165D01*
X101557Y412125D01*
X101608Y412086D01*
X101659Y412047D01*
X101760Y411969D01*
X101760D01*
X101810Y411931D01*
X101910Y411853D01*
X102008Y411777D01*
X102106Y411702D01*
X102106Y411702D01*
X102202Y411626D01*
X102298Y411552D01*
X102298Y411552D01*
X102393Y411478D01*
X102487Y411404D01*
X102580Y411332D01*
X102672Y411259D01*
X102672Y411259D01*
X102763Y411188D01*
X102853Y411117D01*
X102943Y411046D01*
X103030Y410976D01*
X103118Y410907D01*
X103204Y410837D01*
X103289Y410769D01*
X103374Y410701D01*
X103458Y410634D01*
X103540Y410567D01*
X103621Y410501D01*
X103702Y410435D01*
X103781Y410370D01*
X103861Y410305D01*
X103938Y410240D01*
X104015Y410177D01*
X104090Y410114D01*
X104166Y410050D01*
X104239Y409988D01*
X104312Y409926D01*
X104383Y409866D01*
X104454Y409805D01*
X104525Y409743D01*
X104525Y409743D01*
X104593Y409685D01*
X104662Y409624D01*
X104729Y409565D01*
X104795Y409506D01*
X104859Y409449D01*
X104923Y409391D01*
X104987Y409333D01*
X104987D01*
X105048Y409277D01*
X105110Y409220D01*
X105169Y409164D01*
X105229Y409108D01*
X105288Y409052D01*
X105344Y408998D01*
X105400Y408944D01*
X105456Y408890D01*
X105509Y408836D01*
X105563Y408783D01*
X105613Y408732D01*
X105666Y408678D01*
X105715Y408626D01*
X105764Y408575D01*
X105812Y408524D01*
X105860Y408472D01*
X105905Y408422D01*
X105951Y408372D01*
X105994Y408323D01*
X106038Y408272D01*
X106080Y408224D01*
X106121Y408176D01*
X106160Y408128D01*
X106200Y408080D01*
X106238Y408033D01*
X106275Y407985D01*
X106310Y407939D01*
X106345Y407893D01*
X106378Y407848D01*
X106428Y407779D01*
X106474Y407712D01*
X106519Y407646D01*
X106561Y407580D01*
X106601Y407516D01*
X106639Y407452D01*
X106674Y407389D01*
X106708Y407327D01*
X106739Y407266D01*
X106768Y407205D01*
X106795Y407146D01*
X106819Y407087D01*
X106843Y407029D01*
X106863Y406972D01*
X106882Y406915D01*
X106899Y406859D01*
X106914Y406804D01*
X106927Y406753D01*
X106936Y406708D01*
X106945Y406664D01*
X106951Y406624D01*
X106957Y406581D01*
X106962Y406542D01*
X106966Y406502D01*
X106968Y406462D01*
X106970Y406424D01*
X106971Y406385D01*
X106971Y406347D01*
X106969Y406293D01*
X106967Y406250D01*
X106963Y406206D01*
X106958Y406164D01*
X106952Y406119D01*
X106946Y406080D01*
X106938Y406037D01*
X106929Y405994D01*
X106918Y405945D01*
X106918Y405942D01*
X106917Y405940D01*
X106904Y405880D01*
X106888Y405811D01*
X106872Y405743D01*
X106854Y405676D01*
X106839Y405621D01*
X106813Y405530D01*
X106793Y405463D01*
X106775Y405408D01*
X106750Y405334D01*
X106728Y405272D01*
X106707Y405213D01*
X106685Y405155D01*
X106662Y405097D01*
X106643Y405049D01*
X106620Y404995D01*
X106597Y404941D01*
X106568Y404876D01*
X106543Y404822D01*
X106518Y404769D01*
X106485Y404704D01*
X106459Y404652D01*
X106414Y404565D01*
X106384Y404510D01*
X106352Y404453D01*
X106320Y404397D01*
X106287Y404341D01*
X106254Y404286D01*
X106219Y404229D01*
X106185Y404175D01*
X106149Y404119D01*
X106112Y404064D01*
X106075Y404009D01*
X106037Y403954D01*
X105999Y403899D01*
X105958Y403844D01*
X105919Y403790D01*
X105878Y403736D01*
X105836Y403681D01*
X105794Y403628D01*
X105751Y403574D01*
X105707Y403521D01*
X105662Y403467D01*
X105617Y403414D01*
X105571Y403361D01*
X105524Y403307D01*
X105476Y403255D01*
X105429Y403203D01*
X105380Y403150D01*
X105330Y403098D01*
X105280Y403046D01*
X105229Y402993D01*
X105177Y402942D01*
X105125Y402890D01*
X105072Y402839D01*
X105017Y402787D01*
X104963Y402736D01*
X104908Y402685D01*
X104852Y402634D01*
X104795Y402584D01*
X104737Y402533D01*
X104680Y402483D01*
X104621Y402433D01*
X104562Y402384D01*
X104502Y402333D01*
X104441Y402284D01*
X104379Y402234D01*
X104318Y402186D01*
X104254Y402136D01*
X104191Y402087D01*
X104127Y402039D01*
X104063Y401991D01*
X103997Y401942D01*
X103930Y401893D01*
X103865Y401846D01*
X103797Y401798D01*
X103728Y401750D01*
X103660Y401703D01*
X103591Y401656D01*
X103521Y401609D01*
X103451Y401563D01*
X103378Y401515D01*
X103307Y401469D01*
X103234Y401423D01*
X103162Y401377D01*
X103087Y401331D01*
X103014Y401285D01*
X102938Y401239D01*
X102863Y401194D01*
X102787Y401150D01*
X102709Y401104D01*
X102633Y401060D01*
X102554Y401015D01*
X102476Y400971D01*
X102395Y400926D01*
X102315Y400882D01*
X102237Y400839D01*
X102154Y400795D01*
X102073Y400752D01*
X101992Y400709D01*
X101909Y400666D01*
X101824Y400623D01*
X101742Y400581D01*
X101658Y400538D01*
X101573Y400496D01*
X101487Y400454D01*
X101399Y400412D01*
X101313Y400370D01*
X101227Y400329D01*
X101139Y400288D01*
X101051Y400247D01*
X100961Y400206D01*
X100873Y400166D01*
X100782Y400125D01*
X100692Y400085D01*
X100600Y400045D01*
X100510Y400006D01*
X100416Y399965D01*
X100416Y399965D01*
X100326Y399927D01*
X100231Y399887D01*
X100137Y399848D01*
X100043Y399809D01*
X99949Y399771D01*
X99855Y399733D01*
X99758Y399694D01*
X99663Y399656D01*
X99567Y399619D01*
X99468Y399580D01*
X99372Y399544D01*
X99273Y399506D01*
X99173Y399469D01*
X99076Y399433D01*
X98977Y399396D01*
X98875Y399359D01*
X98776Y399324D01*
X98674Y399287D01*
X98572Y399251D01*
X98471Y399216D01*
X98369Y399181D01*
X98265Y399145D01*
X98162Y399110D01*
X98058Y399075D01*
X97954Y399041D01*
X97954Y399041D01*
X97850Y399006D01*
X97746Y398973D01*
X97640Y398938D01*
X97534Y398905D01*
X97429Y398871D01*
X97322Y398838D01*
X97215Y398805D01*
X97106Y398771D01*
X96997Y398739D01*
X96890Y398706D01*
X96782Y398674D01*
X96672Y398642D01*
X96563Y398610D01*
X96451Y398578D01*
X96342Y398547D01*
X96230Y398515D01*
X96119Y398484D01*
X96119Y398484D01*
X96009Y398453D01*
X96009D01*
X95895Y398422D01*
X95784Y398392D01*
X95671Y398361D01*
X95558Y398331D01*
X95444Y398301D01*
X95330Y398271D01*
X95217Y398242D01*
X95102Y398213D01*
X94987Y398183D01*
X94871Y398154D01*
X94756Y398126D01*
X94639Y398097D01*
X94523Y398068D01*
X94406Y398040D01*
X94289Y398012D01*
X94172Y397985D01*
X94054Y397957D01*
X93876Y397916D01*
X93700Y397875D01*
X93521Y397835D01*
X93340Y397795D01*
X93161Y397756D01*
X92979Y397717D01*
X92797Y397679D01*
X92617Y397641D01*
X92432Y397603D01*
X92250Y397567D01*
X92064Y397530D01*
X91881Y397494D01*
X91694Y397458D01*
X91509Y397423D01*
X91321Y397388D01*
X91135Y397353D01*
X90947Y397319D01*
X90759Y397286D01*
X90759D01*
X90569Y397252D01*
X90381Y397220D01*
X90189Y397187D01*
X89999Y397156D01*
X89808Y397124D01*
X89616Y397093D01*
X89423Y397063D01*
X89231Y397032D01*
X89039Y397003D01*
X88845Y396974D01*
X88651Y396945D01*
X88455Y396916D01*
X88260Y396888D01*
X88001Y396852D01*
X87738Y396816D01*
X87476Y396780D01*
X87476Y396780D01*
X87213Y396746D01*
X86951Y396713D01*
X86685Y396679D01*
X86422Y396647D01*
X86156Y396616D01*
X85889Y396585D01*
X85622Y396555D01*
X85356Y396526D01*
X85089Y396498D01*
X84752Y396463D01*
X84418Y396429D01*
X84082Y396397D01*
X83744Y396366D01*
X83405Y396336D01*
X83001Y396301D01*
X82593Y396268D01*
X82186Y396237D01*
X81780Y396207D01*
X81301Y396174D01*
X80758Y396140D01*
X80145Y396104D01*
X79464Y396068D01*
X78645Y396031D01*
X78171Y396011D01*
X77222Y395981D01*
X76274Y395958D01*
X75326Y395943D01*
X74852Y395940D01*
X73644Y395938D01*
X72848Y395944D01*
X72252Y395953D01*
X71726Y395963D01*
X71270Y395974D01*
X70813Y395987D01*
X70425Y396000D01*
X70039Y396014D01*
X69718Y396026D01*
X69398Y396040D01*
X69079Y396055D01*
X68764Y396071D01*
X68512Y396084D01*
X68260Y396098D01*
X68260Y396098D01*
X68011Y396112D01*
X67763Y396127D01*
X67513Y396143D01*
X67268Y396159D01*
X67268Y396159D01*
X67021Y396176D01*
X66778Y396194D01*
X66594Y396207D01*
X66412Y396221D01*
X66231Y396235D01*
X66052Y396250D01*
X65870Y396265D01*
X65692Y396280D01*
X65513Y396295D01*
X65337Y396311D01*
X65160Y396327D01*
X64982Y396344D01*
X64807Y396360D01*
X64633Y396377D01*
X64460Y396395D01*
X64285Y396413D01*
X64285Y396413D01*
X64114Y396431D01*
X63942Y396449D01*
X63772Y396468D01*
X63601Y396487D01*
X63433Y396507D01*
X63265Y396526D01*
X63154Y396540D01*
X63042Y396553D01*
X63042D01*
X62932Y396567D01*
X62932Y396567D01*
X62821Y396581D01*
X62821D01*
X62711Y396594D01*
X62711Y396594D01*
X62602Y396608D01*
X62492Y396622D01*
X62492D01*
X62383Y396637D01*
X62275Y396651D01*
X62168Y396666D01*
X62059Y396680D01*
X62059D01*
X61953Y396695D01*
X61845Y396710D01*
X61740Y396725D01*
X61634Y396741D01*
X61528Y396756D01*
X61424Y396772D01*
X61319Y396787D01*
X61215Y396803D01*
X61111Y396819D01*
X61007Y396835D01*
X60905Y396851D01*
X60803Y396867D01*
X60700Y396884D01*
X60600Y396901D01*
X60499Y396917D01*
X60399Y396934D01*
X60299Y396951D01*
X60198Y396969D01*
X60100Y396986D01*
X60001Y397003D01*
X59904Y397021D01*
X59805Y397038D01*
X59709Y397056D01*
X59611Y397074D01*
X59516Y397092D01*
X59421Y397110D01*
X59324Y397129D01*
X59231Y397147D01*
X59231Y397147D01*
X59136Y397166D01*
X59042Y397184D01*
X58949Y397203D01*
X58856Y397222D01*
X58764Y397241D01*
X58673Y397260D01*
X58582Y397280D01*
X58491Y397299D01*
X58403Y397318D01*
X58313Y397338D01*
X58223Y397358D01*
X58136Y397378D01*
X58048Y397398D01*
X58048Y397398D01*
X57960Y397418D01*
X57873Y397439D01*
X57789Y397459D01*
X57702Y397479D01*
X57618Y397500D01*
X57534Y397521D01*
X57449Y397542D01*
X57366Y397563D01*
X57282Y397584D01*
X57200Y397605D01*
X57120Y397627D01*
X56997Y397659D01*
X56919Y397680D01*
X56838Y397703D01*
X56760Y397724D01*
X56681Y397746D01*
X56603Y397769D01*
X56527Y397791D01*
X56452Y397813D01*
X56376Y397835D01*
X56299Y397858D01*
X56226Y397881D01*
X56152Y397903D01*
X56077Y397927D01*
X56006Y397949D01*
X55932Y397973D01*
X55862Y397996D01*
X55792Y398019D01*
X55721Y398042D01*
X55651Y398066D01*
X55582Y398090D01*
X55552Y398088D01*
X55528Y398105D01*
X55349Y398076D01*
X55168Y398064D01*
X55149Y398042D01*
X55119Y398037D01*
X55014Y397890D01*
X54894Y397754D01*
X54896Y397724D01*
X54879Y397700D01*
X54909Y397521D01*
X54920Y397340D01*
X54942Y397321D01*
X54947Y397291D01*
X55700Y396087D01*
X55700Y396086D01*
X55700Y396086D01*
X56450Y394889D01*
X56450Y394889D01*
X56450Y394888D01*
X57197Y393700D01*
X57198Y393700D01*
X57198Y393700D01*
X57942Y392520D01*
X57942Y392519D01*
X57942Y392519D01*
X58684Y391348D01*
X58684Y391347D01*
X58684Y391347D01*
X59423Y390184D01*
X59423Y390183D01*
X59423Y390183D01*
X60159Y389028D01*
X60159Y389028D01*
X60159Y389027D01*
X60892Y387880D01*
X60893Y387880D01*
X60893Y387880D01*
X61623Y386741D01*
X61623Y386741D01*
X61623Y386740D01*
X62351Y385610D01*
X62351Y385610D01*
X62351Y385609D01*
X63076Y384487D01*
X63076Y384487D01*
X63076Y384487D01*
X63798Y383372D01*
X63798Y383372D01*
X63798Y383372D01*
X64517Y382265D01*
X64517Y382265D01*
X64518Y382265D01*
X65234Y381167D01*
X65234Y381167D01*
X65234Y381166D01*
X65947Y380076D01*
X65948Y380076D01*
X65948Y380075D01*
X66658Y378993D01*
X66659Y378993D01*
X66659Y378993D01*
X67367Y377919D01*
X67367Y377918D01*
X67367Y377918D01*
X68072Y376852D01*
X68072Y376851D01*
X68072Y376851D01*
X68775Y375793D01*
X68775Y375793D01*
X68775Y375792D01*
X69474Y374742D01*
X69475Y374741D01*
X69475Y374741D01*
X70171Y373698D01*
X70172Y373698D01*
X70172Y373697D01*
X70866Y372663D01*
X70866Y372662D01*
X70866Y372662D01*
X71557Y371635D01*
X71558Y371635D01*
X71558Y371634D01*
X72246Y370615D01*
X72246Y370615D01*
X72246Y370614D01*
X72932Y369603D01*
X72932Y369602D01*
X72932Y369602D01*
X73615Y368598D01*
X73615Y368598D01*
X73616Y368597D01*
X74296Y367601D01*
X74296Y367601D01*
X74296Y367600D01*
X74973Y366612D01*
X74974Y366611D01*
X74974Y366611D01*
X75648Y365630D01*
X75648Y365630D01*
X75649Y365629D01*
X76320Y364655D01*
X76321Y364655D01*
X76321Y364655D01*
X76990Y363689D01*
X76990Y363688D01*
X76990Y363688D01*
X77656Y362730D01*
X77657Y362729D01*
X77657Y362729D01*
X78320Y361778D01*
X78321Y361777D01*
X78321Y361777D01*
X78981Y360833D01*
X78982Y360833D01*
X78982Y360833D01*
X79640Y359896D01*
X79640Y359896D01*
X79640Y359895D01*
X80295Y358966D01*
X80296Y358966D01*
X80296Y358966D01*
X80948Y358044D01*
X80949Y358044D01*
X80949Y358043D01*
X81599Y357129D01*
X81599Y357129D01*
X81599Y357128D01*
X82246Y356221D01*
X82246Y356221D01*
X82247Y356221D01*
X82891Y355321D01*
X82891Y355321D01*
X82891Y355320D01*
X83533Y354428D01*
X83533Y354427D01*
X83533Y354427D01*
X84172Y353541D01*
X84172Y353541D01*
X84172Y353540D01*
X84808Y352662D01*
X84809Y352662D01*
X84809Y352661D01*
X85442Y351790D01*
X85443Y351790D01*
X85443Y351790D01*
X86073Y350925D01*
X86074Y350925D01*
X86074Y350925D01*
X86702Y350068D01*
X86702Y350067D01*
X86702Y350067D01*
X87327Y349217D01*
X87328Y349217D01*
X87328Y349216D01*
X87950Y348373D01*
X87951Y348373D01*
X87951Y348372D01*
X88570Y347536D01*
X88571Y347536D01*
X88571Y347535D01*
X89188Y346706D01*
X89188Y346706D01*
X89188Y346706D01*
X89803Y345883D01*
X89803Y345883D01*
X89803Y345883D01*
X90415Y345067D01*
X90415Y345067D01*
X90415Y345066D01*
X91024Y344258D01*
X91025Y344258D01*
X91025Y344257D01*
X91631Y343455D01*
X91631Y343455D01*
X91632Y343455D01*
X92235Y342660D01*
X92235Y342659D01*
X92235Y342659D01*
X92836Y341871D01*
X92837Y341870D01*
X92837Y341870D01*
X93435Y341088D01*
X93435Y341088D01*
X93436Y341087D01*
X94031Y340313D01*
X94031Y340312D01*
X94031Y340312D01*
X94624Y339544D01*
X94625Y339543D01*
X94625Y339543D01*
X95214Y338781D01*
X95215Y338781D01*
X95215Y338780D01*
X95802Y338025D01*
X95803Y338025D01*
X95803Y338024D01*
X96388Y337276D01*
X96388Y337276D01*
X96388Y337275D01*
X96970Y336533D01*
X96971Y336533D01*
X96971Y336532D01*
X97550Y335797D01*
X97550Y335797D01*
X97551Y335796D01*
X98127Y335067D01*
X98128Y335067D01*
X98128Y335066D01*
X98702Y334344D01*
X98702Y334344D01*
X98702Y334343D01*
X99274Y333627D01*
X99274Y333627D01*
X99274Y333626D01*
X99843Y332916D01*
X99843Y332916D01*
X99843Y332915D01*
X100409Y332212D01*
X100410Y332212D01*
X100410Y332211D01*
X100973Y331514D01*
X100973Y331514D01*
X100974Y331513D01*
X101534Y330822D01*
X101535Y330822D01*
X101535Y330821D01*
X102093Y330137D01*
X102093Y330136D01*
X102093Y330136D01*
X102648Y329458D01*
X102649Y329457D01*
X102649Y329457D01*
X103202Y328784D01*
X103202Y328784D01*
X103202Y328784D01*
X103752Y328117D01*
X103753Y328117D01*
X103753Y328117D01*
X104300Y327457D01*
X104301Y327456D01*
X104301Y327456D01*
X104846Y326802D01*
X104846Y326802D01*
X104846Y326801D01*
X105388Y326153D01*
X105389Y326153D01*
X105389Y326152D01*
X105928Y325511D01*
X105929Y325510D01*
X105929Y325510D01*
X106466Y324874D01*
X106466Y324874D01*
X106466Y324873D01*
X107000Y324243D01*
X107001Y324243D01*
X107001Y324242D01*
X107532Y323618D01*
X107533Y323618D01*
X107533Y323617D01*
X108062Y323000D01*
X108063Y322999D01*
X108063Y322998D01*
X108589Y322386D01*
X108589Y322386D01*
X108589Y322386D01*
X109113Y321779D01*
X109114Y321779D01*
X109114Y321778D01*
X109635Y321178D01*
X109635Y321178D01*
X109635Y321177D01*
X110153Y320582D01*
X110154Y320582D01*
X110154Y320581D01*
X110670Y319992D01*
X110670Y319992D01*
X110671Y319991D01*
X111184Y319408D01*
X111184Y319408D01*
X111185Y319407D01*
X111695Y318830D01*
X111695Y318829D01*
X111696Y318829D01*
X112203Y318257D01*
X112204Y318256D01*
X112204Y318256D01*
X112709Y317690D01*
X112710Y317689D01*
X112710Y317689D01*
X113213Y317128D01*
X113213Y317128D01*
X113213Y317127D01*
X113713Y316572D01*
X113714Y316572D01*
X113714Y316571D01*
X114211Y316021D01*
X114212Y316021D01*
X114212Y316020D01*
X114707Y315476D01*
X114708Y315476D01*
X114708Y315475D01*
X115200Y314937D01*
X115200Y314936D01*
X115201Y314936D01*
X115690Y314403D01*
X115691Y314402D01*
X115691Y314402D01*
X116178Y313874D01*
X116179Y313873D01*
X116179Y313873D01*
X116663Y313350D01*
X116664Y313350D01*
X116664Y313349D01*
X117146Y312832D01*
X117146Y312832D01*
X117147Y312831D01*
X117626Y312319D01*
X117626Y312319D01*
X117627Y312318D01*
X118103Y311812D01*
X118104Y311812D01*
X118104Y311811D01*
X118578Y311310D01*
X118579Y311310D01*
X118579Y311309D01*
X119050Y310813D01*
X119051Y310812D01*
X119051Y310812D01*
X119520Y310321D01*
X119520Y310321D01*
X119521Y310320D01*
X119987Y309834D01*
X119988Y309834D01*
X119988Y309833D01*
X120451Y309353D01*
X120452Y309352D01*
X120452Y309352D01*
X120913Y308876D01*
X120914Y308876D01*
X120914Y308875D01*
X121373Y308405D01*
X121373Y308404D01*
X121374Y308404D01*
X121830Y307938D01*
X121830Y307938D01*
X121831Y307937D01*
X122284Y307477D01*
X122285Y307477D01*
X122285Y307476D01*
X122736Y307020D01*
X122736Y307020D01*
X122737Y307019D01*
X123185Y306569D01*
X123186Y306569D01*
X123186Y306568D01*
X123632Y306122D01*
X123632Y306122D01*
X123633Y306121D01*
X124076Y305681D01*
X124076Y305680D01*
X124077Y305680D01*
X124517Y305244D01*
X124518Y305244D01*
X124518Y305243D01*
X124956Y304812D01*
X124957Y304812D01*
X124957Y304811D01*
X125392Y304384D01*
X125393Y304384D01*
X125394Y304383D01*
X125826Y303962D01*
X125827Y303962D01*
X125828Y303961D01*
X126258Y303544D01*
X126259Y303544D01*
X126259Y303543D01*
X126687Y303131D01*
X126687Y303131D01*
X126688Y303130D01*
X127113Y302723D01*
X127114Y302722D01*
X127114Y302722D01*
X127537Y302319D01*
X127537Y302318D01*
X127538Y302318D01*
X127958Y301919D01*
X127959Y301919D01*
X127959Y301918D01*
X128377Y301525D01*
X128377Y301524D01*
X128378Y301524D01*
X128793Y301134D01*
X128794Y301134D01*
X128794Y301133D01*
X129207Y300749D01*
X129207Y300748D01*
X129208Y300748D01*
X129618Y300368D01*
X129619Y300367D01*
X129619Y300367D01*
X130026Y299991D01*
X130027Y299991D01*
X130027Y299990D01*
X130432Y299619D01*
X130433Y299618D01*
X130434Y299618D01*
X130836Y299251D01*
X130837Y299250D01*
X130837Y299250D01*
X131237Y298887D01*
X131238Y298887D01*
X131238Y298886D01*
X131636Y298528D01*
X131637Y298527D01*
X131637Y298527D01*
X132032Y298172D01*
X132033Y298172D01*
X132033Y298171D01*
X132425Y297822D01*
X132426Y297821D01*
X132427Y297821D01*
X132817Y297475D01*
X132817Y297475D01*
X132818Y297474D01*
X133205Y297133D01*
X133206Y297132D01*
X133206Y297132D01*
X133591Y296795D01*
X133592Y296794D01*
X133592Y296794D01*
X133975Y296461D01*
X133976Y296460D01*
X133976Y296460D01*
X134356Y296130D01*
X134357Y296130D01*
X134357Y296129D01*
X134735Y295805D01*
X134735Y295804D01*
X134736Y295803D01*
X135111Y295483D01*
X135112Y295482D01*
X135112Y295482D01*
X135484Y295165D01*
X135485Y295164D01*
X135486Y295164D01*
X135856Y294851D01*
X135856Y294851D01*
X135857Y294850D01*
X136224Y294541D01*
X136225Y294541D01*
X136225Y294540D01*
X136591Y294235D01*
X136591Y294235D01*
X136592Y294234D01*
X136954Y293933D01*
X136955Y293932D01*
X136955Y293932D01*
X137316Y293634D01*
X137316Y293634D01*
X137317Y293633D01*
X137674Y293340D01*
X137675Y293340D01*
X137676Y293339D01*
X138031Y293049D01*
X138032Y293049D01*
X138032Y293048D01*
X138385Y292762D01*
X138385Y292762D01*
X138386Y292761D01*
X138736Y292479D01*
X138737Y292479D01*
X138737Y292478D01*
X139085Y292199D01*
X139086Y292199D01*
X139086Y292198D01*
X139432Y291923D01*
X139432Y291923D01*
X139433Y291922D01*
X139776Y291651D01*
X139776Y291651D01*
X139777Y291650D01*
X140117Y291383D01*
X140118Y291382D01*
X140118Y291382D01*
X140456Y291117D01*
X140457Y291117D01*
X140458Y291116D01*
X140793Y290856D01*
X140794Y290856D01*
X140794Y290855D01*
X141127Y290598D01*
X141128Y290598D01*
X141129Y290597D01*
X141459Y290343D01*
X141460Y290343D01*
X141460Y290342D01*
X141788Y290092D01*
X141789Y290092D01*
X141790Y290091D01*
X142115Y289844D01*
X142116Y289844D01*
X142117Y289844D01*
X142440Y289600D01*
X142441Y289600D01*
X142441Y289599D01*
X142762Y289359D01*
X142763Y289359D01*
X142763Y289358D01*
X143081Y289122D01*
X143082Y289121D01*
X143083Y289121D01*
X143477Y288829D01*
X143478Y288829D01*
X143479Y288828D01*
X143870Y288542D01*
X143871Y288542D01*
X143871Y288541D01*
X144258Y288260D01*
X144259Y288259D01*
X144260Y288259D01*
X144643Y287982D01*
X144644Y287982D01*
X144645Y287981D01*
X145024Y287710D01*
X145025Y287710D01*
X145026Y287709D01*
X145401Y287442D01*
X145402Y287442D01*
X145403Y287441D01*
X145774Y287179D01*
X145775Y287179D01*
X145776Y287178D01*
X146144Y286921D01*
X146145Y286921D01*
X146146Y286920D01*
X146510Y286668D01*
X146511Y286668D01*
X146512Y286667D01*
X146944Y286370D01*
X146945Y286370D01*
X146946Y286369D01*
X147372Y286079D01*
X147374Y286078D01*
X147374Y286077D01*
X147796Y285793D01*
X147797Y285793D01*
X147798Y285792D01*
X148213Y285515D01*
X148215Y285514D01*
X148216Y285513D01*
X148694Y285197D01*
X148696Y285197D01*
X148696Y285196D01*
X149234Y284845D01*
X149236Y284844D01*
X149237Y284843D01*
X149830Y284461D01*
X149832Y284460D01*
X149833Y284459D01*
X150250Y284194D01*
X150252Y284194D01*
X150253Y284192D01*
X151090Y283668D01*
X151092Y283667D01*
X151094Y283665D01*
X151936Y283149D01*
X151938Y283148D01*
X151940Y283146D01*
X152786Y282637D01*
X152788Y282637D01*
X152789Y282635D01*
X153214Y282384D01*
X153216Y282383D01*
X153217Y282382D01*
X153669Y282117D01*
X153670Y282117D01*
X153671Y282116D01*
X154004Y281923D01*
X154005Y281923D01*
X154006Y281922D01*
X154280Y281764D01*
X154280Y281764D01*
X154281Y281764D01*
X154497Y281640D01*
X154498Y281640D01*
X154498Y281639D01*
X154712Y281518D01*
X154713Y281517D01*
X154713Y281517D01*
X154872Y281427D01*
X154873Y281427D01*
X154873Y281427D01*
X155031Y281337D01*
X155031Y281337D01*
X155031Y281337D01*
X155187Y281249D01*
X155188Y281249D01*
X155188Y281249D01*
X155343Y281162D01*
X155344Y281162D01*
X155344Y281161D01*
X155498Y281075D01*
X155498Y281075D01*
X155498Y281075D01*
X155600Y281018D01*
X155600Y281018D01*
X155601Y281018D01*
X155702Y280962D01*
X155702Y280962D01*
X155702Y280961D01*
X155803Y280906D01*
X155803Y280906D01*
X155803Y280906D01*
X155903Y280850D01*
X155903Y280850D01*
X155904Y280850D01*
X156003Y280795D01*
X156003Y280795D01*
X156004Y280795D01*
X156103Y280740D01*
X156103Y280740D01*
X156103Y280740D01*
X156201Y280686D01*
X156201Y280686D01*
X156202Y280686D01*
X156299Y280632D01*
X156300Y280632D01*
X156300Y280632D01*
X156397Y280579D01*
X156397Y280579D01*
X156397Y280578D01*
X156494Y280526D01*
X156494Y280526D01*
X156494Y280525D01*
X156590Y280473D01*
X156590Y280473D01*
X156590Y280473D01*
X156686Y280421D01*
X156686Y280421D01*
X156686Y280421D01*
X156781Y280369D01*
X156781Y280369D01*
X156781Y280369D01*
X156876Y280318D01*
X156876Y280318D01*
X156876Y280317D01*
X156970Y280267D01*
X156970Y280267D01*
X156970Y280266D01*
X157063Y280216D01*
X157063Y280216D01*
X157063Y280216D01*
X157156Y280166D01*
X157156Y280166D01*
X157156Y280166D01*
X157248Y280116D01*
X157248Y280116D01*
X157249Y280116D01*
X157340Y280067D01*
X157340Y280067D01*
X157340Y280067D01*
X157431Y280018D01*
X157431Y280018D01*
X157431Y280018D01*
X157522Y279969D01*
X157522Y279969D01*
X157522Y279969D01*
X157611Y279921D01*
X157612Y279921D01*
X157612Y279921D01*
X157701Y279873D01*
X157701Y279873D01*
X157701Y279873D01*
X157790Y279826D01*
X157790Y279826D01*
X157790Y279825D01*
X157878Y279779D01*
X157878Y279779D01*
X157878Y279778D01*
X157965Y279732D01*
X157965Y279732D01*
X157966Y279732D01*
X158052Y279685D01*
X158052Y279685D01*
X158052Y279685D01*
X158139Y279639D01*
X158139Y279639D01*
X158139Y279639D01*
X158224Y279594D01*
X158224Y279594D01*
X158225Y279593D01*
X158310Y279548D01*
X158310Y279548D01*
X158310Y279548D01*
X158394Y279503D01*
X158394Y279503D01*
X158394Y279503D01*
X158478Y279459D01*
X158478Y279459D01*
X158478Y279458D01*
X158562Y279414D01*
X158562Y279414D01*
X158562Y279414D01*
X158645Y279370D01*
X158645D01*
X158645Y279370D01*
X158727Y279327D01*
X158727Y279327D01*
X158727Y279327D01*
X158890Y279240D01*
X158890D01*
X158890Y279240D01*
X158970Y279198D01*
X159209Y279071D01*
X159364Y278989D01*
X159518Y278907D01*
X159518Y278907D01*
X159594Y278867D01*
X159669Y278827D01*
X159744Y278787D01*
X159818Y278748D01*
X159891Y278709D01*
X159964Y278670D01*
X160037Y278631D01*
X160108Y278593D01*
X160179Y278555D01*
X160179Y278555D01*
X160250Y278517D01*
X160320Y278479D01*
X160389Y278442D01*
X160458Y278404D01*
X160458D01*
X160526Y278368D01*
X160594Y278331D01*
X160661Y278295D01*
X160661D01*
X160727Y278259D01*
X160793Y278223D01*
X160858Y278187D01*
X160858Y278187D01*
X160923Y278151D01*
X160987Y278116D01*
X160987Y278116D01*
X161051Y278081D01*
X161114Y278046D01*
X161176Y278012D01*
X161237Y277977D01*
X161299Y277943D01*
X161358Y277909D01*
X161419Y277875D01*
X161866Y277622D01*
X162619Y276923D01*
X163189Y276069D01*
X163547Y275106D01*
X163672Y274086D01*
X163558Y273065D01*
X163210Y272098D01*
X162649Y271238D01*
X162247Y270857D01*
X162188Y270802D01*
X162129Y270746D01*
X162068Y270691D01*
X162008Y270636D01*
X161948Y270581D01*
X161886Y270525D01*
X161824Y270469D01*
X161762Y270415D01*
X161700Y270360D01*
X161635Y270303D01*
X161635Y270303D01*
X161572Y270248D01*
X161509Y270194D01*
X161444Y270138D01*
X161378Y270082D01*
X161311Y270026D01*
X161247Y269972D01*
X161180Y269917D01*
X161113Y269862D01*
X161045Y269807D01*
X160976Y269750D01*
X160909Y269696D01*
X160840Y269641D01*
X160769Y269586D01*
X160700Y269531D01*
X160628Y269475D01*
X160557Y269420D01*
X160487Y269366D01*
X160414Y269310D01*
X160342Y269255D01*
X160269Y269200D01*
X160196Y269145D01*
X160122Y269091D01*
X160047Y269035D01*
X159973Y268981D01*
X159898Y268926D01*
X159822Y268871D01*
X159746Y268817D01*
X159668Y268761D01*
X159592Y268707D01*
X159515Y268653D01*
X159437Y268598D01*
X159358Y268543D01*
X159279Y268489D01*
X159200Y268434D01*
X159119Y268379D01*
X159038Y268324D01*
X158958Y268271D01*
X158958D01*
X158876Y268215D01*
X158876Y268215D01*
X158794Y268162D01*
X158672Y268081D01*
X158546Y267998D01*
X158421Y267918D01*
X158293Y267836D01*
X158166Y267755D01*
X158037Y267674D01*
X157906Y267593D01*
X157777Y267513D01*
X157644Y267431D01*
X157512Y267352D01*
X157379Y267272D01*
X157244Y267191D01*
X157107Y267111D01*
X156970Y267031D01*
X156831Y266950D01*
X156831Y266950D01*
X156692Y266870D01*
X156554Y266792D01*
X156412Y266711D01*
X156270Y266632D01*
X156127Y266553D01*
X155983Y266474D01*
X155837Y266394D01*
X155692Y266316D01*
X155545Y266237D01*
X155397Y266159D01*
X155248Y266081D01*
X155096Y266002D01*
X154946Y265924D01*
X154793Y265845D01*
X154641Y265768D01*
X154488Y265691D01*
X154332Y265613D01*
X154175Y265535D01*
X154018Y265458D01*
X153862Y265382D01*
X153702Y265304D01*
X153543Y265228D01*
X153381Y265151D01*
X153220Y265075D01*
X153056Y264999D01*
X152893Y264923D01*
X152727Y264847D01*
X152563Y264772D01*
X152396Y264696D01*
X152227Y264621D01*
X152059Y264546D01*
X151891Y264472D01*
X151719Y264396D01*
X151549Y264322D01*
X151376Y264248D01*
X151202Y264174D01*
X151029Y264101D01*
X150853Y264026D01*
X150676Y263953D01*
X150501Y263880D01*
X150261Y263783D01*
X150024Y263686D01*
X149781Y263589D01*
X149540Y263494D01*
X149295Y263398D01*
X149049Y263302D01*
X148802Y263208D01*
X148553Y263113D01*
X148303Y263019D01*
X148050Y262926D01*
X147794Y262832D01*
X147540Y262740D01*
X147281Y262647D01*
X147024Y262556D01*
X146763Y262464D01*
X146500Y262373D01*
X146238Y262283D01*
X145971Y262192D01*
X145704Y262103D01*
X145437Y262014D01*
X145166Y261925D01*
X144896Y261837D01*
X144621Y261749D01*
X144348Y261663D01*
X144070Y261576D01*
X143794Y261490D01*
X143513Y261404D01*
X143163Y261298D01*
X142808Y261192D01*
X142452Y261087D01*
X142094Y260983D01*
X141734Y260881D01*
X141368Y260778D01*
X141003Y260677D01*
X140635Y260576D01*
X140264Y260477D01*
X139893Y260379D01*
X139518Y260281D01*
X139141Y260184D01*
X138760Y260088D01*
X138379Y259993D01*
X137995Y259898D01*
X137607Y259805D01*
X137218Y259713D01*
X136749Y259604D01*
X136276Y259495D01*
X135799Y259389D01*
X135321Y259284D01*
X134838Y259180D01*
X134351Y259077D01*
X133864Y258977D01*
X133371Y258877D01*
X132875Y258780D01*
X132377Y258683D01*
X131876Y258589D01*
X131286Y258480D01*
X130694Y258374D01*
X130095Y258269D01*
X129495Y258168D01*
X128890Y258068D01*
X128279Y257970D01*
X127665Y257875D01*
X127047Y257782D01*
X126336Y257679D01*
X125620Y257578D01*
X124898Y257481D01*
X124170Y257387D01*
X123439Y257296D01*
X122702Y257209D01*
X121866Y257114D01*
X121024Y257023D01*
X120178Y256937D01*
X119322Y256855D01*
X118462Y256778D01*
X117500Y256697D01*
X116528Y256621D01*
X115550Y256551D01*
X114466Y256481D01*
X113371Y256417D01*
X112270Y256361D01*
X111157Y256311D01*
X109937Y256266D01*
X108705Y256229D01*
X107359Y256199D01*
X106000Y256180D01*
X104632Y256171D01*
X103145Y256174D01*
X101537Y256192D01*
X99916Y256224D01*
X98168Y256276D01*
X96407Y256345D01*
X94517Y256438D01*
X92498Y256559D01*
X90345Y256712D01*
X88172Y256892D01*
X85861Y257111D01*
X83290Y257388D01*
X83111Y257335D01*
X82928Y257297D01*
X82915Y257278D01*
X82893Y257271D01*
X82803Y257107D01*
X82701Y256951D01*
X82705Y256928D01*
X82694Y256908D01*
X82706Y256869D01*
X82706D01*
X82718Y256825D01*
X82747Y256728D01*
X82785Y256545D01*
X83054Y256151D01*
X83054Y256150D01*
X83054Y256150D01*
X83858Y254971D01*
X83858Y254971D01*
X83859Y254970D01*
X84659Y253799D01*
X84660Y253799D01*
X84660Y253799D01*
X85458Y252636D01*
X85458Y252636D01*
X85458Y252635D01*
X86252Y251481D01*
X86253Y251481D01*
X86253Y251481D01*
X87044Y250335D01*
X87045Y250335D01*
X87045Y250334D01*
X87833Y249197D01*
X87833Y249196D01*
X87833Y249196D01*
X88618Y248067D01*
X88619Y248066D01*
X88619Y248066D01*
X89400Y246945D01*
X89401Y246945D01*
X89401Y246944D01*
X90179Y245831D01*
X90180Y245831D01*
X90180Y245831D01*
X90955Y244726D01*
X90956Y244726D01*
X90956Y244725D01*
X91728Y243629D01*
X91728Y243629D01*
X91728Y243628D01*
X92497Y242540D01*
X92498Y242539D01*
X92498Y242539D01*
X93264Y241459D01*
X93264Y241458D01*
X93264Y241458D01*
X94027Y240386D01*
X94027Y240385D01*
X94027Y240385D01*
X94787Y239320D01*
X94787Y239320D01*
X94788Y239320D01*
X95544Y238263D01*
X95544Y238263D01*
X95544Y238263D01*
X96298Y237214D01*
X96298Y237214D01*
X96298Y237214D01*
X97048Y236173D01*
X97049Y236173D01*
X97049Y236172D01*
X97796Y235140D01*
X97796Y235139D01*
X97796Y235139D01*
X98540Y234114D01*
X98541Y234114D01*
X98541Y234114D01*
X99281Y233097D01*
X99282Y233096D01*
X99282Y233096D01*
X100020Y232086D01*
X100020Y232086D01*
X100020Y232086D01*
X100754Y231084D01*
X100755Y231084D01*
X100755Y231084D01*
X101486Y230090D01*
X101487Y230090D01*
X101487Y230089D01*
X102215Y229103D01*
X102216Y229103D01*
X102216Y229102D01*
X102941Y228124D01*
X102941Y228124D01*
X102942Y228123D01*
X103664Y227152D01*
X103664Y227152D01*
X103664Y227152D01*
X104383Y226188D01*
X104384Y226188D01*
X104384Y226188D01*
X105100Y225232D01*
X105100Y225232D01*
X105100Y225231D01*
X105813Y224283D01*
X105814Y224283D01*
X105814Y224283D01*
X106523Y223342D01*
X106524Y223342D01*
X106524Y223341D01*
X107231Y222408D01*
X107231Y222408D01*
X107231Y222407D01*
X107935Y221482D01*
X107935Y221481D01*
X107935Y221481D01*
X108636Y220563D01*
X108636Y220562D01*
X108636Y220562D01*
X109334Y219651D01*
X109335Y219651D01*
X109335Y219650D01*
X110029Y218746D01*
X110030Y218746D01*
X110030Y218746D01*
X110721Y217849D01*
X110722Y217849D01*
X110722Y217849D01*
X111410Y216960D01*
X111410Y216959D01*
X111411Y216959D01*
X112096Y216077D01*
X112097Y216077D01*
X112097Y216076D01*
X112779Y215202D01*
X112779Y215201D01*
X112780Y215201D01*
X113459Y214333D01*
X113459Y214333D01*
X113460Y214333D01*
X114136Y213472D01*
X114136Y213472D01*
X114136Y213472D01*
X114810Y212618D01*
X114810Y212618D01*
X114810Y212617D01*
X115480Y211771D01*
X115481Y211771D01*
X115481Y211771D01*
X116148Y210932D01*
X116149Y210931D01*
X116149Y210931D01*
X116813Y210099D01*
X116814Y210099D01*
X116814Y210098D01*
X117475Y209273D01*
X117476Y209273D01*
X117476Y209272D01*
X118134Y208454D01*
X118134Y208454D01*
X118135Y208453D01*
X118790Y207642D01*
X118790Y207642D01*
X118791Y207641D01*
X119443Y206837D01*
X119443Y206837D01*
X119444Y206836D01*
X120093Y206039D01*
X120093Y206038D01*
X120094Y206038D01*
X120740Y205247D01*
X120740Y205247D01*
X120740Y205247D01*
X121384Y204463D01*
X121384Y204463D01*
X121385Y204462D01*
X122025Y203685D01*
X122025Y203685D01*
X122026Y203684D01*
X122663Y202914D01*
X122663Y202913D01*
X122664Y202913D01*
X123298Y202149D01*
X123299Y202149D01*
X123299Y202149D01*
X123930Y201392D01*
X123931Y201391D01*
X123931Y201391D01*
X124560Y200641D01*
X124560Y200640D01*
X124560Y200640D01*
X125186Y199896D01*
X125187Y199896D01*
X125187Y199895D01*
X125810Y199158D01*
X125810Y199158D01*
X125810Y199157D01*
X126430Y198426D01*
X126431Y198426D01*
X126431Y198426D01*
X127048Y197702D01*
X127048Y197701D01*
X127048Y197701D01*
X127662Y196983D01*
X127663Y196983D01*
X127663Y196982D01*
X128274Y196271D01*
X128275Y196271D01*
X128275Y196270D01*
X128883Y195565D01*
X128884Y195565D01*
X128884Y195564D01*
X129489Y194866D01*
X129490Y194866D01*
X129490Y194865D01*
X130092Y194173D01*
X130093Y194173D01*
X130093Y194172D01*
X130692Y193487D01*
X130693Y193486D01*
X130693Y193486D01*
X131290Y192806D01*
X131290Y192806D01*
X131290Y192806D01*
X131884Y192132D01*
X131885Y192132D01*
X131885Y192131D01*
X132476Y191464D01*
X132476Y191464D01*
X132476Y191464D01*
X133064Y190803D01*
X133065Y190803D01*
X133065Y190802D01*
X133650Y190147D01*
X133651Y190147D01*
X133651Y190146D01*
X134233Y189498D01*
X134234Y189498D01*
X134234Y189497D01*
X134813Y188855D01*
X134814Y188854D01*
X134814Y188854D01*
X135391Y188217D01*
X135391Y188217D01*
X135391Y188216D01*
X135965Y187586D01*
X135966Y187586D01*
X135966Y187585D01*
X136537Y186961D01*
X136537Y186961D01*
X136538Y186960D01*
X137105Y186342D01*
X137106Y186341D01*
X137106Y186341D01*
X137671Y185728D01*
X137672Y185728D01*
X137672Y185727D01*
X138234Y185121D01*
X138235Y185121D01*
X138235Y185120D01*
X138795Y184519D01*
X138795Y184519D01*
X138796Y184518D01*
X139352Y183924D01*
X139353Y183923D01*
X139353Y183923D01*
X139907Y183334D01*
X139908Y183333D01*
X139908Y183333D01*
X140459Y182749D01*
X140460Y182749D01*
X140460Y182749D01*
X141008Y182171D01*
X141009Y182171D01*
X141009Y182170D01*
X141554Y181598D01*
X141555Y181598D01*
X141555Y181597D01*
X142098Y181031D01*
X142098Y181031D01*
X142099Y181030D01*
X142638Y180470D01*
X142639Y180470D01*
X142639Y180469D01*
X143176Y179914D01*
X143177Y179914D01*
X143177Y179913D01*
X143711Y179364D01*
X143712Y179364D01*
X143712Y179363D01*
X144244Y178819D01*
X144245Y178819D01*
X144245Y178818D01*
X144773Y178280D01*
X144774Y178280D01*
X144774Y178279D01*
X145300Y177747D01*
X145301Y177746D01*
X145301Y177746D01*
X145825Y177218D01*
X145825Y177218D01*
X145826Y177217D01*
X146346Y176696D01*
X146347Y176695D01*
X146347Y176695D01*
X146864Y176178D01*
X146865Y176178D01*
X146865Y176177D01*
X147380Y175666D01*
X147381Y175666D01*
X147381Y175665D01*
X147894Y175160D01*
X147894Y175159D01*
X147895Y175159D01*
X148404Y174658D01*
X148405Y174658D01*
X148405Y174657D01*
X148912Y174162D01*
X148912Y174162D01*
X148913Y174161D01*
X149417Y173671D01*
X149417Y173671D01*
X149418Y173670D01*
X149919Y173185D01*
X149920Y173185D01*
X149920Y173184D01*
X150418Y172705D01*
X150419Y172704D01*
X150419Y172704D01*
X150915Y172229D01*
X150916Y172229D01*
X150916Y172228D01*
X151409Y171759D01*
X151410Y171759D01*
X151410Y171758D01*
X151901Y171294D01*
X151902Y171293D01*
X151902Y171293D01*
X152390Y170834D01*
X152390Y170833D01*
X152391Y170833D01*
X152876Y170378D01*
X152876Y170378D01*
X152877Y170377D01*
X153359Y169928D01*
X153360Y169928D01*
X153360Y169927D01*
X153840Y169483D01*
X153841Y169483D01*
X153841Y169482D01*
X154318Y169043D01*
X154319Y169042D01*
X154319Y169041D01*
X154793Y168607D01*
X154794Y168607D01*
X154794Y168606D01*
X155266Y168176D01*
X155267Y168176D01*
X155267Y168175D01*
X155736Y167751D01*
X155737Y167750D01*
X155737Y167750D01*
X156203Y167329D01*
X156204Y167329D01*
X156205Y167328D01*
X156668Y166913D01*
X156669Y166913D01*
X156669Y166912D01*
X157130Y166502D01*
X157131Y166501D01*
X157132Y166501D01*
X157590Y166095D01*
X157591Y166094D01*
X157591Y166094D01*
X158047Y165692D01*
X158048Y165692D01*
X158048Y165691D01*
X158501Y165295D01*
X158502Y165295D01*
X158502Y165294D01*
X158953Y164902D01*
X158953Y164902D01*
X158954Y164901D01*
X159402Y164513D01*
X159402Y164513D01*
X159403Y164512D01*
X159848Y164129D01*
X159849Y164129D01*
X159849Y164128D01*
X160292Y163750D01*
X160293Y163750D01*
X160293Y163749D01*
X160733Y163375D01*
X160734Y163375D01*
X160734Y163374D01*
X161172Y163005D01*
X161172Y163004D01*
X161173Y163004D01*
X161608Y162638D01*
X161608Y162638D01*
X161609Y162637D01*
X162041Y162277D01*
X162042Y162276D01*
X162042Y162276D01*
X162472Y161919D01*
X162473Y161919D01*
X162473Y161918D01*
X162900Y161566D01*
X162901Y161566D01*
X162901Y161565D01*
X163326Y161217D01*
X163327Y161217D01*
X163327Y161216D01*
X163749Y160873D01*
X163750Y160873D01*
X163750Y160872D01*
X164169Y160533D01*
X164170Y160532D01*
X164171Y160531D01*
X164587Y160196D01*
X164588Y160196D01*
X164589Y160195D01*
X165003Y159864D01*
X165004Y159864D01*
X165004Y159863D01*
X165416Y159537D01*
X165417Y159536D01*
X165417Y159535D01*
X165826Y159213D01*
X165827Y159212D01*
X165827Y159212D01*
X166234Y158893D01*
X166235Y158893D01*
X166235Y158892D01*
X166639Y158577D01*
X166640Y158577D01*
X166640Y158576D01*
X167042Y158265D01*
X167043Y158265D01*
X167043Y158264D01*
X167442Y157958D01*
X167443Y157957D01*
X167443Y157957D01*
X167840Y157654D01*
X167841Y157653D01*
X167841Y157653D01*
X168235Y157354D01*
X168236Y157353D01*
X168236Y157353D01*
X168628Y157058D01*
X168629Y157057D01*
X168629Y157057D01*
X169018Y156765D01*
X169019Y156765D01*
X169019Y156764D01*
X169405Y156477D01*
X169406Y156477D01*
X169407Y156476D01*
X169791Y156192D01*
X169792Y156192D01*
X169792Y156191D01*
X170173Y155911D01*
X170174Y155911D01*
X170175Y155910D01*
X170554Y155634D01*
X170554Y155634D01*
X170555Y155633D01*
X170931Y155360D01*
X170932Y155360D01*
X170933Y155359D01*
X171307Y155090D01*
X171307Y155090D01*
X171308Y155089D01*
X171679Y154824D01*
X171680Y154824D01*
X171681Y154823D01*
X172050Y154561D01*
X172050Y154561D01*
X172051Y154560D01*
X172417Y154302D01*
X172418Y154302D01*
X172419Y154301D01*
X172783Y154046D01*
X172784Y154046D01*
X172784Y154045D01*
X173146Y153794D01*
X173147Y153794D01*
X173147Y153793D01*
X173506Y153545D01*
X173507Y153545D01*
X173508Y153544D01*
X173864Y153300D01*
X173865Y153300D01*
X173866Y153299D01*
X174220Y153058D01*
X174221Y153058D01*
X174221Y153057D01*
X174573Y152819D01*
X174574Y152819D01*
X174575Y152818D01*
X174924Y152584D01*
X174925Y152584D01*
X174925Y152583D01*
X175272Y152352D01*
X175273Y152352D01*
X175274Y152351D01*
X175618Y152123D01*
X175619Y152123D01*
X175620Y152122D01*
X176075Y151824D01*
X176076Y151823D01*
X176077Y151822D01*
X176528Y151529D01*
X176530Y151529D01*
X176530Y151528D01*
X176977Y151241D01*
X176979Y151240D01*
X176979Y151239D01*
X177422Y150957D01*
X177423Y150957D01*
X177424Y150956D01*
X177862Y150680D01*
X177864Y150679D01*
X177864Y150678D01*
X178298Y150407D01*
X178300Y150407D01*
X178300Y150406D01*
X178730Y150140D01*
X178732Y150140D01*
X178733Y150139D01*
X179158Y149878D01*
X179159Y149878D01*
X179160Y149877D01*
X179582Y149622D01*
X179583Y149621D01*
X179584Y149620D01*
X180001Y149370D01*
X180002Y149370D01*
X180003Y149369D01*
X180416Y149123D01*
X180418Y149123D01*
X180418Y149122D01*
X180929Y148822D01*
X180930Y148822D01*
X180931Y148820D01*
X181435Y148528D01*
X181437Y148528D01*
X181438Y148527D01*
X181935Y148241D01*
X181937Y148241D01*
X181938Y148240D01*
X182527Y147907D01*
X182529Y147907D01*
X182530Y147906D01*
X183109Y147583D01*
X183111Y147583D01*
X183112Y147581D01*
X183776Y147218D01*
X183778Y147218D01*
X183779Y147216D01*
X184251Y146962D01*
X184253Y146962D01*
X184255Y146960D01*
X185201Y146459D01*
X185205Y146459D01*
X185206Y146456D01*
X186159Y145966D01*
X186162Y145965D01*
X186164Y145963D01*
X187121Y145482D01*
X187124Y145482D01*
X187125Y145480D01*
X187606Y145244D01*
X187607Y145244D01*
X187608Y145243D01*
X188185Y144963D01*
X188186Y144963D01*
X188187Y144962D01*
X188592Y144769D01*
X188593Y144769D01*
X188594Y144768D01*
X188913Y144617D01*
X188914Y144617D01*
X188914Y144616D01*
X189229Y144468D01*
X189230Y144468D01*
X189231Y144468D01*
X189465Y144359D01*
X189465Y144359D01*
X189466Y144358D01*
X189697Y144251D01*
X189698Y144251D01*
X189699Y144251D01*
X189928Y144145D01*
X189928Y144145D01*
X189929Y144145D01*
X190081Y144075D01*
X190081Y144075D01*
X190082Y144075D01*
X190232Y144006D01*
X190233Y144006D01*
X190233Y144006D01*
X190383Y143938D01*
X190383Y143938D01*
X190383Y143937D01*
X190532Y143870D01*
X190533Y143870D01*
X190533Y143870D01*
X190681Y143803D01*
X190681Y143803D01*
X190682Y143803D01*
X190829Y143737D01*
X190829Y143737D01*
X190829Y143737D01*
X190975Y143671D01*
X190976Y143671D01*
X190976Y143671D01*
X191121Y143606D01*
X191121Y143606D01*
X191121Y143606D01*
X191266Y143542D01*
X191266Y143542D01*
X191266Y143542D01*
X191409Y143479D01*
X191410Y143479D01*
X191410Y143478D01*
X191481Y143447D01*
X191481D01*
X191481Y143447D01*
X191552Y143416D01*
X191552D01*
X191552Y143415D01*
X191623Y143384D01*
X191623D01*
X191624Y143384D01*
X191694Y143353D01*
X191694D01*
X191694Y143353D01*
X191765Y143322D01*
X191765D01*
X191765Y143322D01*
X191835Y143292D01*
X191835D01*
X191835Y143291D01*
X191905Y143261D01*
X191905D01*
X191905Y143261D01*
X191975Y143230D01*
X191975D01*
X191975Y143230D01*
X192044Y143200D01*
X192044D01*
X192045Y143200D01*
X192114Y143170D01*
X192114D01*
X192114Y143170D01*
X192183Y143140D01*
X192183D01*
X192183Y143140D01*
X192252Y143110D01*
X192252D01*
X192252Y143110D01*
X192320Y143080D01*
X192320D01*
X192320Y143080D01*
X192388Y143051D01*
X192389D01*
X192389Y143051D01*
X192457Y143021D01*
X192457D01*
X192457Y143021D01*
X192525Y142992D01*
X192525D01*
X192525Y142992D01*
X192592Y142963D01*
X192592D01*
X192592Y142963D01*
X192660Y142934D01*
X192660D01*
X192660Y142934D01*
X192727Y142905D01*
X192727D01*
X192727Y142905D01*
X192794Y142876D01*
X192794D01*
X192794Y142876D01*
X192860Y142848D01*
X192860D01*
X192861Y142848D01*
X192927Y142819D01*
X192927D01*
X192927Y142819D01*
X192993Y142791D01*
X192993D01*
X192993Y142791D01*
X193059Y142763D01*
X193059D01*
X193059Y142762D01*
X193125Y142735D01*
X193125D01*
X193125Y142735D01*
X193190Y142707D01*
X193190D01*
X193190Y142707D01*
X193255Y142679D01*
X193255D01*
X193256Y142679D01*
X193321Y142651D01*
X193321D01*
X193321Y142651D01*
X193385Y142623D01*
X193385D01*
X193385Y142623D01*
X193450Y142596D01*
X193450D01*
X193450Y142596D01*
X193514Y142569D01*
X193514D01*
X193514Y142569D01*
X193578Y142542D01*
X193578D01*
X193578Y142542D01*
X193642Y142515D01*
X193642D01*
X193642Y142515D01*
X193705Y142488D01*
X193706D01*
X193706Y142488D01*
X193769Y142461D01*
X193769D01*
X193769Y142461D01*
X193832Y142434D01*
X193832D01*
X193832Y142434D01*
X193895Y142408D01*
X193895D01*
X193895Y142408D01*
X193957Y142381D01*
X193957D01*
X193958Y142381D01*
X194020Y142355D01*
X194020D01*
X194020Y142355D01*
X194082Y142329D01*
X194082D01*
X194082Y142329D01*
X194144Y142302D01*
X194144D01*
X194144Y142302D01*
X194206Y142276D01*
X194206D01*
X194206Y142276D01*
X194267Y142251D01*
X194267D01*
X194267Y142251D01*
X194389Y142199D01*
X194389D01*
X194389Y142199D01*
X194450Y142174D01*
X194450D01*
X194510Y142148D01*
X194510D01*
X194510Y142148D01*
X194571Y142123D01*
X194631Y142097D01*
X194631D01*
X194631Y142097D01*
X194691Y142072D01*
X194691D01*
X194750Y142047D01*
X194750D01*
X194750Y142047D01*
X194986Y141948D01*
X195102Y141899D01*
X195102D01*
X195160Y141875D01*
X195332Y141802D01*
X195389Y141778D01*
X195446Y141754D01*
X195446D01*
X195502Y141730D01*
X195502D01*
X195502Y141730D01*
X195559Y141707D01*
X195559D01*
X195670Y141659D01*
X195671D01*
X195781Y141613D01*
X195836Y141589D01*
X195891Y141566D01*
X195946Y141543D01*
X196000Y141520D01*
X196054Y141497D01*
X196108Y141474D01*
X196108D01*
X196162Y141451D01*
X196215Y141428D01*
X196268Y141405D01*
X196321Y141383D01*
X196374Y141360D01*
X196426Y141338D01*
X196479Y141315D01*
X196531Y141293D01*
X196582Y141271D01*
X196634Y141248D01*
X196685Y141226D01*
X196736Y141204D01*
X196787Y141182D01*
X196838Y141160D01*
X196838D01*
X196888Y141138D01*
X196888Y141138D01*
X196939Y141116D01*
X196988Y141095D01*
X197088Y141051D01*
X197186Y141007D01*
X197282Y140965D01*
X197380Y140921D01*
X197380D01*
X197474Y140879D01*
X197569Y140837D01*
X197662Y140794D01*
X197756Y140752D01*
X197846Y140710D01*
X197937Y140668D01*
X198028Y140626D01*
X198117Y140584D01*
X198205Y140542D01*
X198290Y140502D01*
X198377Y140460D01*
X198463Y140419D01*
X198547Y140377D01*
X198629Y140337D01*
X198713Y140295D01*
X198793Y140255D01*
X198873Y140214D01*
X198954Y140173D01*
X199033Y140132D01*
X199109Y140092D01*
X199188Y140050D01*
X199264Y140009D01*
X199338Y139969D01*
X199411Y139929D01*
X199484Y139888D01*
X199557Y139847D01*
X199628Y139806D01*
X199699Y139765D01*
X199768Y139725D01*
X199837Y139683D01*
X199905Y139643D01*
X199971Y139602D01*
X200037Y139560D01*
X200102Y139519D01*
X200166Y139478D01*
X200228Y139437D01*
X200291Y139396D01*
X200352Y139354D01*
X200413Y139312D01*
X200473Y139270D01*
X200531Y139229D01*
X200589Y139187D01*
X200645Y139145D01*
X200702Y139102D01*
X200756Y139061D01*
X200811Y139017D01*
X200864Y138975D01*
X200917Y138932D01*
X200968Y138889D01*
X201019Y138846D01*
X201069Y138802D01*
X201118Y138758D01*
X201166Y138715D01*
X201213Y138671D01*
X201259Y138627D01*
X201327Y138560D01*
X201418Y138468D01*
X201460Y138424D01*
X201501Y138378D01*
X201543Y138332D01*
X201583Y138286D01*
X201623Y138239D01*
X201662Y138192D01*
X201700Y138145D01*
X201737Y138098D01*
X201772Y138053D01*
X201813Y137998D01*
X201846Y137952D01*
X201889Y137891D01*
X201972Y137766D01*
X202051Y137638D01*
X202125Y137507D01*
X202180Y137400D01*
X202215Y137331D01*
X202239Y137280D01*
X202268Y137217D01*
X202291Y137165D01*
X202316Y137107D01*
X202340Y137049D01*
X202362Y136991D01*
X202385Y136932D01*
X202407Y136872D01*
X202428Y136813D01*
X202449Y136750D01*
X202468Y136689D01*
X202487Y136627D01*
X202506Y136562D01*
X202524Y136499D01*
X202542Y136433D01*
X202558Y136368D01*
X202574Y136301D01*
X202590Y136233D01*
X202604Y136165D01*
X202619Y136096D01*
X202632Y136025D01*
X202645Y135955D01*
X202657Y135882D01*
X202669Y135810D01*
X202679Y135736D01*
X202690Y135661D01*
X202699Y135585D01*
X202708Y135508D01*
X202717Y135432D01*
X202724Y135353D01*
X202731Y135273D01*
X202737Y135193D01*
X202743Y135111D01*
X202748Y135028D01*
X202752Y134944D01*
X202756Y134860D01*
X202761Y134722D01*
X202763Y134718D01*
X202761Y134713D01*
X202766Y134614D01*
X202769Y134608D01*
X202767Y134603D01*
X202774Y134503D01*
X202777Y134498D01*
X202775Y134492D01*
X202784Y134393D01*
X202786Y134389D01*
X202785Y134385D01*
X202791Y134324D01*
Y134324D01*
X202796Y134276D01*
X202801Y134225D01*
X202807Y134155D01*
X202810Y134105D01*
X202813Y134053D01*
X202816Y133983D01*
X202818Y133931D01*
X202819Y133885D01*
X202819Y133838D01*
X202819Y133791D01*
X202819Y133746D01*
X202818Y133698D01*
X202817Y133651D01*
X202815Y133605D01*
X202813Y133556D01*
X202811Y133510D01*
X202807Y133463D01*
X202804Y133414D01*
X202800Y133368D01*
X202796Y133319D01*
X202791Y133272D01*
X202785Y133224D01*
X202780Y133176D01*
X202773Y133128D01*
X202767Y133080D01*
X202758Y133020D01*
X202742Y132921D01*
X202734Y132874D01*
X202725Y132825D01*
X202715Y132776D01*
X202705Y132726D01*
X202695Y132677D01*
X202684Y132627D01*
X202673Y132579D01*
X202661Y132529D01*
X202649Y132479D01*
X202637Y132429D01*
X202624Y132379D01*
X202610Y132329D01*
X202596Y132278D01*
X202582Y132228D01*
X202567Y132178D01*
X202551Y132127D01*
X202536Y132077D01*
X202519Y132025D01*
X202503Y131976D01*
X202485Y131924D01*
X202467Y131872D01*
X202449Y131821D01*
X202431Y131770D01*
X202412Y131720D01*
X202393Y131667D01*
X202373Y131615D01*
X202352Y131564D01*
X202332Y131512D01*
X202310Y131458D01*
X202289Y131408D01*
X202266Y131355D01*
X202244Y131303D01*
X202220Y131250D01*
X202196Y131197D01*
X202173Y131145D01*
X202148Y131092D01*
X202123Y131038D01*
X202098Y130986D01*
X202072Y130933D01*
X202045Y130879D01*
X202019Y130826D01*
X201991Y130772D01*
X201964Y130718D01*
X201936Y130665D01*
X201906Y130610D01*
X201878Y130557D01*
X201848Y130503D01*
X201818Y130448D01*
X201787Y130394D01*
X201757Y130341D01*
X201726Y130286D01*
X201694Y130231D01*
X201661Y130175D01*
X201629Y130123D01*
X201595Y130067D01*
X201561Y130012D01*
X201528Y129958D01*
X201493Y129901D01*
X201458Y129847D01*
X201422Y129791D01*
X201386Y129734D01*
X201350Y129681D01*
X201313Y129625D01*
X201275Y129568D01*
X201237Y129511D01*
X201200Y129457D01*
X201162Y129402D01*
X201122Y129345D01*
X201082Y129288D01*
X201042Y129232D01*
X201001Y129174D01*
X200961Y129119D01*
X200920Y129062D01*
X200877Y129005D01*
X200835Y128948D01*
X200792Y128892D01*
X200749Y128835D01*
X200705Y128777D01*
X200661Y128721D01*
X200616Y128663D01*
X200572Y128606D01*
X200527Y128549D01*
X200480Y128491D01*
X200434Y128434D01*
X200387Y128376D01*
X200340Y128318D01*
X200292Y128260D01*
X200244Y128202D01*
X200196Y128145D01*
X200148Y128088D01*
X200098Y128029D01*
X200047Y127970D01*
X199998Y127913D01*
X199947Y127855D01*
X199896Y127796D01*
X199844Y127737D01*
X199791Y127678D01*
X199739Y127620D01*
X199687Y127562D01*
X199632Y127502D01*
X199579Y127443D01*
X199524Y127384D01*
X199470Y127325D01*
X199415Y127266D01*
X199360Y127208D01*
X199304Y127148D01*
X199248Y127089D01*
X199191Y127030D01*
X199133Y126970D01*
X199076Y126911D01*
X199016Y126850D01*
X198959Y126791D01*
X198899Y126731D01*
X198839Y126671D01*
X198779Y126611D01*
X198720Y126551D01*
X198659Y126491D01*
X198598Y126432D01*
X198598Y126432D01*
X198536Y126371D01*
X198474Y126310D01*
X198412Y126251D01*
X198412Y126251D01*
X198349Y126191D01*
X198286Y126130D01*
X198221Y126069D01*
X198158Y126009D01*
X198158Y126009D01*
X198093Y125947D01*
X198028Y125887D01*
X197963Y125827D01*
X197897Y125766D01*
X197830Y125704D01*
X197763Y125643D01*
X197696Y125582D01*
X197629Y125522D01*
X197561Y125460D01*
X197493Y125399D01*
X197424Y125338D01*
X197355Y125277D01*
X197286Y125216D01*
X197216Y125154D01*
X197145Y125093D01*
X197074Y125031D01*
X197003Y124969D01*
X196932Y124908D01*
X196859Y124846D01*
X196786Y124784D01*
X196786Y124784D01*
X196714Y124723D01*
X196640Y124660D01*
X196567Y124599D01*
X196493Y124537D01*
X196417Y124474D01*
X196342Y124412D01*
X196267Y124349D01*
X196192Y124288D01*
X196192Y124288D01*
X196115Y124225D01*
X196038Y124162D01*
X195962Y124101D01*
X195962Y124101D01*
X195885Y124038D01*
X195807Y123976D01*
X195728Y123913D01*
X195649Y123850D01*
X195570Y123787D01*
X195491Y123724D01*
X195411Y123662D01*
X195332Y123600D01*
X195251Y123537D01*
X195251D01*
X195170Y123474D01*
X195089Y123411D01*
X195089D01*
X195006Y123347D01*
X194924Y123284D01*
X194842Y123221D01*
X194758Y123158D01*
X194676Y123095D01*
X194676D01*
X194592Y123032D01*
X194507Y122968D01*
X194422Y122904D01*
X194422Y122904D01*
X194337Y122841D01*
X194252Y122777D01*
X194167Y122714D01*
X194080Y122650D01*
X193993Y122587D01*
X193906Y122523D01*
X193819Y122460D01*
X193643Y122332D01*
X193466Y122204D01*
X193287Y122076D01*
X193105Y121947D01*
X192923Y121819D01*
X192741Y121692D01*
X192555Y121562D01*
X192369Y121434D01*
X192369D01*
X192180Y121305D01*
X191991Y121176D01*
X191800Y121046D01*
X191607Y120917D01*
X191412Y120786D01*
X191217Y120657D01*
X191019Y120527D01*
X190821Y120397D01*
X190821D01*
X190621Y120267D01*
X190418Y120136D01*
X190215Y120005D01*
X190010Y119874D01*
X189805Y119744D01*
X189597Y119613D01*
X189388Y119482D01*
X189176Y119350D01*
X188965Y119219D01*
X188752Y119088D01*
X188536Y118955D01*
X188321Y118824D01*
X188103Y118692D01*
X187883Y118560D01*
X187663Y118428D01*
X187441Y118295D01*
X187218Y118163D01*
X186992Y118030D01*
X186766Y117897D01*
X186539Y117765D01*
X186310Y117632D01*
X186079Y117499D01*
X185847Y117365D01*
X185614Y117232D01*
X185379Y117099D01*
X185144Y116966D01*
X184905Y116832D01*
X184905Y116832D01*
X184667Y116698D01*
X184427Y116565D01*
X184186Y116431D01*
X183943Y116297D01*
X183698Y116162D01*
X183452Y116028D01*
X183206Y115894D01*
X182958Y115760D01*
X182708Y115625D01*
X182458Y115491D01*
X182458D01*
X182205Y115356D01*
X181951Y115221D01*
X181697Y115087D01*
X181441Y114952D01*
X181184Y114818D01*
X180924Y114682D01*
X180664Y114547D01*
X180404Y114412D01*
X180141Y114277D01*
X179877Y114142D01*
X179611Y114006D01*
X179345Y113871D01*
X179077Y113736D01*
X178808Y113600D01*
X178538Y113465D01*
X178538Y113465D01*
X178267Y113329D01*
X177995Y113194D01*
X177720Y113058D01*
X177445Y112922D01*
X177168Y112786D01*
X176891Y112651D01*
X176612Y112515D01*
X176331Y112379D01*
X176051Y112243D01*
X175768Y112107D01*
X175484Y111971D01*
X175199Y111835D01*
X174913Y111698D01*
X174625Y111563D01*
X174336Y111426D01*
X174047Y111290D01*
X173756Y111154D01*
X173464Y111018D01*
X173170Y110881D01*
X173170Y110881D01*
X172876Y110745D01*
X172876D01*
X172580Y110609D01*
X172580Y110609D01*
X172283Y110473D01*
X171985Y110336D01*
X171687Y110200D01*
X171386Y110063D01*
X170934Y109859D01*
X170479Y109655D01*
X170020Y109450D01*
X169560Y109245D01*
X169098Y109041D01*
X169098D01*
X168632Y108836D01*
X168165Y108632D01*
X167695Y108427D01*
X167221Y108222D01*
X166747Y108018D01*
X166269Y107814D01*
X165789Y107609D01*
X165306Y107404D01*
X164822Y107201D01*
X164334Y106996D01*
X163845Y106792D01*
X163354Y106588D01*
X162860Y106384D01*
X162362Y106180D01*
X161864Y105976D01*
X161363Y105772D01*
X160860Y105569D01*
X160354Y105365D01*
X160354Y105365D01*
X159846Y105161D01*
X159846D01*
X159336Y104958D01*
X159336Y104958D01*
X158824Y104755D01*
X158309Y104551D01*
X157792Y104349D01*
X157274Y104146D01*
X156753Y103943D01*
X156229Y103740D01*
X155705Y103538D01*
X155001Y103268D01*
X154293Y102999D01*
X153583Y102730D01*
X152869Y102462D01*
X152150Y102193D01*
X151428Y101925D01*
X150703Y101658D01*
X149974Y101391D01*
X149242Y101124D01*
X148507Y100858D01*
X147768Y100592D01*
X147025Y100326D01*
X147025Y100326D01*
X146279Y100061D01*
X145531Y99797D01*
X144779Y99533D01*
X143833Y99203D01*
X142883Y98874D01*
X142883Y98874D01*
X141929Y98547D01*
X140969Y98220D01*
X140968Y98220D01*
X140004Y97894D01*
X139035Y97569D01*
X139035Y97569D01*
X138063Y97245D01*
X136888Y96857D01*
X135706Y96470D01*
X134520Y96086D01*
X133327Y95702D01*
X132127Y95321D01*
X130721Y94877D01*
X129305Y94436D01*
X127882Y93997D01*
X126247Y93499D01*
X124604Y93004D01*
X122741Y92451D01*
X120659Y91841D01*
X118355Y91178D01*
X115608Y90403D01*
X112415Y89521D01*
X109700Y88781D01*
X104251Y87357D01*
X98786Y85991D01*
X93308Y84682D01*
X90563Y84056D01*
X85655Y82962D01*
X82072Y82194D01*
X78926Y81541D01*
X76228Y80998D01*
X73748Y80511D01*
X71492Y80080D01*
X69462Y79701D01*
X67430Y79331D01*
X65626Y79009D01*
X63819Y78694D01*
X62012Y78386D01*
X60433Y78123D01*
X58855Y77865D01*
X57275Y77613D01*
X55699Y77367D01*
X54349Y77161D01*
X52997Y76959D01*
X51649Y76761D01*
X50302Y76568D01*
X48730Y76348D01*
X48581Y76260D01*
X48422Y76194D01*
X48407Y76158D01*
X48373Y76138D01*
X48329Y75971D01*
X48264Y75812D01*
Y841D01*
X-50365D01*
Y75719D01*
X-50431Y75878D01*
X-50475Y76045D01*
X-50508Y76065D01*
X-50523Y76101D01*
X-50683Y76167D01*
X-50832Y76255D01*
X-57146Y77128D01*
X-58101Y77268D01*
X-60017Y77558D01*
X-61930Y77856D01*
X-63844Y78164D01*
X-64798Y78322D01*
X-64798Y78322D01*
X-68394Y78919D01*
X-75563Y80238D01*
X-82709Y81682D01*
X-89827Y83251D01*
X-93373Y84098D01*
X-93373Y84098D01*
X-94535Y84375D01*
X-96859Y84945D01*
X-99180Y85527D01*
X-101496Y86123D01*
X-102651Y86427D01*
X-108112Y87906D01*
X-112231Y89076D01*
X-115673Y90090D01*
X-118668Y90999D01*
X-121226Y91797D01*
X-123560Y92541D01*
X-125672Y93229D01*
X-127572Y93859D01*
X-129454Y94495D01*
X-131127Y95069D01*
X-132786Y95647D01*
X-134244Y96162D01*
X-135690Y96681D01*
X-137120Y97200D01*
X-138364Y97657D01*
X-139592Y98115D01*
X-140812Y98573D01*
X-142022Y99034D01*
X-143049Y99429D01*
X-144068Y99825D01*
X-145079Y100221D01*
X-146083Y100619D01*
X-147079Y101017D01*
X-147079D01*
X-147899Y101348D01*
X-148716Y101680D01*
X-149528Y102013D01*
X-150333Y102345D01*
X-151131Y102678D01*
X-151923Y103010D01*
X-152712Y103344D01*
X-153491Y103676D01*
X-154267Y104010D01*
X-154882Y104276D01*
X-155494Y104543D01*
X-156101Y104808D01*
X-156704Y105075D01*
X-157304Y105341D01*
X-157899Y105607D01*
X-157899Y105607D01*
X-158491Y105874D01*
X-159080Y106140D01*
X-159662Y106405D01*
X-160243Y106672D01*
X-160818Y106937D01*
X-161390Y107203D01*
X-161957Y107468D01*
X-162519Y107733D01*
X-163078Y107997D01*
X-163495Y108196D01*
X-163909Y108394D01*
X-164320Y108592D01*
X-164731Y108791D01*
X-165138Y108988D01*
X-165542Y109186D01*
X-165945Y109383D01*
X-166344Y109580D01*
X-166742Y109777D01*
X-167137Y109974D01*
X-167529Y110170D01*
X-167920Y110367D01*
X-168307Y110563D01*
X-168693Y110759D01*
X-169075Y110954D01*
X-169075Y110954D01*
X-169456Y111150D01*
X-169835Y111346D01*
X-170210Y111540D01*
X-170583Y111735D01*
X-170953Y111929D01*
X-171321Y112123D01*
X-171321Y112123D01*
X-171688Y112317D01*
X-172050Y112510D01*
X-172412Y112703D01*
X-172769Y112896D01*
X-173126Y113089D01*
X-173478Y113281D01*
X-173828Y113472D01*
X-173828Y113472D01*
X-174177Y113664D01*
X-174522Y113855D01*
X-174750Y113982D01*
X-174979Y114109D01*
X-175205Y114236D01*
X-175430Y114362D01*
X-175655Y114489D01*
X-175878Y114616D01*
X-176101Y114742D01*
X-176321Y114868D01*
X-176540Y114993D01*
X-176540Y114993D01*
X-176760Y115119D01*
X-176976Y115244D01*
X-176976Y115244D01*
X-177193Y115370D01*
X-177408Y115495D01*
X-177621Y115620D01*
X-177834Y115744D01*
X-178047Y115869D01*
X-178257Y115993D01*
X-178466Y116118D01*
X-178673Y116241D01*
X-178880Y116365D01*
X-179087Y116489D01*
X-179290Y116611D01*
X-179290Y116611D01*
X-179495Y116735D01*
X-179696Y116857D01*
X-179897Y116980D01*
X-180097Y117103D01*
X-180295Y117224D01*
X-180492Y117346D01*
X-180689Y117468D01*
X-180884Y117590D01*
X-181078Y117711D01*
X-181271Y117833D01*
X-181461Y117953D01*
X-181651Y118073D01*
X-181841Y118194D01*
X-182029Y118314D01*
X-182215Y118434D01*
X-182215D01*
X-182401Y118554D01*
X-182585Y118673D01*
X-182767Y118792D01*
X-182948Y118911D01*
X-183128Y119029D01*
X-183308Y119148D01*
X-183487Y119266D01*
X-183663Y119384D01*
X-183839Y119502D01*
X-184012Y119618D01*
X-184186Y119736D01*
X-184186D01*
X-184357Y119852D01*
X-184528Y119969D01*
X-184697Y120086D01*
X-184864Y120201D01*
X-185032Y120317D01*
X-185197Y120432D01*
X-185361Y120547D01*
X-185361Y120547D01*
X-185524Y120662D01*
X-185686Y120776D01*
X-185846Y120890D01*
X-186005Y121004D01*
X-186164Y121119D01*
X-186320Y121231D01*
X-186476Y121345D01*
X-186630Y121458D01*
X-186782Y121570D01*
X-186934Y121682D01*
X-187084Y121793D01*
X-187233Y121905D01*
X-187381Y122016D01*
X-187527Y122127D01*
X-187672Y122237D01*
X-187817Y122348D01*
X-187960Y122458D01*
X-188100Y122567D01*
X-188241Y122677D01*
X-188378Y122785D01*
X-188516Y122894D01*
X-188653Y123003D01*
X-188719Y123056D01*
X-188787Y123110D01*
X-188854Y123164D01*
X-188921Y123217D01*
X-188986Y123271D01*
X-189052Y123324D01*
X-189118Y123378D01*
X-189184Y123432D01*
X-189249Y123485D01*
X-189313Y123538D01*
X-189377Y123591D01*
X-189441Y123644D01*
X-189504Y123696D01*
X-189568Y123750D01*
X-189630Y123802D01*
X-189693Y123855D01*
X-189755Y123907D01*
X-189818Y123960D01*
X-189879Y124012D01*
X-189941Y124065D01*
X-190001Y124116D01*
X-190061Y124168D01*
X-190121Y124220D01*
X-190182Y124273D01*
X-190241Y124324D01*
X-190301Y124376D01*
X-190360Y124428D01*
X-190419Y124480D01*
X-190477Y124531D01*
X-190534Y124582D01*
X-190592Y124634D01*
X-190649Y124684D01*
X-190706Y124735D01*
X-190763Y124787D01*
X-190819Y124838D01*
X-190874Y124888D01*
X-190930Y124939D01*
X-190986Y124989D01*
X-191041Y125040D01*
X-191094Y125090D01*
X-191149Y125140D01*
X-191203Y125191D01*
X-191257Y125241D01*
X-191309Y125290D01*
X-191309Y125290D01*
X-191362Y125340D01*
X-191414Y125390D01*
X-191467Y125440D01*
X-191518Y125489D01*
X-191571Y125539D01*
X-191621Y125587D01*
X-191673Y125638D01*
X-191722Y125686D01*
X-191772Y125735D01*
X-191823Y125785D01*
X-191920Y125881D01*
X-192018Y125979D01*
X-192114Y126075D01*
X-192209Y126173D01*
X-192301Y126268D01*
X-192393Y126363D01*
X-192483Y126458D01*
X-192572Y126553D01*
X-192660Y126647D01*
X-192745Y126740D01*
X-192830Y126833D01*
X-192912Y126925D01*
X-192994Y127017D01*
X-193075Y127110D01*
X-193153Y127199D01*
X-193231Y127290D01*
X-193308Y127382D01*
X-193383Y127471D01*
X-193455Y127560D01*
X-193528Y127649D01*
X-193598Y127737D01*
X-193667Y127826D01*
X-193735Y127913D01*
X-193800Y127998D01*
X-193865Y128084D01*
X-193929Y128171D01*
X-193991Y128256D01*
X-194051Y128340D01*
X-194110Y128424D01*
X-194168Y128508D01*
X-194224Y128591D01*
X-194279Y128673D01*
X-194332Y128755D01*
X-194384Y128837D01*
X-194434Y128916D01*
X-194483Y128997D01*
X-194530Y129076D01*
X-194577Y129155D01*
X-194621Y129233D01*
X-194664Y129311D01*
X-194706Y129388D01*
X-194746Y129464D01*
X-194785Y129540D01*
X-194823Y129615D01*
X-194858Y129689D01*
X-194893Y129763D01*
X-194926Y129836D01*
X-194957Y129909D01*
X-194987Y129980D01*
X-195016Y130051D01*
X-195043Y130121D01*
X-195069Y130191D01*
X-195094Y130259D01*
X-195117Y130328D01*
X-195138Y130395D01*
X-195159Y130462D01*
X-195177Y130527D01*
X-195195Y130593D01*
X-195211Y130657D01*
X-195226Y130721D01*
X-195239Y130783D01*
X-195251Y130846D01*
X-195262Y130907D01*
X-195271Y130967D01*
X-195279Y131027D01*
X-195286Y131086D01*
X-195291Y131145D01*
X-195295Y131195D01*
X-195299Y131255D01*
X-195300Y131257D01*
X-195299Y131260D01*
X-195305Y131348D01*
X-195307Y131352D01*
X-195305Y131357D01*
X-195311Y131423D01*
X-195312Y131425D01*
X-195311Y131427D01*
X-195317Y131501D01*
X-195326Y131650D01*
X-195329Y131799D01*
X-195328Y131948D01*
X-195325Y132020D01*
X-195323Y132079D01*
X-195318Y132154D01*
X-195314Y132214D01*
X-195309Y132271D01*
X-195303Y132326D01*
X-195297Y132383D01*
X-195290Y132439D01*
X-195281Y132509D01*
X-195270Y132584D01*
X-195257Y132660D01*
X-195244Y132735D01*
X-195229Y132811D01*
X-195213Y132887D01*
X-195195Y132963D01*
X-195177Y133038D01*
X-195157Y133115D01*
X-195136Y133192D01*
X-195114Y133268D01*
X-195091Y133345D01*
X-195067Y133423D01*
X-195041Y133500D01*
X-195014Y133578D01*
X-194986Y133655D01*
X-194957Y133733D01*
X-194926Y133811D01*
X-194894Y133890D01*
X-194861Y133968D01*
X-194827Y134048D01*
X-194791Y134127D01*
X-194755Y134207D01*
X-194717Y134287D01*
X-194678Y134367D01*
X-194637Y134447D01*
X-194596Y134527D01*
X-194553Y134608D01*
X-194509Y134689D01*
X-194463Y134771D01*
X-194417Y134852D01*
X-194369Y134934D01*
X-194320Y135016D01*
X-194269Y135099D01*
X-194218Y135182D01*
X-194165Y135265D01*
X-194112Y135348D01*
X-194055Y135432D01*
X-193999Y135516D01*
X-193941Y135600D01*
X-193883Y135684D01*
X-193822Y135770D01*
X-193761Y135854D01*
X-193698Y135941D01*
X-193634Y136026D01*
X-193569Y136112D01*
X-193503Y136198D01*
X-193436Y136284D01*
X-193366Y136372D01*
X-193297Y136459D01*
X-193224Y136548D01*
X-193152Y136635D01*
X-193079Y136723D01*
X-193004Y136812D01*
X-192927Y136902D01*
X-192850Y136990D01*
X-192772Y137079D01*
X-192691Y137170D01*
X-192611Y137260D01*
X-192528Y137350D01*
X-192444Y137442D01*
X-192360Y137533D01*
X-192275Y137624D01*
X-192188Y137716D01*
X-192099Y137809D01*
X-192009Y137902D01*
X-191919Y137995D01*
X-191827Y138089D01*
X-191735Y138181D01*
X-191640Y138277D01*
X-191545Y138371D01*
X-191448Y138466D01*
X-191351Y138561D01*
X-191302Y138608D01*
X-191252Y138656D01*
X-191202Y138704D01*
X-191151Y138753D01*
X-191102Y138800D01*
X-191050Y138849D01*
X-191050Y138849D01*
X-190999Y138898D01*
X-190948Y138946D01*
X-190897Y138994D01*
X-190845Y139043D01*
X-190792Y139092D01*
X-190792Y139092D01*
X-190740Y139141D01*
X-190740Y139141D01*
X-190687Y139190D01*
X-190635Y139238D01*
X-190581Y139287D01*
X-190581Y139287D01*
X-190527Y139337D01*
X-190527Y139337D01*
X-190473Y139386D01*
X-190419Y139435D01*
X-190419D01*
X-190364Y139485D01*
X-190364Y139485D01*
X-190310Y139535D01*
X-190254Y139585D01*
X-190200Y139634D01*
X-190144Y139684D01*
X-190088Y139734D01*
X-190032Y139784D01*
X-189976Y139834D01*
X-189919Y139885D01*
X-189919D01*
X-189862Y139935D01*
X-189804Y139986D01*
X-189747Y140036D01*
X-189689Y140087D01*
X-189630Y140138D01*
X-189572Y140190D01*
X-189513Y140240D01*
X-189454Y140292D01*
X-189395Y140343D01*
X-189335Y140394D01*
X-189275Y140446D01*
X-189215Y140497D01*
X-189155Y140549D01*
X-189094Y140601D01*
X-189033Y140653D01*
X-189033D01*
X-188972Y140705D01*
X-188972Y140705D01*
X-188910Y140757D01*
X-188848Y140810D01*
X-188786Y140862D01*
X-188724Y140914D01*
X-188661Y140967D01*
X-188598Y141020D01*
X-188535Y141073D01*
X-188471Y141126D01*
X-188407Y141179D01*
X-188343Y141232D01*
X-188343Y141232D01*
X-188279Y141286D01*
X-188279Y141286D01*
X-188215Y141339D01*
X-188149Y141393D01*
X-188085Y141446D01*
X-188019Y141500D01*
X-188019Y141500D01*
X-187953Y141554D01*
X-187953Y141554D01*
X-187888Y141608D01*
X-187821Y141662D01*
X-187754Y141717D01*
X-187688Y141771D01*
X-187621Y141825D01*
X-187553Y141880D01*
X-187486Y141935D01*
X-187418Y141989D01*
X-187418D01*
X-187350Y142045D01*
X-187282Y142099D01*
X-187213Y142155D01*
X-187144Y142210D01*
X-187075Y142266D01*
X-187005Y142321D01*
X-186935Y142377D01*
X-186865Y142433D01*
X-186865Y142433D01*
X-186795Y142489D01*
X-186724Y142545D01*
X-186653Y142602D01*
X-186582Y142658D01*
X-186511Y142714D01*
X-186439Y142771D01*
X-186367Y142828D01*
X-186295Y142884D01*
X-186223Y142942D01*
X-186150Y142999D01*
X-186077Y143056D01*
X-186004Y143113D01*
X-185930Y143171D01*
X-185856Y143228D01*
X-185783Y143286D01*
X-185783D01*
X-185708Y143344D01*
X-185633Y143403D01*
X-185559Y143461D01*
X-185483Y143519D01*
X-185408Y143577D01*
X-185333Y143636D01*
X-185257Y143695D01*
X-185180Y143754D01*
X-185104Y143813D01*
X-185028Y143872D01*
X-185028Y143872D01*
X-184950Y143931D01*
X-184950Y143931D01*
X-184873Y143991D01*
X-184873Y143991D01*
X-184796Y144050D01*
X-184718Y144110D01*
X-184640Y144170D01*
X-184562Y144230D01*
X-184483Y144290D01*
X-184405Y144350D01*
X-184405D01*
X-184326Y144411D01*
X-184326Y144411D01*
X-184247Y144471D01*
X-184247Y144471D01*
X-184167Y144532D01*
X-184087Y144593D01*
X-184087D01*
X-184007Y144654D01*
X-183927Y144715D01*
X-183927Y144715D01*
X-183846Y144776D01*
X-183765Y144837D01*
X-183684Y144899D01*
X-183684Y144899D01*
X-183603Y144961D01*
X-183521Y145023D01*
X-183440Y145085D01*
X-183357Y145147D01*
X-183357Y145147D01*
X-183275Y145209D01*
X-183193Y145272D01*
X-183110Y145334D01*
X-183110Y145334D01*
X-183027Y145397D01*
X-183027D01*
X-182943Y145460D01*
X-182860Y145523D01*
X-182860Y145523D01*
X-182776Y145586D01*
X-182692Y145650D01*
X-182607Y145713D01*
X-182523Y145776D01*
X-182438Y145840D01*
X-182353Y145904D01*
X-182353D01*
X-182267Y145968D01*
X-182182Y146033D01*
X-182182Y146033D01*
X-182010Y146162D01*
X-181923Y146226D01*
X-181837Y146291D01*
X-181837D01*
X-181750Y146356D01*
X-181663Y146422D01*
X-181488Y146552D01*
X-181312Y146684D01*
X-181223Y146750D01*
X-181135Y146816D01*
X-181135D01*
X-180957Y146949D01*
X-180868Y147016D01*
X-180868Y147016D01*
X-180778Y147082D01*
X-180778Y147082D01*
X-180688Y147149D01*
X-180598Y147216D01*
X-180417Y147351D01*
X-180235Y147486D01*
X-180052Y147623D01*
X-179869Y147759D01*
X-179869Y147759D01*
X-179684Y147897D01*
X-179684Y147897D01*
X-179591Y147966D01*
X-179591D01*
X-179498Y148035D01*
X-179498Y148035D01*
X-179405Y148104D01*
X-179405D01*
X-179311Y148173D01*
X-179311Y148174D01*
X-179124Y148313D01*
X-178935Y148453D01*
X-178935D01*
X-178840Y148523D01*
X-178840Y148523D01*
X-178745Y148594D01*
X-178745D01*
X-178555Y148735D01*
X-178555D01*
X-178459Y148806D01*
X-178363Y148878D01*
X-178363Y148878D01*
X-178363Y148878D01*
X-178171Y149020D01*
X-178074Y149092D01*
X-178074Y149092D01*
X-178074Y149092D01*
X-177978Y149164D01*
X-177881Y149236D01*
X-177881Y149236D01*
X-177880Y149236D01*
X-177588Y149453D01*
X-177588Y149453D01*
X-177588Y149453D01*
X-177490Y149526D01*
X-177490Y149526D01*
X-177392Y149599D01*
X-177293Y149672D01*
X-177293Y149672D01*
X-177293Y149672D01*
X-177096Y149819D01*
X-177096Y149819D01*
X-177095Y149819D01*
X-176996Y149893D01*
X-176996Y149893D01*
X-176996Y149893D01*
X-176797Y150041D01*
X-176797Y150041D01*
X-176797Y150041D01*
X-176698Y150115D01*
X-176697D01*
X-176597Y150189D01*
X-176597Y150189D01*
X-176597Y150189D01*
X-176497Y150264D01*
X-176497Y150264D01*
X-176497Y150264D01*
X-176397Y150339D01*
X-176397Y150339D01*
X-176396Y150339D01*
X-176296Y150414D01*
X-176296Y150414D01*
X-176296Y150414D01*
X-176195Y150489D01*
X-176195D01*
X-176093Y150564D01*
X-176093Y150564D01*
X-176093D01*
X-175992Y150640D01*
X-175992Y150640D01*
X-175992Y150640D01*
X-175890Y150715D01*
X-175890Y150715D01*
X-175890Y150715D01*
X-175788Y150791D01*
X-175788Y150791D01*
X-175788Y150791D01*
X-175686Y150867D01*
X-175686Y150867D01*
X-175686Y150867D01*
X-175584Y150944D01*
X-175584Y150944D01*
X-175584D01*
X-175481Y151020D01*
X-175481Y151020D01*
X-175481Y151020D01*
X-175378Y151097D01*
X-175378Y151097D01*
X-175378Y151097D01*
X-175275Y151173D01*
X-175275Y151174D01*
X-175275Y151174D01*
X-175172Y151251D01*
X-175172Y151251D01*
X-175172D01*
X-175068Y151328D01*
X-175068Y151328D01*
X-175068Y151328D01*
X-174964Y151405D01*
X-174964Y151405D01*
X-174964Y151405D01*
X-174860Y151483D01*
X-174860Y151483D01*
X-174756Y151561D01*
X-174756Y151561D01*
X-174756Y151561D01*
X-174652Y151639D01*
X-174652Y151639D01*
X-174652Y151639D01*
X-174547Y151717D01*
X-174547Y151717D01*
X-174547Y151717D01*
X-174442Y151795D01*
X-174442Y151795D01*
X-174442Y151795D01*
X-174337Y151874D01*
X-174337Y151874D01*
X-174337Y151874D01*
X-174231Y151953D01*
X-174231Y151953D01*
X-174231Y151953D01*
X-174126Y152032D01*
X-174126Y152032D01*
X-174126Y152032D01*
X-174020Y152111D01*
X-174020Y152111D01*
X-174020Y152111D01*
X-173914Y152190D01*
X-173914Y152190D01*
X-173914Y152190D01*
X-173808Y152270D01*
X-173808Y152270D01*
X-173808Y152270D01*
X-173701Y152349D01*
X-173701Y152349D01*
X-173701Y152349D01*
X-173594Y152429D01*
X-173594Y152429D01*
X-173594Y152429D01*
X-173487Y152509D01*
X-173487Y152509D01*
X-173487Y152510D01*
X-173380Y152590D01*
X-173380Y152590D01*
X-173380Y152590D01*
X-173273Y152670D01*
X-173273Y152671D01*
X-173273Y152671D01*
X-173165Y152751D01*
X-173165Y152751D01*
X-173165Y152751D01*
X-173057Y152832D01*
X-173057Y152832D01*
X-173057Y152832D01*
X-172949Y152913D01*
X-172949Y152913D01*
X-172949Y152913D01*
X-172841Y152995D01*
X-172841Y152995D01*
X-172841Y152995D01*
X-172733Y153076D01*
X-172733Y153076D01*
X-172732Y153076D01*
X-172624Y153158D01*
X-172624Y153158D01*
X-172624D01*
X-172515Y153240D01*
X-172515Y153240D01*
X-172515Y153240D01*
X-172406Y153322D01*
X-172406Y153322D01*
X-172406Y153322D01*
X-172296Y153404D01*
X-172296Y153404D01*
X-172296Y153405D01*
X-172187Y153487D01*
X-172187Y153487D01*
X-172187Y153487D01*
X-172077Y153570D01*
X-172077Y153570D01*
X-172077Y153570D01*
X-171967Y153653D01*
X-171967Y153653D01*
X-171967Y153653D01*
X-171857Y153736D01*
X-171857Y153736D01*
X-171856Y153736D01*
X-171746Y153819D01*
X-171746Y153820D01*
X-171746Y153820D01*
X-171635Y153903D01*
X-171635Y153903D01*
X-171635Y153903D01*
X-171525Y153987D01*
X-171525Y153987D01*
X-171524Y153987D01*
X-171302Y154155D01*
X-171302Y154155D01*
X-171302Y154155D01*
X-171079Y154324D01*
X-171079Y154324D01*
X-171079Y154324D01*
X-170854Y154494D01*
X-170854Y154494D01*
X-170854Y154494D01*
X-170629Y154665D01*
X-170629Y154665D01*
X-170629Y154665D01*
X-170403Y154836D01*
X-170403Y154837D01*
X-170403Y154837D01*
X-170176Y155009D01*
X-170176Y155009D01*
X-170176Y155009D01*
X-169949Y155182D01*
X-169949Y155183D01*
X-169949Y155183D01*
X-169720Y155357D01*
X-169720Y155357D01*
X-169720Y155357D01*
X-169491Y155532D01*
X-169491Y155532D01*
X-169491Y155532D01*
X-169261Y155708D01*
X-169261Y155708D01*
X-169260Y155708D01*
X-169029Y155884D01*
X-169029Y155885D01*
X-169029Y155885D01*
X-168798Y156062D01*
X-168798Y156062D01*
X-168797Y156062D01*
X-168565Y156241D01*
X-168565Y156241D01*
X-168564Y156241D01*
X-168331Y156420D01*
X-168331Y156420D01*
X-168331Y156420D01*
X-168097Y156600D01*
X-168096Y156601D01*
X-168096Y156601D01*
X-167861Y156782D01*
X-167861Y156782D01*
X-167861Y156782D01*
X-167625Y156964D01*
X-167625Y156964D01*
X-167625Y156964D01*
X-167388Y157147D01*
X-167388Y157147D01*
X-167388Y157147D01*
X-167031Y157423D01*
X-167031Y157423D01*
X-167031Y157423D01*
X-166672Y157701D01*
X-166672Y157702D01*
X-166672Y157702D01*
X-166311Y157982D01*
X-166311Y157982D01*
X-166311Y157982D01*
X-165949Y158264D01*
X-165949Y158265D01*
X-165948Y158265D01*
X-165584Y158549D01*
X-165584Y158549D01*
X-165584Y158549D01*
X-165218Y158835D01*
X-165218Y158836D01*
X-165218Y158836D01*
X-164850Y159124D01*
X-164850Y159125D01*
X-164849Y159125D01*
X-164356Y159512D01*
X-164356Y159513D01*
X-164356Y159513D01*
X-163859Y159905D01*
X-163859Y159905D01*
X-163859Y159905D01*
X-163359Y160301D01*
X-163359Y160301D01*
X-163359Y160301D01*
X-162856Y160701D01*
X-162856Y160701D01*
X-162856Y160701D01*
X-162350Y161104D01*
X-162350Y161105D01*
X-162349Y161105D01*
X-161713Y161615D01*
X-161712Y161615D01*
X-161712Y161615D01*
X-161070Y162131D01*
X-161070Y162132D01*
X-161069Y162132D01*
X-160293Y162759D01*
X-160293Y162760D01*
X-160292Y162760D01*
X-159509Y163397D01*
X-159509Y163398D01*
X-159508Y163398D01*
X-158586Y164152D01*
X-158586Y164153D01*
X-158585Y164153D01*
X-157520Y165031D01*
X-157519Y165032D01*
X-157518Y165032D01*
X-156170Y166154D01*
X-156169Y166155D01*
X-156168Y166155D01*
X-154527Y167536D01*
X-154526Y167538D01*
X-154524Y167538D01*
X-152993Y168843D01*
X-152992Y168845D01*
X-152989Y168846D01*
X-149950Y171482D01*
X-149948Y171485D01*
X-149945Y171486D01*
X-146937Y174159D01*
X-146935Y174162D01*
X-146932Y174163D01*
X-143956Y176871D01*
X-143955Y176873D01*
X-143953Y176874D01*
X-142477Y178241D01*
X-142476Y178244D01*
X-142473Y178245D01*
X-138943Y181582D01*
X-138941Y181586D01*
X-138938Y181587D01*
X-136278Y184166D01*
X-136276Y184168D01*
X-136274Y184169D01*
X-133892Y186526D01*
X-133891Y186528D01*
X-133888Y186529D01*
X-131799Y188635D01*
X-131798Y188637D01*
X-131796Y188638D01*
X-129846Y190634D01*
X-129845Y190636D01*
X-129843Y190637D01*
X-128039Y192512D01*
X-128039Y192514D01*
X-128037Y192515D01*
X-126217Y194434D01*
X-126216Y194436D01*
X-126214Y194437D01*
X-124547Y196221D01*
X-124546Y196223D01*
X-124544Y196224D01*
X-122864Y198045D01*
X-122864Y198047D01*
X-122862Y198047D01*
X-121170Y199907D01*
X-121169Y199909D01*
X-121168Y199909D01*
X-119635Y201616D01*
X-119634Y201617D01*
X-119632Y201618D01*
X-118090Y203356D01*
X-118089Y203358D01*
X-118088Y203359D01*
X-116536Y205128D01*
X-116536Y205130D01*
X-116534Y205131D01*
X-114973Y206933D01*
X-114973Y206935D01*
X-114971Y206935D01*
X-113577Y208565D01*
X-113576Y208566D01*
X-113575Y208567D01*
X-112174Y210223D01*
X-112173Y210224D01*
X-112172Y210225D01*
X-110764Y211907D01*
X-110763Y211908D01*
X-110762Y211909D01*
X-109347Y213617D01*
X-109347Y213619D01*
X-109346Y213620D01*
X-107925Y215355D01*
X-107924Y215356D01*
X-107923Y215357D01*
X-106496Y217120D01*
X-106495Y217121D01*
X-106494Y217122D01*
X-105061Y218912D01*
X-105060Y218913D01*
X-105059Y218914D01*
X-103620Y220732D01*
X-103620Y220733D01*
X-103618Y220734D01*
X-102354Y222347D01*
X-102354Y222348D01*
X-102353Y222349D01*
X-101084Y223984D01*
X-101084Y223985D01*
X-101083Y223986D01*
X-99810Y225642D01*
X-99810Y225644D01*
X-99809Y225644D01*
X-98532Y227323D01*
X-98532Y227324D01*
X-98531Y227325D01*
X-97250Y229025D01*
X-97250Y229027D01*
X-97249Y229027D01*
X-95964Y230750D01*
X-95964Y230751D01*
X-95962Y230752D01*
X-94674Y232497D01*
X-94674Y232499D01*
X-94672Y232499D01*
X-93380Y234267D01*
X-93380Y234268D01*
X-93379Y234269D01*
X-92083Y236059D01*
X-92082Y236061D01*
X-92081Y236062D01*
X-90782Y237875D01*
X-90781Y237876D01*
X-90780Y237877D01*
X-89477Y239714D01*
X-89477Y239715D01*
X-89476Y239716D01*
X-88170Y241575D01*
X-88169Y241577D01*
X-88168Y241578D01*
X-86859Y243461D01*
X-86858Y243462D01*
X-86857Y243463D01*
X-85545Y245370D01*
X-85544Y245371D01*
X-85543Y245372D01*
X-84227Y247303D01*
X-84227Y247304D01*
X-84226Y247305D01*
X-82907Y249259D01*
X-82907Y249261D01*
X-82906Y249261D01*
X-81584Y251240D01*
X-81584Y251242D01*
X-81583Y251242D01*
X-80258Y253246D01*
X-80258Y253247D01*
X-80257Y253248D01*
X-78930Y255275D01*
X-78894Y255463D01*
X-78847Y255648D01*
X-78856Y255664D01*
X-78853Y255682D01*
X-78960Y255840D01*
X-79058Y256004D01*
X-79076Y256009D01*
X-79086Y256025D01*
X-79170Y256040D01*
X-79274Y256060D01*
X-79459Y256107D01*
X-79670Y256077D01*
X-80944Y255903D01*
X-82219Y255742D01*
X-83489Y255592D01*
X-84866Y255443D01*
X-86241Y255309D01*
X-87719Y255178D01*
X-89194Y255064D01*
X-90771Y254958D01*
X-92447Y254864D01*
X-94223Y254786D01*
X-96200Y254723D01*
X-98474Y254682D01*
X-101147Y254677D01*
X-102729Y254688D01*
X-105895Y254774D01*
X-109058Y254924D01*
X-112219Y255138D01*
X-113796Y255277D01*
X-114192Y255311D01*
X-114980Y255385D01*
X-115769Y255462D01*
X-116558Y255544D01*
X-116951Y255586D01*
X-119020Y255825D01*
X-120690Y256038D01*
X-122064Y256227D01*
X-123243Y256400D01*
X-124321Y256567D01*
X-125300Y256725D01*
X-126181Y256874D01*
X-127057Y257027D01*
X-127837Y257168D01*
X-128610Y257312D01*
X-129294Y257444D01*
X-129970Y257577D01*
X-130559Y257696D01*
X-131145Y257818D01*
X-131723Y257940D01*
X-132300Y258065D01*
X-132791Y258173D01*
X-133278Y258282D01*
X-133761Y258393D01*
X-134242Y258505D01*
X-134718Y258618D01*
X-135193Y258732D01*
X-135585Y258828D01*
X-135977Y258926D01*
X-136364Y259023D01*
X-136749Y259122D01*
X-137134Y259221D01*
X-137515Y259321D01*
X-137891Y259422D01*
X-138267Y259524D01*
X-138641Y259626D01*
X-138937Y259708D01*
X-139234Y259791D01*
X-139526Y259874D01*
X-139820Y259958D01*
X-140109Y260042D01*
X-140399Y260127D01*
X-140685Y260212D01*
X-140971Y260297D01*
X-141256Y260383D01*
X-141536Y260469D01*
X-141818Y260556D01*
X-142095Y260643D01*
X-142373Y260730D01*
X-142649Y260818D01*
X-142921Y260906D01*
X-143194Y260995D01*
X-143465Y261084D01*
X-143666Y261150D01*
X-143866Y261217D01*
X-144065Y261284D01*
X-144264Y261352D01*
X-144460Y261419D01*
X-144658Y261488D01*
X-144852Y261555D01*
X-145047Y261624D01*
X-145240Y261692D01*
X-145432Y261760D01*
X-145624Y261829D01*
X-145814Y261898D01*
X-146003Y261967D01*
X-146191Y262036D01*
X-146378Y262105D01*
X-146563Y262175D01*
X-146749Y262245D01*
X-146933Y262315D01*
X-147116Y262385D01*
X-147297Y262455D01*
X-147477Y262524D01*
X-147658Y262595D01*
X-147835Y262665D01*
X-148013Y262737D01*
X-148188Y262807D01*
X-148365Y262878D01*
X-148537Y262949D01*
X-148712Y263020D01*
X-148882Y263091D01*
X-149054Y263163D01*
X-149222Y263234D01*
X-149391Y263306D01*
X-149558Y263378D01*
X-149725Y263450D01*
X-149835Y263498D01*
X-149944Y263546D01*
X-149944Y263546D01*
X-150054Y263594D01*
X-150054D01*
X-150162Y263642D01*
X-150270Y263690D01*
X-150378Y263739D01*
X-150484Y263786D01*
X-150592Y263835D01*
X-150697Y263883D01*
X-150803Y263932D01*
X-150909Y263980D01*
X-151012Y264028D01*
X-151117Y264077D01*
X-151219Y264125D01*
X-151323Y264174D01*
X-151426Y264223D01*
X-151528Y264272D01*
X-151628Y264320D01*
X-151730Y264369D01*
X-151829Y264417D01*
X-151929Y264466D01*
X-152027Y264515D01*
X-152127Y264564D01*
X-152224Y264612D01*
X-152224Y264612D01*
X-152323Y264662D01*
X-152420Y264711D01*
X-152515Y264759D01*
X-152612Y264808D01*
X-152708Y264857D01*
X-152803Y264906D01*
X-152896Y264955D01*
X-152990Y265004D01*
X-153083Y265053D01*
X-153175Y265102D01*
X-153268Y265151D01*
X-153360Y265201D01*
X-153450Y265249D01*
X-153542Y265299D01*
X-153631Y265348D01*
X-153721Y265397D01*
X-153808Y265446D01*
X-153898Y265496D01*
X-153984Y265545D01*
X-154072Y265594D01*
X-154157Y265643D01*
X-154245Y265693D01*
X-154329Y265741D01*
X-154415Y265791D01*
X-154498Y265840D01*
X-154582Y265889D01*
X-154665Y265938D01*
X-154747Y265987D01*
X-154829Y266037D01*
X-154911Y266086D01*
X-154992Y266136D01*
X-155071Y266184D01*
X-155151Y266234D01*
X-155230Y266283D01*
X-155308Y266332D01*
X-155387Y266382D01*
X-155465Y266431D01*
X-155541Y266480D01*
X-155617Y266529D01*
X-155693Y266579D01*
X-155767Y266628D01*
X-155841Y266676D01*
X-155914Y266725D01*
X-155989Y266775D01*
X-156061Y266824D01*
X-156133Y266874D01*
X-156203Y266921D01*
X-156275Y266972D01*
X-156344Y267020D01*
X-156414Y267070D01*
X-156482Y267118D01*
X-156552Y267168D01*
X-156619Y267217D01*
X-156686Y267265D01*
X-156752Y267314D01*
X-156817Y267363D01*
X-156883Y267412D01*
X-156947Y267460D01*
X-157012Y267510D01*
X-157075Y267558D01*
X-157137Y267607D01*
X-157199Y267655D01*
X-157261Y267704D01*
X-157322Y267753D01*
X-157383Y267801D01*
X-157441Y267849D01*
X-157500Y267897D01*
X-157558Y267946D01*
X-157615Y267994D01*
X-157673Y268042D01*
X-157729Y268091D01*
X-157785Y268139D01*
X-157840Y268187D01*
X-157894Y268234D01*
X-157948Y268283D01*
X-158001Y268330D01*
X-158081Y268404D01*
X-158131Y268450D01*
X-158183Y268499D01*
X-158234Y268547D01*
X-158620Y268916D01*
X-159195Y269819D01*
X-159534Y270834D01*
X-159619Y271901D01*
X-159445Y272958D01*
X-159021Y273941D01*
X-158373Y274793D01*
X-157539Y275464D01*
X-157028Y275701D01*
X-156974Y275726D01*
X-156922Y275750D01*
X-156866Y275775D01*
X-156813Y275799D01*
X-156757Y275824D01*
X-156702Y275849D01*
X-156647Y275873D01*
X-156589Y275899D01*
X-156532Y275924D01*
X-156474Y275949D01*
X-156417Y275973D01*
X-156417D01*
X-156359Y275999D01*
X-156359D01*
X-156299Y276024D01*
X-156299Y276024D01*
X-156240Y276049D01*
X-156179Y276075D01*
X-156118Y276101D01*
X-156057Y276127D01*
X-155996Y276153D01*
X-155933Y276179D01*
X-155871Y276205D01*
X-155808Y276232D01*
X-155744Y276258D01*
X-155679Y276285D01*
X-155615Y276312D01*
X-155549Y276339D01*
X-155483Y276366D01*
X-155417Y276393D01*
X-155350Y276421D01*
X-155283Y276448D01*
X-155215Y276476D01*
X-155078Y276533D01*
X-155008Y276561D01*
X-155008D01*
X-154868Y276619D01*
X-154868Y276619D01*
X-154868D01*
X-154725Y276677D01*
X-154725Y276677D01*
X-154725D01*
X-154653Y276707D01*
X-154653Y276707D01*
X-154653D01*
X-154581Y276737D01*
X-154581Y276737D01*
X-154581D01*
X-154508Y276767D01*
X-154508Y276767D01*
X-154508D01*
X-154434Y276797D01*
X-154434Y276797D01*
X-154434D01*
X-154360Y276828D01*
X-154360Y276828D01*
X-154360D01*
X-154285Y276858D01*
X-154285Y276859D01*
X-154285D01*
X-154210Y276890D01*
X-154210Y276890D01*
X-154210D01*
X-154135Y276921D01*
X-154134Y276921D01*
X-154134D01*
X-154058Y276953D01*
X-154058Y276953D01*
X-154058D01*
X-153981Y276984D01*
X-153981Y276985D01*
X-153981D01*
X-153904Y277016D01*
X-153904Y277017D01*
X-153904D01*
X-153826Y277049D01*
X-153826Y277049D01*
X-153826D01*
X-153748Y277082D01*
X-153748Y277082D01*
X-153748D01*
X-153669Y277115D01*
X-153669Y277115D01*
X-153669D01*
X-153590Y277148D01*
X-153590Y277148D01*
X-153590D01*
X-153510Y277181D01*
X-153510Y277182D01*
X-153510D01*
X-153430Y277215D01*
X-153429Y277216D01*
X-153429D01*
X-153349Y277250D01*
X-153349Y277250D01*
X-153348D01*
X-153267Y277284D01*
X-153267Y277284D01*
X-153267D01*
X-153185Y277319D01*
X-153185Y277319D01*
X-153185D01*
X-153103Y277354D01*
X-153103Y277354D01*
X-153102D01*
X-153020Y277390D01*
X-153020Y277390D01*
X-153019D01*
X-152936Y277425D01*
X-152936Y277426D01*
X-152936D01*
X-152852Y277462D01*
X-152852Y277462D01*
X-152852Y277462D01*
X-152768Y277498D01*
X-152767Y277498D01*
X-152767Y277498D01*
X-152682Y277535D01*
X-152682Y277535D01*
X-152682Y277535D01*
X-152597Y277572D01*
X-152596Y277572D01*
X-152596Y277572D01*
X-152510Y277610D01*
X-152510Y277610D01*
X-152510Y277610D01*
X-152424Y277648D01*
X-152424Y277648D01*
X-152423Y277648D01*
X-152337Y277686D01*
X-152336Y277686D01*
X-152336Y277686D01*
X-152249Y277725D01*
X-152248Y277725D01*
X-152248Y277725D01*
X-152160Y277764D01*
X-152160Y277764D01*
X-152160Y277764D01*
X-152071Y277803D01*
X-152071Y277804D01*
X-152071Y277804D01*
X-151982Y277843D01*
X-151982Y277844D01*
X-151981Y277844D01*
X-151892Y277884D01*
X-151892Y277884D01*
X-151891Y277884D01*
X-151756Y277945D01*
X-151756Y277945D01*
X-151755Y277945D01*
X-151619Y278007D01*
X-151619Y278007D01*
X-151618Y278007D01*
X-151481Y278070D01*
X-151480Y278070D01*
X-151480Y278070D01*
X-151341Y278134D01*
X-151341Y278134D01*
X-151340Y278134D01*
X-151154Y278220D01*
X-151153Y278221D01*
X-151152Y278221D01*
X-150964Y278309D01*
X-150963Y278310D01*
X-150962Y278310D01*
X-150723Y278422D01*
X-150723Y278423D01*
X-150721Y278423D01*
X-150438Y278558D01*
X-150436Y278560D01*
X-150434Y278560D01*
X-149870Y278835D01*
X-149868Y278837D01*
X-149865Y278837D01*
X-149304Y279117D01*
X-149302Y279120D01*
X-149299Y279120D01*
X-148741Y279406D01*
X-148740Y279408D01*
X-148737Y279408D01*
X-148459Y279554D01*
X-148458Y279555D01*
X-148456Y279556D01*
X-147964Y279817D01*
X-147963Y279819D01*
X-147960Y279820D01*
X-147570Y280031D01*
X-147569Y280033D01*
X-147567Y280033D01*
X-147227Y280221D01*
X-147226Y280222D01*
X-147224Y280223D01*
X-146879Y280416D01*
X-146878Y280417D01*
X-146877Y280417D01*
X-146585Y280583D01*
X-146584Y280584D01*
X-146583Y280585D01*
X-146288Y280754D01*
X-146287Y280755D01*
X-146285Y280756D01*
X-145987Y280929D01*
X-145986Y280931D01*
X-145984Y280931D01*
X-145683Y281109D01*
X-145682Y281110D01*
X-145680Y281111D01*
X-145436Y281256D01*
X-145436Y281257D01*
X-145434Y281257D01*
X-145188Y281406D01*
X-145187Y281407D01*
X-145186Y281407D01*
X-144937Y281558D01*
X-144936Y281559D01*
X-144935Y281560D01*
X-144684Y281714D01*
X-144683Y281715D01*
X-144682Y281715D01*
X-144429Y281872D01*
X-144428Y281873D01*
X-144427Y281874D01*
X-144171Y282034D01*
X-144170Y282035D01*
X-144169Y282035D01*
X-143911Y282198D01*
X-143911Y282199D01*
X-143909Y282200D01*
X-143649Y282366D01*
X-143648Y282367D01*
X-143647Y282367D01*
X-143384Y282537D01*
X-143384Y282538D01*
X-143382Y282538D01*
X-143117Y282711D01*
X-143117Y282712D01*
X-143115Y282712D01*
X-142848Y282888D01*
X-142848Y282889D01*
X-142846Y282889D01*
X-142644Y283023D01*
X-142644Y283024D01*
X-142643Y283024D01*
X-142439Y283160D01*
X-142439Y283160D01*
X-142438Y283160D01*
X-142233Y283298D01*
X-142233Y283299D01*
X-142232Y283299D01*
X-142026Y283439D01*
X-142025Y283440D01*
X-142024Y283440D01*
X-141817Y283581D01*
X-141816Y283582D01*
X-141815Y283582D01*
X-141607Y283726D01*
X-141606Y283726D01*
X-141605Y283727D01*
X-141395Y283872D01*
X-141395Y283873D01*
X-141394Y283873D01*
X-141182Y284020D01*
X-141182Y284021D01*
X-141181Y284021D01*
X-140968Y284170D01*
X-140968Y284171D01*
X-140967Y284171D01*
X-140752Y284322D01*
X-140752Y284323D01*
X-140751Y284323D01*
X-140536Y284477D01*
X-140535Y284477D01*
X-140534Y284478D01*
X-140317Y284633D01*
X-140317Y284634D01*
X-140316Y284634D01*
X-140098Y284791D01*
X-140097Y284792D01*
X-140096Y284792D01*
X-139877Y284951D01*
X-139876Y284952D01*
X-139875Y284952D01*
X-139654Y285114D01*
X-139654Y285115D01*
X-139653Y285115D01*
X-139431Y285278D01*
X-139430Y285279D01*
X-139429Y285279D01*
X-139206Y285445D01*
X-139205Y285445D01*
X-139204Y285446D01*
X-138979Y285613D01*
X-138979Y285614D01*
X-138978Y285614D01*
X-138751Y285784D01*
X-138751Y285785D01*
X-138750Y285785D01*
X-138522Y285957D01*
X-138522Y285958D01*
X-138521Y285958D01*
X-138291Y286132D01*
X-138291Y286133D01*
X-138290Y286133D01*
X-138059Y286310D01*
X-138059Y286310D01*
X-138058Y286311D01*
X-137826Y286489D01*
X-137826Y286490D01*
X-137825Y286490D01*
X-137591Y286671D01*
X-137591Y286672D01*
X-137590Y286672D01*
X-137355Y286855D01*
X-137355Y286856D01*
X-137354Y286856D01*
X-137118Y287041D01*
X-137117Y287042D01*
X-137116Y287042D01*
X-136879Y287230D01*
X-136878Y287230D01*
X-136878Y287231D01*
X-136638Y287420D01*
X-136638Y287421D01*
X-136637Y287421D01*
X-136397Y287614D01*
X-136396Y287614D01*
X-136396Y287615D01*
X-136154Y287809D01*
X-136153Y287810D01*
X-136152Y287810D01*
X-135909Y288007D01*
X-135909Y288008D01*
X-135908Y288008D01*
X-135663Y288207D01*
X-135663Y288208D01*
X-135662Y288208D01*
X-135416Y288409D01*
X-135415Y288410D01*
X-135415Y288411D01*
X-135167Y288615D01*
X-135167Y288615D01*
X-135166Y288615D01*
X-134917Y288822D01*
X-134916Y288823D01*
X-134916Y288823D01*
X-134665Y289032D01*
X-134665Y289032D01*
X-134664Y289033D01*
X-134412Y289244D01*
X-134412Y289245D01*
X-134411Y289245D01*
X-134158Y289459D01*
X-134157Y289459D01*
X-134157Y289460D01*
X-133902Y289676D01*
X-133902Y289676D01*
X-133901Y289677D01*
X-133645Y289896D01*
X-133644Y289896D01*
X-133643Y289896D01*
X-133386Y290118D01*
X-133385Y290118D01*
X-133385Y290119D01*
X-133126Y290342D01*
X-133125Y290343D01*
X-133124Y290343D01*
X-132864Y290570D01*
X-132864Y290570D01*
X-132863Y290571D01*
X-132601Y290800D01*
X-132600Y290800D01*
X-132600Y290801D01*
X-132336Y291032D01*
X-132336Y291033D01*
X-132335Y291033D01*
X-132070Y291267D01*
X-132070Y291268D01*
X-132069Y291268D01*
X-131803Y291505D01*
X-131803Y291506D01*
X-131802Y291506D01*
X-131534Y291745D01*
X-131534Y291746D01*
X-131533Y291746D01*
X-131264Y291988D01*
X-131263Y291989D01*
X-131263Y291989D01*
X-130992Y292234D01*
X-130991Y292234D01*
X-130991Y292235D01*
X-130719Y292482D01*
X-130718Y292483D01*
X-130718Y292483D01*
X-130444Y292733D01*
X-130444Y292734D01*
X-130443Y292734D01*
X-130168Y292987D01*
X-130167Y292988D01*
X-130167Y292988D01*
X-129890Y293244D01*
X-129890Y293244D01*
X-129889Y293245D01*
X-129611Y293503D01*
X-129611Y293503D01*
X-129610Y293504D01*
X-129330Y293765D01*
X-129330Y293765D01*
X-129329Y293766D01*
X-129048Y294030D01*
X-129048Y294030D01*
X-129047Y294031D01*
X-128764Y294297D01*
X-128764Y294298D01*
X-128763Y294298D01*
X-128479Y294568D01*
X-128479Y294569D01*
X-128478Y294569D01*
X-128193Y294841D01*
X-128192Y294842D01*
X-128192Y294842D01*
X-127905Y295117D01*
X-127904Y295118D01*
X-127904Y295118D01*
X-127615Y295396D01*
X-127615Y295397D01*
X-127614Y295397D01*
X-127324Y295678D01*
X-127324Y295679D01*
X-127323Y295679D01*
X-127031Y295964D01*
X-127031Y295964D01*
X-127030Y295964D01*
X-126737Y296251D01*
X-126737Y296252D01*
X-126736Y296252D01*
X-126442Y296542D01*
X-126442Y296543D01*
X-126441Y296543D01*
X-126145Y296836D01*
X-126144Y296836D01*
X-126144Y296837D01*
X-125846Y297133D01*
X-125846Y297133D01*
X-125845Y297134D01*
X-125546Y297432D01*
X-125546Y297433D01*
X-125545Y297433D01*
X-125244Y297735D01*
X-125244Y297736D01*
X-125243Y297736D01*
X-124941Y298041D01*
X-124941Y298042D01*
X-124940Y298042D01*
X-124636Y298350D01*
X-124636Y298351D01*
X-124635Y298351D01*
X-124330Y298662D01*
X-124330Y298662D01*
X-124329Y298663D01*
X-124022Y298977D01*
X-124022Y298977D01*
X-124021Y298978D01*
X-123713Y299295D01*
X-123713Y299296D01*
X-123712Y299296D01*
X-123402Y299616D01*
X-123402Y299617D01*
X-123401Y299617D01*
X-123090Y299941D01*
X-123090Y299941D01*
X-123089Y299942D01*
X-122776Y300268D01*
X-122776Y300269D01*
X-122775Y300269D01*
X-122460Y300599D01*
X-122460Y300600D01*
X-122460Y300600D01*
X-122143Y300933D01*
X-122143Y300934D01*
X-122143Y300934D01*
X-121825Y301270D01*
X-121825Y301271D01*
X-121824Y301271D01*
X-121505Y301610D01*
X-121505Y301611D01*
X-121504Y301611D01*
X-121183Y301954D01*
X-121183Y301955D01*
X-121182Y301955D01*
X-120860Y302301D01*
X-120860Y302302D01*
X-120859Y302302D01*
X-120535Y302651D01*
X-120535Y302652D01*
X-120534Y302652D01*
X-120209Y303005D01*
X-120209Y303005D01*
X-120208Y303006D01*
X-119881Y303361D01*
X-119881Y303362D01*
X-119880Y303362D01*
X-119551Y303721D01*
X-119551Y303722D01*
X-119551Y303722D01*
X-119220Y304085D01*
X-119220Y304086D01*
X-119219Y304086D01*
X-118887Y304452D01*
X-118887Y304452D01*
X-118887Y304453D01*
X-118553Y304822D01*
X-118553Y304823D01*
X-118552Y304823D01*
X-118218Y305196D01*
X-118217Y305196D01*
X-118217Y305197D01*
X-117880Y305573D01*
X-117880Y305573D01*
X-117879Y305574D01*
X-117541Y305953D01*
X-117541Y305954D01*
X-117540Y305954D01*
X-117201Y306337D01*
X-117200Y306338D01*
X-117200Y306338D01*
X-116858Y306725D01*
X-116858Y306725D01*
X-116858Y306726D01*
X-116515Y307116D01*
X-116514Y307116D01*
X-116514Y307116D01*
X-116169Y307510D01*
X-116169Y307511D01*
X-116168Y307511D01*
X-115822Y307908D01*
X-115822Y307909D01*
X-115821Y307909D01*
X-115473Y308309D01*
X-115473Y308310D01*
X-115473Y308310D01*
X-115123Y308714D01*
X-115123Y308715D01*
X-115122Y308715D01*
X-114771Y309123D01*
X-114771Y309124D01*
X-114771Y309124D01*
X-114418Y309535D01*
X-114418Y309536D01*
X-114417Y309536D01*
X-114063Y309951D01*
X-114063Y309952D01*
X-114062Y309952D01*
X-113706Y310371D01*
X-113706Y310371D01*
X-113706Y310371D01*
X-113348Y310794D01*
X-113348Y310794D01*
X-113347Y310794D01*
X-112988Y311220D01*
X-112988Y311221D01*
X-112987Y311221D01*
X-112626Y311651D01*
X-112626Y311651D01*
X-112626Y311652D01*
X-112263Y312085D01*
X-112263Y312086D01*
X-112262Y312086D01*
X-111898Y312523D01*
X-111898Y312523D01*
X-111898Y312524D01*
X-111532Y312965D01*
X-111532Y312965D01*
X-111531Y312965D01*
X-111164Y313410D01*
X-111164Y313410D01*
X-111163Y313411D01*
X-110794Y313859D01*
X-110794Y313860D01*
X-110793Y313860D01*
X-110423Y314312D01*
X-110422Y314312D01*
X-110422Y314313D01*
X-110049Y314769D01*
X-110049Y314769D01*
X-110049Y314769D01*
X-109675Y315229D01*
X-109675Y315230D01*
X-109674Y315230D01*
X-109298Y315693D01*
X-109298Y315694D01*
X-109298Y315694D01*
X-108920Y316162D01*
X-108920Y316162D01*
X-108920Y316162D01*
X-108541Y316634D01*
X-108540Y316634D01*
X-108540Y316634D01*
X-108159Y317110D01*
X-108159Y317110D01*
X-108159Y317110D01*
X-107776Y317590D01*
X-107776Y317590D01*
X-107776Y317590D01*
X-107392Y318073D01*
X-107391Y318074D01*
X-107391Y318074D01*
X-107005Y318561D01*
X-107005Y318562D01*
X-107005Y318562D01*
X-106617Y319053D01*
X-106617Y319053D01*
X-106616Y319054D01*
X-106227Y319549D01*
X-106227Y319549D01*
X-106227Y319549D01*
X-105836Y320048D01*
X-105836Y320049D01*
X-105835Y320049D01*
X-105443Y320552D01*
X-105443Y320552D01*
X-105442Y320553D01*
X-105048Y321060D01*
X-105048Y321060D01*
X-105048Y321060D01*
X-104651Y321571D01*
X-104651Y321572D01*
X-104651Y321572D01*
X-104253Y322087D01*
X-104253Y322088D01*
X-104253Y322088D01*
X-103853Y322607D01*
X-103853Y322608D01*
X-103853Y322608D01*
X-103452Y323131D01*
X-103452Y323132D01*
X-103451Y323132D01*
X-103049Y323659D01*
X-103049Y323660D01*
X-103048Y323660D01*
X-102644Y324191D01*
X-102644Y324192D01*
X-102643Y324192D01*
X-102237Y324728D01*
X-102237Y324728D01*
X-102236Y324729D01*
X-101829Y325269D01*
X-101828Y325269D01*
X-101828Y325269D01*
X-101418Y325813D01*
X-101418Y325814D01*
X-101418Y325814D01*
X-101006Y326362D01*
X-101006Y326363D01*
X-101006Y326363D01*
X-100593Y326915D01*
X-100593Y326916D01*
X-100592Y326916D01*
X-100178Y327473D01*
X-100178Y327473D01*
X-100177Y327473D01*
X-99761Y328034D01*
X-99761Y328035D01*
X-99760Y328035D01*
X-99342Y328600D01*
X-99342Y328601D01*
X-99341Y328601D01*
X-98921Y329171D01*
X-98921Y329171D01*
X-98921Y329171D01*
X-98499Y329745D01*
X-98499Y329746D01*
X-98499Y329746D01*
X-98075Y330324D01*
X-98075Y330325D01*
X-98075Y330325D01*
X-97650Y330907D01*
X-97649Y330908D01*
X-97649Y330908D01*
X-97222Y331495D01*
X-97222Y331495D01*
X-97221Y331496D01*
X-96793Y332087D01*
X-96793Y332087D01*
X-96792Y332087D01*
X-96362Y332683D01*
X-96362Y332684D01*
X-96361Y332684D01*
X-95929Y333284D01*
X-95929Y333284D01*
X-95929Y333285D01*
X-95495Y333889D01*
X-95495Y333890D01*
X-95494Y333890D01*
X-95059Y334499D01*
X-95058Y334499D01*
X-95058Y334499D01*
X-94621Y335113D01*
X-94620Y335113D01*
X-94620Y335114D01*
X-94181Y335731D01*
X-94181Y335732D01*
X-94180Y335732D01*
X-93739Y336354D01*
X-93739Y336355D01*
X-93739Y336355D01*
X-93296Y336982D01*
X-93296Y336982D01*
X-93296Y336983D01*
X-92851Y337614D01*
X-92851Y337615D01*
X-92851Y337615D01*
X-92404Y338251D01*
X-92404Y338251D01*
X-92404Y338252D01*
X-91956Y338892D01*
X-91955Y338893D01*
X-91955Y338893D01*
X-91505Y339538D01*
X-91505Y339538D01*
X-91505Y339539D01*
X-91053Y340188D01*
X-91053Y340189D01*
X-91053Y340189D01*
X-90599Y340844D01*
X-90599Y340844D01*
X-90598Y340844D01*
X-90143Y341503D01*
X-90143Y341504D01*
X-90143Y341504D01*
X-89686Y342167D01*
X-89686Y342168D01*
X-89685Y342168D01*
X-89226Y342836D01*
X-89226Y342837D01*
X-89226Y342837D01*
X-88765Y343510D01*
X-88765Y343511D01*
X-88765Y343511D01*
X-88302Y344189D01*
X-88302Y344189D01*
X-88302Y344189D01*
X-87837Y344872D01*
X-87837Y344872D01*
X-87837Y344872D01*
X-87371Y345560D01*
X-87371Y345560D01*
X-87371Y345560D01*
X-86902Y346252D01*
X-86902Y346253D01*
X-86902Y346253D01*
X-86432Y346950D01*
X-86432Y346950D01*
X-86432Y346950D01*
X-85960Y347652D01*
X-85960Y347652D01*
X-85960Y347653D01*
X-85487Y348359D01*
X-85486Y348359D01*
X-85486Y348360D01*
X-85011Y349071D01*
X-85011Y349071D01*
X-85010Y349072D01*
X-84533Y349788D01*
X-84533Y349788D01*
X-84533Y349788D01*
X-84054Y350509D01*
X-84054Y350510D01*
X-84054Y350510D01*
X-83573Y351236D01*
X-83573Y351236D01*
X-83573Y351236D01*
X-83090Y351967D01*
X-83090Y351967D01*
X-83090Y351968D01*
X-82605Y352703D01*
X-82605Y352704D01*
X-82605Y352704D01*
X-82118Y353444D01*
X-82118Y353445D01*
X-82118Y353445D01*
X-81630Y354190D01*
X-81630Y354191D01*
X-81630Y354191D01*
X-81140Y354942D01*
X-81139Y354942D01*
X-81139Y354942D01*
X-80647Y355698D01*
X-80647Y355698D01*
X-80647Y355698D01*
X-80153Y356459D01*
X-80153Y356459D01*
X-80153Y356459D01*
X-79658Y357225D01*
X-79657Y357225D01*
X-79657Y357226D01*
X-79160Y357996D01*
X-79160Y357997D01*
X-79159Y357997D01*
X-78660Y358772D01*
X-78660Y358773D01*
X-78660Y358773D01*
X-78159Y359554D01*
X-78159Y359554D01*
X-78158Y359554D01*
X-77655Y360340D01*
X-77655Y360340D01*
X-77655Y360341D01*
X-77150Y361132D01*
X-77150Y361132D01*
X-77150Y361132D01*
X-76643Y361928D01*
X-76643Y361929D01*
X-76643Y361929D01*
X-76134Y362730D01*
X-76134Y362730D01*
X-76134Y362731D01*
X-75623Y363537D01*
X-75623Y363537D01*
X-75623Y363537D01*
X-75111Y364349D01*
X-75110Y364349D01*
X-75110Y364350D01*
X-74596Y365166D01*
X-74596Y365167D01*
X-74595Y365167D01*
X-74079Y365989D01*
X-74079Y365989D01*
X-74079Y365989D01*
X-73561Y366816D01*
X-73561Y366817D01*
X-73561Y366817D01*
X-73041Y367650D01*
X-73041Y367650D01*
X-73040Y367650D01*
X-72518Y368488D01*
X-72518Y368488D01*
X-72518Y368488D01*
X-71995Y369331D01*
X-71994Y369332D01*
X-71994Y369332D01*
X-71469Y370180D01*
X-71468Y370180D01*
X-71468Y370181D01*
X-70941Y371034D01*
X-70941Y371035D01*
X-70940Y371035D01*
X-70411Y371894D01*
X-70411Y371894D01*
X-70411Y371894D01*
X-69879Y372759D01*
X-69879Y372759D01*
X-69879Y372759D01*
X-69345Y373629D01*
X-69345Y373629D01*
X-69345Y373629D01*
X-68810Y374504D01*
X-68810Y374505D01*
X-68810Y374505D01*
X-68273Y375385D01*
X-68273Y375386D01*
X-68272Y375386D01*
X-67733Y376272D01*
X-67733Y376272D01*
X-67733Y376272D01*
X-67192Y377164D01*
X-67192Y377164D01*
X-67192Y377164D01*
X-66649Y378061D01*
X-66649Y378061D01*
X-66648Y378061D01*
X-66104Y378964D01*
X-66104Y378964D01*
X-66103Y378964D01*
X-65557Y379872D01*
X-65556Y379872D01*
X-65556Y379872D01*
X-65008Y380786D01*
X-65007Y380786D01*
X-65007Y380786D01*
X-64456Y381705D01*
X-64456Y381705D01*
X-64456Y381705D01*
X-63904Y382630D01*
X-63904Y382630D01*
X-63903Y382630D01*
X-63349Y383560D01*
X-63349Y383560D01*
X-63349Y383561D01*
X-62792Y384496D01*
X-62792Y384496D01*
X-62792Y384497D01*
X-62233Y385438D01*
X-62233Y385438D01*
X-62233Y385438D01*
X-61673Y386385D01*
X-61673Y386385D01*
X-61672Y386385D01*
X-61110Y387338D01*
X-61110Y387338D01*
X-61110Y387338D01*
X-60545Y388296D01*
X-60545Y388297D01*
X-60545Y388297D01*
X-59979Y389260D01*
X-59979Y389261D01*
X-59978Y389261D01*
X-59410Y390230D01*
X-59410Y390230D01*
X-59410Y390231D01*
X-58840Y391206D01*
X-58840Y391206D01*
X-58839Y391206D01*
X-58267Y392187D01*
X-58267Y392187D01*
X-58267Y392187D01*
X-57693Y393174D01*
X-57693Y393174D01*
X-57692Y393174D01*
X-57116Y394166D01*
X-57116Y394167D01*
X-57116Y394167D01*
X-56538Y395165D01*
X-56538Y395165D01*
X-56538Y395165D01*
X-55958Y396169D01*
X-55958Y396169D01*
X-55957Y396170D01*
X-55375Y397179D01*
X-55375Y397180D01*
X-55375Y397180D01*
X-54596Y398535D01*
X-54570Y398732D01*
X-54538Y398928D01*
X-54544Y398936D01*
X-54542Y398946D01*
X-54663Y399103D01*
X-54779Y399264D01*
X-54789Y399266D01*
X-54795Y399274D01*
X-54861Y399283D01*
X-54861D01*
X-54880Y399285D01*
X-54992Y399300D01*
X-55188Y399332D01*
X-55813Y399186D01*
X-56746Y398974D01*
X-57598Y398785D01*
X-58447Y398601D01*
X-59214Y398440D01*
X-59977Y398283D01*
X-60739Y398131D01*
X-61419Y397998D01*
X-62100Y397868D01*
X-62775Y397743D01*
X-63375Y397635D01*
X-63969Y397530D01*
X-64562Y397428D01*
X-65156Y397328D01*
X-65742Y397232D01*
X-66257Y397150D01*
X-66768Y397071D01*
X-67275Y396993D01*
X-67783Y396918D01*
X-68289Y396846D01*
X-68791Y396775D01*
X-69291Y396707D01*
X-69720Y396651D01*
X-70145Y396596D01*
X-70568Y396543D01*
X-70992Y396491D01*
X-71412Y396441D01*
X-71832Y396392D01*
X-72249Y396346D01*
X-72665Y396301D01*
X-73080Y396258D01*
X-73492Y396216D01*
X-73902Y396176D01*
X-74243Y396144D01*
X-74582Y396113D01*
X-74922Y396083D01*
X-75258Y396055D01*
X-75593Y396027D01*
X-75928Y396001D01*
X-76261Y395976D01*
X-76593Y395952D01*
X-76923Y395929D01*
X-77254Y395907D01*
X-77582Y395887D01*
X-77907Y395867D01*
X-77907D01*
X-78234Y395849D01*
X-78557Y395832D01*
X-78878Y395816D01*
X-79201Y395801D01*
X-79520Y395787D01*
X-79774Y395777D01*
X-80029Y395768D01*
X-80281Y395759D01*
X-80534Y395751D01*
X-80784Y395744D01*
X-80784Y395744D01*
X-81035Y395737D01*
X-81035Y395737D01*
X-81283Y395731D01*
X-81532Y395726D01*
X-81780Y395722D01*
X-82026Y395718D01*
X-82270Y395715D01*
X-82516Y395713D01*
X-82758Y395712D01*
X-83002Y395711D01*
X-83242Y395711D01*
X-83484Y395712D01*
X-83722Y395713D01*
X-83962Y395715D01*
X-84198Y395718D01*
X-84436Y395722D01*
X-84670Y395726D01*
X-84906Y395731D01*
X-84906Y395731D01*
X-85138Y395737D01*
X-85371Y395743D01*
X-85603Y395751D01*
X-85832Y395759D01*
X-86063Y395767D01*
X-86291Y395777D01*
X-86517Y395786D01*
X-86745Y395797D01*
X-86969Y395809D01*
X-87138Y395818D01*
X-87305Y395827D01*
X-87472Y395837D01*
X-87637Y395848D01*
X-87637Y395848D01*
X-87805Y395858D01*
X-87969Y395869D01*
X-88133Y395881D01*
X-88297Y395893D01*
X-88460Y395905D01*
X-88623Y395918D01*
X-88786Y395931D01*
X-88786Y395931D01*
X-88946Y395944D01*
X-89106Y395958D01*
X-89268Y395973D01*
X-89426Y395987D01*
X-89585Y396003D01*
X-89744Y396018D01*
X-89900Y396034D01*
X-90057Y396050D01*
X-90214Y396067D01*
X-90370Y396084D01*
X-90524Y396101D01*
X-90524Y396101D01*
X-90680Y396119D01*
X-90832Y396138D01*
X-90986Y396156D01*
X-91137Y396175D01*
X-91290Y396195D01*
X-91440Y396215D01*
X-91590Y396235D01*
X-91739Y396256D01*
X-91890Y396277D01*
X-92036Y396298D01*
X-92036Y396298D01*
X-92186Y396320D01*
X-92332Y396342D01*
X-92477Y396365D01*
X-92624Y396388D01*
X-92768Y396411D01*
X-92913Y396435D01*
X-93057Y396460D01*
X-93199Y396484D01*
X-93340Y396509D01*
X-93482Y396534D01*
X-93622Y396560D01*
X-93763Y396586D01*
X-93903Y396613D01*
X-94041Y396640D01*
X-94178Y396667D01*
X-94317Y396695D01*
X-94453Y396723D01*
X-94589Y396752D01*
X-94723Y396780D01*
X-94857Y396810D01*
X-94991Y396839D01*
X-95124Y396869D01*
X-95255Y396900D01*
X-95386Y396931D01*
X-95518Y396962D01*
X-95649Y396994D01*
X-95777Y397026D01*
X-95906Y397058D01*
X-96032Y397090D01*
X-96161Y397124D01*
X-96286Y397157D01*
X-96411Y397191D01*
X-96536Y397225D01*
X-96659Y397260D01*
X-96783Y397295D01*
X-96907Y397331D01*
X-97027Y397366D01*
X-97148Y397403D01*
X-97268Y397439D01*
X-97388Y397476D01*
X-97507Y397514D01*
X-97585Y397538D01*
X-97662Y397564D01*
X-97741Y397589D01*
X-97819Y397615D01*
X-97895Y397640D01*
X-97973Y397667D01*
X-98049Y397693D01*
X-98124Y397719D01*
X-98124Y397719D01*
X-98202Y397745D01*
X-98275Y397772D01*
X-98351Y397798D01*
X-98426Y397825D01*
X-98501Y397853D01*
X-98576Y397880D01*
X-98647Y397907D01*
X-98722Y397935D01*
X-98795Y397963D01*
X-98866Y397990D01*
X-98939Y398019D01*
X-99011Y398047D01*
X-99082Y398075D01*
X-99155Y398104D01*
X-99226Y398133D01*
X-99296Y398161D01*
X-99365Y398190D01*
X-99436Y398220D01*
X-99506Y398249D01*
X-99574Y398278D01*
X-99642Y398308D01*
X-99710Y398338D01*
X-99780Y398369D01*
X-99847Y398399D01*
X-99913Y398428D01*
X-99980Y398459D01*
X-100046Y398489D01*
X-100113Y398521D01*
X-100178Y398551D01*
X-100243Y398583D01*
X-100309Y398614D01*
X-100374Y398646D01*
X-100438Y398677D01*
X-100501Y398708D01*
X-100566Y398741D01*
X-100628Y398773D01*
X-100690Y398805D01*
X-100754Y398838D01*
X-100815Y398870D01*
X-100876Y398903D01*
X-100939Y398936D01*
X-100998Y398968D01*
X-101058Y399002D01*
X-101119Y399035D01*
X-101179Y399069D01*
X-101238Y399102D01*
X-101296Y399136D01*
X-101357Y399171D01*
X-101413Y399204D01*
X-101473Y399239D01*
X-101530Y399273D01*
X-101588Y399308D01*
X-101642Y399342D01*
X-101700Y399377D01*
X-101756Y399412D01*
X-101812Y399448D01*
X-101865Y399482D01*
X-101920Y399518D01*
X-101975Y399554D01*
X-102030Y399590D01*
X-102082Y399625D01*
X-102136Y399661D01*
X-102190Y399699D01*
X-102241Y399734D01*
X-102294Y399772D01*
X-102345Y399807D01*
X-102395Y399844D01*
X-102447Y399882D01*
X-102497Y399918D01*
X-102548Y399956D01*
X-102597Y399993D01*
X-102647Y400031D01*
X-102695Y400068D01*
X-102744Y400106D01*
X-102791Y400144D01*
X-102886Y400220D01*
X-102957Y400278D01*
X-103026Y400336D01*
X-103095Y400395D01*
X-103162Y400453D01*
X-103229Y400512D01*
X-103294Y400571D01*
X-103359Y400631D01*
X-103423Y400691D01*
X-103486Y400751D01*
X-103549Y400812D01*
X-103609Y400873D01*
X-103670Y400934D01*
X-103729Y400995D01*
X-103788Y401057D01*
X-103846Y401120D01*
X-103902Y401182D01*
X-103958Y401244D01*
X-104013Y401308D01*
X-104067Y401371D01*
X-104120Y401435D01*
X-104173Y401499D01*
X-104224Y401563D01*
X-104274Y401628D01*
X-104324Y401693D01*
X-104372Y401757D01*
X-104436Y401845D01*
X-104497Y401933D01*
X-104558Y402022D01*
X-104616Y402111D01*
X-104682Y402215D01*
X-104716Y402271D01*
X-104751Y402328D01*
X-104784Y402385D01*
X-104817Y402442D01*
X-104849Y402499D01*
X-104882Y402559D01*
X-104919Y402629D01*
X-104946Y402681D01*
X-104977Y402741D01*
X-105018Y402825D01*
X-105040Y402871D01*
X-105065Y402924D01*
X-105088Y402976D01*
X-105125Y403059D01*
X-105144Y403104D01*
X-105184Y403200D01*
X-105222Y403297D01*
X-105259Y403394D01*
X-105337Y403614D01*
X-105431Y403966D01*
X-105495Y404325D01*
X-105528Y404687D01*
X-105530Y404867D01*
X-105531Y404950D01*
X-105531Y405012D01*
X-105531Y405068D01*
X-105530Y405144D01*
X-105529Y405220D01*
X-105527Y405297D01*
X-105525Y405372D01*
X-105522Y405447D01*
X-105518Y405519D01*
X-105514Y405592D01*
X-105510Y405664D01*
X-105505Y405734D01*
X-105499Y405805D01*
X-105493Y405875D01*
X-105487Y405942D01*
X-105480Y406010D01*
X-105472Y406078D01*
X-105464Y406143D01*
X-105456Y406209D01*
X-105446Y406275D01*
X-105437Y406339D01*
X-105427Y406401D01*
X-105416Y406465D01*
X-105405Y406527D01*
X-105393Y406588D01*
X-105381Y406649D01*
X-105368Y406710D01*
X-105355Y406769D01*
X-105341Y406828D01*
X-105327Y406886D01*
X-105312Y406944D01*
X-105296Y407001D01*
X-105280Y407058D01*
X-105264Y407114D01*
X-105247Y407169D01*
X-105230Y407225D01*
X-105212Y407278D01*
X-105184Y407360D01*
X-105139Y407481D01*
X-105113Y407548D01*
X-105094Y407594D01*
X-105053Y407690D01*
X-105010Y407785D01*
X-104965Y407879D01*
X-104942Y407926D01*
X-104913Y407981D01*
X-104874Y408055D01*
X-104844Y408109D01*
X-104809Y408169D01*
X-104766Y408241D01*
X-104722Y408313D01*
X-104693Y408359D01*
X-104662Y408407D01*
X-104631Y408453D01*
X-104598Y408500D01*
X-104566Y408546D01*
X-104533Y408594D01*
X-104499Y408639D01*
X-104464Y408686D01*
X-104430Y408731D01*
X-104393Y408778D01*
X-104358Y408823D01*
X-104301Y408892D01*
X-104244Y408961D01*
X-104185Y409029D01*
X-104124Y409097D01*
X-104062Y409166D01*
X-103999Y409233D01*
X-103934Y409302D01*
X-103867Y409370D01*
X-103798Y409438D01*
X-103728Y409507D01*
X-103680Y409552D01*
X-103632Y409597D01*
X-103584Y409643D01*
X-103533Y409690D01*
X-103482Y409735D01*
X-103430Y409782D01*
X-103379Y409827D01*
X-103327Y409872D01*
X-103272Y409920D01*
X-103219Y409966D01*
X-103164Y410012D01*
X-103107Y410060D01*
X-103050Y410106D01*
X-102993Y410153D01*
X-102935Y410200D01*
X-102876Y410247D01*
X-102818Y410294D01*
X-102757Y410342D01*
X-102695Y410390D01*
X-102635Y410437D01*
X-102571Y410486D01*
X-102507Y410534D01*
X-102445Y410582D01*
X-102378Y410631D01*
X-102313Y410680D01*
X-102247Y410729D01*
X-102179Y410779D01*
X-102111Y410828D01*
X-102043Y410878D01*
X-101972Y410929D01*
X-101902Y410980D01*
X-101832Y411030D01*
X-101759Y411082D01*
X-101759Y411082D01*
X-101686Y411133D01*
X-101613Y411185D01*
X-101539Y411236D01*
X-101539D01*
X-101463Y411289D01*
X-101463Y411289D01*
X-101389Y411341D01*
X-101312Y411394D01*
X-101235Y411448D01*
X-101235D01*
X-101156Y411502D01*
X-101077Y411556D01*
X-100998Y411610D01*
X-100917Y411666D01*
X-100836Y411721D01*
X-100754Y411776D01*
X-100670Y411833D01*
X-100670Y411833D01*
X-100587Y411889D01*
X-100503Y411946D01*
X-100503D01*
X-100417Y412004D01*
X-100331Y412062D01*
X-100244Y412120D01*
X-100157Y412179D01*
X-100068Y412238D01*
X-99979Y412298D01*
X-99889Y412358D01*
X-99798Y412419D01*
X-99707Y412480D01*
X-99521Y412604D01*
X-99521Y412604D01*
X-99427Y412667D01*
X-99427Y412667D01*
X-99427Y412667D01*
X-99332Y412731D01*
X-99332Y412731D01*
X-99332Y412731D01*
X-99237Y412794D01*
X-99237Y412794D01*
X-99237Y412794D01*
X-99140Y412859D01*
X-99140Y412859D01*
X-99140Y412859D01*
X-99043Y412924D01*
X-99043Y412924D01*
X-99043Y412924D01*
X-98945Y412990D01*
X-98945Y412990D01*
X-98945Y412990D01*
X-98846Y413056D01*
X-98846Y413056D01*
X-98846Y413056D01*
X-98747Y413123D01*
X-98747Y413123D01*
X-98747Y413123D01*
X-98697Y413156D01*
X-98697Y413157D01*
X-98697Y413157D01*
X-98646Y413190D01*
X-98646Y413190D01*
X-98646D01*
X-98596Y413224D01*
X-98596Y413224D01*
X-98596Y413224D01*
X-98545Y413258D01*
X-98545Y413258D01*
X-98494Y413293D01*
X-98494Y413293D01*
X-98494Y413293D01*
X-98443Y413327D01*
X-98443Y413327D01*
X-98443Y413327D01*
X-98392Y413362D01*
X-98392Y413362D01*
X-98392Y413362D01*
X-98340Y413396D01*
X-98340Y413396D01*
X-98340Y413396D01*
X-98289Y413431D01*
X-98289Y413431D01*
X-98288Y413431D01*
X-98237Y413466D01*
X-98237Y413466D01*
X-98237Y413466D01*
X-98185Y413502D01*
X-98184Y413502D01*
X-98184Y413502D01*
X-98132Y413537D01*
X-98132Y413537D01*
X-98132Y413537D01*
X-98080Y413573D01*
X-98080Y413573D01*
X-98080Y413573D01*
X-98027Y413608D01*
X-98027Y413608D01*
X-98027Y413608D01*
X-97974Y413644D01*
X-97974Y413644D01*
X-97974Y413644D01*
X-97921Y413680D01*
X-97921Y413680D01*
X-97921Y413680D01*
X-97867Y413716D01*
X-97867Y413717D01*
X-97867Y413717D01*
X-97814Y413753D01*
X-97814Y413753D01*
X-97814Y413753D01*
X-97760Y413789D01*
X-97760Y413790D01*
X-97760Y413790D01*
X-97706Y413826D01*
X-97706Y413826D01*
X-97706Y413826D01*
X-97652Y413863D01*
X-97652Y413863D01*
X-97652Y413863D01*
X-97598Y413900D01*
X-97598Y413900D01*
X-97597Y413900D01*
X-97543Y413937D01*
X-97543Y413938D01*
X-97543Y413938D01*
X-97488Y413975D01*
X-97488Y413975D01*
X-97488Y413975D01*
X-97433Y414012D01*
X-97433Y414013D01*
X-97433Y414013D01*
X-97378Y414050D01*
X-97378Y414050D01*
X-97378Y414050D01*
X-97323Y414088D01*
X-97323Y414088D01*
X-97322Y414088D01*
X-97267Y414126D01*
X-97267Y414127D01*
X-97267Y414127D01*
X-97211Y414165D01*
X-97211Y414165D01*
X-97211Y414165D01*
X-97155Y414203D01*
X-97155Y414204D01*
X-97155Y414204D01*
X-97099Y414242D01*
X-97099Y414242D01*
X-97099Y414242D01*
X-97043Y414281D01*
X-97043Y414281D01*
X-97042Y414281D01*
X-96986Y414320D01*
X-96986Y414320D01*
X-96986Y414320D01*
X-96872Y414399D01*
X-96872Y414399D01*
X-96872Y414399D01*
X-96758Y414478D01*
X-96757Y414479D01*
X-96757Y414479D01*
X-96642Y414559D01*
X-96642Y414559D01*
X-96641Y414559D01*
X-96526Y414640D01*
X-96526Y414640D01*
X-96525Y414640D01*
X-96408Y414722D01*
X-96408Y414722D01*
X-96408Y414722D01*
X-96290Y414804D01*
X-96290Y414805D01*
X-96290Y414805D01*
X-96172Y414888D01*
X-96171Y414888D01*
X-96171Y414888D01*
X-96052Y414972D01*
X-96052Y414972D01*
X-96051Y414973D01*
X-95871Y415100D01*
X-95871Y415101D01*
X-95870Y415101D01*
X-95688Y415230D01*
X-95688Y415231D01*
X-95687Y415231D01*
X-95503Y415362D01*
X-95503Y415363D01*
X-95502Y415363D01*
X-95254Y415541D01*
X-95253Y415541D01*
X-95253Y415542D01*
X-95001Y415723D01*
X-95001Y415724D01*
X-95000Y415724D01*
X-94681Y415956D01*
X-94680Y415957D01*
X-94679Y415957D01*
X-94469Y416111D01*
X-94468Y416112D01*
X-94467Y416112D01*
X-94047Y416422D01*
X-94046Y416424D01*
X-94044Y416424D01*
X-93626Y416736D01*
X-93625Y416738D01*
X-93624Y416738D01*
X-93207Y417052D01*
X-93206Y417053D01*
X-93205Y417054D01*
X-92997Y417212D01*
X-92996Y417213D01*
X-92995Y417213D01*
X-92287Y417758D01*
X-92286Y417759D01*
X-92284Y417760D01*
X-91776Y418157D01*
X-91775Y418158D01*
X-91774Y418159D01*
X-91330Y418510D01*
X-91329Y418511D01*
X-91328Y418511D01*
X-90952Y418812D01*
X-90951Y418813D01*
X-90950Y418814D01*
X-90569Y419121D01*
X-90568Y419122D01*
X-90567Y419123D01*
X-90258Y419374D01*
X-90257Y419375D01*
X-90256Y419375D01*
X-89943Y419632D01*
X-89943Y419633D01*
X-89942Y419633D01*
X-89626Y419894D01*
X-89625Y419895D01*
X-89624Y419896D01*
X-89304Y420162D01*
X-89304Y420163D01*
X-89302Y420163D01*
X-88979Y420435D01*
X-88979Y420435D01*
X-88978Y420436D01*
X-88651Y420712D01*
X-88650Y420713D01*
X-88649Y420714D01*
X-88318Y420995D01*
X-88318Y420996D01*
X-88317Y420996D01*
X-88067Y421211D01*
X-88066Y421212D01*
X-88065Y421212D01*
X-87813Y421430D01*
X-87813Y421431D01*
X-87812Y421431D01*
X-87557Y421652D01*
X-87557Y421652D01*
X-87556Y421653D01*
X-87300Y421876D01*
X-87299Y421877D01*
X-87299Y421877D01*
X-87040Y422105D01*
X-87040Y422105D01*
X-87039Y422106D01*
X-86778Y422336D01*
X-86778Y422336D01*
X-86777Y422337D01*
X-86514Y422570D01*
X-86514Y422571D01*
X-86513Y422571D01*
X-86248Y422807D01*
X-86248Y422808D01*
X-86247Y422808D01*
X-85980Y423048D01*
X-85980Y423049D01*
X-85979Y423049D01*
X-85710Y423292D01*
X-85710Y423293D01*
X-85709Y423293D01*
X-85438Y423539D01*
X-85438Y423540D01*
X-85437Y423540D01*
X-85164Y423790D01*
X-85163Y423790D01*
X-85163Y423791D01*
X-84887Y424044D01*
X-84887Y424044D01*
X-84886Y424045D01*
X-84609Y424301D01*
X-84609Y424302D01*
X-84608Y424302D01*
X-84328Y424562D01*
X-84328Y424562D01*
X-84327Y424563D01*
X-84046Y424826D01*
X-84045Y424826D01*
X-84044Y424827D01*
X-83761Y425093D01*
X-83760Y425094D01*
X-83760Y425094D01*
X-83474Y425364D01*
X-83473Y425365D01*
X-83473Y425366D01*
X-83185Y425639D01*
X-83184Y425640D01*
X-83183Y425640D01*
X-82893Y425917D01*
X-82893Y425918D01*
X-82892Y425918D01*
X-82600Y426199D01*
X-82600Y426200D01*
X-82599Y426200D01*
X-82305Y426485D01*
X-82304Y426486D01*
X-82303Y426486D01*
X-82007Y426774D01*
X-82007Y426775D01*
X-82006Y426775D01*
X-81707Y427067D01*
X-81707Y427068D01*
X-81706Y427068D01*
X-81405Y427363D01*
X-81405Y427364D01*
X-81404Y427364D01*
X-81101Y427664D01*
X-81100Y427665D01*
X-81100Y427665D01*
X-80795Y427968D01*
X-80794Y427969D01*
X-80793Y427969D01*
X-80486Y428276D01*
X-80486Y428277D01*
X-80485Y428277D01*
X-80175Y428588D01*
X-80175Y428588D01*
X-80174Y428589D01*
X-79862Y428903D01*
X-79862Y428904D01*
X-79861Y428904D01*
X-79547Y429223D01*
X-79547Y429224D01*
X-79546Y429224D01*
X-79230Y429546D01*
X-79230Y429547D01*
X-79229Y429548D01*
X-78911Y429874D01*
X-78910Y429875D01*
X-78910Y429875D01*
X-78589Y430206D01*
X-78589Y430206D01*
X-78588Y430207D01*
X-78265Y430541D01*
X-78265Y430542D01*
X-78264Y430542D01*
X-77939Y430881D01*
X-77939Y430882D01*
X-77938Y430882D01*
X-77611Y431224D01*
X-77610Y431225D01*
X-77610Y431226D01*
X-77280Y431572D01*
X-77280Y431573D01*
X-77279Y431573D01*
X-76947Y431924D01*
X-76947Y431925D01*
X-76946Y431925D01*
X-76612Y432281D01*
X-76612Y432281D01*
X-76611Y432282D01*
X-76275Y432641D01*
X-76275Y432642D01*
X-76274Y432642D01*
X-75935Y433006D01*
X-75935Y433007D01*
X-75934Y433007D01*
X-75594Y433375D01*
X-75593Y433376D01*
X-75593Y433376D01*
X-75250Y433748D01*
X-75249Y433749D01*
X-75249Y433749D01*
X-74903Y434126D01*
X-74903Y434127D01*
X-74902Y434127D01*
X-74555Y434508D01*
X-74554Y434509D01*
X-74554Y434509D01*
X-74204Y434895D01*
X-74203Y434895D01*
X-74203Y434896D01*
X-73851Y435286D01*
X-73850Y435286D01*
X-73850Y435287D01*
X-73495Y435681D01*
X-73495Y435682D01*
X-73494Y435682D01*
X-73137Y436081D01*
X-73137Y436082D01*
X-73137Y436082D01*
X-72777Y436485D01*
X-72777Y436486D01*
X-72777Y436486D01*
X-72415Y436895D01*
X-72415Y436895D01*
X-72414Y436896D01*
X-72050Y437308D01*
X-72050Y437309D01*
X-72050Y437309D01*
X-71684Y437727D01*
X-71683Y437727D01*
X-71683Y437727D01*
X-71314Y438149D01*
X-71314Y438150D01*
X-71313Y438151D01*
X-70943Y438577D01*
X-70942Y438578D01*
X-70942Y438578D01*
X-70569Y439010D01*
X-70569Y439010D01*
X-70568Y439011D01*
X-70192Y439447D01*
X-70192Y439447D01*
X-70192Y439448D01*
X-69814Y439889D01*
X-69814Y439889D01*
X-69813Y439890D01*
X-69433Y440336D01*
X-69433Y440336D01*
X-69432Y440336D01*
X-69050Y440787D01*
X-69049Y440788D01*
X-69049Y440788D01*
X-68664Y441244D01*
X-68664Y441244D01*
X-68663Y441245D01*
X-68276Y441705D01*
X-68276Y441706D01*
X-68275Y441706D01*
X-67886Y442171D01*
X-67885Y442172D01*
X-67885Y442172D01*
X-67493Y442643D01*
X-67493Y442643D01*
X-67492Y442644D01*
X-67098Y443119D01*
X-67098Y443120D01*
X-67097Y443120D01*
X-66700Y443601D01*
X-66700Y443601D01*
X-66699Y443602D01*
X-66300Y444087D01*
X-66300Y444088D01*
X-66299Y444088D01*
X-65898Y444579D01*
X-65898Y444579D01*
X-65897Y444580D01*
X-65493Y445076D01*
X-65493Y445076D01*
X-65492Y445076D01*
X-65086Y445577D01*
X-65086Y445578D01*
X-65086Y445578D01*
X-64677Y446084D01*
X-64676Y446085D01*
X-64676Y446085D01*
X-64265Y446597D01*
X-64265Y446597D01*
X-64264Y446598D01*
X-63850Y447115D01*
X-63850Y447115D01*
X-63850Y447115D01*
X-63434Y447637D01*
X-63433Y447638D01*
X-63433Y447638D01*
X-63014Y448166D01*
X-63014Y448166D01*
X-63014Y448167D01*
X-62593Y448699D01*
X-62593Y448700D01*
X-62592Y448700D01*
X-62169Y449238D01*
X-62169Y449239D01*
X-62168Y449239D01*
X-61742Y449783D01*
X-61742Y449783D01*
X-61742Y449783D01*
X-61313Y450332D01*
X-61313Y450333D01*
X-61313Y450333D01*
X-60882Y450888D01*
X-60882Y450888D01*
X-60881Y450889D01*
X-60448Y451449D01*
X-60448Y451449D01*
X-60447Y451449D01*
X-60012Y452015D01*
X-60011Y452015D01*
X-60011Y452016D01*
X-59573Y452587D01*
X-59572Y452588D01*
X-59572Y452588D01*
X-59131Y453164D01*
X-59131Y453165D01*
X-59131Y453165D01*
X-58688Y453748D01*
X-58687Y453748D01*
X-58687Y453749D01*
X-58241Y454337D01*
X-58241Y454337D01*
X-58241Y454337D01*
X-57793Y454931D01*
X-57792Y454932D01*
X-57792Y454932D01*
X-57341Y455532D01*
X-57341Y455532D01*
X-57341Y455532D01*
X-56887Y456138D01*
X-56887Y456138D01*
X-56887Y456138D01*
X-56431Y456749D01*
X-56431Y456750D01*
X-56431Y456750D01*
X-55972Y457367D01*
X-55972Y457368D01*
X-55972Y457368D01*
X-55511Y457991D01*
X-55511Y457991D01*
X-55510Y457992D01*
X-55047Y458620D01*
X-55047Y458621D01*
X-55046Y458621D01*
X-54581Y459256D01*
X-54581Y459256D01*
X-54580Y459256D01*
X-54112Y459897D01*
X-54112Y459897D01*
X-54111Y459898D01*
X-53640Y460544D01*
X-53640Y460545D01*
X-53640Y460545D01*
X-53166Y461198D01*
X-53166Y461198D01*
X-53166Y461198D01*
X-52690Y461857D01*
X-52690Y461858D01*
X-52689Y461858D01*
X-52211Y462522D01*
X-52210Y462523D01*
X-52210Y462523D01*
X-51729Y463194D01*
X-51729Y463195D01*
X-51728Y463195D01*
X-51245Y463872D01*
X-51244Y463872D01*
X-51244Y463872D01*
X-50758Y464556D01*
X-50758Y464556D01*
X-50757Y464556D01*
X-50268Y465246D01*
X-50268Y465246D01*
X-50268Y465246D01*
X-49776Y465942D01*
X-49776Y465942D01*
X-49776Y465943D01*
X-49282Y466645D01*
X-49282Y466645D01*
X-49281Y466645D01*
X-48785Y467353D01*
X-48785Y467354D01*
X-48784Y467354D01*
X-48285Y468069D01*
X-48285Y468069D01*
X-48284Y468070D01*
X-47782Y468790D01*
X-47782Y468791D01*
X-47782Y468791D01*
X-47277Y469518D01*
X-47277Y469519D01*
X-47277Y469519D01*
X-46770Y470253D01*
X-46770Y470253D01*
X-46769Y470254D01*
X-46259Y470994D01*
X-46259Y470994D01*
X-46259Y470994D01*
X-45747Y471741D01*
X-45747Y471741D01*
X-45746Y471742D01*
X-45231Y472495D01*
X-45231Y472495D01*
X-45231Y472496D01*
X-44713Y473255D01*
X-44713Y473256D01*
X-44712Y473256D01*
X-44192Y474022D01*
X-44192Y474023D01*
X-44192Y474023D01*
X-43669Y474796D01*
X-43669Y474796D01*
X-43668Y474797D01*
X-43143Y475576D01*
X-43143Y475577D01*
X-43142Y475577D01*
X-42614Y476363D01*
X-42614Y476364D01*
X-42614Y476364D01*
X-42083Y477157D01*
X-42082Y477157D01*
X-42082Y477157D01*
X-41548Y477957D01*
X-41548Y477958D01*
X-41548Y477958D01*
X-41012Y478764D01*
X-41012Y478765D01*
X-41011Y478765D01*
X-40472Y479578D01*
X-40472Y479579D01*
X-40472Y479579D01*
X-39930Y480399D01*
X-39930Y480400D01*
X-39930Y480400D01*
X-39385Y481227D01*
X-39385Y481227D01*
X-39385Y481227D01*
X-38838Y482061D01*
X-38838Y482062D01*
X-38837Y482062D01*
X-38288Y482903D01*
X-38287Y482903D01*
X-38287Y482903D01*
X-37735Y483751D01*
X-37735Y483752D01*
X-37734Y483752D01*
X-37179Y484607D01*
X-37179Y484607D01*
X-37179Y484607D01*
X-36621Y485469D01*
X-36621Y485469D01*
X-36620Y485470D01*
X-36060Y486339D01*
X-36059Y486339D01*
X-36059Y486339D01*
X-35496Y487215D01*
X-35496Y487216D01*
X-35495Y487216D01*
X-34929Y488099D01*
X-34929Y488099D01*
X-34929Y488099D01*
X-34360Y488990D01*
X-34360Y488990D01*
X-34359Y488990D01*
X-33788Y489888D01*
X-33788Y489888D01*
X-33788Y489888D01*
X-33213Y490793D01*
X-33213Y490793D01*
X-33213Y490794D01*
X-32636Y491705D01*
X-32636Y491706D01*
X-32635Y491706D01*
X-32055Y492625D01*
X-32055Y492626D01*
X-32055Y492626D01*
X-31472Y493552D01*
X-31472Y493553D01*
X-31472Y493553D01*
X-30887Y494487D01*
X-30886Y494487D01*
X-30886Y494487D01*
X-30298Y495428D01*
X-30298Y495429D01*
X-30297Y495429D01*
X-29706Y496378D01*
X-29706Y496378D01*
X-29706Y496378D01*
X-29112Y497334D01*
X-29112Y497334D01*
X-29112Y497335D01*
X-28515Y498298D01*
X-28515Y498299D01*
X-28515Y498299D01*
X-27916Y499270D01*
X-27915Y499270D01*
X-27915Y499270D01*
X-27313Y500249D01*
X-27313Y500249D01*
X-27313Y500249D01*
X-26708Y501235D01*
X-26708Y501236D01*
X-26707Y501236D01*
X-26100Y502230D01*
X-26099Y502230D01*
X-26099Y502230D01*
X-25488Y503231D01*
X-25488Y503232D01*
X-25488Y503232D01*
X-24875Y504241D01*
X-24875Y504241D01*
X-24874Y504242D01*
X-24258Y505258D01*
X-24258Y505258D01*
X-24258Y505259D01*
X-23639Y506283D01*
X-23639Y506283D01*
X-23638Y506284D01*
X-23016Y507315D01*
X-23016Y507316D01*
X-23016Y507316D01*
X-22391Y508356D01*
X-22391Y508356D01*
X-22391Y508357D01*
X-21763Y509404D01*
X-21763Y509405D01*
X-21763Y509405D01*
X-21132Y510460D01*
X-21132Y510461D01*
X-21132Y510461D01*
X-20498Y511524D01*
X-20498Y511524D01*
X-20498Y511525D01*
X-19862Y512596D01*
X-19862Y512596D01*
X-19861Y512596D01*
X-19222Y513676D01*
X-19222Y513676D01*
X-19222Y513676D01*
X-18580Y514763D01*
X-18580Y514764D01*
X-18580Y514764D01*
X-17935Y515859D01*
X-17935Y515859D01*
X-17934Y515860D01*
X-17287Y516963D01*
X-17287Y516963D01*
X-17286Y516963D01*
X-16636Y518075D01*
X-16635Y518075D01*
X-16635Y518075D01*
X-15982Y519194D01*
X-15982Y519195D01*
X-15981Y519195D01*
X-15325Y520322D01*
X-15325Y520323D01*
X-15325Y520323D01*
X-14665Y521458D01*
X-14665Y521459D01*
X-14665Y521459D01*
X-14002Y522603D01*
X-14002Y522603D01*
X-14002Y522603D01*
X-13337Y523755D01*
X-13337Y523756D01*
X-13337Y523756D01*
X-12668Y524916D01*
X-12668Y524917D01*
X-12668Y524917D01*
X-11997Y526085D01*
X-11997Y526086D01*
X-11997Y526086D01*
X-11323Y527263D01*
X-11323Y527263D01*
X-11322Y527263D01*
X-10645Y528448D01*
X-10645Y528449D01*
X-10645Y528449D01*
X-9965Y529642D01*
X-9965Y529643D01*
X-9965Y529643D01*
X-9282Y530845D01*
X-9282Y530845D01*
X-9282Y530845D01*
X-8596Y532056D01*
X-8596Y532056D01*
X-8595Y532056D01*
X-7907Y533275D01*
X-7907Y533276D01*
X-7906Y533276D01*
X-7215Y534503D01*
X-7215Y534504D01*
X-7214Y534504D01*
X-6520Y535740D01*
X-6520Y535740D01*
X-6519Y535740D01*
X-5821Y536984D01*
X-5821Y536985D01*
X-5821Y536985D01*
X-4886Y538658D01*
X-4886Y538658D01*
X-4886Y538658D01*
X-4600Y539170D01*
X-3780Y540007D01*
X-2769Y540599D01*
X-1638Y540905D01*
X-466Y540903D01*
D02*
G37*
%LPC*%
G36*
X9478Y519900D02*
X8922D01*
X8407Y519687D01*
X8013Y519293D01*
X8001Y519265D01*
X6966D01*
X6674Y519206D01*
X6426Y519041D01*
X6426Y519041D01*
X-8291Y504324D01*
X-8456Y504076D01*
X-8515Y503783D01*
Y405350D01*
X-8456Y405057D01*
X-8291Y404809D01*
X2187Y394332D01*
Y387266D01*
X2013Y387093D01*
X1800Y386578D01*
Y386021D01*
X1931Y385706D01*
X1894Y385650D01*
X1835Y385357D01*
Y369417D01*
X-15980Y351601D01*
X-16480Y351808D01*
Y376700D01*
X-16558Y377090D01*
X-16779Y377421D01*
X-17110Y377642D01*
X-17500Y377720D01*
X-17890Y377642D01*
X-18221Y377421D01*
X-18442Y377090D01*
X-18520Y376700D01*
Y348322D01*
X-26421Y340421D01*
X-26642Y340090D01*
X-26720Y339700D01*
X-26642Y339310D01*
X-26421Y338979D01*
X-26090Y338758D01*
X-25700Y338680D01*
X-25310Y338758D01*
X-24979Y338979D01*
X-16779Y347179D01*
X-16760Y347190D01*
X-16555Y347100D01*
X-16443Y346504D01*
X-51731Y311217D01*
X-52192Y311409D01*
Y335926D01*
X-30859Y357259D01*
X-30694Y357507D01*
X-30635Y357800D01*
X-30635Y357800D01*
Y395700D01*
X-30694Y395993D01*
X-30859Y396241D01*
X-30859Y396241D01*
X-31112Y396493D01*
X-31100Y396521D01*
Y397078D01*
X-31313Y397593D01*
X-31707Y397987D01*
X-32221Y398200D01*
X-32778D01*
X-33293Y397987D01*
X-33687Y397593D01*
X-33900Y397078D01*
Y396521D01*
X-33687Y396007D01*
X-33293Y395613D01*
X-32778Y395400D01*
X-32221D01*
X-32165Y394938D01*
Y358117D01*
X-53498Y336784D01*
X-53664Y336536D01*
X-53722Y336243D01*
Y312697D01*
X-54222Y312363D01*
X-54329Y312407D01*
X-54886D01*
X-55400Y312194D01*
X-55794Y311800D01*
X-56007Y311286D01*
Y310729D01*
X-55995Y310700D01*
X-57041Y309655D01*
X-57206Y309407D01*
X-57265Y309114D01*
Y194399D01*
X-57727Y194208D01*
X-58635Y195117D01*
Y251301D01*
X-58607Y251313D01*
X-58213Y251707D01*
X-58000Y252221D01*
Y252779D01*
X-58213Y253293D01*
X-58607Y253687D01*
X-58775Y253756D01*
X-78735Y273717D01*
Y282301D01*
X-78707Y282313D01*
X-78313Y282707D01*
X-78100Y283222D01*
Y283779D01*
X-78313Y284293D01*
X-78585Y284565D01*
Y284833D01*
X-78159Y285259D01*
X-77994Y285507D01*
X-77935Y285800D01*
Y329083D01*
X-51007Y356012D01*
X-50978Y356000D01*
X-50422D01*
X-49907Y356213D01*
X-49513Y356607D01*
X-49512Y356610D01*
X-49502Y356616D01*
X-35959Y370159D01*
X-35794Y370407D01*
X-35735Y370700D01*
Y391301D01*
X-35707Y391313D01*
X-35313Y391707D01*
X-35100Y392221D01*
Y392778D01*
X-35313Y393293D01*
X-35335Y393315D01*
Y431583D01*
X-32407Y434512D01*
X-32379Y434500D01*
X-31822D01*
X-31307Y434713D01*
X-30913Y435107D01*
X-30700Y435622D01*
Y436178D01*
X-30913Y436693D01*
X-31307Y437087D01*
X-31822Y437300D01*
X-32379D01*
X-32893Y437087D01*
X-33287Y436693D01*
X-33500Y436178D01*
Y435622D01*
X-33488Y435593D01*
X-36641Y432441D01*
X-36806Y432193D01*
X-36865Y431900D01*
Y393864D01*
X-37293Y393687D01*
X-37687Y393293D01*
X-37900Y392778D01*
Y392221D01*
X-37687Y391707D01*
X-37293Y391313D01*
X-37265Y391301D01*
Y371017D01*
X-49801Y358481D01*
X-49907Y358587D01*
X-50422Y358800D01*
X-50978D01*
X-51493Y358587D01*
X-51887Y358193D01*
X-52100Y357679D01*
Y357121D01*
X-52088Y357093D01*
X-79241Y329941D01*
X-79406Y329693D01*
X-79465Y329400D01*
Y286117D01*
X-79891Y285691D01*
X-80057Y285443D01*
X-80115Y285150D01*
Y284761D01*
X-80293Y284687D01*
X-80687Y284293D01*
X-80900Y283779D01*
Y283222D01*
X-80687Y282707D01*
X-80293Y282313D01*
X-80265Y282301D01*
Y273400D01*
X-80207Y273107D01*
X-80041Y272859D01*
X-60531Y253349D01*
X-60587Y253293D01*
X-60800Y252779D01*
Y252221D01*
X-60587Y251707D01*
X-60193Y251313D01*
X-60165Y251301D01*
Y194800D01*
X-60106Y194507D01*
X-59941Y194259D01*
X-58265Y192583D01*
Y180833D01*
X-58206Y180541D01*
X-58041Y180293D01*
X-57749Y180001D01*
X-57800Y179878D01*
Y179322D01*
X-57587Y178807D01*
X-57193Y178413D01*
X-57165Y178401D01*
Y172717D01*
X-87252Y142630D01*
X-87422Y142700D01*
X-87979D01*
X-88493Y142487D01*
X-88887Y142093D01*
X-89100Y141578D01*
Y141022D01*
X-88887Y140507D01*
X-88493Y140113D01*
X-87979Y139900D01*
X-87422D01*
X-87393Y139912D01*
X-78341Y130859D01*
X-78341Y130859D01*
X-78093Y130693D01*
X-77800Y130635D01*
X-71099D01*
X-71087Y130607D01*
X-70693Y130213D01*
X-70179Y130000D01*
X-69621D01*
X-69107Y130213D01*
X-68713Y130607D01*
X-68500Y131122D01*
Y131678D01*
X-68713Y132193D01*
X-69107Y132587D01*
X-69621Y132800D01*
X-70179D01*
X-70693Y132587D01*
X-71087Y132193D01*
X-71099Y132165D01*
X-77483D01*
X-86312Y140993D01*
X-86300Y141022D01*
Y141419D01*
X-55859Y171859D01*
X-55694Y172107D01*
X-55635Y172400D01*
Y178401D01*
X-55607Y178413D01*
X-55213Y178807D01*
X-55000Y179322D01*
Y179878D01*
X-55213Y180393D01*
X-55607Y180787D01*
X-56121Y181000D01*
X-56585D01*
X-56735Y181150D01*
Y182439D01*
X-56273Y182630D01*
X-54065Y180421D01*
Y156500D01*
X-54006Y156207D01*
X-53841Y155959D01*
X-45388Y147507D01*
X-45400Y147478D01*
Y146922D01*
X-45187Y146407D01*
X-44793Y146013D01*
X-44278Y145800D01*
X-43722D01*
X-43207Y146013D01*
X-42813Y146407D01*
X-42600Y146922D01*
Y147478D01*
X-42813Y147993D01*
X-43207Y148387D01*
X-43722Y148600D01*
X-44278D01*
X-44307Y148588D01*
X-52535Y156817D01*
Y179653D01*
X-52073Y179844D01*
X-45389Y173160D01*
X-45141Y172994D01*
X-44848Y172936D01*
X-44717D01*
X-39188Y167407D01*
X-39200Y167378D01*
Y166822D01*
X-39043Y166443D01*
X-39360Y166051D01*
X-39376Y166040D01*
X-39522Y166100D01*
X-40078D01*
X-40593Y165887D01*
X-40987Y165493D01*
X-41200Y164979D01*
Y164421D01*
X-40987Y163907D01*
X-40593Y163513D01*
X-40565Y163501D01*
Y160969D01*
X-41065Y160635D01*
X-41221Y160700D01*
X-41778D01*
X-42293Y160487D01*
X-42687Y160093D01*
X-42900Y159579D01*
Y159021D01*
X-42687Y158507D01*
X-42293Y158113D01*
X-41778Y157900D01*
X-41221D01*
X-41193Y157912D01*
X-37988Y154707D01*
X-38000Y154678D01*
Y154121D01*
X-37787Y153607D01*
X-37545Y153365D01*
X-37752Y152865D01*
X-38401D01*
X-38413Y152893D01*
X-38807Y153287D01*
X-38835Y153299D01*
Y153500D01*
X-38893Y153793D01*
X-39059Y154041D01*
X-43412Y158393D01*
X-43400Y158422D01*
Y158978D01*
X-43613Y159493D01*
X-44007Y159887D01*
X-44521Y160100D01*
X-45079D01*
X-45593Y159887D01*
X-45987Y159493D01*
X-46200Y158978D01*
Y158422D01*
X-45987Y157907D01*
X-45593Y157513D01*
X-45079Y157300D01*
X-44521D01*
X-44493Y157312D01*
X-40431Y153249D01*
X-40787Y152893D01*
X-41000Y152378D01*
Y151821D01*
X-40787Y151307D01*
X-40393Y150913D01*
X-39878Y150700D01*
X-39322D01*
X-38807Y150913D01*
X-38413Y151307D01*
X-38401Y151335D01*
X-34100D01*
X-33807Y151393D01*
X-33559Y151559D01*
X-28459Y156659D01*
X-28293Y156907D01*
X-28235Y157200D01*
Y162760D01*
X-28107Y162813D01*
X-27713Y163207D01*
X-27500Y163722D01*
Y164278D01*
X-27713Y164793D01*
X-28107Y165187D01*
X-28622Y165400D01*
X-29179D01*
X-29693Y165187D01*
X-30087Y164793D01*
X-30300Y164278D01*
Y163722D01*
X-30087Y163207D01*
X-29765Y162885D01*
Y157517D01*
X-34417Y152865D01*
X-35448D01*
X-35655Y153365D01*
X-35413Y153607D01*
X-35200Y154121D01*
Y154678D01*
X-35413Y155193D01*
X-35807Y155587D01*
X-36080Y155700D01*
Y156241D01*
X-35907Y156313D01*
X-35513Y156707D01*
X-35300Y157221D01*
Y157779D01*
X-35513Y158293D01*
X-35907Y158687D01*
X-36421Y158900D01*
X-36979D01*
X-37007Y158888D01*
X-39035Y160917D01*
Y163008D01*
X-38904Y163181D01*
X-38399Y163247D01*
X-38341Y163159D01*
X-36476Y161294D01*
X-36517Y161195D01*
Y160638D01*
X-36303Y160124D01*
X-35910Y159730D01*
X-35395Y159517D01*
X-34838D01*
X-34323Y159730D01*
X-33930Y160124D01*
X-33717Y160638D01*
Y161195D01*
X-33930Y161710D01*
X-34323Y162103D01*
X-34838Y162317D01*
X-35335D01*
X-37035Y164017D01*
Y165901D01*
X-37007Y165913D01*
X-36613Y166307D01*
X-36400Y166822D01*
Y167378D01*
X-36613Y167893D01*
X-37007Y168287D01*
X-37521Y168500D01*
X-38078D01*
X-38107Y168488D01*
X-43536Y173918D01*
X-43329Y174418D01*
X-37447D01*
X-35135Y172107D01*
X-35147Y172079D01*
Y171521D01*
X-34934Y171007D01*
X-34540Y170613D01*
X-34026Y170400D01*
X-33469D01*
X-32954Y170613D01*
X-32560Y171007D01*
X-32347Y171521D01*
Y172079D01*
X-32560Y172593D01*
X-32954Y172987D01*
X-33469Y173200D01*
X-34026D01*
X-34054Y173188D01*
X-36589Y175723D01*
X-36837Y175889D01*
X-37130Y175947D01*
X-44599D01*
X-45831Y177179D01*
X-45714Y177769D01*
X-45607Y177813D01*
X-45213Y178207D01*
X-45201Y178235D01*
X-41774D01*
X-41148Y177609D01*
X-40900Y177444D01*
X-40607Y177385D01*
X-29548D01*
X-29273Y176885D01*
X-29400Y176578D01*
Y176022D01*
X-29187Y175507D01*
X-28793Y175113D01*
X-28278Y174900D01*
X-27722D01*
X-27207Y175113D01*
X-26813Y175507D01*
X-26600Y176022D01*
Y176385D01*
X-22877Y180108D01*
X-22415Y179917D01*
Y160250D01*
X-22356Y159957D01*
X-22191Y159709D01*
X-13975Y151494D01*
X-14020Y151263D01*
X-14150Y150961D01*
X-14586Y150780D01*
X-14980Y150387D01*
X-15193Y149872D01*
Y149315D01*
X-15182Y149287D01*
X-18162Y146307D01*
X-18328Y146058D01*
X-18386Y145766D01*
Y145696D01*
X-21517Y142565D01*
X-34183D01*
X-47612Y155993D01*
X-47600Y156021D01*
Y156579D01*
X-47813Y157093D01*
X-48207Y157487D01*
X-48722Y157700D01*
X-49279D01*
X-49793Y157487D01*
X-50187Y157093D01*
X-50400Y156579D01*
Y156021D01*
X-50187Y155507D01*
X-49793Y155113D01*
X-49279Y154900D01*
X-48722D01*
X-48693Y154912D01*
X-37943Y144162D01*
X-38098Y143609D01*
X-38393Y143487D01*
X-38787Y143093D01*
X-38799Y143065D01*
X-50300D01*
X-50593Y143007D01*
X-50841Y142841D01*
X-73692Y119990D01*
X-73858Y119741D01*
X-73861Y119724D01*
X-74193Y119587D01*
X-74587Y119193D01*
X-74800Y118678D01*
Y118122D01*
X-74587Y117607D01*
X-74193Y117213D01*
X-73678Y117000D01*
X-73122D01*
X-72607Y117213D01*
X-72213Y117607D01*
X-72000Y118122D01*
Y118678D01*
X-72213Y119193D01*
X-72269Y119249D01*
X-49983Y141535D01*
X-47998D01*
X-47752Y141035D01*
X-47900Y140679D01*
Y140121D01*
X-47687Y139607D01*
X-47293Y139213D01*
X-47265Y139201D01*
Y137250D01*
X-49491Y135024D01*
X-49657Y134776D01*
X-49715Y134483D01*
Y123250D01*
X-49657Y122957D01*
X-49491Y122709D01*
X-47988Y121207D01*
X-48000Y121178D01*
Y120708D01*
X-48180Y120480D01*
X-48408Y120300D01*
X-48878D01*
X-49393Y120087D01*
X-49787Y119693D01*
X-50000Y119178D01*
Y118622D01*
X-49787Y118107D01*
X-49393Y117713D01*
X-48878Y117500D01*
X-48322D01*
X-47807Y117713D01*
X-47413Y118107D01*
X-47401Y118135D01*
X-30899D01*
X-30887Y118107D01*
X-30493Y117713D01*
X-29978Y117500D01*
X-29421D01*
X-28907Y117713D01*
X-28513Y118107D01*
X-28501Y118135D01*
X-21800D01*
X-21700Y118155D01*
X-21454Y117694D01*
X-23183Y115965D01*
X-48701D01*
X-48713Y115993D01*
X-49107Y116387D01*
X-49621Y116600D01*
X-50178D01*
X-50693Y116387D01*
X-51087Y115993D01*
X-51300Y115479D01*
Y114921D01*
X-51087Y114407D01*
X-50693Y114013D01*
X-50270Y113838D01*
X-50204Y113508D01*
X-50220Y113317D01*
X-50293Y113287D01*
X-50687Y112893D01*
X-50900Y112379D01*
Y111821D01*
X-50687Y111307D01*
X-50293Y110913D01*
X-49779Y110700D01*
X-49222D01*
X-48707Y110913D01*
X-48385Y111235D01*
X-23300D01*
X-23007Y111293D01*
X-22759Y111459D01*
X-20407Y113812D01*
X-20379Y113800D01*
X-19821D01*
X-19307Y114013D01*
X-18913Y114407D01*
X-18700Y114921D01*
Y115479D01*
X-18913Y115993D01*
X-19307Y116387D01*
X-19720Y116558D01*
X-19861Y116906D01*
X-19885Y117100D01*
X-19450Y117535D01*
X17585D01*
X17607Y117513D01*
X18122Y117300D01*
X18678D01*
X19193Y117513D01*
X19587Y117907D01*
X19800Y118421D01*
Y118979D01*
X19587Y119493D01*
X19193Y119887D01*
X18678Y120100D01*
X18122D01*
X17607Y119887D01*
X17213Y119493D01*
X17036Y119065D01*
X-19767D01*
X-19867Y119045D01*
X-20113Y119506D01*
X-19619Y120000D01*
X-19321D01*
X-18807Y120213D01*
X-18413Y120607D01*
X-18200Y121122D01*
Y121678D01*
X-18413Y122193D01*
X-18807Y122587D01*
X-19321Y122800D01*
X-19879D01*
X-20393Y122587D01*
X-20787Y122193D01*
X-21000Y121678D01*
Y121122D01*
X-20900Y120881D01*
X-22117Y119665D01*
X-28501D01*
X-28513Y119693D01*
X-28907Y120087D01*
X-28935Y120099D01*
Y128383D01*
X-28107Y129212D01*
X-28078Y129200D01*
X-27521D01*
X-27007Y129413D01*
X-26613Y129807D01*
X-26400Y130322D01*
Y130878D01*
X-26613Y131393D01*
X-27007Y131787D01*
X-27521Y132000D01*
X-28078D01*
X-28593Y131787D01*
X-28987Y131393D01*
X-29200Y130878D01*
Y130322D01*
X-29188Y130293D01*
X-30241Y129241D01*
X-30406Y128993D01*
X-30465Y128700D01*
Y120099D01*
X-30493Y120087D01*
X-30887Y119693D01*
X-30899Y119665D01*
X-37902D01*
X-38148Y120165D01*
X-38000Y120521D01*
Y121079D01*
X-38213Y121593D01*
X-38607Y121987D01*
X-39121Y122200D01*
X-39678D01*
X-40193Y121987D01*
X-40587Y121593D01*
X-40599Y121565D01*
X-43283D01*
X-44912Y123193D01*
X-44900Y123222D01*
Y123778D01*
X-45113Y124293D01*
X-45507Y124687D01*
X-46022Y124900D01*
X-46578D01*
X-47093Y124687D01*
X-47487Y124293D01*
X-47700Y123778D01*
X-48185Y123814D01*
Y134167D01*
X-45959Y136393D01*
X-45794Y136641D01*
X-45735Y136933D01*
Y139201D01*
X-45707Y139213D01*
X-45313Y139607D01*
X-45100Y140121D01*
Y140679D01*
X-45248Y141035D01*
X-45002Y141535D01*
X-38799D01*
X-38787Y141507D01*
X-38393Y141113D01*
X-37879Y140900D01*
X-37321D01*
X-36807Y141113D01*
X-36413Y141507D01*
X-36291Y141802D01*
X-35738Y141957D01*
X-35041Y141259D01*
X-34793Y141094D01*
X-34500Y141035D01*
X-34500Y141035D01*
X-21200D01*
X-20907Y141094D01*
X-20659Y141259D01*
X-17080Y144838D01*
X-16915Y145086D01*
X-16856Y145379D01*
Y145449D01*
X-14100Y148205D01*
X-14072Y148194D01*
X-13515D01*
X-13001Y148407D01*
X-12607Y148801D01*
X-12426Y149237D01*
X-12123Y149367D01*
X-11893Y149412D01*
X-9165Y146683D01*
Y121800D01*
X-9160Y121775D01*
X-9200Y121678D01*
Y121122D01*
X-8987Y120607D01*
X-8593Y120213D01*
X-8078Y120000D01*
X-7521D01*
X-7007Y120213D01*
X-6613Y120607D01*
X-6601Y120635D01*
X10893D01*
X11185Y120694D01*
X11433Y120859D01*
X12059Y121485D01*
X31600D01*
X32176Y120909D01*
X32424Y120744D01*
X32717Y120685D01*
X35450D01*
X35743Y120744D01*
X35991Y120909D01*
X37093Y122012D01*
X37121Y122000D01*
X37679D01*
X38193Y122213D01*
X38587Y122607D01*
X38800Y123122D01*
Y123519D01*
X57641Y142359D01*
X57641Y142359D01*
X57806Y142607D01*
X57865Y142900D01*
X57865Y142900D01*
Y145201D01*
X57893Y145213D01*
X58287Y145607D01*
X58500Y146122D01*
Y146678D01*
X58287Y147193D01*
X57893Y147587D01*
X57379Y147800D01*
X56822D01*
X56307Y147587D01*
X55913Y147193D01*
X55700Y146678D01*
Y146122D01*
X55913Y145607D01*
X56307Y145213D01*
X56335Y145201D01*
Y143217D01*
X37848Y124730D01*
X37679Y124800D01*
X37121D01*
X36895Y124706D01*
X36611Y125130D01*
X46693Y135212D01*
X46722Y135200D01*
X47278D01*
X47793Y135413D01*
X48187Y135807D01*
X48400Y136321D01*
Y136879D01*
X48187Y137393D01*
X47793Y137787D01*
X47278Y138000D01*
X47167D01*
X46800Y138421D01*
Y138979D01*
X46587Y139493D01*
X46193Y139887D01*
X45678Y140100D01*
X45121D01*
X44607Y139887D01*
X44213Y139493D01*
X44000Y138979D01*
Y138421D01*
X44012Y138393D01*
X31183Y125565D01*
X21609D01*
X21540Y125634D01*
X21025Y125847D01*
X20468D01*
X19954Y125634D01*
X19560Y125240D01*
X19347Y124725D01*
Y124168D01*
X19560Y123654D01*
X19699Y123515D01*
X19492Y123015D01*
X11743D01*
X11450Y122957D01*
X11202Y122791D01*
X10576Y122165D01*
X-6601D01*
X-6613Y122193D01*
X-7007Y122587D01*
X-7521Y122800D01*
X-7635D01*
Y147000D01*
X-7694Y147293D01*
X-7859Y147541D01*
X-20885Y160567D01*
Y188917D01*
X-20817Y189000D01*
X-20522D01*
X-20420Y189042D01*
X-19920Y188708D01*
Y182300D01*
X-19872Y182058D01*
X-20141Y181789D01*
X-20306Y181541D01*
X-20365Y181248D01*
Y173600D01*
X-20306Y173307D01*
X-20141Y173059D01*
X-19893Y172894D01*
X-19600Y172835D01*
X-19307Y172894D01*
X-19059Y173059D01*
X-18893Y173307D01*
X-18835Y173600D01*
Y180931D01*
X-18359Y181407D01*
X-18298Y181500D01*
X-18179Y181579D01*
X-17958Y181910D01*
X-17880Y182300D01*
Y191885D01*
X-17418Y192077D01*
X-7420Y182078D01*
Y149781D01*
X-7587Y149613D01*
X-7800Y149099D01*
Y148542D01*
X-7587Y148027D01*
X-7193Y147634D01*
X-6679Y147421D01*
X-6121D01*
X-5607Y147634D01*
X-5213Y148027D01*
X-5000Y148542D01*
Y149099D01*
X-5213Y149613D01*
X-5380Y149781D01*
Y182500D01*
X-5458Y182890D01*
X-5679Y183221D01*
X-16380Y193922D01*
Y195608D01*
X-15880Y195942D01*
X-15778Y195900D01*
X-15222D01*
X-14707Y196113D01*
X-14313Y196507D01*
X-14100Y197021D01*
Y197579D01*
X-14112Y197607D01*
X16091Y227809D01*
X16256Y228057D01*
X16315Y228350D01*
Y315557D01*
X16315Y315557D01*
X16256Y315850D01*
X16091Y316098D01*
X10665Y321524D01*
Y363501D01*
X10693Y363513D01*
X11087Y363907D01*
X11300Y364422D01*
Y364979D01*
X11229Y365151D01*
X11156Y365565D01*
X11391Y365809D01*
X15341Y369759D01*
X15341Y369759D01*
X15507Y370007D01*
X15565Y370300D01*
Y422961D01*
X16065Y423108D01*
X16236Y422994D01*
X16528Y422935D01*
X29983D01*
X41135Y411783D01*
Y403640D01*
X41007Y403587D01*
X40613Y403193D01*
X40400Y402678D01*
Y402121D01*
X40613Y401607D01*
X41007Y401213D01*
X41035Y401201D01*
Y349917D01*
X32219Y341100D01*
X31921D01*
X31407Y340887D01*
X31013Y340493D01*
X30800Y339979D01*
Y339422D01*
X31013Y338907D01*
X31407Y338513D01*
X31921Y338300D01*
X32478D01*
X32507Y338312D01*
X45735Y325083D01*
Y310323D01*
X45407Y310187D01*
X45013Y309793D01*
X44800Y309278D01*
Y308721D01*
X45013Y308207D01*
X45407Y307813D01*
X45435Y307801D01*
Y291602D01*
X40859Y287027D01*
X40694Y286778D01*
X40635Y286486D01*
Y242823D01*
X40307Y242687D01*
X39913Y242293D01*
X39700Y241778D01*
Y241221D01*
X39913Y240707D01*
X40307Y240313D01*
X40335Y240301D01*
Y223400D01*
X40393Y223107D01*
X40559Y222859D01*
X52935Y210483D01*
Y203864D01*
X52507Y203687D01*
X52113Y203293D01*
X51900Y202779D01*
Y202221D01*
X52113Y201707D01*
X52507Y201313D01*
X53022Y201100D01*
X53579D01*
X54093Y201313D01*
X54487Y201707D01*
X54700Y202221D01*
Y202779D01*
X54487Y203293D01*
X54465Y203315D01*
Y210800D01*
X54406Y211093D01*
X54241Y211341D01*
X41865Y223717D01*
Y240301D01*
X41893Y240313D01*
X42287Y240707D01*
X42500Y241221D01*
Y241778D01*
X42287Y242293D01*
X42165Y242415D01*
Y286169D01*
X46741Y290745D01*
X46741Y290745D01*
X46907Y290993D01*
X46965Y291286D01*
X46965Y291286D01*
Y307653D01*
X47233Y307856D01*
X47725Y307632D01*
Y289099D01*
X47345Y288718D01*
X47042Y288592D01*
X46648Y288198D01*
X46435Y287684D01*
Y287127D01*
X46648Y286613D01*
X47042Y286219D01*
X47556Y286005D01*
X48113D01*
X48628Y286219D01*
X49022Y286613D01*
X49147Y286915D01*
X49901Y287670D01*
X50178Y288083D01*
X50274Y288571D01*
Y422700D01*
X50178Y423188D01*
X49901Y423601D01*
X45200Y428302D01*
Y428478D01*
X44987Y428993D01*
X44593Y429387D01*
X44078Y429600D01*
X43521D01*
X43007Y429387D01*
X42613Y428993D01*
X42400Y428478D01*
Y427921D01*
X42613Y427407D01*
X42652Y427368D01*
X42899Y426999D01*
X47725Y422172D01*
Y325646D01*
X47225Y325597D01*
X47207Y325693D01*
X47041Y325941D01*
X47041Y325941D01*
X33588Y339393D01*
X33600Y339422D01*
Y339979D01*
X33500Y340219D01*
X42341Y349059D01*
X42507Y349307D01*
X42565Y349600D01*
Y401201D01*
X42593Y401213D01*
X42987Y401607D01*
X43200Y402121D01*
Y402678D01*
X42987Y403193D01*
X42665Y403515D01*
Y412100D01*
X42665Y412100D01*
X42606Y412393D01*
X42441Y412641D01*
X30841Y424241D01*
X30593Y424406D01*
X30300Y424465D01*
X16845D01*
X8915Y432395D01*
Y432997D01*
X8857Y433290D01*
X8691Y433538D01*
X8691Y433538D01*
X912Y441317D01*
X924Y441345D01*
Y441902D01*
X711Y442417D01*
X317Y442811D01*
X-198Y443024D01*
X-755D01*
X-1269Y442811D01*
X-1663Y442417D01*
X-1707Y442310D01*
X-2297Y442193D01*
X-2635Y442531D01*
Y449283D01*
X-1803Y450116D01*
X-1637Y450364D01*
X-1579Y450657D01*
Y450693D01*
X-1472Y450800D01*
X-922D01*
X-407Y451013D01*
X-13Y451407D01*
X200Y451922D01*
Y452479D01*
X-13Y452993D01*
X-407Y453387D01*
X-922Y453600D01*
X-1479D01*
X-1993Y453387D01*
X-2387Y452993D01*
X-2600Y452479D01*
Y451922D01*
X-2575Y451860D01*
X-2884Y451551D01*
X-3050Y451303D01*
X-3135Y451268D01*
X-3635Y451605D01*
Y453450D01*
X-2459Y454626D01*
X-2293Y454874D01*
X-2235Y455167D01*
Y501007D01*
X-2293Y501300D01*
X-2459Y501548D01*
X-3396Y502484D01*
X-3644Y502650D01*
X-3936Y502708D01*
X-4445D01*
X-4457Y502737D01*
X-4851Y503130D01*
X-5365Y503343D01*
X-5922D01*
X-6126Y503259D01*
X-6690Y503530D01*
X-6729Y503723D01*
X7283Y517735D01*
X8001D01*
X8013Y517707D01*
X8407Y517313D01*
X8922Y517100D01*
X9478D01*
X9993Y517313D01*
X10387Y517707D01*
X10600Y518222D01*
Y518779D01*
X10387Y519293D01*
X9993Y519687D01*
X9478Y519900D01*
D02*
G37*
G36*
X-269Y529405D02*
X-1531D01*
X-2768Y529159D01*
X-3934Y528677D01*
X-4983Y527976D01*
X-5875Y527083D01*
X-6577Y526034D01*
X-7059Y524868D01*
X-7305Y523631D01*
Y522369D01*
X-7059Y521132D01*
X-6577Y519966D01*
X-5875Y518917D01*
X-4983Y518024D01*
X-3934Y517323D01*
X-2768Y516841D01*
X-1531Y516595D01*
X-269D01*
X968Y516841D01*
X2134Y517323D01*
X3183Y518024D01*
X4075Y518917D01*
X4777Y519966D01*
X5259Y521132D01*
X5505Y522369D01*
Y523631D01*
X5259Y524868D01*
X4777Y526034D01*
X4075Y527083D01*
X3183Y527976D01*
X2134Y528677D01*
X968Y529159D01*
X-269Y529405D01*
D02*
G37*
G36*
X-61022Y416700D02*
X-61579D01*
X-62093Y416487D01*
X-62487Y416093D01*
X-62700Y415579D01*
Y415022D01*
X-62487Y414507D01*
X-62093Y414113D01*
X-61579Y413900D01*
X-61022D01*
X-60507Y414113D01*
X-60113Y414507D01*
X-59900Y415022D01*
Y415579D01*
X-60113Y416093D01*
X-60507Y416487D01*
X-61022Y416700D01*
D02*
G37*
G36*
X-9362Y393750D02*
X-10323D01*
X-11251Y393501D01*
X-12083Y393020D01*
X-12763Y392341D01*
X-13243Y391509D01*
X-13492Y390581D01*
Y389619D01*
X-13243Y388691D01*
X-12763Y387859D01*
X-12083Y387180D01*
X-11251Y386699D01*
X-10323Y386450D01*
X-9362D01*
X-8434Y386699D01*
X-7602Y387180D01*
X-6922Y387859D01*
X-6442Y388691D01*
X-6193Y389619D01*
Y390581D01*
X-6442Y391509D01*
X-6922Y392341D01*
X-7602Y393020D01*
X-8434Y393501D01*
X-9362Y393750D01*
D02*
G37*
G36*
X35678Y374000D02*
X35122D01*
X34607Y373787D01*
X34213Y373393D01*
X34000Y372879D01*
Y372322D01*
X34213Y371807D01*
X34607Y371413D01*
X35122Y371200D01*
X35678D01*
X35707Y371212D01*
X38035Y368883D01*
Y367215D01*
X37913Y367093D01*
X37700Y366579D01*
Y366021D01*
X37913Y365507D01*
X38307Y365113D01*
X38822Y364900D01*
X39378D01*
X39893Y365113D01*
X40287Y365507D01*
X40500Y366021D01*
Y366579D01*
X40287Y367093D01*
X39893Y367487D01*
X39565Y367623D01*
Y369200D01*
X39565Y369200D01*
X39507Y369493D01*
X39341Y369741D01*
X39341Y369741D01*
X36788Y372293D01*
X36800Y372322D01*
Y372879D01*
X36587Y373393D01*
X36193Y373787D01*
X35678Y374000D01*
D02*
G37*
G36*
X-36621Y359200D02*
X-37179D01*
X-37693Y358987D01*
X-38087Y358593D01*
X-38300Y358079D01*
Y357865D01*
X-39600D01*
X-39893Y357806D01*
X-40141Y357641D01*
X-45293Y352488D01*
X-45322Y352500D01*
X-45878D01*
X-46393Y352287D01*
X-46787Y351893D01*
X-47000Y351378D01*
Y350821D01*
X-46787Y350307D01*
X-46393Y349913D01*
X-45878Y349700D01*
X-45322D01*
X-44807Y349913D01*
X-44413Y350307D01*
X-44200Y350821D01*
Y351378D01*
X-44212Y351407D01*
X-39283Y356335D01*
X-37500D01*
X-37207Y356394D01*
X-37190Y356405D01*
X-37179Y356400D01*
X-36621D01*
X-36107Y356613D01*
X-35713Y357007D01*
X-35500Y357522D01*
Y358079D01*
X-35713Y358593D01*
X-36107Y358987D01*
X-36621Y359200D01*
D02*
G37*
G36*
X-27922Y353500D02*
X-28479D01*
X-28993Y353287D01*
X-29387Y352893D01*
X-29600Y352379D01*
Y351821D01*
X-29387Y351307D01*
X-28993Y350913D01*
X-28479Y350700D01*
X-27922D01*
X-27407Y350913D01*
X-27013Y351307D01*
X-26800Y351821D01*
Y352379D01*
X-27013Y352893D01*
X-27407Y353287D01*
X-27922Y353500D01*
D02*
G37*
G36*
X62678Y274240D02*
X62121D01*
X61607Y274027D01*
X61213Y273633D01*
X61000Y273119D01*
Y272562D01*
X61125Y272259D01*
Y170599D01*
X60625Y170500D01*
X60587Y170593D01*
X60193Y170987D01*
X59679Y171200D01*
X59122D01*
X58607Y170987D01*
X58213Y170593D01*
X58201Y170565D01*
X48099D01*
X47807Y170507D01*
X47559Y170341D01*
X43333Y166115D01*
X36790D01*
X36456Y166615D01*
X36500Y166721D01*
Y167279D01*
X36287Y167793D01*
X35893Y168187D01*
X35379Y168400D01*
X34822D01*
X34307Y168187D01*
X33913Y167793D01*
X33901Y167765D01*
X31635D01*
X31383Y167815D01*
X27700D01*
X14774Y180741D01*
X14526Y180906D01*
X14233Y180965D01*
X-1254D01*
X-1641Y181352D01*
X-2156Y181566D01*
X-2713D01*
X-2835Y181515D01*
X-3335Y181849D01*
Y193583D01*
X741Y197659D01*
X907Y197907D01*
X956Y198156D01*
X1093Y198213D01*
X1487Y198607D01*
X1700Y199121D01*
Y199679D01*
X1487Y200193D01*
X1093Y200587D01*
X579Y200800D01*
X21D01*
X-493Y200587D01*
X-887Y200193D01*
X-1100Y199679D01*
Y199121D01*
X-887Y198607D01*
X-681Y198401D01*
X-4641Y194441D01*
X-4806Y194193D01*
X-4865Y193900D01*
Y178993D01*
X-4806Y178700D01*
X-4641Y178452D01*
X-2741Y176552D01*
X-2741Y176552D01*
X-2493Y176386D01*
X-2200Y176328D01*
X-2200Y176328D01*
X9649D01*
X9748Y175828D01*
X9407Y175687D01*
X9013Y175293D01*
X8800Y174778D01*
Y174222D01*
X9013Y173707D01*
X9407Y173313D01*
X9435Y173301D01*
Y142800D01*
X9493Y142507D01*
X9659Y142259D01*
X24011Y127908D01*
X24259Y127742D01*
X24551Y127684D01*
X24551Y127684D01*
X24898D01*
X25013Y127407D01*
X25407Y127013D01*
X25921Y126800D01*
X26478D01*
X26993Y127013D01*
X27387Y127407D01*
X27600Y127921D01*
Y128479D01*
X27387Y128993D01*
X26993Y129387D01*
X26478Y129600D01*
X25921D01*
X25407Y129387D01*
X25234Y129213D01*
X24868D01*
X10965Y143117D01*
Y173301D01*
X10993Y173313D01*
X11387Y173707D01*
X11600Y174222D01*
Y174778D01*
X11387Y175293D01*
X10993Y175687D01*
X10652Y175828D01*
X10751Y176328D01*
X13090D01*
X22209Y167209D01*
X22209Y167209D01*
X22276Y167165D01*
X22388Y166651D01*
X22370Y166551D01*
X21419Y165600D01*
X21022D01*
X20507Y165387D01*
X20113Y164993D01*
X19900Y164479D01*
Y163921D01*
X20113Y163407D01*
X20507Y163013D01*
X21022Y162800D01*
X21578D01*
X22093Y163013D01*
X22487Y163407D01*
X22700Y163921D01*
Y164479D01*
X22630Y164648D01*
X24281Y166300D01*
X24678D01*
X25193Y166513D01*
X25587Y166907D01*
X25631Y167014D01*
X26221Y167131D01*
X26843Y166509D01*
X27091Y166343D01*
X27383Y166285D01*
X29010D01*
X29344Y165785D01*
X29300Y165679D01*
Y165121D01*
X29513Y164607D01*
X29907Y164213D01*
X30422Y164000D01*
X30979D01*
X31493Y164213D01*
X31865Y164585D01*
X43649D01*
X43942Y164644D01*
X44190Y164809D01*
X48416Y169035D01*
X58201D01*
X58213Y169007D01*
X58607Y168613D01*
X59122Y168400D01*
X59679D01*
X60193Y168613D01*
X60587Y169007D01*
X60625Y169100D01*
X61125Y169001D01*
Y135485D01*
X61000Y135182D01*
Y134625D01*
X61213Y134111D01*
X61607Y133717D01*
X62121Y133504D01*
X62678D01*
X62835Y133569D01*
X63335Y133235D01*
Y110464D01*
X62907Y110287D01*
X62513Y109893D01*
X62300Y109379D01*
Y108821D01*
X62513Y108307D01*
X62907Y107913D01*
X63421Y107700D01*
X63978D01*
X64493Y107913D01*
X64887Y108307D01*
X65100Y108821D01*
Y109379D01*
X64887Y109893D01*
X64865Y109915D01*
Y110902D01*
X65365Y111148D01*
X65721Y111000D01*
X66278D01*
X66793Y111213D01*
X67187Y111607D01*
X67199Y111635D01*
X69508D01*
X82684Y98459D01*
X82932Y98294D01*
X83225Y98235D01*
X97895D01*
X98000Y98079D01*
Y97522D01*
X98213Y97007D01*
X98607Y96613D01*
X99121Y96400D01*
X99678D01*
X100193Y96613D01*
X100587Y97007D01*
X100800Y97522D01*
Y98079D01*
X100587Y98593D01*
X100365Y98815D01*
Y99000D01*
X100306Y99293D01*
X100141Y99541D01*
X99893Y99707D01*
X99600Y99765D01*
X83542D01*
X82702Y100605D01*
X82909Y101105D01*
X83359D01*
X84237Y101340D01*
X85024Y101795D01*
X85667Y102437D01*
X86121Y103225D01*
X86357Y104103D01*
Y105012D01*
X86121Y105890D01*
X85667Y106677D01*
X85024Y107320D01*
X84237Y107775D01*
X83359Y108010D01*
X82449D01*
X81571Y107775D01*
X80784Y107320D01*
X80141Y106677D01*
X79686Y105890D01*
X79451Y105012D01*
Y104562D01*
X78951Y104355D01*
X70366Y112941D01*
X70118Y113107D01*
X69825Y113165D01*
X67199D01*
X67187Y113193D01*
X66793Y113587D01*
X66278Y113800D01*
X65721D01*
X65365Y113652D01*
X64865Y113898D01*
Y153083D01*
X76393Y164612D01*
X76421Y164600D01*
X76978D01*
X77493Y164813D01*
X77887Y165207D01*
X78100Y165721D01*
Y166279D01*
X77887Y166793D01*
X77493Y167187D01*
X76978Y167400D01*
X76421D01*
X76181Y167300D01*
X68800Y174681D01*
Y174978D01*
X68587Y175493D01*
X68193Y175887D01*
X67678Y176100D01*
X67121D01*
X66607Y175887D01*
X66213Y175493D01*
X66000Y174978D01*
Y174422D01*
X66213Y173907D01*
X66607Y173513D01*
X67121Y173300D01*
X67678D01*
X67919Y173400D01*
X75300Y166019D01*
Y165721D01*
X75312Y165693D01*
X64136Y154518D01*
X63674Y154709D01*
Y272259D01*
X63800Y272562D01*
Y273119D01*
X63587Y273633D01*
X63193Y274027D01*
X62678Y274240D01*
D02*
G37*
G36*
X145929Y167650D02*
X145371D01*
X144857Y167437D01*
X144463Y167043D01*
X144250Y166528D01*
Y165972D01*
X144463Y165457D01*
X144857Y165063D01*
X145371Y164850D01*
X145929D01*
X146443Y165063D01*
X146837Y165457D01*
X147050Y165972D01*
Y166528D01*
X146837Y167043D01*
X146443Y167437D01*
X145929Y167650D01*
D02*
G37*
G36*
X119279Y155200D02*
X118721D01*
X118207Y154987D01*
X117813Y154593D01*
X117600Y154078D01*
Y153522D01*
X117700Y153281D01*
X114907Y150488D01*
X114878Y150500D01*
X114321D01*
X113807Y150287D01*
X113413Y149893D01*
X113200Y149379D01*
Y148821D01*
X113413Y148307D01*
X113807Y147913D01*
X114321Y147700D01*
X114878D01*
X115393Y147913D01*
X115787Y148307D01*
X116000Y148821D01*
Y149379D01*
X115988Y149407D01*
X118981Y152400D01*
X119279D01*
X119793Y152613D01*
X120187Y153007D01*
X120400Y153522D01*
Y154078D01*
X120187Y154593D01*
X119793Y154987D01*
X119279Y155200D01*
D02*
G37*
G36*
X81279Y154800D02*
X80721D01*
X80207Y154587D01*
X79813Y154193D01*
X79600Y153679D01*
Y153121D01*
X79685Y152916D01*
X75869Y149100D01*
X75521D01*
X75007Y148887D01*
X74613Y148493D01*
X74400Y147978D01*
Y147422D01*
X74613Y146907D01*
X75007Y146513D01*
X75521Y146300D01*
X76078D01*
X76593Y146513D01*
X76987Y146907D01*
X77200Y147422D01*
Y147978D01*
X77115Y148184D01*
X80931Y152000D01*
X81279D01*
X81793Y152213D01*
X82187Y152607D01*
X82400Y153121D01*
Y153679D01*
X82187Y154193D01*
X81793Y154587D01*
X81279Y154800D01*
D02*
G37*
G36*
X96351Y127695D02*
X95442D01*
X94563Y127460D01*
X93776Y127005D01*
X93133Y126363D01*
X92679Y125575D01*
X92443Y124697D01*
Y123788D01*
X92679Y122910D01*
X93133Y122123D01*
X93776Y121480D01*
X94563Y121025D01*
X95442Y120790D01*
X96351D01*
X97229Y121025D01*
X98016Y121480D01*
X98659Y122123D01*
X99114Y122910D01*
X99349Y123788D01*
Y124697D01*
X99114Y125575D01*
X98659Y126363D01*
X98016Y127005D01*
X97229Y127460D01*
X96351Y127695D01*
D02*
G37*
G36*
X83359D02*
X82449D01*
X81571Y127460D01*
X80784Y127005D01*
X80141Y126363D01*
X79686Y125575D01*
X79451Y124697D01*
Y123788D01*
X79686Y122910D01*
X80141Y122123D01*
X80784Y121480D01*
X81571Y121025D01*
X82449Y120790D01*
X83359D01*
X84237Y121025D01*
X85024Y121480D01*
X85667Y122123D01*
X86121Y122910D01*
X86357Y123788D01*
Y124697D01*
X86121Y125575D01*
X85667Y126363D01*
X85024Y127005D01*
X84237Y127460D01*
X83359Y127695D01*
D02*
G37*
G36*
X-120521Y127800D02*
X-121079D01*
X-121593Y127587D01*
X-121987Y127193D01*
X-122200Y126679D01*
Y126121D01*
X-121987Y125607D01*
X-121593Y125213D01*
X-121079Y125000D01*
X-120521D01*
X-120422Y125041D01*
X-116400Y121019D01*
Y120521D01*
X-116187Y120007D01*
X-115793Y119613D01*
X-115278Y119400D01*
X-114722D01*
X-114207Y119613D01*
X-113813Y120007D01*
X-113600Y120521D01*
Y121079D01*
X-113813Y121593D01*
X-114207Y121987D01*
X-114722Y122200D01*
X-115278D01*
X-115377Y122159D01*
X-119400Y126181D01*
Y126679D01*
X-119613Y127193D01*
X-120007Y127587D01*
X-120521Y127800D01*
D02*
G37*
G36*
X101078Y122100D02*
X100522D01*
X100007Y121887D01*
X99613Y121493D01*
X99400Y120978D01*
Y120422D01*
X99613Y119907D01*
X100007Y119513D01*
X100522Y119300D01*
X101078D01*
X101593Y119513D01*
X101987Y119907D01*
X102200Y120422D01*
Y120978D01*
X101987Y121493D01*
X101593Y121887D01*
X101078Y122100D01*
D02*
G37*
G36*
X96351Y117853D02*
X95442D01*
X94563Y117617D01*
X93776Y117163D01*
X93133Y116520D01*
X92679Y115733D01*
X92443Y114855D01*
Y113945D01*
X92679Y113067D01*
X93133Y112280D01*
X93776Y111637D01*
X94563Y111182D01*
X95442Y110947D01*
X96351D01*
X97229Y111182D01*
X98016Y111637D01*
X98659Y112280D01*
X99114Y113067D01*
X99349Y113945D01*
Y114855D01*
X99114Y115733D01*
X98659Y116520D01*
X98016Y117163D01*
X97229Y117617D01*
X96351Y117853D01*
D02*
G37*
G36*
X83359D02*
X82449D01*
X81571Y117617D01*
X80784Y117163D01*
X80141Y116520D01*
X79686Y115733D01*
X79451Y114855D01*
Y113945D01*
X79686Y113067D01*
X80141Y112280D01*
X80784Y111637D01*
X81571Y111182D01*
X82449Y110947D01*
X83359D01*
X84237Y111182D01*
X85024Y111637D01*
X85667Y112280D01*
X86121Y113067D01*
X86357Y113945D01*
Y114855D01*
X86121Y115733D01*
X85667Y116520D01*
X85024Y117163D01*
X84237Y117617D01*
X83359Y117853D01*
D02*
G37*
G36*
X105279Y113000D02*
X104721D01*
X104207Y112787D01*
X103813Y112393D01*
X103600Y111879D01*
Y111321D01*
X103813Y110807D01*
X104207Y110413D01*
X104721Y110200D01*
X105279D01*
X105793Y110413D01*
X106187Y110807D01*
X106400Y111321D01*
Y111879D01*
X106187Y112393D01*
X105793Y112787D01*
X105279Y113000D01*
D02*
G37*
G36*
X-20422Y111700D02*
X-20978D01*
X-21493Y111487D01*
X-21887Y111093D01*
X-22100Y110579D01*
Y110021D01*
X-22088Y109993D01*
X-36617Y95465D01*
X-55101D01*
X-55113Y95493D01*
X-55507Y95887D01*
X-56021Y96100D01*
X-56578D01*
X-57093Y95887D01*
X-57487Y95493D01*
X-57700Y94978D01*
Y94421D01*
X-57487Y93907D01*
X-57093Y93513D01*
X-56578Y93300D01*
X-56021D01*
X-55507Y93513D01*
X-55113Y93907D01*
X-55101Y93935D01*
X-36300D01*
X-36007Y93994D01*
X-35759Y94159D01*
X-27300Y102619D01*
X-26800Y102411D01*
Y102121D01*
X-26587Y101607D01*
X-26193Y101213D01*
X-25679Y101000D01*
X-25122D01*
X-24715Y101168D01*
X-24548Y101135D01*
X-24548Y101135D01*
X-21899D01*
X-21887Y101107D01*
X-21493Y100713D01*
X-20978Y100500D01*
X-20422D01*
X-19907Y100713D01*
X-19513Y101107D01*
X-19300Y101621D01*
Y102179D01*
X-19513Y102693D01*
X-19907Y103087D01*
X-20422Y103300D01*
X-20978D01*
X-21493Y103087D01*
X-21887Y102693D01*
X-21899Y102665D01*
X-24000D01*
Y102679D01*
X-24213Y103193D01*
X-24607Y103587D01*
X-25122Y103800D01*
X-25411D01*
X-25619Y104300D01*
X-21007Y108912D01*
X-20978Y108900D01*
X-20422D01*
X-19907Y109113D01*
X-19513Y109507D01*
X-19300Y110021D01*
Y110579D01*
X-19513Y111093D01*
X-19907Y111487D01*
X-20422Y111700D01*
D02*
G37*
G36*
X96351Y108010D02*
X95442D01*
X94563Y107775D01*
X93776Y107320D01*
X93133Y106677D01*
X92679Y105890D01*
X92443Y105012D01*
Y104103D01*
X92679Y103225D01*
X93133Y102437D01*
X93776Y101795D01*
X94563Y101340D01*
X95442Y101105D01*
X96351D01*
X97229Y101340D01*
X98016Y101795D01*
X98659Y102437D01*
X99114Y103225D01*
X99349Y104103D01*
Y105012D01*
X99114Y105890D01*
X98659Y106677D01*
X98016Y107320D01*
X97229Y107775D01*
X96351Y108010D01*
D02*
G37*
G36*
X23178Y466300D02*
X22622D01*
X22107Y466087D01*
X21713Y465693D01*
X21500Y465178D01*
Y464621D01*
X21713Y464107D01*
X22107Y463713D01*
X22622Y463500D01*
X23178D01*
X23207Y463512D01*
X51335Y435383D01*
Y431105D01*
X51200Y430779D01*
Y430222D01*
X51413Y429707D01*
X51807Y429313D01*
X51835Y429301D01*
Y371815D01*
X51513Y371493D01*
X51300Y370978D01*
Y370422D01*
X51513Y369907D01*
X51907Y369513D01*
X52421Y369300D01*
X52978D01*
X53007Y369312D01*
X96835Y325483D01*
Y309581D01*
X96607Y309487D01*
X96213Y309093D01*
X96000Y308578D01*
Y308021D01*
X96213Y307507D01*
X96607Y307113D01*
X96635Y307101D01*
Y282241D01*
X79459Y265065D01*
X79294Y264817D01*
X79235Y264524D01*
Y239699D01*
X79207Y239687D01*
X78813Y239293D01*
X78600Y238778D01*
Y238222D01*
X78813Y237707D01*
X79207Y237313D01*
X79235Y237301D01*
Y221500D01*
X79294Y221207D01*
X79459Y220959D01*
X106312Y194107D01*
X106300Y194079D01*
Y193521D01*
X106513Y193007D01*
X106907Y192613D01*
X106935Y192601D01*
Y174999D01*
X106907Y174987D01*
X106513Y174593D01*
X106300Y174079D01*
Y173521D01*
X106513Y173007D01*
X106907Y172613D01*
X107422Y172400D01*
X107978D01*
X108185Y171944D01*
Y102850D01*
X108244Y102557D01*
X108409Y102309D01*
X109929Y100790D01*
X109800Y100478D01*
Y99922D01*
X110013Y99407D01*
X110407Y99013D01*
X110922Y98800D01*
X111478D01*
X111993Y99013D01*
X112387Y99407D01*
X112600Y99922D01*
Y100478D01*
X112387Y100993D01*
X111993Y101387D01*
X111478Y101600D01*
X111281D01*
X109715Y103167D01*
Y172550D01*
X109715Y172550D01*
X109657Y172843D01*
X109491Y173091D01*
X109088Y173493D01*
X109100Y173521D01*
Y174079D01*
X108887Y174593D01*
X108493Y174987D01*
X108465Y174999D01*
Y192601D01*
X108493Y192613D01*
X108887Y193007D01*
X109100Y193521D01*
Y194079D01*
X108887Y194593D01*
X108493Y194987D01*
X107978Y195200D01*
X107422D01*
X107393Y195188D01*
X80765Y221817D01*
Y237301D01*
X80793Y237313D01*
X81187Y237707D01*
X81400Y238222D01*
Y238778D01*
X81187Y239293D01*
X80793Y239687D01*
X80765Y239699D01*
Y264207D01*
X97941Y281383D01*
X97941Y281383D01*
X98106Y281631D01*
X98165Y281924D01*
X98165Y281924D01*
Y307101D01*
X98193Y307113D01*
X98587Y307507D01*
X98800Y308021D01*
Y308578D01*
X98587Y309093D01*
X98365Y309315D01*
Y325800D01*
X98307Y326093D01*
X98141Y326341D01*
X54088Y370393D01*
X54100Y370422D01*
Y370978D01*
X53887Y371493D01*
X53493Y371887D01*
X53365Y371940D01*
Y429301D01*
X53393Y429313D01*
X53787Y429707D01*
X54000Y430222D01*
Y430779D01*
X53787Y431293D01*
X53393Y431687D01*
X52878Y431900D01*
X52865D01*
Y435700D01*
X52865Y435700D01*
X52807Y435993D01*
X52641Y436241D01*
X52641Y436241D01*
X24288Y464593D01*
X24300Y464621D01*
Y465178D01*
X24087Y465693D01*
X23693Y466087D01*
X23178Y466300D01*
D02*
G37*
G36*
X487Y49650D02*
X-487D01*
X-1388Y49277D01*
X-2077Y48588D01*
X-2450Y47687D01*
Y46713D01*
X-2077Y45812D01*
X-1388Y45123D01*
X-487Y44750D01*
X487D01*
X1388Y45123D01*
X2077Y45812D01*
X2450Y46713D01*
Y47687D01*
X2077Y48588D01*
X1388Y49277D01*
X487Y49650D01*
D02*
G37*
G36*
X4487Y29650D02*
X3513D01*
X2612Y29277D01*
X1923Y28588D01*
X1550Y27687D01*
Y26713D01*
X1923Y25812D01*
X2612Y25123D01*
X3513Y24750D01*
X4487D01*
X5388Y25123D01*
X6077Y25812D01*
X6450Y26713D01*
Y27687D01*
X6077Y28588D01*
X5388Y29277D01*
X4487Y29650D01*
D02*
G37*
G36*
X-3513D02*
X-4487D01*
X-5388Y29277D01*
X-6077Y28588D01*
X-6450Y27687D01*
Y26713D01*
X-6077Y25812D01*
X-5388Y25123D01*
X-4487Y24750D01*
X-3513D01*
X-2612Y25123D01*
X-1923Y25812D01*
X-1550Y26713D01*
Y27687D01*
X-1923Y28588D01*
X-2612Y29277D01*
X-3513Y29650D01*
D02*
G37*
%LPD*%
G36*
X-4014Y500940D02*
X-3765Y500690D01*
Y455514D01*
X-4139Y455181D01*
X-4669Y455286D01*
X-4713Y455393D01*
X-4980Y455660D01*
Y497940D01*
X-4913Y498007D01*
X-4700Y498522D01*
Y499079D01*
X-4913Y499593D01*
X-5307Y499987D01*
X-5444Y500043D01*
X-5371Y500506D01*
X-5355Y500548D01*
X-4851Y500757D01*
X-4457Y501151D01*
X-4014Y500940D01*
D02*
G37*
G36*
X2847Y433472D02*
X2611Y433000D01*
X2221D01*
X1707Y432787D01*
X1313Y432393D01*
X1100Y431879D01*
Y431321D01*
X1313Y430807D01*
X1707Y430413D01*
X2221Y430200D01*
X2778D01*
X2807Y430212D01*
X8235Y424783D01*
Y420100D01*
X8021D01*
X7507Y419887D01*
X7113Y419493D01*
X6900Y418979D01*
Y418422D01*
X7113Y417907D01*
X7507Y417513D01*
X7535Y417501D01*
Y394177D01*
X7498Y394161D01*
X6526Y393416D01*
X5781Y392445D01*
X5313Y391314D01*
X5153Y390100D01*
X5313Y388886D01*
X5781Y387755D01*
X6526Y386784D01*
X7498Y386039D01*
X7535Y386023D01*
Y368579D01*
X5862Y366905D01*
X5487Y367207D01*
X5700Y367722D01*
Y368279D01*
X5487Y368793D01*
X5093Y369187D01*
X4578Y369400D01*
X4022D01*
X3865Y369335D01*
X3365Y369669D01*
Y384900D01*
X3478D01*
X3993Y385113D01*
X4387Y385507D01*
X4600Y386021D01*
Y386578D01*
X4387Y387093D01*
X3993Y387487D01*
X3716Y387602D01*
Y394649D01*
X3716Y394649D01*
X3658Y394941D01*
X3492Y395189D01*
X-6985Y405667D01*
Y427210D01*
X-6485Y427402D01*
X3880Y417036D01*
Y402660D01*
X3713Y402493D01*
X3500Y401978D01*
Y401421D01*
X3713Y400907D01*
X4107Y400513D01*
X4622Y400300D01*
X5178D01*
X5693Y400513D01*
X6087Y400907D01*
X6300Y401421D01*
Y401978D01*
X6087Y402493D01*
X5920Y402660D01*
Y417458D01*
X5842Y417848D01*
X5621Y418179D01*
X-4880Y428681D01*
Y440546D01*
X-4419Y440737D01*
X2847Y433472D01*
D02*
G37*
G36*
X12977Y423341D02*
Y392833D01*
X12477Y392626D01*
X12083Y393020D01*
X11251Y393501D01*
X10323Y393750D01*
X9539D01*
X9422Y393783D01*
X9383Y393801D01*
X9294Y393849D01*
X9065Y394188D01*
Y417501D01*
X9093Y417513D01*
X9487Y417907D01*
X9700Y418422D01*
Y418691D01*
X9707Y418700D01*
X9765Y418993D01*
Y425100D01*
X9707Y425393D01*
X9541Y425641D01*
X3931Y431250D01*
X3978Y431691D01*
X4424Y431894D01*
X12977Y423341D01*
D02*
G37*
G36*
Y387367D02*
Y370973D01*
X10433Y368429D01*
X9117D01*
X9065Y368472D01*
Y386012D01*
X9285Y386337D01*
X9400Y386407D01*
X9421Y386417D01*
X9539Y386450D01*
X10323D01*
X11251Y386699D01*
X12083Y387180D01*
X12477Y387574D01*
X12977Y387367D01*
D02*
G37*
G36*
X2630Y367774D02*
X2932Y367644D01*
X3113Y367207D01*
X3507Y366813D01*
X3391Y366339D01*
X-13779Y349169D01*
X-14369Y349286D01*
X-14413Y349393D01*
X-14807Y349787D01*
X-14835Y349799D01*
Y350583D01*
X2400Y367819D01*
X2630Y367774D01*
D02*
G37*
G36*
X6485Y364712D02*
Y317900D01*
X6543Y317607D01*
X6709Y317359D01*
X11985Y312083D01*
Y295599D01*
X11957Y295587D01*
X11563Y295193D01*
X11350Y294678D01*
Y294122D01*
X11563Y293607D01*
X11957Y293213D01*
X11985Y293201D01*
Y292577D01*
X11485Y292370D01*
X-16235Y320091D01*
Y334893D01*
X-16294Y335186D01*
X-16459Y335434D01*
X-16485Y335460D01*
Y335822D01*
X-16307Y336000D01*
X-16093Y336515D01*
Y337072D01*
X-16307Y337586D01*
X-16701Y337980D01*
X-17215Y338193D01*
X-17772D01*
X-18286Y337980D01*
X-18680Y337586D01*
X-18893Y337072D01*
Y336515D01*
X-18680Y336000D01*
X-18286Y335607D01*
X-18015Y335494D01*
Y335143D01*
X-17956Y334851D01*
X-17791Y334603D01*
X-17765Y334577D01*
Y319774D01*
X-17706Y319481D01*
X-17541Y319233D01*
X-17346Y319039D01*
X-17593Y318578D01*
X-17800Y318620D01*
X-18180Y318544D01*
X-18190Y318542D01*
X-18680Y318816D01*
Y324540D01*
X-18613Y324607D01*
X-18400Y325121D01*
Y325678D01*
X-18613Y326193D01*
X-19007Y326587D01*
X-19522Y326800D01*
X-20078D01*
X-20593Y326587D01*
X-20987Y326193D01*
X-21200Y325678D01*
Y325121D01*
X-20987Y324607D01*
X-20720Y324340D01*
Y315907D01*
X-21220Y315700D01*
X-21407Y315887D01*
X-21735Y316023D01*
Y337145D01*
X6023Y364904D01*
X6485Y364712D01*
D02*
G37*
G36*
X10335Y291357D02*
Y277799D01*
X10307Y277787D01*
X9913Y277393D01*
X9901Y277365D01*
X-550D01*
X-843Y277307D01*
X-1091Y277141D01*
X-1091Y277141D01*
X-27443Y250788D01*
X-27472Y250800D01*
X-28029D01*
X-28311Y250683D01*
X-28811Y250972D01*
Y252676D01*
X-28811Y252676D01*
X-28870Y252969D01*
X-29035Y253217D01*
X-31212Y255393D01*
X-31200Y255421D01*
Y255978D01*
X-31413Y256493D01*
X-31807Y256887D01*
X-32322Y257100D01*
X-32879D01*
X-32980Y257058D01*
X-33480Y257392D01*
Y258741D01*
X-33307Y258813D01*
X-32913Y259207D01*
X-32700Y259721D01*
Y260279D01*
X-32913Y260793D01*
X-33307Y261187D01*
X-33821Y261400D01*
X-33844D01*
X-34035Y261633D01*
Y298501D01*
X-34007Y298513D01*
X-33613Y298907D01*
X-33400Y299422D01*
Y299978D01*
X-33613Y300493D01*
X-34007Y300887D01*
X-34161Y300951D01*
X-34278Y301540D01*
X-22507Y313312D01*
X-22479Y313300D01*
X-21922D01*
X-21407Y313513D01*
X-21220Y313701D01*
X-20720Y313493D01*
Y303081D01*
X-22621Y301179D01*
X-22842Y300848D01*
X-22920Y300458D01*
Y278560D01*
X-23087Y278393D01*
X-23300Y277878D01*
Y277322D01*
X-23087Y276807D01*
X-22693Y276413D01*
X-22178Y276200D01*
X-21942D01*
X-17874Y272132D01*
X-17543Y271911D01*
X-17153Y271833D01*
X-16113D01*
X-15793Y271513D01*
X-15279Y271300D01*
X-14721D01*
X-14207Y271513D01*
X-13813Y271907D01*
X-13600Y272422D01*
Y272978D01*
X-13813Y273493D01*
X-14207Y273887D01*
X-14721Y274100D01*
X-15279D01*
X-15793Y273887D01*
X-15807Y273873D01*
X-16731D01*
X-20500Y277642D01*
Y277878D01*
X-20713Y278393D01*
X-20880Y278560D01*
Y300036D01*
X-18979Y301937D01*
X-18758Y302268D01*
X-18680Y302658D01*
Y305512D01*
X-18180Y305719D01*
X-1625Y289163D01*
X-1826Y288814D01*
X-2070Y287906D01*
X1075D01*
Y291050D01*
X166Y290806D01*
X-183Y290605D01*
X-16780Y307203D01*
Y317600D01*
X-16822Y317807D01*
X-16361Y318054D01*
X10335Y291357D01*
D02*
G37*
G36*
X12316Y264978D02*
X12327Y264937D01*
X12299Y264841D01*
X-18752Y233790D01*
X-19294Y233955D01*
X-19314Y234054D01*
X11759Y265127D01*
X12316Y264978D01*
D02*
G37*
G36*
X9913Y275807D02*
X10307Y275413D01*
X10821Y275200D01*
X11378D01*
X11485Y275244D01*
X11985Y274910D01*
Y269417D01*
X-21880Y235552D01*
X-22045Y235304D01*
X-22104Y235011D01*
Y232771D01*
X-22256Y232543D01*
X-22315Y232250D01*
Y230233D01*
X-22741Y229807D01*
X-22907Y229559D01*
X-22965Y229267D01*
Y222476D01*
X-23465Y222376D01*
X-23513Y222493D01*
X-23907Y222887D01*
X-23935Y222899D01*
Y232200D01*
X-23922D01*
X-23407Y232413D01*
X-23013Y232807D01*
X-22800Y233321D01*
Y233878D01*
X-23013Y234393D01*
X-23407Y234787D01*
X-23922Y235000D01*
X-24478D01*
X-24993Y234787D01*
X-25387Y234393D01*
X-25600Y233878D01*
Y233321D01*
X-25431Y232915D01*
X-25465Y232748D01*
Y222899D01*
X-25493Y222887D01*
X-25887Y222493D01*
X-26100Y221978D01*
Y221422D01*
X-25887Y220907D01*
X-25493Y220513D01*
X-24979Y220300D01*
X-24421D01*
X-23907Y220513D01*
X-23620Y220800D01*
X-23177Y220759D01*
X-23065Y220710D01*
X-23042Y220438D01*
X-23387Y220093D01*
X-23600Y219579D01*
Y219022D01*
X-23387Y218507D01*
X-22993Y218113D01*
X-22479Y217900D01*
X-21922D01*
X-21615Y218027D01*
X-21115Y217752D01*
Y208683D01*
X-21577Y208491D01*
X-27185Y214100D01*
Y229291D01*
X-27244Y229584D01*
X-27409Y229832D01*
X-27409Y229832D01*
X-27535Y229958D01*
Y247183D01*
X-27458Y247260D01*
X-27458Y247260D01*
X-27292Y247509D01*
X-27234Y247801D01*
X-27234Y247801D01*
Y248098D01*
X-26957Y248213D01*
X-26563Y248607D01*
X-26350Y249121D01*
Y249678D01*
X-26362Y249707D01*
X-233Y275835D01*
X9901D01*
X9913Y275807D01*
D02*
G37*
G36*
X-32720Y244479D02*
Y236860D01*
X-32887Y236693D01*
X-33100Y236178D01*
Y235622D01*
X-32887Y235107D01*
X-32493Y234713D01*
X-31978Y234500D01*
X-31422D01*
X-30907Y234713D01*
X-30841Y234779D01*
X-30341Y234572D01*
Y214168D01*
X-30369Y214157D01*
X-30763Y213763D01*
X-30976Y213248D01*
Y212691D01*
X-30919Y212554D01*
X-31343Y212271D01*
X-34985Y215913D01*
Y246092D01*
X-34523Y246283D01*
X-32720Y244479D01*
D02*
G37*
G36*
X14436Y263928D02*
X14785Y263774D01*
Y228667D01*
X-15193Y198688D01*
X-15222Y198700D01*
X-15778D01*
X-15880Y198658D01*
X-16380Y198992D01*
Y229240D01*
X-16213Y229407D01*
X-16000Y229922D01*
Y230479D01*
X-16213Y230993D01*
X-16607Y231387D01*
X-17121Y231600D01*
X-17351D01*
X-17558Y232100D01*
X14285Y263943D01*
X14436Y263928D01*
D02*
G37*
G36*
X-23265Y336813D02*
Y315615D01*
X-23387Y315493D01*
X-23600Y314979D01*
Y314422D01*
X-23588Y314393D01*
X-37641Y300341D01*
X-37806Y300093D01*
X-37865Y299800D01*
Y291640D01*
X-37993Y291587D01*
X-38387Y291193D01*
X-38600Y290679D01*
Y290122D01*
X-38387Y289607D01*
X-37993Y289213D01*
X-37865Y289160D01*
Y288400D01*
X-37806Y288107D01*
X-37665Y287895D01*
Y223717D01*
X-40681Y220700D01*
X-41179D01*
X-41693Y220487D01*
X-42087Y220093D01*
X-42300Y219579D01*
Y219022D01*
X-42087Y218507D01*
X-41693Y218113D01*
X-41179Y217900D01*
X-40622D01*
X-40571Y217921D01*
X-30900Y208251D01*
Y207922D01*
X-30687Y207407D01*
X-30293Y207013D01*
X-29779Y206800D01*
X-29221D01*
X-28707Y207013D01*
X-28313Y207407D01*
X-28265Y207524D01*
X-27765Y207424D01*
Y206799D01*
X-27793Y206787D01*
X-28187Y206393D01*
X-28400Y205878D01*
Y205322D01*
X-28187Y204807D01*
X-27793Y204413D01*
X-27279Y204200D01*
X-26722D01*
X-26207Y204413D01*
X-25813Y204807D01*
X-25600Y205322D01*
Y205878D01*
X-25813Y206393D01*
X-26207Y206787D01*
X-26235Y206799D01*
Y208900D01*
X-26235Y208900D01*
X-26294Y209193D01*
X-26459Y209441D01*
X-27709Y210691D01*
X-27957Y210857D01*
X-28250Y210915D01*
X-29583D01*
X-29585Y210914D01*
X-29875D01*
X-30021Y211108D01*
X-29958Y211283D01*
X-29744Y211570D01*
X-29298D01*
X-28783Y211783D01*
X-28389Y212177D01*
X-28314Y212359D01*
X-27724Y212476D01*
X-23569Y208321D01*
X-23686Y207731D01*
X-23793Y207687D01*
X-24187Y207293D01*
X-24400Y206779D01*
Y206222D01*
X-24187Y205707D01*
X-23793Y205313D01*
X-23765Y205301D01*
Y198267D01*
X-23991Y198041D01*
X-24157Y197793D01*
X-24215Y197500D01*
Y189302D01*
X-24157Y189010D01*
X-23991Y188762D01*
X-23415Y188186D01*
Y183003D01*
X-23915Y182796D01*
X-23959Y182841D01*
X-24207Y183007D01*
X-24500Y183065D01*
X-29474D01*
X-29767Y183007D01*
X-30015Y182841D01*
X-30015Y182841D01*
X-32291Y180565D01*
X-34200D01*
X-34493Y180507D01*
X-34741Y180341D01*
X-34907Y180093D01*
X-34965Y179800D01*
X-34907Y179507D01*
X-34845Y179415D01*
X-35049Y178933D01*
X-35066Y178915D01*
X-40291D01*
X-40917Y179541D01*
X-41165Y179707D01*
X-41457Y179765D01*
X-45201D01*
X-45213Y179793D01*
X-45607Y180187D01*
X-46121Y180400D01*
X-46679D01*
X-46707Y180388D01*
X-47935Y181617D01*
Y196839D01*
X-47757Y196913D01*
X-47363Y197307D01*
X-47150Y197821D01*
Y198379D01*
X-47363Y198893D01*
X-47757Y199287D01*
X-48272Y199500D01*
X-48829D01*
X-49343Y199287D01*
X-49737Y198893D01*
X-49950Y198379D01*
Y197821D01*
X-49737Y197307D01*
X-49465Y197035D01*
Y181520D01*
X-49965Y181313D01*
X-53735Y185083D01*
Y307050D01*
X-23765Y337020D01*
X-23265Y336813D01*
D02*
G37*
G36*
X-22569Y114467D02*
X-22357Y114024D01*
X-23617Y112765D01*
X-48260D01*
X-48313Y112893D01*
X-48707Y113287D01*
X-49130Y113462D01*
X-49196Y113792D01*
X-49180Y113983D01*
X-49107Y114013D01*
X-48713Y114407D01*
X-48701Y114435D01*
X-22867D01*
X-22600Y114488D01*
X-22569Y114467D01*
D02*
G37*
%LPC*%
G36*
X-21Y355900D02*
X-579D01*
X-1093Y355687D01*
X-1487Y355293D01*
X-1700Y354779D01*
Y354222D01*
X-1688Y354193D01*
X-9841Y346041D01*
X-10007Y345793D01*
X-10065Y345500D01*
Y343499D01*
X-10093Y343487D01*
X-10487Y343093D01*
X-10700Y342579D01*
Y342021D01*
X-10487Y341507D01*
X-10093Y341113D01*
X-9578Y340900D01*
X-9021D01*
X-8993Y340912D01*
X-5841Y337759D01*
X-5841Y337759D01*
X-5593Y337594D01*
X-5300Y337535D01*
X-3199D01*
X-3187Y337507D01*
X-2793Y337113D01*
X-2279Y336900D01*
X-1722D01*
X-1207Y337113D01*
X-813Y337507D01*
X-600Y338021D01*
Y338579D01*
X-813Y339093D01*
X-1207Y339487D01*
X-1722Y339700D01*
X-2279D01*
X-2793Y339487D01*
X-3187Y339093D01*
X-3199Y339065D01*
X-4983D01*
X-7912Y341993D01*
X-7900Y342021D01*
Y342579D01*
X-8113Y343093D01*
X-8507Y343487D01*
X-8535Y343499D01*
Y345183D01*
X-607Y353112D01*
X-579Y353100D01*
X-21D01*
X493Y353313D01*
X887Y353707D01*
X1100Y354222D01*
Y354779D01*
X887Y355293D01*
X493Y355687D01*
X-21Y355900D01*
D02*
G37*
G36*
X2075Y291050D02*
Y287906D01*
X5219D01*
X4976Y288814D01*
X4495Y289646D01*
X3816Y290326D01*
X2984Y290806D01*
X2075Y291050D01*
D02*
G37*
G36*
X5219Y286906D02*
X2075D01*
Y283761D01*
X2984Y284005D01*
X3816Y284485D01*
X4495Y285165D01*
X4976Y285997D01*
X5219Y286906D01*
D02*
G37*
G36*
X1075D02*
X-2070D01*
X-1826Y285997D01*
X-1346Y285165D01*
X-666Y284485D01*
X166Y284005D01*
X1075Y283761D01*
Y286906D01*
D02*
G37*
G36*
X-47945Y291055D02*
X-48906D01*
X-49834Y290806D01*
X-50666Y290326D01*
X-51346Y289646D01*
X-51826Y288814D01*
X-52075Y287886D01*
Y286925D01*
X-51826Y285997D01*
X-51346Y285165D01*
X-50666Y284485D01*
X-49834Y284005D01*
X-48906Y283756D01*
X-47945D01*
X-47017Y284005D01*
X-46184Y284485D01*
X-45505Y285165D01*
X-45024Y285997D01*
X-44776Y286925D01*
Y287886D01*
X-45024Y288814D01*
X-45505Y289646D01*
X-46184Y290326D01*
X-47017Y290806D01*
X-47945Y291055D01*
D02*
G37*
G36*
X-37821Y209500D02*
X-38379D01*
X-38893Y209287D01*
X-39287Y208893D01*
X-39500Y208379D01*
Y207821D01*
X-39287Y207307D01*
X-38893Y206913D01*
X-38865Y206901D01*
Y202499D01*
X-38893Y202487D01*
X-39287Y202093D01*
X-39500Y201578D01*
Y201022D01*
X-39287Y200507D01*
X-38893Y200113D01*
X-38379Y199900D01*
X-37821D01*
X-37307Y200113D01*
X-36913Y200507D01*
X-36700Y201022D01*
Y201578D01*
X-36913Y202093D01*
X-37307Y202487D01*
X-37335Y202499D01*
Y206901D01*
X-37307Y206913D01*
X-36913Y207307D01*
X-36700Y207821D01*
Y208379D01*
X-36913Y208893D01*
X-37307Y209287D01*
X-37821Y209500D01*
D02*
G37*
%LPD*%
G36*
X23831Y169521D02*
X23714Y168931D01*
X23607Y168887D01*
X23470Y168749D01*
X22832D01*
X13948Y177634D01*
X13700Y177799D01*
X13407Y177858D01*
X-1883D01*
X-2291Y178266D01*
X-2213Y178553D01*
X-2105Y178787D01*
X-1641Y178979D01*
X-1248Y179373D01*
X-1222Y179435D01*
X13917D01*
X23831Y169521D01*
D02*
G37*
D11*
X8035Y393555D02*
G03*
X8034Y386645I1808J-3455D01*
G01*
X8298Y386247D02*
G03*
X8034Y386645I-498J-44D01*
G01*
X8035Y393555D02*
G03*
X8298Y393952I-235J441D01*
G01*
X46200Y309000D02*
X46207D01*
X32200Y339700D02*
X46500Y325400D01*
X46207Y309000D02*
X46500Y309293D01*
Y325400D01*
X-17000Y319774D02*
X11100Y291674D01*
X-550Y276600D02*
X11100D01*
X-27585Y249565D02*
X-550Y276600D01*
X14400Y268850D02*
Y313592D01*
X11100Y276600D02*
Y291674D01*
X-28135Y249565D02*
X-27585D01*
X15550Y228350D02*
Y315557D01*
X12750Y269100D02*
Y312400D01*
X-20339Y234111D02*
X14400Y268850D01*
X-21339Y235011D02*
X12750Y269100D01*
X8250Y319742D02*
X14400Y313592D01*
X-34800Y261633D02*
Y299700D01*
X-35750Y215596D02*
X-30303Y210150D01*
X-35750Y260683D02*
X-34800Y261633D01*
X-55500Y184352D02*
Y307781D01*
Y184352D02*
X-53800Y182652D01*
X-56400Y172400D02*
Y179733D01*
X-57500Y180833D02*
X-56400Y179733D01*
X-57500Y180833D02*
Y192900D01*
X-56500Y183938D02*
X-53300Y180738D01*
X-55500Y307781D02*
X-53800Y309481D01*
X-54500Y184767D02*
Y307367D01*
X4300Y366167D01*
X-56500Y309114D02*
X-54607Y311007D01*
X-56500Y183938D02*
Y309114D01*
X-54500Y184767D02*
X-44916Y175183D01*
X-59400Y194800D02*
X-57500Y192900D01*
X-53800Y309481D02*
X-52957Y310324D01*
Y336243D01*
X-53300Y156500D02*
Y180738D01*
X-53800Y182652D02*
X-44848Y173700D01*
X-52957Y336243D02*
X-31400Y357800D01*
X4300Y366167D02*
Y368000D01*
X-15600Y350900D02*
X2600Y369100D01*
X-15600Y348600D02*
Y350900D01*
X10200Y142800D02*
X24551Y128449D01*
X25951D02*
X26200Y128200D01*
X24551Y128449D02*
X25951D01*
X-50300Y142300D02*
X-37600D01*
X-73151Y118649D02*
Y119449D01*
X-73400Y118400D02*
X-73151Y118649D01*
Y119449D02*
X-50300Y142300D01*
X-120800Y126400D02*
X-120700D01*
X-115100Y120800D01*
X-115000D01*
X-21200Y141800D02*
X-17621Y145379D01*
Y145766D01*
X-13793Y149593D01*
X-29700Y118900D02*
Y128700D01*
X-27800Y130600D01*
X-24700Y221700D02*
Y232748D01*
X-24200Y233248D02*
Y233600D01*
X-24700Y232748D02*
X-24200Y233248D01*
X-5300Y338300D02*
X-2000D01*
X-9300Y342300D02*
X-5300Y338300D01*
X-17250Y335143D02*
Y336550D01*
X-17493Y336793D02*
X-17250Y336550D01*
Y335143D02*
X-17000Y334893D01*
Y319774D02*
Y334893D01*
X-9300Y345500D02*
X-300Y354500D01*
X-9300Y342300D02*
Y345500D01*
X-3936Y501943D02*
X-3000Y501007D01*
Y455167D02*
Y501007D01*
X-5644Y501943D02*
X-3936D01*
X-7750Y503783D02*
X6966Y518500D01*
X-7750Y405350D02*
X2951Y394649D01*
X-7750Y405350D02*
Y503783D01*
X-2344Y451010D02*
X-1200Y452154D01*
X-3400Y449600D02*
X-2344Y450657D01*
Y451010D01*
X-1200Y452154D02*
Y452200D01*
X-3400Y442214D02*
Y449600D01*
X6966Y518500D02*
X9200D01*
X2600Y369100D02*
Y385357D01*
X10850Y366350D02*
X14800Y370300D01*
X7250Y317900D02*
X12750Y312400D01*
X9217Y366350D02*
X10850D01*
X9116Y367664D02*
X10750D01*
X7250Y365798D02*
X9116Y367664D01*
X-22500Y314993D02*
Y337462D01*
X9900Y321207D02*
Y364700D01*
X8250Y319742D02*
Y365383D01*
X-22500Y337462D02*
X8300Y368262D01*
X7250Y317900D02*
Y365798D01*
X8250Y365383D02*
X9217Y366350D01*
X9900Y321207D02*
X15550Y315557D01*
X8300Y368262D02*
Y386203D01*
X10750Y367664D02*
X13742Y370656D01*
X14800Y370300D02*
Y424014D01*
X13742Y370656D02*
Y423658D01*
X-20350Y197772D02*
Y220691D01*
X-20550Y231505D02*
X-20339Y231716D01*
X-21339Y232461D02*
Y235011D01*
X-20339Y231716D02*
Y234111D01*
X-21550Y232250D02*
X-21339Y232461D01*
X-20550Y220891D02*
X-20350Y220691D01*
X-21550Y229917D02*
Y232250D01*
X-20550Y220891D02*
Y231505D01*
X-28300Y247500D02*
X-27999Y247801D01*
X-28300Y229641D02*
X-27950Y229291D01*
X-27999Y247801D02*
Y249151D01*
X-28300Y229641D02*
Y247500D01*
X-27999Y249151D02*
X-27750Y249400D01*
X-19600Y121100D02*
Y121400D01*
X-21800Y118900D02*
X-19600Y121100D01*
X-29700Y118900D02*
X-21800D01*
X-48600D02*
X-29700D01*
X11743Y122250D02*
X31917D01*
X32717Y121450D02*
X35450D01*
X10893Y121400D02*
X11743Y122250D01*
X31917D02*
X32717Y121450D01*
X37500Y123300D02*
X57100Y142900D01*
X35450Y121450D02*
X37300Y123300D01*
X37500D01*
X-8000Y121400D02*
X10893D01*
X-4400Y453767D02*
X-3000Y455167D01*
X-4400Y441800D02*
Y453767D01*
Y441800D02*
X13742Y423658D01*
X-3400Y442214D02*
X14800Y424014D01*
X-476Y441624D02*
X8151Y432997D01*
X2500Y431600D02*
X9000Y425100D01*
Y418993D02*
Y425100D01*
X16528Y423700D02*
X30300D01*
X8151Y432078D02*
X16528Y423700D01*
X8151Y432078D02*
Y432997D01*
X8298Y393952D02*
X8300Y393974D01*
Y418700D01*
X14233Y180200D02*
X27383Y167050D01*
X31383D01*
X30750Y165350D02*
X43649D01*
X30700Y165400D02*
X30750Y165350D01*
X31433Y167000D02*
X35100D01*
X31383Y167050D02*
X31433Y167000D01*
X43649Y165350D02*
X48099Y169800D01*
X59400D01*
X-2434Y180166D02*
X-2400Y180200D01*
X14233D01*
X-15500Y197300D02*
X15550Y228350D01*
X-22200Y229267D02*
X-21550Y229917D01*
X-22200Y219300D02*
Y229267D01*
X-20800Y197322D02*
X-20350Y197772D01*
X-23000Y197950D02*
Y206500D01*
X-21650Y160250D02*
Y188917D01*
X-23450Y197500D02*
X-23000Y197950D01*
X-22450Y197086D02*
X-21350Y198186D01*
X-27950Y213783D02*
X-21350Y207183D01*
X-23450Y189302D02*
X-22650Y188502D01*
X-21650Y160250D02*
X-8400Y147000D01*
X-22650Y181417D02*
Y188502D01*
X-22450Y189717D02*
X-21650Y188917D01*
X-22450Y189717D02*
Y197086D01*
X-20800Y190400D02*
Y197322D01*
X-27767Y176300D02*
X-22650Y181417D01*
X-21350Y198186D02*
Y207183D01*
X-23450Y189302D02*
Y197500D01*
X-19600Y181248D02*
X-18900Y181948D01*
X-19600Y173600D02*
Y181248D01*
X-18900Y181948D02*
Y182300D01*
X3200Y385957D02*
Y386300D01*
X2600Y385357D02*
X3200Y385957D01*
X-34200Y179800D02*
X-31974D01*
X-29474Y182300D01*
X-24500D01*
X-24300Y182100D01*
X-40607Y178150D02*
X-28350D01*
X-26600Y179900D01*
X-41457Y179000D02*
X-40607Y178150D01*
X-48950Y123250D02*
X-46600Y120900D01*
X-46500Y136933D02*
Y140400D01*
X-48950Y134483D02*
X-46500Y136933D01*
X-48950Y123250D02*
Y134483D01*
X-28000Y176300D02*
X-27767D01*
X-22500Y314993D02*
X-22207Y314700D01*
X-22200D01*
X-35750Y215596D02*
Y260683D01*
X-36900Y223400D02*
Y287800D01*
X-40900Y219400D02*
X-36900Y223400D01*
Y287800D02*
Y288200D01*
X-27000Y205600D02*
Y208900D01*
X-27950Y213783D02*
Y229291D01*
X-8400Y121800D02*
Y147000D01*
X-29000Y157200D02*
Y163900D01*
X-28900Y164000D01*
X41800Y349600D02*
Y402400D01*
X41900Y402500D01*
X32200Y340000D02*
X41800Y349600D01*
X38800Y366900D02*
X39100Y366600D01*
Y366300D02*
Y366600D01*
X35400Y372600D02*
X38800Y369200D01*
Y366900D02*
Y369200D01*
X-29584Y210150D02*
X-29583Y210150D01*
X-28250D02*
X-27000Y208900D01*
X-30303Y210150D02*
X-29584D01*
X-29583Y210150D02*
X-28250D01*
X-37100Y288400D02*
Y299800D01*
X-22200Y314700D01*
X-29576Y212970D02*
Y252676D01*
X-44916Y175183D02*
X-37130D01*
X-44848Y173700D02*
X-44401D01*
X-37130Y175183D02*
X-33747Y171800D01*
X-44401Y173700D02*
X-37800Y167100D01*
X-48700Y197950D02*
X-48550Y198100D01*
X-48700Y181300D02*
Y197950D01*
Y181300D02*
X-46400Y179000D01*
X-4100Y178993D02*
X-2200Y177093D01*
X13407D01*
X-4100Y178993D02*
Y193900D01*
X200Y198200D01*
Y199300D01*
X300Y199400D01*
X-32500Y396800D02*
X-31400Y395700D01*
Y357800D02*
Y395700D01*
X2951Y386549D02*
Y394649D01*
X-37500Y357100D02*
X-36900Y357700D01*
Y357800D01*
X-39600Y357100D02*
X-37500D01*
X-45600Y351100D02*
X-39600Y357100D01*
X-53300Y156500D02*
X-44000Y147200D01*
X13407Y177093D02*
X22750Y167750D01*
X24350D01*
X24400Y167700D01*
X108950Y102850D02*
Y172550D01*
X107700Y173800D02*
X108950Y172550D01*
Y102850D02*
X111000Y100800D01*
X-25048Y102400D02*
X-24548Y101900D01*
X-20700D01*
X-25400Y102400D02*
X-25048D01*
X-43600Y120800D02*
X-39400D01*
X-46300Y123500D02*
X-43600Y120800D01*
X-46400Y179000D02*
X-41457D01*
X21100Y124800D02*
X31500D01*
X45400Y138700D01*
X20747Y124447D02*
X21100Y124800D01*
X10200Y142800D02*
Y174500D01*
X17700Y118300D02*
X18100Y118700D01*
X18400D01*
X-19767Y118300D02*
X17700D01*
X-22867Y115200D02*
X-19767Y118300D01*
X-49900Y115200D02*
X-22867D01*
X-23300Y112000D02*
X-20100Y115200D01*
X33400Y123100D02*
X33500D01*
X47000Y136600D01*
X69825Y112400D02*
X83225Y99000D01*
X66000Y112400D02*
X69825D01*
X83225Y99000D02*
X99600D01*
X75800Y147700D02*
Y147950D01*
X81000Y153150D01*
Y153400D01*
X114600Y149100D02*
X119000Y153500D01*
Y153800D01*
X57100Y142900D02*
Y146400D01*
X8945Y418993D02*
X9000D01*
X8300Y418700D02*
X8652D01*
X8945Y418993D01*
X-29768Y208200D02*
X-29500D01*
X-40868Y219300D02*
X-29768Y208200D01*
X-40900Y219300D02*
X-40868D01*
X-40900D02*
Y219400D01*
X-32600Y255700D02*
X-29576Y252676D01*
X-38100Y201300D02*
Y208100D01*
X111000Y100400D02*
X111200Y100200D01*
X111000Y100400D02*
Y100800D01*
X107700Y173800D02*
Y193800D01*
X80000Y221500D02*
Y238500D01*
Y221500D02*
X107700Y193800D01*
X80000Y238500D02*
Y264524D01*
X97400Y281924D01*
Y308300D01*
X97600Y308500D01*
Y325800D01*
X52700Y370700D02*
X97600Y325800D01*
X52600Y370800D02*
Y430500D01*
Y370800D02*
X52700Y370700D01*
X52100Y430793D02*
X52393Y430500D01*
X52600D01*
X52100Y430793D02*
Y435700D01*
X22900Y464900D02*
X52100Y435700D01*
X-8400Y121800D02*
X-8000Y121400D01*
X-34500Y141800D02*
X-21200D01*
X-49000Y156300D02*
X-34500Y141800D01*
X2951Y386549D02*
X3200Y386300D01*
X8300Y386226D02*
X8300Y386203D01*
X8298Y386247D02*
X8300Y386226D01*
X63700Y109100D02*
X64100Y109500D01*
Y153400D01*
X76700Y166000D01*
X76400D02*
X76700D01*
X67400Y174700D02*
X67700D01*
X76400Y166000D01*
X53300Y202500D02*
X53407D01*
X53700Y202793D02*
Y210800D01*
X53407Y202500D02*
X53700Y202793D01*
X41100Y223400D02*
X53700Y210800D01*
X41100Y223400D02*
Y241500D01*
Y241600D02*
X41400Y241900D01*
X41100Y241500D02*
Y241600D01*
X41400Y241900D02*
Y286486D01*
X46200Y291286D01*
Y309000D01*
X32200Y339700D02*
Y340000D01*
X-36300Y94700D02*
X-20700Y110300D01*
X-56300Y94700D02*
X-36300D01*
X-37100Y288400D02*
X-36900Y288200D01*
X41900Y402500D02*
Y412100D01*
X30300Y423700D02*
X41900Y412100D01*
X-87700Y141300D02*
X-77800Y131400D01*
X-69900D01*
X-87700Y141300D02*
X-87500D01*
X-56400Y172400D01*
X-59400Y194800D02*
Y252500D01*
X-59300Y252600D01*
Y253200D01*
X-79500Y273400D02*
X-59300Y253200D01*
X-79500Y273400D02*
Y283500D01*
X-79350Y283650D02*
Y285150D01*
X-78700Y285800D01*
X-79500Y283500D02*
X-79350Y283650D01*
X-78700Y285800D02*
Y329400D01*
X-50700Y357400D01*
X-50043Y357157D02*
X-36500Y370700D01*
X-50457Y357157D02*
X-50043D01*
X-50700Y357400D02*
X-50457Y357157D01*
X-36500Y370700D02*
Y392500D01*
X-36100Y392900D01*
Y431900D02*
X-32100Y435900D01*
X-36100Y392900D02*
Y431900D01*
X99400Y97800D02*
X99600Y98000D01*
Y99000D01*
X-49500Y112100D02*
X-49400Y112000D01*
X-23300D01*
X-34100Y152100D02*
X-29000Y157200D01*
X-39600Y152100D02*
X-34100D01*
X-41500Y159300D02*
X-36600Y154400D01*
X-39600Y152100D02*
Y153500D01*
X-44800Y158700D02*
X-39600Y153500D01*
X-39800Y160600D02*
X-36700Y157500D01*
X-39800Y160600D02*
Y164700D01*
X-37800Y163700D02*
X-35117Y161017D01*
Y160917D02*
Y161017D01*
X24400Y167500D02*
Y167700D01*
X21300Y164400D02*
X24400Y167500D01*
X21300Y164200D02*
Y164400D01*
X-37800Y163700D02*
Y167100D01*
D14*
X-17800Y306780D02*
Y317600D01*
Y306780D02*
X1575Y287405D01*
X-17500Y347900D02*
Y376700D01*
X-25700Y339700D02*
X-17500Y347900D01*
X-17153Y272853D02*
X-15153D01*
X-15000Y272700D01*
X-21900Y277600D02*
X-17153Y272853D01*
X-6000Y454700D02*
X-5900Y454600D01*
X-6000Y454700D02*
Y498700D01*
X-6100Y498800D02*
X-6000Y498700D01*
X-18900Y182300D02*
Y221009D01*
X-19300Y230987D02*
X-19089Y231198D01*
X-19300Y221409D02*
X-18900Y221009D01*
X-19089Y232011D02*
X13600Y264700D01*
X-19300Y221409D02*
Y230987D01*
X-19089Y231198D02*
Y232011D01*
X-5900Y428258D02*
Y454600D01*
Y428258D02*
X4900Y417458D01*
Y401700D02*
Y417458D01*
X13600Y264700D02*
Y265300D01*
X13900Y265600D01*
X-17400Y193500D02*
Y230200D01*
Y193500D02*
X-6400Y182500D01*
X-21900Y300458D02*
X-19700Y302658D01*
X-19800Y325400D02*
X-19700Y325300D01*
Y302658D02*
Y325300D01*
X-21900Y277600D02*
Y300458D01*
X-34500Y247702D02*
Y259600D01*
X-34100Y260000D01*
X-34500Y247702D02*
X-31700Y244902D01*
Y235900D02*
Y244902D01*
X-6400Y148820D02*
Y182500D01*
D53*
X0Y47200D02*
D03*
X4000Y27200D02*
D03*
X-4000D02*
D03*
D61*
X47835Y287405D02*
X49000Y288571D01*
X43800Y427900D02*
X49000Y422700D01*
Y288571D02*
Y422700D01*
X43800Y427900D02*
Y428200D01*
X62400Y134904D02*
Y272840D01*
D62*
X1575Y287405D02*
D03*
X-48425D02*
D03*
X9843Y390100D02*
D03*
X-9843D02*
D03*
D63*
X82904Y124242D02*
D03*
Y114400D02*
D03*
Y104558D02*
D03*
X95896Y124242D02*
D03*
Y114400D02*
D03*
Y104558D02*
D03*
D64*
X-900Y523000D02*
D03*
D65*
X46200Y309000D02*
D03*
X11100Y276600D02*
D03*
X47835Y287405D02*
D03*
X-37200Y290400D02*
D03*
X-54607Y311007D02*
D03*
X104200Y120700D02*
D03*
X100800D02*
D03*
X105000Y111600D02*
D03*
X-17500Y376700D02*
D03*
X-15600Y348600D02*
D03*
X26200Y128200D02*
D03*
X-57500Y128000D02*
D03*
X-120000Y130400D02*
D03*
X-120800Y126400D02*
D03*
X-13793Y149593D02*
D03*
X-27800Y130600D02*
D03*
X68600Y97500D02*
D03*
X121300Y188900D02*
D03*
X-24200Y233600D02*
D03*
X-15000Y272700D02*
D03*
X-2000Y338300D02*
D03*
X-9300Y342300D02*
D03*
X-17493Y336793D02*
D03*
X-5644Y501943D02*
D03*
X-6100Y498800D02*
D03*
X-1200Y452200D02*
D03*
X9900Y364700D02*
D03*
X-24700Y221700D02*
D03*
X-19600Y121400D02*
D03*
X-29700Y118900D02*
D03*
X84800Y159700D02*
D03*
X146900Y157200D02*
D03*
X30500Y120600D02*
D03*
X-5900Y454600D02*
D03*
X-476Y441624D02*
D03*
X2500Y431600D02*
D03*
X4900Y401700D02*
D03*
X-46500Y182900D02*
D03*
X30700Y165400D02*
D03*
X35100Y167000D02*
D03*
X-2434Y180166D02*
D03*
X-300Y354500D02*
D03*
X13900Y265600D02*
D03*
X-17400Y230200D02*
D03*
X-22200Y219300D02*
D03*
X-15500Y197300D02*
D03*
X-20800Y190400D02*
D03*
X-23000Y206500D02*
D03*
X-18900Y182300D02*
D03*
X-34200Y179800D02*
D03*
X34400Y176200D02*
D03*
X30000D02*
D03*
X-39100Y179900D02*
D03*
X-24300Y182100D02*
D03*
X-47000Y132200D02*
D03*
X-43700D02*
D03*
X110950Y122900D02*
D03*
X-17800Y317600D02*
D03*
X-25700Y339700D02*
D03*
X-28200Y352100D02*
D03*
X-19800Y325400D02*
D03*
X-21900Y277600D02*
D03*
X-34100Y260000D02*
D03*
X-31700Y235900D02*
D03*
X-27000Y205600D02*
D03*
X-6400Y148820D02*
D03*
X-26600Y179900D02*
D03*
X-28900Y164000D02*
D03*
X43800Y428200D02*
D03*
X12750Y294400D02*
D03*
X39100Y366300D02*
D03*
X35400Y372600D02*
D03*
X4300Y368000D02*
D03*
X-34800Y299700D02*
D03*
X-29576Y212970D02*
D03*
X-48550Y198100D02*
D03*
X-33747Y171800D02*
D03*
X300Y199400D02*
D03*
X-32500Y396800D02*
D03*
X-36900Y357800D02*
D03*
X-45600Y351100D02*
D03*
X-44000Y147200D02*
D03*
X59400Y169800D02*
D03*
X112300Y115700D02*
D03*
X106000Y128500D02*
D03*
X-20700Y101900D02*
D03*
X-25400Y102400D02*
D03*
X-39400Y120800D02*
D03*
X-46300Y123500D02*
D03*
X-46600Y120900D02*
D03*
X-115000Y120800D02*
D03*
X-73400Y118400D02*
D03*
X-37600Y142300D02*
D03*
X20747Y124447D02*
D03*
X18400Y118700D02*
D03*
X-20100Y115200D02*
D03*
X-49900D02*
D03*
X45400Y138700D02*
D03*
X37400Y123400D02*
D03*
X33400Y123100D02*
D03*
X47000Y136600D02*
D03*
X66000Y112400D02*
D03*
X81000Y153400D02*
D03*
X75800Y147700D02*
D03*
X45900Y171200D02*
D03*
X119000Y153800D02*
D03*
X114600Y149100D02*
D03*
X57100Y146400D02*
D03*
X22100Y177800D02*
D03*
X-28000Y176300D02*
D03*
X-29500Y208200D02*
D03*
X-27750Y249400D02*
D03*
X-38100Y208100D02*
D03*
X-32600Y255700D02*
D03*
X-38100Y201300D02*
D03*
X145650Y166250D02*
D03*
X7300Y35500D02*
D03*
X111200Y100200D02*
D03*
X107700Y173800D02*
D03*
Y193800D02*
D03*
X80000Y238500D02*
D03*
X97400Y308300D02*
D03*
X52700Y370700D02*
D03*
X52600Y430500D02*
D03*
X22900Y464900D02*
D03*
X-7800Y121400D02*
D03*
X3200Y386300D02*
D03*
X9200Y518500D02*
D03*
X63700Y109100D02*
D03*
X76700Y166000D02*
D03*
X67400Y174700D02*
D03*
X53300Y202500D02*
D03*
X41100Y241500D02*
D03*
X32200Y339700D02*
D03*
X-20700Y110300D02*
D03*
X-56300Y94700D02*
D03*
X10200Y174500D02*
D03*
X-40900Y219300D02*
D03*
X-22200Y314700D02*
D03*
X8300Y418700D02*
D03*
X41800Y402400D02*
D03*
X-69900Y131400D02*
D03*
X-87700Y141300D02*
D03*
X-56400Y179600D02*
D03*
X-59400Y252500D02*
D03*
X-79500Y283500D02*
D03*
X-50700Y357400D02*
D03*
X-36500Y392500D02*
D03*
X-32100Y435900D02*
D03*
X99400Y97800D02*
D03*
X-49500Y112100D02*
D03*
X62400Y134904D02*
D03*
Y272840D02*
D03*
X-61300Y415300D02*
D03*
X-49000Y156300D02*
D03*
X-36600Y154400D02*
D03*
X-39600Y152100D02*
D03*
X-44800Y158700D02*
D03*
X-19600Y173600D02*
D03*
X-48600Y118900D02*
D03*
X-41500Y159300D02*
D03*
X-35117Y160917D02*
D03*
X24400Y167700D02*
D03*
X21300Y164200D02*
D03*
X-46400Y179000D02*
D03*
X-36700Y157500D02*
D03*
X-39800Y164700D02*
D03*
X-37800Y167100D02*
D03*
X-46500Y140400D02*
D03*
X6200Y80600D02*
D03*
X6400Y113700D02*
D03*
X-34800Y126600D02*
D03*
M02*
