%TF.GenerationSoftware,Altium Limited,Altium Designer,21.4.1 (30)*%
G04 Layer_Color=255*
%FSLAX26Y26*%
%MOIN*%
%TF.SameCoordinates,C79CEFAC-E130-474B-83DD-F1A68A00FB65*%
%TF.FilePolarity,Positive*%
%TF.FileFunction,Pads,Top*%
%TF.Part,Single*%
G01*
G75*
%TA.AperFunction,SMDPad,CuDef*%
%ADD11R,0.021654X0.021654*%
%ADD12O,0.031496X0.007874*%
%ADD13R,0.010236X0.035433*%
%ADD14R,0.027559X0.025591*%
%ADD15R,0.017716X0.023622*%
%ADD16R,0.017716X0.025591*%
%ADD17O,0.009842X0.035433*%
%ADD18O,0.035433X0.009842*%
%ADD19R,0.078740X0.039370*%
%ADD20R,0.025591X0.027559*%
%ADD21R,0.061024X0.051181*%
%ADD22R,0.021654X0.021654*%
%ADD23R,0.024409X0.025984*%
%ADD24C,0.314961*%
%ADD25O,0.013780X0.019685*%
%ADD26O,0.019685X0.013780*%
%ADD27R,0.066929X0.066929*%
%ADD28R,0.025984X0.024409*%
%TA.AperFunction,BGAPad,CuDef*%
%ADD29C,0.031000*%
%TA.AperFunction,ComponentPad*%
%ADD33C,0.062992*%
%ADD34C,0.039000*%
%ADD35C,0.059055*%
%ADD36C,0.118110*%
D11*
X-470284Y878000D02*
D03*
X-505717D02*
D03*
X-17717Y1137000D02*
D03*
X17716D02*
D03*
X-229717Y1248000D02*
D03*
X-194284D02*
D03*
X17717Y3812000D02*
D03*
X-17716D02*
D03*
D12*
X1078012Y1244000D02*
D03*
Y1228252D02*
D03*
Y1212504D02*
D03*
X1143012D02*
D03*
Y1228252D02*
D03*
Y1244000D02*
D03*
D13*
X1110512Y1228252D02*
D03*
D14*
X1670000Y1345299D02*
D03*
Y1382701D02*
D03*
X-98000Y4930299D02*
D03*
Y4967701D02*
D03*
X-169000Y4409299D02*
D03*
Y4446701D02*
D03*
X-439000Y4408000D02*
D03*
Y4370598D02*
D03*
X129000Y5026299D02*
D03*
Y5063701D02*
D03*
X261000Y4732701D02*
D03*
Y4695299D02*
D03*
X-780000Y4067299D02*
D03*
Y4104701D02*
D03*
X-447000Y3923000D02*
D03*
Y3885598D02*
D03*
X47000Y4224598D02*
D03*
Y4262000D02*
D03*
X-9000Y3900701D02*
D03*
Y3863299D02*
D03*
X324000Y4026299D02*
D03*
Y4063701D02*
D03*
X589000Y4349402D02*
D03*
Y4312000D02*
D03*
X880000Y4072000D02*
D03*
Y4109402D02*
D03*
X-880000Y3301000D02*
D03*
Y3263598D02*
D03*
X-598000Y3579299D02*
D03*
Y3616701D02*
D03*
X-280000Y3155701D02*
D03*
Y3118299D02*
D03*
X-244000Y3486598D02*
D03*
Y3524000D02*
D03*
X255000Y3433402D02*
D03*
Y3396000D02*
D03*
X478000Y3710299D02*
D03*
Y3747701D02*
D03*
X788000Y3294402D02*
D03*
Y3257000D02*
D03*
X-1379000Y2688598D02*
D03*
Y2726000D02*
D03*
X-856000Y2937000D02*
D03*
Y2899598D02*
D03*
X-408000Y2900299D02*
D03*
Y2937701D02*
D03*
X182000Y2772000D02*
D03*
Y2734598D02*
D03*
X399000Y3114299D02*
D03*
Y3151701D02*
D03*
X1036000Y3118402D02*
D03*
Y3081000D02*
D03*
X1365000Y2764000D02*
D03*
Y2801402D02*
D03*
X-892000Y2259000D02*
D03*
Y2221598D02*
D03*
X-659000Y2530598D02*
D03*
Y2568000D02*
D03*
X-475000Y2195000D02*
D03*
Y2157598D02*
D03*
X-367000Y2481299D02*
D03*
Y2518701D02*
D03*
X351000Y2466701D02*
D03*
Y2429299D02*
D03*
X744000Y2366598D02*
D03*
Y2404000D02*
D03*
X940000Y2732000D02*
D03*
Y2694598D02*
D03*
X-1208000Y1720299D02*
D03*
Y1757701D02*
D03*
X-606000Y1818701D02*
D03*
Y1781299D02*
D03*
X36000Y1767598D02*
D03*
Y1805000D02*
D03*
X569000Y1532000D02*
D03*
Y1494598D02*
D03*
X479000Y2025598D02*
D03*
Y2063000D02*
D03*
X998000Y1728000D02*
D03*
Y1690598D02*
D03*
X1049000Y2094299D02*
D03*
Y2131701D02*
D03*
X-1503000Y1192701D02*
D03*
Y1155299D02*
D03*
X-946000Y1449299D02*
D03*
Y1486701D02*
D03*
X-615000Y983701D02*
D03*
Y946299D02*
D03*
X-58000Y1254598D02*
D03*
Y1292000D02*
D03*
X586000Y1123701D02*
D03*
Y1086299D02*
D03*
X1058000Y1002000D02*
D03*
Y1039402D02*
D03*
X-316000Y4769299D02*
D03*
Y4806701D02*
D03*
D15*
X-52110Y5104449D02*
D03*
X-36362Y5061142D02*
D03*
X-67858D02*
D03*
X28000Y1578654D02*
D03*
X43748Y1535347D02*
D03*
X12252D02*
D03*
X-223000Y2432654D02*
D03*
X-207252Y2389347D02*
D03*
X-238748D02*
D03*
X-168000Y2809654D02*
D03*
X-152252Y2766347D02*
D03*
X-183748D02*
D03*
X-39000Y3464654D02*
D03*
X-23252Y3421347D02*
D03*
X-54748D02*
D03*
X157000Y3683654D02*
D03*
X172748Y3640347D02*
D03*
X141252D02*
D03*
X-5890Y4604449D02*
D03*
X9858Y4561142D02*
D03*
X-21638D02*
D03*
D16*
X-237591Y1298482D02*
D03*
X-186410D02*
D03*
X-212000Y1377223D02*
D03*
X1408252Y1562347D02*
D03*
X1439748D02*
D03*
X1424000Y1605654D02*
D03*
X1140142Y1890189D02*
D03*
X1171638D02*
D03*
X1155890Y1933496D02*
D03*
X787252Y1588504D02*
D03*
X818748D02*
D03*
X803000Y1631811D02*
D03*
X613252Y931504D02*
D03*
X644748D02*
D03*
X629000Y974811D02*
D03*
X242252Y1196347D02*
D03*
X273748D02*
D03*
X258000Y1239654D02*
D03*
X-651748Y1279504D02*
D03*
X-620252D02*
D03*
X-636000Y1322811D02*
D03*
X-1281748Y1299504D02*
D03*
X-1250252D02*
D03*
X-1266000Y1342811D02*
D03*
X-209858Y3807189D02*
D03*
X-178362D02*
D03*
X-194110Y3850496D02*
D03*
D17*
X371213Y1807276D02*
D03*
X351527D02*
D03*
X331842D02*
D03*
X312158D02*
D03*
X292472D02*
D03*
X272787D02*
D03*
Y1716724D02*
D03*
X292472D02*
D03*
X312158D02*
D03*
X331842D02*
D03*
X351527D02*
D03*
X371213D02*
D03*
X-317787Y1753724D02*
D03*
X-337473D02*
D03*
X-357158D02*
D03*
X-376842D02*
D03*
X-396528D02*
D03*
X-416213D02*
D03*
Y1844276D02*
D03*
X-396528D02*
D03*
X-376842D02*
D03*
X-357158D02*
D03*
X-337473D02*
D03*
X-317787D02*
D03*
D18*
X257039Y1771842D02*
D03*
Y1752158D02*
D03*
X386961D02*
D03*
Y1771842D02*
D03*
X-302039Y1808842D02*
D03*
Y1789158D02*
D03*
X-431961D02*
D03*
Y1808842D02*
D03*
D19*
X322000Y1762000D02*
D03*
X-367000Y1799000D02*
D03*
D20*
X7701Y5352000D02*
D03*
X-29701D02*
D03*
D21*
X-158465Y1055583D02*
D03*
Y878417D02*
D03*
X158464Y1055583D02*
D03*
Y878417D02*
D03*
D22*
X232000Y3641283D02*
D03*
Y3676716D02*
D03*
X80000Y1527283D02*
D03*
Y1562716D02*
D03*
X-142000Y2423716D02*
D03*
Y2388283D02*
D03*
X-98000Y2764283D02*
D03*
Y2799716D02*
D03*
X41000Y3419567D02*
D03*
Y3455000D02*
D03*
X63000Y4562283D02*
D03*
Y4597717D02*
D03*
X9000Y5059283D02*
D03*
Y5094717D02*
D03*
D23*
X1020000Y1250354D02*
D03*
Y1285000D02*
D03*
X-240000Y1736000D02*
D03*
Y1770646D02*
D03*
X-348000Y1311000D02*
D03*
Y1345646D02*
D03*
D24*
X1365000Y1310000D02*
D03*
X314000Y4433000D02*
D03*
X57000Y3124000D02*
D03*
X598000Y3479000D02*
D03*
X-591000Y3324000D02*
D03*
X829000Y1927000D02*
D03*
X-274000Y4135000D02*
D03*
X11000Y2198000D02*
D03*
X-799000Y2012000D02*
D03*
X-938000Y1186000D02*
D03*
D25*
X-426276Y1369354D02*
D03*
X-445961D02*
D03*
X-465646D02*
D03*
X-485331D02*
D03*
Y1268961D02*
D03*
X-465646D02*
D03*
X-445961D02*
D03*
X-426276D02*
D03*
D26*
X-506000Y1348685D02*
D03*
Y1329000D02*
D03*
Y1309315D02*
D03*
Y1289630D02*
D03*
X-405606D02*
D03*
Y1309315D02*
D03*
Y1329000D02*
D03*
Y1348685D02*
D03*
D27*
X-455803Y1319157D02*
D03*
D28*
X1084323Y1163000D02*
D03*
X1049677D02*
D03*
X457323Y1748000D02*
D03*
X422677D02*
D03*
X-17323Y805000D02*
D03*
X17323D02*
D03*
D29*
X-25000Y422000D02*
D03*
Y372000D02*
D03*
Y322000D02*
D03*
X25000D02*
D03*
Y372000D02*
D03*
Y422000D02*
D03*
D33*
X15748Y2874055D02*
D03*
X-484252D02*
D03*
X98425Y3901000D02*
D03*
X-98425D02*
D03*
D34*
X0Y472000D02*
D03*
X40000Y272000D02*
D03*
X-40000D02*
D03*
D35*
X829039Y1242425D02*
D03*
Y1144000D02*
D03*
Y1045575D02*
D03*
X958961Y1242425D02*
D03*
Y1144000D02*
D03*
Y1045575D02*
D03*
D36*
X-9000Y5230000D02*
D03*
%TF.MD5,1ae6659358fd7cf2b6d7d23f7b23b6db*%
M02*
