%TF.GenerationSoftware,Altium Limited,Altium Designer,21.4.1 (30)*%
G04 Layer_Color=16711935*
%FSLAX26Y26*%
%MOIN*%
%TF.SameCoordinates,C79CEFAC-E130-474B-83DD-F1A68A00FB65*%
%TF.FilePolarity,Negative*%
%TF.FileFunction,Soldermask,Bot*%
%TF.Part,Single*%
G01*
G75*
%TA.AperFunction,ComponentPad*%
%ADD42C,0.070992*%
%ADD43C,0.047000*%
%ADD44C,0.067055*%
%ADD45C,0.126110*%
%TA.AperFunction,ViaPad*%
%ADD46C,0.026000*%
D42*
X15748Y2874055D02*
D03*
X-484252D02*
D03*
X98425Y3901000D02*
D03*
X-98425D02*
D03*
D43*
X0Y472000D02*
D03*
X40000Y272000D02*
D03*
X-40000D02*
D03*
D44*
X829039Y1242425D02*
D03*
Y1144000D02*
D03*
Y1045575D02*
D03*
X958961Y1242425D02*
D03*
Y1144000D02*
D03*
Y1045575D02*
D03*
D45*
X-9000Y5230000D02*
D03*
D46*
X462000Y3090000D02*
D03*
X111000Y2766000D02*
D03*
X478346Y2874055D02*
D03*
X-372000Y2904000D02*
D03*
X-546071Y3110071D02*
D03*
X1042000Y1207000D02*
D03*
X1008000D02*
D03*
X1050000Y1116000D02*
D03*
X-175000Y3767000D02*
D03*
X-156000Y3486000D02*
D03*
X262000Y1282000D02*
D03*
X-575000Y1280000D02*
D03*
X-1200000Y1304000D02*
D03*
X-1208000Y1264000D02*
D03*
X-137935Y1495935D02*
D03*
X-278000Y1306000D02*
D03*
X686000Y975000D02*
D03*
X1213000Y1889000D02*
D03*
X-242000Y2336000D02*
D03*
X-150000Y2727000D02*
D03*
X-20000Y3383000D02*
D03*
X-93000Y3423000D02*
D03*
X-174935Y3367935D02*
D03*
X-56435Y5019435D02*
D03*
X-61000Y4988000D02*
D03*
X-12000Y4522000D02*
D03*
X99000Y3647000D02*
D03*
X-247000Y2217000D02*
D03*
X-196000Y1214000D02*
D03*
X-297000Y1189000D02*
D03*
X848000Y1597000D02*
D03*
X1469000Y1572000D02*
D03*
X305000Y1206000D02*
D03*
X-59000Y4546000D02*
D03*
X-4762Y4416238D02*
D03*
X25000Y4316000D02*
D03*
X49000Y4017000D02*
D03*
X-465000Y1829000D02*
D03*
X307000Y1654000D02*
D03*
X351000Y1670000D02*
D03*
X-24344Y1801656D02*
D03*
X-3000Y3545000D02*
D03*
X139000Y2656000D02*
D03*
X-174000Y2302000D02*
D03*
X-222000Y2193000D02*
D03*
X-155000Y1973000D02*
D03*
X-208000Y1904000D02*
D03*
X-230000Y2065000D02*
D03*
X-189000Y1823000D02*
D03*
X-342000Y1798000D02*
D03*
X344000Y1762000D02*
D03*
X300000D02*
D03*
X-391000Y1799000D02*
D03*
X-243000Y1821000D02*
D03*
X-470000Y1322000D02*
D03*
X-437000D02*
D03*
X1109500Y1229000D02*
D03*
X-178000Y3176000D02*
D03*
X-257000Y3397000D02*
D03*
X-282000Y3521000D02*
D03*
X-198000Y3254000D02*
D03*
X-219000Y2776000D02*
D03*
X-341000Y2600000D02*
D03*
X-317000Y2359000D02*
D03*
X-270000Y2056000D02*
D03*
X-64000Y1488205D02*
D03*
X-266000Y1799000D02*
D03*
X-289000Y1640000D02*
D03*
X438000Y4282000D02*
D03*
X127500Y2944000D02*
D03*
X391000Y3663000D02*
D03*
X354000Y3726000D02*
D03*
X43000Y3680000D02*
D03*
X-348000Y2997000D02*
D03*
X-295760Y2129697D02*
D03*
X-485500Y1981000D02*
D03*
X-337472Y1718000D02*
D03*
X3000Y1994000D02*
D03*
X-325000Y3968000D02*
D03*
X-369000Y3578000D02*
D03*
X-456000Y3511000D02*
D03*
X-440000Y1472000D02*
D03*
X594000Y1698000D02*
D03*
X1123000Y1157000D02*
D03*
X1060000Y1285000D02*
D03*
X-207000Y1019000D02*
D03*
X-254000Y1024000D02*
D03*
X-394000Y1208000D02*
D03*
X-463000Y1235000D02*
D03*
X-466000Y1209000D02*
D03*
X-1150000Y1208000D02*
D03*
X-734000Y1184000D02*
D03*
X-376000Y1423000D02*
D03*
X207469Y1244469D02*
D03*
X184000Y1187000D02*
D03*
X-201000Y1152000D02*
D03*
X-499000D02*
D03*
X454000Y1387000D02*
D03*
X374000Y1234000D02*
D03*
X334000Y1231000D02*
D03*
X470000Y1366000D02*
D03*
X660000Y1124000D02*
D03*
X810000Y1534000D02*
D03*
X758000Y1477000D02*
D03*
X459000Y1712000D02*
D03*
X1190000Y1538000D02*
D03*
X1146000Y1491000D02*
D03*
X571000Y1464000D02*
D03*
X221000Y1778000D02*
D03*
X-280000Y1763000D02*
D03*
X-295000Y2082000D02*
D03*
X-277500Y2494000D02*
D03*
X-381000Y2081000D02*
D03*
X-326000Y2557000D02*
D03*
X-381000Y2013000D02*
D03*
X1456500Y1662500D02*
D03*
X73000Y355000D02*
D03*
X1112000Y1002000D02*
D03*
X1077000Y1738000D02*
D03*
Y1938000D02*
D03*
X800000Y2385000D02*
D03*
X974000Y3083000D02*
D03*
X527000Y3707000D02*
D03*
X526000Y4305000D02*
D03*
X229000Y4649000D02*
D03*
X-78000Y1214000D02*
D03*
X32000Y3863000D02*
D03*
X92000Y5185000D02*
D03*
X637000Y1091000D02*
D03*
X767000Y1660000D02*
D03*
X674000Y1747000D02*
D03*
X533000Y2025000D02*
D03*
X411000Y2415000D02*
D03*
X322000Y3397000D02*
D03*
X-207000Y1103000D02*
D03*
X-563000Y947000D02*
D03*
X102000Y1745000D02*
D03*
X-409000Y2193000D02*
D03*
X-222000Y3147000D02*
D03*
X83000Y4187000D02*
D03*
X418000Y4024000D02*
D03*
X-699000Y1314000D02*
D03*
X-877000Y1413000D02*
D03*
X-564000Y1796000D02*
D03*
X-594000Y2525000D02*
D03*
X-795000Y2835000D02*
D03*
X-507000Y3574000D02*
D03*
X-365000Y3925000D02*
D03*
X-321000Y4359000D02*
D03*
X994000Y978000D02*
D03*
X-495000Y1121000D02*
D03*
X624000Y1349039D02*
D03*
Y2728401D02*
D03*
X-613000Y4153000D02*
D03*
X-490000Y1563000D02*
D03*
X-366000Y1544000D02*
D03*
X-396000Y1521000D02*
D03*
X-448000Y1587000D02*
D03*
X-196000Y1736000D02*
D03*
X-486000Y1189000D02*
D03*
X-415000Y1593000D02*
D03*
X-351166Y1609166D02*
D03*
X244000Y1677000D02*
D03*
X213000Y1642000D02*
D03*
X-464000Y1790000D02*
D03*
X-367000Y1575000D02*
D03*
X-398000Y1647000D02*
D03*
X-378000Y1671000D02*
D03*
X-465000Y1404000D02*
D03*
X62000Y806000D02*
D03*
X64000Y1137000D02*
D03*
X-348000Y1266000D02*
D03*
%TF.MD5,9e0841683e5595d44973c4c9d47bd69f*%
M02*
