%TF.GenerationSoftware,Altium Limited,Altium Designer,21.4.1 (30)*%
G04 Layer_Color=32768*
%FSLAX26Y26*%
%MOIN*%
%TF.SameCoordinates,C79CEFAC-E130-474B-83DD-F1A68A00FB65*%
%TF.FilePolarity,Positive*%
%TF.FileFunction,Other,Mechanical_15*%
%TF.Part,Single*%
G01*
G75*
%TA.AperFunction,NonConductor*%
%ADD47C,0.003937*%
%ADD71C,0.001968*%
%ADD72C,0.002500*%
D47*
X-498827Y878000D02*
X-477173D01*
X-488000Y867173D02*
Y888827D01*
X1090827Y1228252D02*
X1130197D01*
X1110512Y1208567D02*
Y1247937D01*
X-71795Y5082795D02*
X-32425D01*
X-52110Y5063110D02*
Y5102480D01*
X8315Y1557000D02*
X47685D01*
X28000Y1537315D02*
Y1576685D01*
X-242685Y2411000D02*
X-203315D01*
X-223000Y2391315D02*
Y2430685D01*
X-187685Y2788000D02*
X-148315D01*
X-168000Y2768315D02*
Y2807685D01*
X-58685Y3443000D02*
X-19315D01*
X-39000Y3423315D02*
Y3462685D01*
X137315Y3662000D02*
X176685D01*
X157000Y3642315D02*
Y3681685D01*
X-25575Y4582795D02*
X13795D01*
X-5890Y4563110D02*
Y4602480D01*
X-212000Y1318167D02*
Y1357537D01*
X-231685Y1337852D02*
X-192315D01*
X1424000Y1564315D02*
Y1603685D01*
X1404315Y1584000D02*
X1443685D01*
X1155890Y1892158D02*
Y1931528D01*
X1136205Y1911842D02*
X1175575D01*
X803000Y1590473D02*
Y1629843D01*
X783315Y1610158D02*
X822685D01*
X629000Y933472D02*
Y972843D01*
X609315Y953158D02*
X648685D01*
X258000Y1198315D02*
Y1237685D01*
X238315Y1218000D02*
X277685D01*
X-636000Y1281473D02*
Y1320843D01*
X-655685Y1301158D02*
X-616315D01*
X-1266000Y1301473D02*
Y1340843D01*
X-1285685Y1321158D02*
X-1246315D01*
X-194110Y3809157D02*
Y3848528D01*
X-213795Y3828843D02*
X-174425D01*
X322000Y1742315D02*
Y1781685D01*
X302315Y1762000D02*
X341685D01*
X-386685Y1799000D02*
X-347315D01*
X-367000Y1779315D02*
Y1818685D01*
X221173Y3659000D02*
X242827D01*
X232000Y3648173D02*
Y3669827D01*
X1009173Y1267677D02*
X1030827D01*
X1020000Y1256850D02*
Y1278504D01*
X0Y1126173D02*
Y1147827D01*
X-10827Y1137000D02*
X10827D01*
X-240000Y1742496D02*
Y1764150D01*
X-250827Y1753323D02*
X-229173D01*
X69173Y1545000D02*
X90827D01*
X80000Y1534173D02*
Y1555827D01*
X-212000Y1237173D02*
Y1258827D01*
X-222827Y1248000D02*
X-201173D01*
X-348000Y1317496D02*
Y1339150D01*
X-358827Y1328323D02*
X-337173D01*
X-455803Y1299472D02*
Y1338842D01*
X-475488Y1319157D02*
X-436118D01*
X1056173Y1163000D02*
X1077827D01*
X1067000Y1152173D02*
Y1173827D01*
X429173Y1748000D02*
X450827D01*
X440000Y1737173D02*
Y1758827D01*
X-142000Y2395173D02*
Y2416827D01*
X-152827Y2406000D02*
X-131173D01*
X-108827Y2782000D02*
X-87173D01*
X-98000Y2771173D02*
Y2792827D01*
X30173Y3437284D02*
X51827D01*
X41000Y3426457D02*
Y3448110D01*
X0Y3801173D02*
Y3822827D01*
X-10827Y3812000D02*
X10827D01*
X52173Y4580000D02*
X73827D01*
X63000Y4569173D02*
Y4590827D01*
X-1827Y5077000D02*
X19827D01*
X9000Y5066173D02*
Y5087827D01*
X0Y794173D02*
Y815827D01*
X-10827Y805000D02*
X10827D01*
D71*
X-452567Y860283D02*
Y895716D01*
X-523433Y860283D02*
Y895716D01*
Y860283D02*
X-452567D01*
X-523433Y895716D02*
X-452567D01*
X1064252Y1181992D02*
Y1274512D01*
X1156772Y1181992D02*
Y1274512D01*
X1064252D02*
X1156772D01*
X1064252Y1181992D02*
X1156772D01*
X-20614Y5043425D02*
Y5122165D01*
X-83606Y5043425D02*
Y5122165D01*
X-20614D01*
X-83606Y5043425D02*
X-20614D01*
X59496Y1517630D02*
Y1596370D01*
X-3496Y1517630D02*
Y1596370D01*
X59496D01*
X-3496Y1517630D02*
X59496D01*
X-191504Y2371630D02*
Y2450370D01*
X-254496Y2371630D02*
Y2450370D01*
X-191504D01*
X-254496Y2371630D02*
X-191504D01*
X-136504Y2748630D02*
Y2827370D01*
X-199496Y2748630D02*
Y2827370D01*
X-136504D01*
X-199496Y2748630D02*
X-136504D01*
X-7504Y3403630D02*
Y3482370D01*
X-70496Y3403630D02*
Y3482370D01*
X-7504D01*
X-70496Y3403630D02*
X-7504D01*
X188496Y3622630D02*
Y3701370D01*
X125504Y3622630D02*
Y3701370D01*
X188496D01*
X125504Y3622630D02*
X188496D01*
X25606Y4543425D02*
Y4622165D01*
X-37386Y4543425D02*
Y4622165D01*
X25606D01*
X-37386Y4543425D02*
X25606D01*
X-259244Y1279782D02*
X-164756D01*
X-259244Y1395923D02*
X-164756D01*
X-259244Y1279782D02*
Y1395923D01*
X-164756Y1279782D02*
Y1395923D01*
X1392504Y1543646D02*
X1455496D01*
X1392504Y1624354D02*
X1455496D01*
X1392504Y1543646D02*
Y1624354D01*
X1455496Y1543646D02*
Y1624354D01*
X1124394Y1871488D02*
X1187386D01*
X1124394Y1952197D02*
X1187386D01*
X1124394Y1871488D02*
Y1952197D01*
X1187386Y1871488D02*
Y1952197D01*
X771504Y1569803D02*
X834496D01*
X771504Y1650512D02*
X834496D01*
X771504Y1569803D02*
Y1650512D01*
X834496Y1569803D02*
Y1650512D01*
X597504Y912803D02*
X660496D01*
X597504Y993512D02*
X660496D01*
X597504Y912803D02*
Y993512D01*
X660496Y912803D02*
Y993512D01*
X226504Y1177646D02*
X289496D01*
X226504Y1258354D02*
X289496D01*
X226504Y1177646D02*
Y1258354D01*
X289496Y1177646D02*
Y1258354D01*
X-667496Y1260803D02*
X-604504D01*
X-667496Y1341512D02*
X-604504D01*
X-667496Y1260803D02*
Y1341512D01*
X-604504Y1260803D02*
Y1341512D01*
X-1297496Y1280803D02*
X-1234504D01*
X-1297496Y1361512D02*
X-1234504D01*
X-1297496Y1280803D02*
Y1361512D01*
X-1234504Y1280803D02*
Y1361512D01*
X-225606Y3788488D02*
X-162614D01*
X-225606Y3869197D02*
X-162614D01*
X-225606Y3788488D02*
Y3869197D01*
X-162614Y3788488D02*
Y3869197D01*
X229480Y1834835D02*
X414520D01*
X229480Y1689165D02*
X414520D01*
Y1834835D01*
X229480Y1689165D02*
Y1834835D01*
X-459520Y1726165D02*
Y1871835D01*
X-274480Y1726165D02*
Y1871835D01*
X-459520Y1726165D02*
X-274480D01*
X-459520Y1871835D02*
X-274480D01*
X214284Y3623567D02*
Y3694433D01*
X249717Y3623567D02*
Y3694433D01*
X214284Y3623567D02*
X249717D01*
X214284Y3694433D02*
X249717D01*
X1000315Y1230276D02*
Y1305079D01*
X1039685Y1230276D02*
Y1305079D01*
X1000315Y1230276D02*
X1039685D01*
X1000315Y1305079D02*
X1039685D01*
X-35433Y1154716D02*
X35433D01*
X-35433Y1119283D02*
X35433D01*
X-35433D02*
Y1154716D01*
X35433Y1119283D02*
Y1154716D01*
X-259685Y1715921D02*
X-220315D01*
X-259685Y1790724D02*
X-220315D01*
X-259685Y1715921D02*
Y1790724D01*
X-220315Y1715921D02*
Y1790724D01*
X62283Y1509567D02*
Y1580433D01*
X97717Y1509567D02*
Y1580433D01*
X62283Y1509567D02*
X97717D01*
X62283Y1580433D02*
X97717D01*
X-247433Y1265716D02*
X-176567D01*
X-247433Y1230283D02*
X-176567D01*
X-247433D02*
Y1265716D01*
X-176567Y1230283D02*
Y1265716D01*
X-367685Y1290921D02*
X-328315D01*
X-367685Y1365724D02*
X-328315D01*
X-367685Y1290921D02*
Y1365724D01*
X-328315Y1290921D02*
Y1365724D01*
X-525685Y1389039D02*
X-385921D01*
X-525685Y1249276D02*
X-385921D01*
Y1389039D01*
X-525685Y1249276D02*
Y1389039D01*
X1104401Y1143315D02*
Y1182685D01*
X1029598Y1143315D02*
Y1182685D01*
Y1143315D02*
X1104401D01*
X1029598Y1182685D02*
X1104401D01*
X477401Y1728315D02*
Y1767685D01*
X402598Y1728315D02*
Y1767685D01*
Y1728315D02*
X477401D01*
X402598Y1767685D02*
X477401D01*
X-159716Y2441433D02*
X-124283D01*
X-159716Y2370567D02*
X-124283D01*
Y2441433D01*
X-159716Y2370567D02*
Y2441433D01*
X-115716Y2746567D02*
Y2817433D01*
X-80283Y2746567D02*
Y2817433D01*
X-115716Y2746567D02*
X-80283D01*
X-115716Y2817433D02*
X-80283D01*
X23284Y3401850D02*
Y3472716D01*
X58717Y3401850D02*
Y3472716D01*
X23284Y3401850D02*
X58717D01*
X23284Y3472716D02*
X58717D01*
X-35433Y3794284D02*
X35433D01*
X-35433Y3829717D02*
X35433D01*
Y3794284D02*
Y3829717D01*
X-35433Y3794284D02*
Y3829717D01*
X45283Y4544567D02*
Y4615433D01*
X80717Y4544567D02*
Y4615433D01*
X45283Y4544567D02*
X80717D01*
X45283Y4615433D02*
X80717D01*
X-8716Y5041567D02*
Y5112433D01*
X26717Y5041567D02*
Y5112433D01*
X-8716Y5041567D02*
X26717D01*
X-8716Y5112433D02*
X26717D01*
X-37402Y824685D02*
X37401D01*
X-37402Y785315D02*
X37401D01*
X-37402D02*
Y824685D01*
X37401Y785315D02*
Y824685D01*
D72*
X-759252Y865000D02*
Y3015000D01*
X790748Y865000D02*
Y3015000D01*
X-759252Y865000D02*
X790748D01*
X-759252Y3015000D02*
X790748D01*
X275000Y3626000D02*
Y4176000D01*
X-275000Y3626000D02*
Y4176000D01*
X275000D01*
X-275000Y3626000D02*
X275000D01*
X791500Y960875D02*
X996500D01*
X791500Y1327125D02*
X996500D01*
X791500Y960875D02*
Y1327125D01*
X996500Y960875D02*
Y1327125D01*
%TF.MD5,c91181e371b02ee5a495351f95bc5769*%
M02*
