%TF.GenerationSoftware,Altium Limited,Altium Designer,21.4.1 (30)*%
G04 Layer_Color=65535*
%FSLAX26Y26*%
%MOIN*%
%TF.SameCoordinates,C79CEFAC-E130-474B-83DD-F1A68A00FB65*%
%TF.FilePolarity,Positive*%
%TF.FileFunction,Legend,Top*%
%TF.Part,Single*%
G01*
G75*
%TA.AperFunction,NonConductor*%
%ADD39C,0.010000*%
%ADD40C,0.005000*%
%ADD41C,0.006000*%
%ADD47C,0.003937*%
%ADD48C,0.009842*%
%ADD49C,0.007874*%
%ADD50C,0.118110*%
D39*
X-98425Y848890D02*
X98425D01*
X-98425Y1085110D02*
X98425D01*
D40*
X1695100Y1394000D02*
G03*
X1695100Y1394000I-100J0D01*
G01*
X414530Y1775322D02*
G03*
X414530Y1775322I-10J0D01*
G01*
X-274470Y1812322D02*
G03*
X-274470Y1812322I-10J0D01*
G01*
X-72900Y4979000D02*
G03*
X-72900Y4979000I-100J0D01*
G01*
X19100Y5327000D02*
G03*
X19100Y5327000I-100J0D01*
G01*
X-143900Y4458000D02*
G03*
X-143900Y4458000I-100J0D01*
G01*
X-413900Y4419299D02*
G03*
X-413900Y4419299I-100J0D01*
G01*
X154100Y5075000D02*
G03*
X154100Y5075000I-100J0D01*
G01*
X286100Y4744000D02*
G03*
X286100Y4744000I-100J0D01*
G01*
X-754900Y4116000D02*
G03*
X-754900Y4116000I-100J0D01*
G01*
X-421900Y3934299D02*
G03*
X-421900Y3934299I-100J0D01*
G01*
X72100Y4273299D02*
G03*
X72100Y4273299I-100J0D01*
G01*
X16100Y3912000D02*
G03*
X16100Y3912000I-100J0D01*
G01*
X349100Y4075000D02*
G03*
X349100Y4075000I-100J0D01*
G01*
X614100Y4360701D02*
G03*
X614100Y4360701I-100J0D01*
G01*
X905100Y4120701D02*
G03*
X905100Y4120701I-100J0D01*
G01*
X-854900Y3312299D02*
G03*
X-854900Y3312299I-100J0D01*
G01*
X-572900Y3628000D02*
G03*
X-572900Y3628000I-100J0D01*
G01*
X-254900Y3167000D02*
G03*
X-254900Y3167000I-100J0D01*
G01*
X-218900Y3535299D02*
G03*
X-218900Y3535299I-100J0D01*
G01*
X280100Y3444701D02*
G03*
X280100Y3444701I-100J0D01*
G01*
X503100Y3759000D02*
G03*
X503100Y3759000I-100J0D01*
G01*
X813100Y3305701D02*
G03*
X813100Y3305701I-100J0D01*
G01*
X-1353900Y2737299D02*
G03*
X-1353900Y2737299I-100J0D01*
G01*
X-830900Y2948299D02*
G03*
X-830900Y2948299I-100J0D01*
G01*
X-382900Y2949000D02*
G03*
X-382900Y2949000I-100J0D01*
G01*
X207100Y2783299D02*
G03*
X207100Y2783299I-100J0D01*
G01*
X424100Y3163000D02*
G03*
X424100Y3163000I-100J0D01*
G01*
X1061100Y3129701D02*
G03*
X1061100Y3129701I-100J0D01*
G01*
X1390100Y2812701D02*
G03*
X1390100Y2812701I-100J0D01*
G01*
X-866900Y2270299D02*
G03*
X-866900Y2270299I-100J0D01*
G01*
X-633900Y2579299D02*
G03*
X-633900Y2579299I-100J0D01*
G01*
X-449900Y2206299D02*
G03*
X-449900Y2206299I-100J0D01*
G01*
X-341900Y2530000D02*
G03*
X-341900Y2530000I-100J0D01*
G01*
X376100Y2478000D02*
G03*
X376100Y2478000I-100J0D01*
G01*
X769100Y2415299D02*
G03*
X769100Y2415299I-100J0D01*
G01*
X965100Y2743299D02*
G03*
X965100Y2743299I-100J0D01*
G01*
X-1182900Y1769000D02*
G03*
X-1182900Y1769000I-100J0D01*
G01*
X-580900Y1830000D02*
G03*
X-580900Y1830000I-100J0D01*
G01*
X61100Y1816299D02*
G03*
X61100Y1816299I-100J0D01*
G01*
X594100Y1543299D02*
G03*
X594100Y1543299I-100J0D01*
G01*
X504100Y2074299D02*
G03*
X504100Y2074299I-100J0D01*
G01*
X1023100Y1739299D02*
G03*
X1023100Y1739299I-100J0D01*
G01*
X1074100Y2143000D02*
G03*
X1074100Y2143000I-100J0D01*
G01*
X-1477900Y1204000D02*
G03*
X-1477900Y1204000I-100J0D01*
G01*
X-920900Y1498000D02*
G03*
X-920900Y1498000I-100J0D01*
G01*
X-589900Y995000D02*
G03*
X-589900Y995000I-100J0D01*
G01*
X-32900Y1303299D02*
G03*
X-32900Y1303299I-100J0D01*
G01*
X611100Y1135000D02*
G03*
X611100Y1135000I-100J0D01*
G01*
X1083100Y1050701D02*
G03*
X1083100Y1050701I-100J0D01*
G01*
X-290900Y4818000D02*
G03*
X-290900Y4818000I-100J0D01*
G01*
X1645000Y1364000D02*
X1649000D01*
X1647000Y1362000D02*
X1649000Y1364000D01*
X1645000D02*
X1647000Y1362000D01*
X-123000Y4949000D02*
X-119000D01*
X-121000Y4947000D02*
X-119000Y4949000D01*
X-123000D02*
X-121000Y4947000D01*
X-13000Y5375000D02*
X-11000Y5377000D01*
X-13000Y5375000D02*
X-11000Y5373000D01*
Y5377000D01*
X-194000Y4428000D02*
X-190000D01*
X-192000Y4426000D02*
X-190000Y4428000D01*
X-194000D02*
X-192000Y4426000D01*
X-464000Y4389299D02*
X-462000Y4387299D01*
X-460000Y4389299D01*
X-464000D02*
X-460000D01*
X104000Y5045000D02*
X108000D01*
X106000Y5043000D02*
X108000Y5045000D01*
X104000D02*
X106000Y5043000D01*
X236000Y4714000D02*
X238000Y4712000D01*
X240000Y4714000D01*
X236000D02*
X240000D01*
X-805000Y4086000D02*
X-801000D01*
X-803000Y4084000D02*
X-801000Y4086000D01*
X-805000D02*
X-803000Y4084000D01*
X-472000Y3904299D02*
X-470000Y3902299D01*
X-468000Y3904299D01*
X-472000D02*
X-468000D01*
X22000Y4243299D02*
X26000D01*
X24000Y4241299D02*
X26000Y4243299D01*
X22000D02*
X24000Y4241299D01*
X-34000Y3882000D02*
X-32000Y3880000D01*
X-30000Y3882000D01*
X-34000D02*
X-30000D01*
X299000Y4045000D02*
X303000D01*
X301000Y4043000D02*
X303000Y4045000D01*
X299000D02*
X301000Y4043000D01*
X564000Y4330701D02*
X566000Y4328701D01*
X568000Y4330701D01*
X564000D02*
X568000D01*
X855000Y4090701D02*
X859000D01*
X857000Y4088701D02*
X859000Y4090701D01*
X855000D02*
X857000Y4088701D01*
X-905000Y3282299D02*
X-903000Y3280299D01*
X-901000Y3282299D01*
X-905000D02*
X-901000D01*
X-623000Y3598000D02*
X-619000D01*
X-621000Y3596000D02*
X-619000Y3598000D01*
X-623000D02*
X-621000Y3596000D01*
X-305000Y3137000D02*
X-303000Y3135000D01*
X-301000Y3137000D01*
X-305000D02*
X-301000D01*
X-269000Y3505299D02*
X-265000D01*
X-267000Y3503299D02*
X-265000Y3505299D01*
X-269000D02*
X-267000Y3503299D01*
X230000Y3414701D02*
X232000Y3412701D01*
X234000Y3414701D01*
X230000D02*
X234000D01*
X453000Y3729000D02*
X457000D01*
X455000Y3727000D02*
X457000Y3729000D01*
X453000D02*
X455000Y3727000D01*
X763000Y3275701D02*
X765000Y3273701D01*
X767000Y3275701D01*
X763000D02*
X767000D01*
X-1404000Y2707299D02*
X-1400000D01*
X-1402000Y2705299D02*
X-1400000Y2707299D01*
X-1404000D02*
X-1402000Y2705299D01*
X-881000Y2918299D02*
X-879000Y2916299D01*
X-877000Y2918299D01*
X-881000D02*
X-877000D01*
X-433000Y2919000D02*
X-429000D01*
X-431000Y2917000D02*
X-429000Y2919000D01*
X-433000D02*
X-431000Y2917000D01*
X157000Y2753299D02*
X159000Y2751299D01*
X161000Y2753299D01*
X157000D02*
X161000D01*
X374000Y3133000D02*
X378000D01*
X376000Y3131000D02*
X378000Y3133000D01*
X374000D02*
X376000Y3131000D01*
X1011000Y3099701D02*
X1013000Y3097701D01*
X1015000Y3099701D01*
X1011000D02*
X1015000D01*
X1340000Y2782701D02*
X1344000D01*
X1342000Y2780701D02*
X1344000Y2782701D01*
X1340000D02*
X1342000Y2780701D01*
X-917000Y2240299D02*
X-915000Y2238299D01*
X-913000Y2240299D01*
X-917000D02*
X-913000D01*
X-684000Y2549299D02*
X-680000D01*
X-682000Y2547299D02*
X-680000Y2549299D01*
X-684000D02*
X-682000Y2547299D01*
X-500000Y2176299D02*
X-498000Y2174299D01*
X-496000Y2176299D01*
X-500000D02*
X-496000D01*
X-392000Y2500000D02*
X-388000D01*
X-390000Y2498000D02*
X-388000Y2500000D01*
X-392000D02*
X-390000Y2498000D01*
X326000Y2448000D02*
X328000Y2446000D01*
X330000Y2448000D01*
X326000D02*
X330000D01*
X719000Y2385299D02*
X723000D01*
X721000Y2383299D02*
X723000Y2385299D01*
X719000D02*
X721000Y2383299D01*
X915000Y2713299D02*
X917000Y2711299D01*
X919000Y2713299D01*
X915000D02*
X919000D01*
X-1233000Y1739000D02*
X-1229000D01*
X-1231000Y1737000D02*
X-1229000Y1739000D01*
X-1233000D02*
X-1231000Y1737000D01*
X-631000Y1800000D02*
X-629000Y1798000D01*
X-627000Y1800000D01*
X-631000D02*
X-627000D01*
X11000Y1786299D02*
X15000D01*
X13000Y1784299D02*
X15000Y1786299D01*
X11000D02*
X13000Y1784299D01*
X544000Y1513299D02*
X546000Y1511299D01*
X548000Y1513299D01*
X544000D02*
X548000D01*
X454000Y2044299D02*
X458000D01*
X456000Y2042299D02*
X458000Y2044299D01*
X454000D02*
X456000Y2042299D01*
X973000Y1709299D02*
X975000Y1707299D01*
X977000Y1709299D01*
X973000D02*
X977000D01*
X1024000Y2113000D02*
X1028000D01*
X1026000Y2111000D02*
X1028000Y2113000D01*
X1024000D02*
X1026000Y2111000D01*
X-1528000Y1174000D02*
X-1526000Y1172000D01*
X-1524000Y1174000D01*
X-1528000D02*
X-1524000D01*
X-971000Y1468000D02*
X-967000D01*
X-969000Y1466000D02*
X-967000Y1468000D01*
X-971000D02*
X-969000Y1466000D01*
X-640000Y965000D02*
X-638000Y963000D01*
X-636000Y965000D01*
X-640000D02*
X-636000D01*
X-83000Y1273299D02*
X-79000D01*
X-81000Y1271299D02*
X-79000Y1273299D01*
X-83000D02*
X-81000Y1271299D01*
X561000Y1105000D02*
X563000Y1103000D01*
X565000Y1105000D01*
X561000D02*
X565000D01*
X1033000Y1020701D02*
X1037000D01*
X1035000Y1018701D02*
X1037000Y1020701D01*
X1033000D02*
X1035000Y1018701D01*
X-341000Y4788000D02*
X-337000D01*
X-339000Y4786000D02*
X-337000Y4788000D01*
X-341000D02*
X-339000Y4786000D01*
D41*
X-513991Y902004D02*
Y925996D01*
X-501995D01*
X-497997Y921997D01*
Y914000D01*
X-501995Y910001D01*
X-513991D01*
X-505994D02*
X-497997Y902004D01*
X-489999D02*
X-482002D01*
X-486001D01*
Y925996D01*
X-489999Y921997D01*
X-470006Y902004D02*
X-462008D01*
X-466007D01*
Y925996D01*
X-470006Y921997D01*
X234000Y1885992D02*
Y1865999D01*
X237999Y1862000D01*
X245996D01*
X249995Y1865999D01*
Y1885992D01*
X269988Y1862000D02*
Y1885992D01*
X257992Y1873996D01*
X273987D01*
X-455000Y1922992D02*
Y1902999D01*
X-451001Y1899000D01*
X-443004D01*
X-439005Y1902999D01*
Y1922992D01*
X-415013Y1899000D02*
X-431008D01*
X-415013Y1914995D01*
Y1918994D01*
X-419012Y1922992D01*
X-427009D01*
X-431008Y1918994D01*
X1095005Y1290996D02*
Y1271003D01*
X1099004Y1267004D01*
X1107001D01*
X1111000Y1271003D01*
Y1290996D01*
X1118997Y1267004D02*
X1126995D01*
X1122996D01*
Y1290996D01*
X1118997Y1286997D01*
X-518994Y1426996D02*
Y1407003D01*
X-514995Y1403004D01*
X-506997D01*
X-502999Y1407003D01*
Y1426996D01*
X-495001Y1422997D02*
X-491003Y1426996D01*
X-483005D01*
X-479007Y1422997D01*
Y1418999D01*
X-483005Y1415000D01*
X-487004D01*
X-483005D01*
X-479007Y1411001D01*
Y1407003D01*
X-483005Y1403004D01*
X-491003D01*
X-495001Y1407003D01*
X-199999Y3882003D02*
Y3897997D01*
X-203997Y3901996D01*
X-211995D01*
X-215994Y3897997D01*
Y3882003D01*
X-211995Y3878004D01*
X-203997D01*
X-207996Y3886001D02*
X-199999Y3878004D01*
X-203997D02*
X-199999Y3882003D01*
X-192001D02*
X-188003Y3878004D01*
X-180005D01*
X-176006Y3882003D01*
Y3897997D01*
X-180005Y3901996D01*
X-188003D01*
X-192001Y3897997D01*
Y3893999D01*
X-188003Y3890000D01*
X-176006D01*
X-139999Y1355003D02*
Y1370997D01*
X-143997Y1374996D01*
X-151995D01*
X-155994Y1370997D01*
Y1355003D01*
X-151995Y1351004D01*
X-143997D01*
X-147996Y1359001D02*
X-139999Y1351004D01*
X-143997D02*
X-139999Y1355003D01*
X-116007Y1351004D02*
X-132001D01*
X-116007Y1366999D01*
Y1370997D01*
X-120005Y1374996D01*
X-128003D01*
X-132001Y1370997D01*
X1020995Y1351994D02*
X1016996Y1355992D01*
X1008999D01*
X1005000Y1351994D01*
Y1335999D01*
X1008999Y1332000D01*
X1016996D01*
X1020995Y1335999D01*
X1028992Y1332000D02*
X1036990D01*
X1032991D01*
Y1355992D01*
X1028992Y1351994D01*
X1062001Y1129997D02*
X1058003Y1133996D01*
X1050005D01*
X1046006Y1129997D01*
Y1114003D01*
X1050005Y1110004D01*
X1058003D01*
X1062001Y1114003D01*
X1085994Y1110004D02*
X1069999D01*
X1085994Y1125999D01*
Y1129997D01*
X1081995Y1133996D01*
X1073997D01*
X1069999Y1129997D01*
X-155999Y1119997D02*
X-159997Y1123996D01*
X-167995D01*
X-171994Y1119997D01*
Y1115999D01*
X-167995Y1112000D01*
X-159997D01*
X-155999Y1108001D01*
Y1104003D01*
X-159997Y1100004D01*
X-167995D01*
X-171994Y1104003D01*
X-132006Y1100004D02*
X-148001D01*
X-132006Y1115999D01*
Y1119997D01*
X-136005Y1123996D01*
X-144003D01*
X-148001Y1119997D01*
X-84993Y3801004D02*
Y3824996D01*
X-72997D01*
X-68999Y3820997D01*
Y3813000D01*
X-72997Y3809001D01*
X-84993D01*
X-76996D02*
X-68999Y3801004D01*
X-61001Y3805003D02*
X-57003Y3801004D01*
X-49005D01*
X-45007Y3805003D01*
Y3820997D01*
X-49005Y3824996D01*
X-57003D01*
X-61001Y3820997D01*
Y3816999D01*
X-57003Y3813000D01*
X-45007D01*
X1414005Y1636003D02*
Y1651997D01*
X1410006Y1655996D01*
X1402008D01*
X1398010Y1651997D01*
Y1636003D01*
X1402008Y1632004D01*
X1410006D01*
X1406007Y1640001D02*
X1414005Y1632004D01*
X1410006D02*
X1414005Y1636003D01*
X1422002Y1632004D02*
X1429999D01*
X1426001D01*
Y1655996D01*
X1422002Y1651997D01*
X1457990Y1655996D02*
X1449993Y1651997D01*
X1441995Y1644000D01*
Y1636003D01*
X1445994Y1632004D01*
X1453992D01*
X1457990Y1636003D01*
Y1640001D01*
X1453992Y1644000D01*
X1441995D01*
X151996Y1571010D02*
X128004D01*
Y1583006D01*
X132003Y1587005D01*
X140000D01*
X143999Y1583006D01*
Y1571010D01*
Y1579007D02*
X151996Y1587005D01*
Y1595002D02*
Y1602999D01*
Y1599001D01*
X128004D01*
X132003Y1595002D01*
Y1614995D02*
X128004Y1618994D01*
Y1626992D01*
X132003Y1630990D01*
X147997D01*
X151996Y1626992D01*
Y1618994D01*
X147997Y1614995D01*
X132003D01*
X-92004Y2390006D02*
X-115996D01*
Y2402003D01*
X-111998Y2406001D01*
X-104000D01*
X-100001Y2402003D01*
Y2390006D01*
Y2398004D02*
X-92004Y2406001D01*
X-111998Y2413999D02*
X-115996Y2417997D01*
Y2425995D01*
X-111998Y2429994D01*
X-107999D01*
X-104000Y2425995D01*
X-100001Y2429994D01*
X-96003D01*
X-92004Y2425995D01*
Y2417997D01*
X-96003Y2413999D01*
X-100001D01*
X-104000Y2417997D01*
X-107999Y2413999D01*
X-111998D01*
X-104000Y2417997D02*
Y2425995D01*
X-16994Y1164004D02*
Y1187996D01*
X-4997D01*
X-999Y1183997D01*
Y1176000D01*
X-4997Y1172001D01*
X-16994D01*
X-8996D02*
X-999Y1164004D01*
X6999Y1187996D02*
X22994D01*
Y1183997D01*
X6999Y1168003D01*
Y1164004D01*
X-47004Y2763006D02*
X-70996D01*
Y2775003D01*
X-66998Y2779001D01*
X-59000D01*
X-55002Y2775003D01*
Y2763006D01*
Y2771004D02*
X-47004Y2779001D01*
X-70996Y2802994D02*
X-66998Y2794996D01*
X-59000Y2786999D01*
X-51003D01*
X-47004Y2790997D01*
Y2798995D01*
X-51003Y2802994D01*
X-55002D01*
X-59000Y2798995D01*
Y2786999D01*
X93996Y3422006D02*
X70004D01*
Y3434003D01*
X74002Y3438001D01*
X82000D01*
X85999Y3434003D01*
Y3422006D01*
Y3430004D02*
X93996Y3438001D01*
X70004Y3461994D02*
Y3445999D01*
X82000D01*
X78001Y3453996D01*
Y3457995D01*
X82000Y3461994D01*
X89997D01*
X93996Y3457995D01*
Y3449997D01*
X89997Y3445999D01*
X281996Y3642006D02*
X258004D01*
Y3654003D01*
X262002Y3658001D01*
X270000D01*
X273998Y3654003D01*
Y3642006D01*
Y3650004D02*
X281996Y3658001D01*
Y3677995D02*
X258004D01*
X270000Y3665999D01*
Y3681994D01*
X112996Y4564007D02*
X89004D01*
Y4576003D01*
X93002Y4580001D01*
X101000D01*
X104999Y4576003D01*
Y4564007D01*
Y4572004D02*
X112996Y4580001D01*
X93002Y4587999D02*
X89004Y4591997D01*
Y4599995D01*
X93002Y4603993D01*
X97001D01*
X101000Y4599995D01*
Y4595996D01*
Y4599995D01*
X104999Y4603993D01*
X108997D01*
X112996Y4599995D01*
Y4591997D01*
X108997Y4587999D01*
X57996Y5058007D02*
X34004D01*
Y5070003D01*
X38002Y5074001D01*
X46000D01*
X49998Y5070003D01*
Y5058007D01*
Y5066004D02*
X57996Y5074001D01*
Y5097993D02*
Y5081999D01*
X42001Y5097993D01*
X38002D01*
X34004Y5093995D01*
Y5085997D01*
X38002Y5081999D01*
X-224995Y1196004D02*
Y1219996D01*
X-212999D01*
X-209000Y1215997D01*
Y1208000D01*
X-212999Y1204001D01*
X-224995D01*
X-216997D02*
X-209000Y1196004D01*
X-201003D02*
X-193005D01*
X-197004D01*
Y1219996D01*
X-201003Y1215997D01*
X1140005Y1964003D02*
Y1979997D01*
X1136006Y1983996D01*
X1128008D01*
X1124010Y1979997D01*
Y1964003D01*
X1128008Y1960004D01*
X1136006D01*
X1132007Y1968001D02*
X1140005Y1960004D01*
X1136006D02*
X1140005Y1964003D01*
X1148002Y1960004D02*
X1155999D01*
X1152001D01*
Y1983996D01*
X1148002Y1979997D01*
X1183990Y1983996D02*
X1167995D01*
Y1972000D01*
X1175993Y1975999D01*
X1179992D01*
X1183990Y1972000D01*
Y1964003D01*
X1179992Y1960004D01*
X1171994D01*
X1167995Y1964003D01*
X793005Y1661003D02*
Y1676997D01*
X789006Y1680996D01*
X781009D01*
X777010Y1676997D01*
Y1661003D01*
X781009Y1657004D01*
X789006D01*
X785007Y1665001D02*
X793005Y1657004D01*
X789006D02*
X793005Y1661003D01*
X801002Y1657004D02*
X808999D01*
X805001D01*
Y1680996D01*
X801002Y1676997D01*
X832992Y1657004D02*
Y1680996D01*
X820995Y1669000D01*
X836990D01*
X617005Y1003003D02*
Y1018997D01*
X613006Y1022996D01*
X605009D01*
X601010Y1018997D01*
Y1003003D01*
X605009Y999004D01*
X613006D01*
X609007Y1007001D02*
X617005Y999004D01*
X613006D02*
X617005Y1003003D01*
X625002Y999004D02*
X632999D01*
X629001D01*
Y1022996D01*
X625002Y1018997D01*
X644995D02*
X648994Y1022996D01*
X656992D01*
X660990Y1018997D01*
Y1014999D01*
X656992Y1011000D01*
X652993D01*
X656992D01*
X660990Y1007001D01*
Y1003003D01*
X656992Y999004D01*
X648994D01*
X644995Y1003003D01*
X246005Y1272003D02*
Y1287997D01*
X242006Y1291996D01*
X234008D01*
X230010Y1287997D01*
Y1272003D01*
X234008Y1268004D01*
X242006D01*
X238007Y1276001D02*
X246005Y1268004D01*
X242006D02*
X246005Y1272003D01*
X254002Y1268004D02*
X261999D01*
X258001D01*
Y1291996D01*
X254002Y1287997D01*
X289990Y1268004D02*
X273995D01*
X289990Y1283999D01*
Y1287997D01*
X285992Y1291996D01*
X277994D01*
X273995Y1287997D01*
X-645997Y1353003D02*
Y1368997D01*
X-649995Y1372996D01*
X-657993D01*
X-661991Y1368997D01*
Y1353003D01*
X-657993Y1349004D01*
X-649995D01*
X-653994Y1357001D02*
X-645997Y1349004D01*
X-649995D02*
X-645997Y1353003D01*
X-637999Y1349004D02*
X-630002D01*
X-634001D01*
Y1372996D01*
X-637999Y1368997D01*
X-618006Y1349004D02*
X-610008D01*
X-614007D01*
Y1372996D01*
X-618006Y1368997D01*
X-1279995Y1372003D02*
Y1387997D01*
X-1283994Y1391996D01*
X-1291992D01*
X-1295990Y1387997D01*
Y1372003D01*
X-1291992Y1368004D01*
X-1283994D01*
X-1287993Y1376001D02*
X-1279995Y1368004D01*
X-1283994D02*
X-1279995Y1372003D01*
X-1271998Y1368004D02*
X-1264001D01*
X-1267999D01*
Y1391996D01*
X-1271998Y1387997D01*
X-1252005D02*
X-1248006Y1391996D01*
X-1240008D01*
X-1236010Y1387997D01*
Y1372003D01*
X-1240008Y1368004D01*
X-1248006D01*
X-1252005Y1372003D01*
Y1387997D01*
X25001Y1613798D02*
Y1629793D01*
X21003Y1633791D01*
X13005D01*
X9007Y1629793D01*
Y1613798D01*
X13005Y1609799D01*
X21003D01*
X17004Y1617797D02*
X25001Y1609799D01*
X21003D02*
X25001Y1613798D01*
X32999Y1629793D02*
X36997Y1633791D01*
X44995D01*
X48993Y1629793D01*
Y1625794D01*
X44995Y1621795D01*
X48993Y1617797D01*
Y1613798D01*
X44995Y1609799D01*
X36997D01*
X32999Y1613798D01*
Y1617797D01*
X36997Y1621795D01*
X32999Y1625794D01*
Y1629793D01*
X36997Y1621795D02*
X44995D01*
X-224999Y2460003D02*
Y2475997D01*
X-228997Y2479996D01*
X-236995D01*
X-240994Y2475997D01*
Y2460003D01*
X-236995Y2456004D01*
X-228997D01*
X-232996Y2464001D02*
X-224999Y2456004D01*
X-228997D02*
X-224999Y2460003D01*
X-217001Y2479996D02*
X-201006D01*
Y2475997D01*
X-217001Y2460003D01*
Y2456004D01*
X-170999Y2834003D02*
Y2849997D01*
X-174997Y2853996D01*
X-182995D01*
X-186994Y2849997D01*
Y2834003D01*
X-182995Y2830004D01*
X-174997D01*
X-178996Y2838001D02*
X-170999Y2830004D01*
X-174997D02*
X-170999Y2834003D01*
X-147006Y2853996D02*
X-155004Y2849997D01*
X-163001Y2842000D01*
Y2834003D01*
X-159003Y2830004D01*
X-151005D01*
X-147006Y2834003D01*
Y2838001D01*
X-151005Y2842000D01*
X-163001D01*
X-42999Y3493003D02*
Y3508997D01*
X-46997Y3512996D01*
X-54995D01*
X-58993Y3508997D01*
Y3493003D01*
X-54995Y3489004D01*
X-46997D01*
X-50996Y3497001D02*
X-42999Y3489004D01*
X-46997D02*
X-42999Y3493003D01*
X-19006Y3512996D02*
X-35001D01*
Y3501000D01*
X-27004Y3504999D01*
X-23005D01*
X-19006Y3501000D01*
Y3493003D01*
X-23005Y3489004D01*
X-31003D01*
X-35001Y3493003D01*
X96001Y3654003D02*
Y3669997D01*
X92003Y3673996D01*
X84005D01*
X80007Y3669997D01*
Y3654003D01*
X84005Y3650004D01*
X92003D01*
X88004Y3658001D02*
X96001Y3650004D01*
X92003D02*
X96001Y3654003D01*
X115995Y3650004D02*
Y3673996D01*
X103999Y3662000D01*
X119993D01*
X-8999Y4520003D02*
Y4535997D01*
X-12997Y4539996D01*
X-20995D01*
X-24994Y4535997D01*
Y4520003D01*
X-20995Y4516004D01*
X-12997D01*
X-16996Y4524001D02*
X-8999Y4516004D01*
X-12997D02*
X-8999Y4520003D01*
X-1001Y4535997D02*
X2997Y4539996D01*
X10995D01*
X14993Y4535997D01*
Y4531999D01*
X10995Y4528000D01*
X6996D01*
X10995D01*
X14993Y4524001D01*
Y4520003D01*
X10995Y4516004D01*
X2997D01*
X-1001Y4520003D01*
X-53000Y5133003D02*
Y5148997D01*
X-56999Y5152996D01*
X-64996D01*
X-68995Y5148997D01*
Y5133003D01*
X-64996Y5129004D01*
X-56999D01*
X-60997Y5137001D02*
X-53000Y5129004D01*
X-56999D02*
X-53000Y5133003D01*
X-45003Y5129004D02*
X-37005D01*
X-41004D01*
Y5152996D01*
X-45003Y5148997D01*
X-290996Y4769007D02*
X-267004D01*
Y4781003D01*
X-271003Y4785001D01*
X-286998D01*
X-290996Y4781003D01*
Y4769007D01*
X-267004Y4808993D02*
Y4792999D01*
X-282999Y4808993D01*
X-286998D01*
X-290996Y4804995D01*
Y4796997D01*
X-286998Y4792999D01*
X1702004Y1331010D02*
X1725996D01*
Y1343006D01*
X1721997Y1347005D01*
X1706003D01*
X1702004Y1343006D01*
Y1331010D01*
X1725996Y1366999D02*
X1702004D01*
X1714000Y1355003D01*
Y1370997D01*
X1721997Y1378995D02*
X1725996Y1382993D01*
Y1390991D01*
X1721997Y1394989D01*
X1706003D01*
X1702004Y1390991D01*
Y1382993D01*
X1706003Y1378995D01*
X1710001D01*
X1714000Y1382993D01*
Y1394989D01*
X1088004Y987010D02*
X1111996D01*
Y999006D01*
X1107997Y1003005D01*
X1092003D01*
X1088004Y999006D01*
Y987010D01*
X1111996Y1022999D02*
X1088004D01*
X1100000Y1011003D01*
Y1026997D01*
X1092003Y1034995D02*
X1088004Y1038993D01*
Y1046991D01*
X1092003Y1050989D01*
X1096001D01*
X1100000Y1046991D01*
X1103999Y1050989D01*
X1107997D01*
X1111996Y1046991D01*
Y1038993D01*
X1107997Y1034995D01*
X1103999D01*
X1100000Y1038993D01*
X1096001Y1034995D01*
X1092003D01*
X1100000Y1038993D02*
Y1046991D01*
X616004Y1077010D02*
X639996D01*
Y1089006D01*
X635997Y1093005D01*
X620003D01*
X616004Y1089006D01*
Y1077010D01*
X639996Y1112999D02*
X616004D01*
X628000Y1101003D01*
Y1116997D01*
X616004Y1124995D02*
Y1140989D01*
X620003D01*
X635997Y1124995D01*
X639996D01*
X-31996Y1241010D02*
X-8004D01*
Y1253006D01*
X-12003Y1257005D01*
X-27997D01*
X-31996Y1253006D01*
Y1241010D01*
X-8004Y1276999D02*
X-31996D01*
X-20000Y1265003D01*
Y1280997D01*
X-31996Y1304989D02*
X-27997Y1296992D01*
X-20000Y1288995D01*
X-12003D01*
X-8004Y1292993D01*
Y1300991D01*
X-12003Y1304989D01*
X-16001D01*
X-20000Y1300991D01*
Y1288995D01*
X-584996Y934010D02*
X-561004D01*
Y946006D01*
X-565003Y950005D01*
X-580997D01*
X-584996Y946006D01*
Y934010D01*
X-561004Y969999D02*
X-584996D01*
X-573000Y958003D01*
Y973997D01*
X-584996Y997990D02*
Y981995D01*
X-573000D01*
X-576999Y989992D01*
Y993991D01*
X-573000Y997990D01*
X-565003D01*
X-561004Y993991D01*
Y985993D01*
X-565003Y981995D01*
X-916996Y1438010D02*
X-893004D01*
Y1450006D01*
X-897003Y1454005D01*
X-912997D01*
X-916996Y1450006D01*
Y1438010D01*
X-893004Y1473999D02*
X-916996D01*
X-905000Y1462003D01*
Y1477997D01*
X-893004Y1497991D02*
X-916996D01*
X-905000Y1485995D01*
Y1501989D01*
X-1472996Y1143010D02*
X-1449004D01*
Y1155006D01*
X-1453003Y1159005D01*
X-1468997D01*
X-1472996Y1155006D01*
Y1143010D01*
X-1449004Y1178999D02*
X-1472996D01*
X-1461000Y1167003D01*
Y1182997D01*
X-1468997Y1190995D02*
X-1472996Y1194993D01*
Y1202991D01*
X-1468997Y1206989D01*
X-1464999D01*
X-1461000Y1202991D01*
Y1198992D01*
Y1202991D01*
X-1457001Y1206989D01*
X-1453003D01*
X-1449004Y1202991D01*
Y1194993D01*
X-1453003Y1190995D01*
X1077004Y2081010D02*
X1100996D01*
Y2093006D01*
X1096997Y2097005D01*
X1081003D01*
X1077004Y2093006D01*
Y2081010D01*
X1100996Y2116999D02*
X1077004D01*
X1089000Y2105003D01*
Y2120997D01*
X1100996Y2144990D02*
Y2128995D01*
X1085001Y2144990D01*
X1081003D01*
X1077004Y2140991D01*
Y2132993D01*
X1081003Y2128995D01*
X1029004Y1686009D02*
X1052996D01*
Y1698005D01*
X1048997Y1702004D01*
X1033002D01*
X1029004Y1698005D01*
Y1686009D01*
X1052996Y1721997D02*
X1029004D01*
X1041000Y1710001D01*
Y1725996D01*
X1052996Y1733994D02*
Y1741991D01*
Y1737992D01*
X1029004D01*
X1033002Y1733994D01*
X511004Y2017010D02*
X534996D01*
Y2029006D01*
X530997Y2033005D01*
X515003D01*
X511004Y2029006D01*
Y2017010D01*
X534996Y2052999D02*
X511004D01*
X523000Y2041003D01*
Y2056997D01*
X515003Y2064995D02*
X511004Y2068993D01*
Y2076991D01*
X515003Y2080990D01*
X530997D01*
X534996Y2076991D01*
Y2068993D01*
X530997Y2064995D01*
X515003D01*
X547000Y1594992D02*
Y1571000D01*
X558996D01*
X562995Y1574999D01*
Y1590994D01*
X558996Y1594992D01*
X547000D01*
X570992Y1590994D02*
X574991Y1594992D01*
X582988D01*
X586987Y1590994D01*
Y1586995D01*
X582988Y1582996D01*
X578990D01*
X582988D01*
X586987Y1578997D01*
Y1574999D01*
X582988Y1571000D01*
X574991D01*
X570992Y1574999D01*
X594984D02*
X598983Y1571000D01*
X606981D01*
X610979Y1574999D01*
Y1590994D01*
X606981Y1594992D01*
X598983D01*
X594984Y1590994D01*
Y1586995D01*
X598983Y1582996D01*
X610979D01*
X67004Y1759010D02*
X90996D01*
Y1771006D01*
X86997Y1775005D01*
X71002D01*
X67004Y1771006D01*
Y1759010D01*
X71002Y1783003D02*
X67004Y1787001D01*
Y1794999D01*
X71002Y1798997D01*
X75001D01*
X79000Y1794999D01*
Y1791000D01*
Y1794999D01*
X82999Y1798997D01*
X86997D01*
X90996Y1794999D01*
Y1787001D01*
X86997Y1783003D01*
X71002Y1806995D02*
X67004Y1810993D01*
Y1818991D01*
X71002Y1822989D01*
X75001D01*
X79000Y1818991D01*
X82999Y1822989D01*
X86997D01*
X90996Y1818991D01*
Y1810993D01*
X86997Y1806995D01*
X82999D01*
X79000Y1810993D01*
X75001Y1806995D01*
X71002D01*
X79000Y1810993D02*
Y1818991D01*
X-572996Y1776010D02*
X-549004D01*
Y1788006D01*
X-553003Y1792005D01*
X-568997D01*
X-572996Y1788006D01*
Y1776010D01*
X-568997Y1800003D02*
X-572996Y1804001D01*
Y1811999D01*
X-568997Y1815997D01*
X-564999D01*
X-561000Y1811999D01*
Y1808000D01*
Y1811999D01*
X-557001Y1815997D01*
X-553003D01*
X-549004Y1811999D01*
Y1804001D01*
X-553003Y1800003D01*
X-572996Y1823995D02*
Y1839989D01*
X-568997D01*
X-553003Y1823995D01*
X-549004D01*
X-1180996Y1705010D02*
X-1157004D01*
Y1717006D01*
X-1161003Y1721005D01*
X-1176997D01*
X-1180996Y1717006D01*
Y1705010D01*
X-1176997Y1729003D02*
X-1180996Y1733001D01*
Y1740999D01*
X-1176997Y1744997D01*
X-1172999D01*
X-1169000Y1740999D01*
Y1737000D01*
Y1740999D01*
X-1165001Y1744997D01*
X-1161003D01*
X-1157004Y1740999D01*
Y1733001D01*
X-1161003Y1729003D01*
X-1180996Y1768989D02*
X-1176997Y1760992D01*
X-1169000Y1752995D01*
X-1161003D01*
X-1157004Y1756993D01*
Y1764991D01*
X-1161003Y1768989D01*
X-1165001D01*
X-1169000Y1764991D01*
Y1752995D01*
X970004Y2685010D02*
X993996D01*
Y2697006D01*
X989997Y2701005D01*
X974003D01*
X970004Y2697006D01*
Y2685010D01*
X974003Y2709003D02*
X970004Y2713001D01*
Y2720999D01*
X974003Y2724997D01*
X978001D01*
X982000Y2720999D01*
Y2717000D01*
Y2720999D01*
X985999Y2724997D01*
X989997D01*
X993996Y2720999D01*
Y2713001D01*
X989997Y2709003D01*
X970004Y2748990D02*
Y2732995D01*
X982000D01*
X978001Y2740992D01*
Y2744991D01*
X982000Y2748990D01*
X989997D01*
X993996Y2744991D01*
Y2736993D01*
X989997Y2732995D01*
X774004Y2358010D02*
X797996D01*
Y2370006D01*
X793997Y2374005D01*
X778003D01*
X774004Y2370006D01*
Y2358010D01*
X778003Y2382003D02*
X774004Y2386001D01*
Y2393999D01*
X778003Y2397997D01*
X782001D01*
X786000Y2393999D01*
Y2390000D01*
Y2393999D01*
X789999Y2397997D01*
X793997D01*
X797996Y2393999D01*
Y2386001D01*
X793997Y2382003D01*
X797996Y2417991D02*
X774004D01*
X786000Y2405995D01*
Y2421990D01*
X381004Y2417010D02*
X404996D01*
Y2429006D01*
X400997Y2433005D01*
X385002D01*
X381004Y2429006D01*
Y2417010D01*
X404996Y2456997D02*
Y2441003D01*
X389001Y2456997D01*
X385002D01*
X381004Y2452999D01*
Y2445001D01*
X385002Y2441003D01*
X400997Y2464995D02*
X404996Y2468993D01*
Y2476991D01*
X400997Y2480990D01*
X385002D01*
X381004Y2476991D01*
Y2468993D01*
X385002Y2464995D01*
X389001D01*
X393000Y2468993D01*
Y2480990D01*
X-336996Y2466010D02*
X-313004D01*
Y2478006D01*
X-317003Y2482005D01*
X-332998D01*
X-336996Y2478006D01*
Y2466010D01*
X-332998Y2490003D02*
X-336996Y2494001D01*
Y2501999D01*
X-332998Y2505997D01*
X-328999D01*
X-325000Y2501999D01*
Y2498000D01*
Y2501999D01*
X-321001Y2505997D01*
X-317003D01*
X-313004Y2501999D01*
Y2494001D01*
X-317003Y2490003D01*
X-332998Y2513995D02*
X-336996Y2517993D01*
Y2525991D01*
X-332998Y2529990D01*
X-328999D01*
X-325000Y2525991D01*
Y2521992D01*
Y2525991D01*
X-321001Y2529990D01*
X-317003D01*
X-313004Y2525991D01*
Y2517993D01*
X-317003Y2513995D01*
X-445996Y2150010D02*
X-422004D01*
Y2162006D01*
X-426003Y2166005D01*
X-441998D01*
X-445996Y2162006D01*
Y2150010D01*
X-441998Y2174003D02*
X-445996Y2178001D01*
Y2185999D01*
X-441998Y2189997D01*
X-437999D01*
X-434000Y2185999D01*
Y2182000D01*
Y2185999D01*
X-430001Y2189997D01*
X-426003D01*
X-422004Y2185999D01*
Y2178001D01*
X-426003Y2174003D01*
X-422004Y2213990D02*
Y2197995D01*
X-437999Y2213990D01*
X-441998D01*
X-445996Y2209991D01*
Y2201993D01*
X-441998Y2197995D01*
X-629996Y2523009D02*
X-606004D01*
Y2535005D01*
X-610003Y2539004D01*
X-625998D01*
X-629996Y2535005D01*
Y2523009D01*
X-625998Y2547001D02*
X-629996Y2551000D01*
Y2558997D01*
X-625998Y2562996D01*
X-621999D01*
X-618000Y2558997D01*
Y2554999D01*
Y2558997D01*
X-614001Y2562996D01*
X-610003D01*
X-606004Y2558997D01*
Y2551000D01*
X-610003Y2547001D01*
X-606004Y2570994D02*
Y2578991D01*
Y2574992D01*
X-629996D01*
X-625998Y2570994D01*
X-858996Y2211010D02*
X-835004D01*
Y2223006D01*
X-839003Y2227005D01*
X-854997D01*
X-858996Y2223006D01*
Y2211010D01*
X-854997Y2235003D02*
X-858996Y2239001D01*
Y2246999D01*
X-854997Y2250997D01*
X-850999D01*
X-847000Y2246999D01*
Y2243000D01*
Y2246999D01*
X-843001Y2250997D01*
X-839003D01*
X-835004Y2246999D01*
Y2239001D01*
X-839003Y2235003D01*
X-854997Y2258995D02*
X-858996Y2262993D01*
Y2270991D01*
X-854997Y2274990D01*
X-839003D01*
X-835004Y2270991D01*
Y2262993D01*
X-839003Y2258995D01*
X-854997D01*
X1397004Y2754010D02*
X1420996D01*
Y2766006D01*
X1416997Y2770005D01*
X1401003D01*
X1397004Y2766006D01*
Y2754010D01*
X1420996Y2793997D02*
Y2778003D01*
X1405001Y2793997D01*
X1401003D01*
X1397004Y2789999D01*
Y2782001D01*
X1401003Y2778003D01*
Y2801995D02*
X1397004Y2805993D01*
Y2813991D01*
X1401003Y2817990D01*
X1405001D01*
X1409000Y2813991D01*
X1412999Y2817990D01*
X1416997D01*
X1420996Y2813991D01*
Y2805993D01*
X1416997Y2801995D01*
X1412999D01*
X1409000Y2805993D01*
X1405001Y2801995D01*
X1401003D01*
X1409000Y2805993D02*
Y2813991D01*
X1066004Y3069010D02*
X1089996D01*
Y3081006D01*
X1085997Y3085005D01*
X1070003D01*
X1066004Y3081006D01*
Y3069010D01*
X1089996Y3108997D02*
Y3093003D01*
X1074001Y3108997D01*
X1070003D01*
X1066004Y3104999D01*
Y3097001D01*
X1070003Y3093003D01*
X1066004Y3116995D02*
Y3132990D01*
X1070003D01*
X1085997Y3116995D01*
X1089996D01*
X428004Y3099010D02*
X451996D01*
Y3111006D01*
X447997Y3115005D01*
X432002D01*
X428004Y3111006D01*
Y3099010D01*
X451996Y3138997D02*
Y3123003D01*
X436001Y3138997D01*
X432002D01*
X428004Y3134999D01*
Y3127001D01*
X432002Y3123003D01*
X428004Y3162990D02*
X432002Y3154992D01*
X440000Y3146995D01*
X447997D01*
X451996Y3150993D01*
Y3158991D01*
X447997Y3162990D01*
X443999D01*
X440000Y3158991D01*
Y3146995D01*
X214004Y2719010D02*
X237996D01*
Y2731006D01*
X233997Y2735005D01*
X218002D01*
X214004Y2731006D01*
Y2719010D01*
X237996Y2758997D02*
Y2743003D01*
X222001Y2758997D01*
X218002D01*
X214004Y2754999D01*
Y2747001D01*
X218002Y2743003D01*
X214004Y2782990D02*
Y2766995D01*
X226000D01*
X222001Y2774992D01*
Y2778991D01*
X226000Y2782990D01*
X233997D01*
X237996Y2778991D01*
Y2770993D01*
X233997Y2766995D01*
X-380996Y2894711D02*
X-357004D01*
Y2906707D01*
X-361003Y2910706D01*
X-376998D01*
X-380996Y2906707D01*
Y2894711D01*
X-357004Y2934698D02*
Y2918703D01*
X-372999Y2934698D01*
X-376998D01*
X-380996Y2930699D01*
Y2922702D01*
X-376998Y2918703D01*
X-357004Y2954692D02*
X-380996D01*
X-369000Y2942695D01*
Y2958690D01*
X-826996Y2887010D02*
X-803004D01*
Y2899006D01*
X-807003Y2903005D01*
X-822997D01*
X-826996Y2899006D01*
Y2887010D01*
X-803004Y2926997D02*
Y2911003D01*
X-818999Y2926997D01*
X-822997D01*
X-826996Y2922999D01*
Y2915001D01*
X-822997Y2911003D01*
Y2934995D02*
X-826996Y2938993D01*
Y2946991D01*
X-822997Y2950990D01*
X-818999D01*
X-815000Y2946991D01*
Y2942992D01*
Y2946991D01*
X-811001Y2950990D01*
X-807003D01*
X-803004Y2946991D01*
Y2938993D01*
X-807003Y2934995D01*
X-1347996Y2674010D02*
X-1324004D01*
Y2686006D01*
X-1328003Y2690005D01*
X-1343997D01*
X-1347996Y2686006D01*
Y2674010D01*
X-1324004Y2713997D02*
Y2698003D01*
X-1339999Y2713997D01*
X-1343997D01*
X-1347996Y2709999D01*
Y2702001D01*
X-1343997Y2698003D01*
X-1324004Y2737990D02*
Y2721995D01*
X-1339999Y2737990D01*
X-1343997D01*
X-1347996Y2733991D01*
Y2725993D01*
X-1343997Y2721995D01*
X820004Y3250009D02*
X843996D01*
Y3262005D01*
X839997Y3266004D01*
X824002D01*
X820004Y3262005D01*
Y3250009D01*
X843996Y3289996D02*
Y3274001D01*
X828001Y3289996D01*
X824002D01*
X820004Y3285997D01*
Y3278000D01*
X824002Y3274001D01*
X843996Y3297994D02*
Y3305991D01*
Y3301992D01*
X820004D01*
X824002Y3297994D01*
X509004Y3697010D02*
X532996D01*
Y3709006D01*
X528997Y3713005D01*
X513003D01*
X509004Y3709006D01*
Y3697010D01*
X532996Y3736997D02*
Y3721003D01*
X517001Y3736997D01*
X513003D01*
X509004Y3732999D01*
Y3725001D01*
X513003Y3721003D01*
Y3744995D02*
X509004Y3748993D01*
Y3756991D01*
X513003Y3760990D01*
X528997D01*
X532996Y3756991D01*
Y3748993D01*
X528997Y3744995D01*
X513003D01*
X287004Y3384010D02*
X310996D01*
Y3396006D01*
X306997Y3400005D01*
X291003D01*
X287004Y3396006D01*
Y3384010D01*
X310996Y3408002D02*
Y3415999D01*
Y3412001D01*
X287004D01*
X291003Y3408002D01*
X306997Y3427995D02*
X310996Y3431994D01*
Y3439992D01*
X306997Y3443990D01*
X291003D01*
X287004Y3439992D01*
Y3431994D01*
X291003Y3427995D01*
X295001D01*
X299000Y3431994D01*
Y3443990D01*
X-214996Y3475010D02*
X-191004D01*
Y3487006D01*
X-195003Y3491005D01*
X-210997D01*
X-214996Y3487006D01*
Y3475010D01*
X-191004Y3499002D02*
Y3506999D01*
Y3503001D01*
X-214996D01*
X-210997Y3499002D01*
Y3518995D02*
X-214996Y3522994D01*
Y3530992D01*
X-210997Y3534990D01*
X-206999D01*
X-203000Y3530992D01*
X-199001Y3534990D01*
X-195003D01*
X-191004Y3530992D01*
Y3522994D01*
X-195003Y3518995D01*
X-199001D01*
X-203000Y3522994D01*
X-206999Y3518995D01*
X-210997D01*
X-203000Y3522994D02*
Y3530992D01*
X-248346Y3102659D02*
X-224354D01*
Y3114655D01*
X-228353Y3118654D01*
X-244348D01*
X-248346Y3114655D01*
Y3102659D01*
X-224354Y3126652D02*
Y3134649D01*
Y3130650D01*
X-248346D01*
X-244348Y3126652D01*
X-248346Y3146645D02*
Y3162640D01*
X-244348D01*
X-228353Y3146645D01*
X-224354D01*
X-570996Y3565010D02*
X-547004D01*
Y3577006D01*
X-551003Y3581005D01*
X-566997D01*
X-570996Y3577006D01*
Y3565010D01*
X-547004Y3589002D02*
Y3596999D01*
Y3593001D01*
X-570996D01*
X-566997Y3589002D01*
X-570996Y3624990D02*
X-566997Y3616993D01*
X-559000Y3608995D01*
X-551003D01*
X-547004Y3612994D01*
Y3620992D01*
X-551003Y3624990D01*
X-555001D01*
X-559000Y3620992D01*
Y3608995D01*
X-852996Y3252010D02*
X-829004D01*
Y3264006D01*
X-833003Y3268005D01*
X-848997D01*
X-852996Y3264006D01*
Y3252010D01*
X-829004Y3276002D02*
Y3283999D01*
Y3280001D01*
X-852996D01*
X-848997Y3276002D01*
X-852996Y3311990D02*
Y3295995D01*
X-841000D01*
X-844999Y3303993D01*
Y3307992D01*
X-841000Y3311990D01*
X-833003D01*
X-829004Y3307992D01*
Y3299994D01*
X-833003Y3295995D01*
X909004Y4062010D02*
X932996D01*
Y4074006D01*
X928997Y4078005D01*
X913003D01*
X909004Y4074006D01*
Y4062010D01*
X932996Y4086002D02*
Y4093999D01*
Y4090001D01*
X909004D01*
X913003Y4086002D01*
X932996Y4117992D02*
X909004D01*
X921000Y4105995D01*
Y4121990D01*
X616004Y4300010D02*
X639996D01*
Y4312006D01*
X635997Y4316005D01*
X620003D01*
X616004Y4312006D01*
Y4300010D01*
X639996Y4324002D02*
Y4331999D01*
Y4328001D01*
X616004D01*
X620003Y4324002D01*
Y4343995D02*
X616004Y4347994D01*
Y4355992D01*
X620003Y4359990D01*
X624001D01*
X628000Y4355992D01*
Y4351993D01*
Y4355992D01*
X631999Y4359990D01*
X635997D01*
X639996Y4355992D01*
Y4347994D01*
X635997Y4343995D01*
X353004Y4015010D02*
X376996D01*
Y4027006D01*
X372997Y4031005D01*
X357003D01*
X353004Y4027006D01*
Y4015010D01*
X376996Y4039002D02*
Y4046999D01*
Y4043001D01*
X353004D01*
X357003Y4039002D01*
X376996Y4074990D02*
Y4058995D01*
X361001Y4074990D01*
X357003D01*
X353004Y4070992D01*
Y4062994D01*
X357003Y4058995D01*
X20004Y3859008D02*
X43996D01*
Y3871005D01*
X39997Y3875003D01*
X24003D01*
X20004Y3871005D01*
Y3859008D01*
X43996Y3883001D02*
Y3890998D01*
Y3886999D01*
X20004D01*
X24003Y3883001D01*
X43996Y3902994D02*
Y3910992D01*
Y3906993D01*
X20004D01*
X24003Y3902994D01*
X74004Y4215010D02*
X97996D01*
Y4227006D01*
X93997Y4231005D01*
X78003D01*
X74004Y4227006D01*
Y4215010D01*
X97996Y4239002D02*
Y4246999D01*
Y4243001D01*
X74004D01*
X78003Y4239002D01*
Y4258995D02*
X74004Y4262994D01*
Y4270992D01*
X78003Y4274990D01*
X93997D01*
X97996Y4270992D01*
Y4262994D01*
X93997Y4258995D01*
X78003D01*
X-423996Y3885006D02*
X-400004D01*
Y3897003D01*
X-404003Y3901001D01*
X-419998D01*
X-423996Y3897003D01*
Y3885006D01*
X-404003Y3908999D02*
X-400004Y3912997D01*
Y3920995D01*
X-404003Y3924994D01*
X-419998D01*
X-423996Y3920995D01*
Y3912997D01*
X-419998Y3908999D01*
X-415999D01*
X-412000Y3912997D01*
Y3924994D01*
X-752996Y4064006D02*
X-729004D01*
Y4076003D01*
X-733003Y4080001D01*
X-748998D01*
X-752996Y4076003D01*
Y4064006D01*
X-748998Y4087999D02*
X-752996Y4091997D01*
Y4099995D01*
X-748998Y4103993D01*
X-744999D01*
X-741000Y4099995D01*
X-737001Y4103993D01*
X-733003D01*
X-729004Y4099995D01*
Y4091997D01*
X-733003Y4087999D01*
X-737001D01*
X-741000Y4091997D01*
X-744999Y4087999D01*
X-748998D01*
X-741000Y4091997D02*
Y4099995D01*
X283004Y4696007D02*
X306996D01*
Y4708003D01*
X302997Y4712001D01*
X287002D01*
X283004Y4708003D01*
Y4696007D01*
Y4719999D02*
Y4735993D01*
X287002D01*
X302997Y4719999D01*
X306996D01*
X156346Y5022664D02*
X180339D01*
Y5034660D01*
X176340Y5038659D01*
X160345D01*
X156346Y5034660D01*
Y5022664D01*
Y5062651D02*
X160345Y5054654D01*
X168343Y5046656D01*
X176340D01*
X180339Y5050655D01*
Y5058652D01*
X176340Y5062651D01*
X172341D01*
X168343Y5058652D01*
Y5046656D01*
X-413996Y4374005D02*
X-390004D01*
Y4386001D01*
X-394003Y4390000D01*
X-409998D01*
X-413996Y4386001D01*
Y4374005D01*
X-390004Y4397997D02*
Y4405995D01*
Y4401996D01*
X-413996D01*
X-409998Y4397997D01*
X-144996Y4409007D02*
X-121004D01*
Y4421003D01*
X-125003Y4425001D01*
X-140998D01*
X-144996Y4421003D01*
Y4409007D01*
Y4448993D02*
Y4432999D01*
X-133000D01*
X-136999Y4440996D01*
Y4444995D01*
X-133000Y4448993D01*
X-125003D01*
X-121004Y4444995D01*
Y4436997D01*
X-125003Y4432999D01*
X-29994Y5328996D02*
Y5305004D01*
X-17997D01*
X-13999Y5309003D01*
Y5324997D01*
X-17997Y5328996D01*
X-29994D01*
X5995Y5305004D02*
Y5328996D01*
X-6001Y5317000D01*
X9993D01*
X-73996Y4930007D02*
X-50004D01*
Y4942003D01*
X-54003Y4946001D01*
X-69998D01*
X-73996Y4942003D01*
Y4930007D01*
X-69998Y4953999D02*
X-73996Y4957997D01*
Y4965995D01*
X-69998Y4969993D01*
X-65999D01*
X-62000Y4965995D01*
Y4961996D01*
Y4965995D01*
X-58002Y4969993D01*
X-54003D01*
X-50004Y4965995D01*
Y4957997D01*
X-54003Y4953999D01*
X433001Y1796997D02*
X429003Y1800996D01*
X421005D01*
X417007Y1796997D01*
Y1781003D01*
X421005Y1777004D01*
X429003D01*
X433001Y1781003D01*
X456993Y1800996D02*
X448996Y1796997D01*
X440999Y1789000D01*
Y1781003D01*
X444997Y1777004D01*
X452995D01*
X456993Y1781003D01*
Y1785001D01*
X452995Y1789000D01*
X440999D01*
X-317998Y1324001D02*
X-321996Y1320003D01*
Y1312005D01*
X-317998Y1308006D01*
X-302003D01*
X-298004Y1312005D01*
Y1320003D01*
X-302003Y1324001D01*
X-321996Y1347994D02*
Y1331999D01*
X-310000D01*
X-313999Y1339996D01*
Y1343995D01*
X-310000Y1347994D01*
X-302003D01*
X-298004Y1343995D01*
Y1335997D01*
X-302003Y1331999D01*
X-16005Y871994D02*
X-20004Y875992D01*
X-28001D01*
X-32000Y871994D01*
Y855999D01*
X-28001Y852000D01*
X-20004D01*
X-16005Y855999D01*
X3988Y852000D02*
Y875992D01*
X-8008Y863996D01*
X7987D01*
X-205998Y1750001D02*
X-209996Y1746003D01*
Y1738005D01*
X-205998Y1734006D01*
X-190003D01*
X-186004Y1738005D01*
Y1746003D01*
X-190003Y1750001D01*
X-205998Y1757999D02*
X-209996Y1761997D01*
Y1769995D01*
X-205998Y1773994D01*
X-201999D01*
X-198000Y1769995D01*
Y1765996D01*
Y1769995D01*
X-194001Y1773994D01*
X-190003D01*
X-186004Y1769995D01*
Y1761997D01*
X-190003Y1757999D01*
X42995Y545992D02*
X34997D01*
X38996D01*
Y525999D01*
X34997Y522000D01*
X30999D01*
X27000Y525999D01*
X50992Y522000D02*
X58990D01*
X54991D01*
Y545992D01*
X50992Y541994D01*
D47*
X1144961Y1263252D02*
G03*
X1144961Y1263252I-1968J0D01*
G01*
D48*
X-93449Y5061142D02*
G03*
X-93449Y5061142I-4921J0D01*
G01*
X-13338Y1535347D02*
G03*
X-13338Y1535347I-4921J0D01*
G01*
X-264339Y2389347D02*
G03*
X-264339Y2389347I-4921J0D01*
G01*
X-209339Y2766347D02*
G03*
X-209339Y2766347I-4921J0D01*
G01*
X-80338Y3421347D02*
G03*
X-80338Y3421347I-4921J0D01*
G01*
X115662Y3640347D02*
G03*
X115662Y3640347I-4921J0D01*
G01*
X-47228Y4561142D02*
G03*
X-47228Y4561142I-4921J0D01*
G01*
X-263181Y1298482D02*
G03*
X-263181Y1298482I-4921J0D01*
G01*
X1382661Y1562347D02*
G03*
X1382661Y1562347I-4921J0D01*
G01*
X1114551Y1890189D02*
G03*
X1114551Y1890189I-4921J0D01*
G01*
X761662Y1588504D02*
G03*
X761662Y1588504I-4921J0D01*
G01*
X587662Y931504D02*
G03*
X587662Y931504I-4921J0D01*
G01*
X216661Y1196347D02*
G03*
X216661Y1196347I-4921J0D01*
G01*
X-677338Y1279504D02*
G03*
X-677338Y1279504I-4921J0D01*
G01*
X-1307339Y1299504D02*
G03*
X-1307339Y1299504I-4921J0D01*
G01*
X-235449Y3807189D02*
G03*
X-235449Y3807189I-4921J0D01*
G01*
X-397732Y1403803D02*
G03*
X-397732Y1403803I-4921J0D01*
G01*
D49*
X-27504Y5099528D02*
X-26520D01*
Y5087717D02*
Y5099528D01*
X-77701D02*
X-76717D01*
X-77701Y5087717D02*
Y5099528D01*
X52606Y1573732D02*
X53591D01*
Y1561921D02*
Y1573732D01*
X2410D02*
X3394D01*
X2410Y1561921D02*
Y1573732D01*
X-198394Y2427732D02*
X-197409D01*
Y2415921D02*
Y2427732D01*
X-248590D02*
X-247606D01*
X-248590Y2415921D02*
Y2427732D01*
X-143394Y2804732D02*
X-142409D01*
Y2792921D02*
Y2804732D01*
X-193590D02*
X-192606D01*
X-193590Y2792921D02*
Y2804732D01*
X-14394Y3459732D02*
X-13409D01*
Y3447921D02*
Y3459732D01*
X-64591D02*
X-63606D01*
X-64591Y3447921D02*
Y3459732D01*
X181606Y3678732D02*
X182591D01*
Y3666921D02*
Y3678732D01*
X131410D02*
X132394D01*
X131410Y3666921D02*
Y3678732D01*
X18716Y4599528D02*
X19701D01*
Y4587717D02*
Y4599528D01*
X-31480D02*
X-30496D01*
X-31480Y4587717D02*
Y4599528D01*
X-253339Y1326041D02*
Y1373285D01*
X-236606D01*
X-170661Y1326041D02*
Y1373285D01*
X-187394D02*
X-170661D01*
X1398409Y1589906D02*
Y1601717D01*
X1399394D01*
X1449591Y1589906D02*
Y1601717D01*
X1448606D02*
X1449591D01*
X1130299Y1917748D02*
Y1929559D01*
X1131283D01*
X1181480Y1917748D02*
Y1929559D01*
X1180496D02*
X1181480D01*
X777409Y1616063D02*
Y1627874D01*
X778394D01*
X828591Y1616063D02*
Y1627874D01*
X827606D02*
X828591D01*
X603409Y959063D02*
Y970874D01*
X604394D01*
X654591Y959063D02*
Y970874D01*
X653606D02*
X654591D01*
X232410Y1223906D02*
Y1235717D01*
X233394D01*
X283591Y1223906D02*
Y1235717D01*
X282606D02*
X283591D01*
X-661591Y1307063D02*
Y1318874D01*
X-660606D01*
X-610409Y1307063D02*
Y1318874D01*
X-611394D02*
X-610409D01*
X-1291591Y1327063D02*
Y1338874D01*
X-1290606D01*
X-1240409Y1327063D02*
Y1338874D01*
X-1241394D02*
X-1240409D01*
X-219701Y3834748D02*
Y3846559D01*
X-218717D01*
X-168520Y3834748D02*
Y3846559D01*
X-169504D02*
X-168520D01*
X391882Y1819087D02*
X398772D01*
Y1792512D02*
Y1819087D01*
Y1704913D02*
Y1731488D01*
X391882Y1704913D02*
X398772D01*
X245228D02*
X252118D01*
X245228D02*
Y1731488D01*
Y1819087D02*
X252118D01*
X245228Y1792512D02*
Y1819087D01*
X-443772Y1829512D02*
Y1856087D01*
X-436882D01*
X-443772Y1741913D02*
Y1768488D01*
Y1741913D02*
X-436882D01*
X-297118D02*
X-290228D01*
Y1768488D01*
Y1829512D02*
Y1856087D01*
X-297118D02*
X-290228D01*
X-403638Y1378213D02*
X-400685D01*
X-396748Y1371323D02*
Y1374276D01*
Y1264039D02*
Y1266992D01*
X-403638Y1260102D02*
X-400685D01*
X-510921D02*
X-507969D01*
X-514858Y1264039D02*
Y1266992D01*
X-510921Y1378213D02*
X-507969D01*
X-514858Y1371323D02*
Y1374276D01*
X-400685Y1378213D02*
X-396748Y1374276D01*
X-400685Y1260102D02*
X-396748Y1264039D01*
X-514858D02*
X-510921Y1260102D01*
X-514858Y1374276D02*
X-510921Y1378213D01*
D50*
X425366Y3945367D02*
X749000Y4269000D01*
X997568Y2968183D02*
X1247000D01*
X1020784Y1450317D02*
X1178934Y1566302D01*
X52445Y4755605D02*
X233692Y4922248D01*
X-437917Y4639331D02*
X-196170Y4633316D01*
X-147032Y3698465D02*
X32398Y3729503D01*
X242296Y3820439D02*
X425366Y3945367D01*
X32398Y3729503D02*
X242296Y3820439D01*
X-306131Y3707214D02*
X-147032Y3698465D01*
X-608688Y3760209D02*
X-495210Y3744162D01*
X-306131Y3707214D01*
X389660Y2633849D02*
X560814Y2736999D01*
X731783Y2852444D02*
X997568Y2968183D01*
X560814Y2736999D02*
X731783Y2852444D01*
X-964629Y1601323D02*
X-688193Y1627132D01*
X-367130Y1585611D01*
X727Y1450980D01*
X1178934Y1566302D02*
X1374440Y1771533D01*
X-793753Y2717098D02*
X-550090Y2727837D01*
X-289628Y2686965D02*
X-57253Y2626124D01*
X-550090Y2727837D02*
X-289628Y2686965D01*
X-1820862Y1255691D02*
X-1198604Y1533964D01*
X-964629Y1601323D01*
X839036Y1372512D02*
X1020784Y1450317D01*
X-196170Y4633316D02*
X-50065Y4679949D01*
X52445Y4755605D01*
X727Y1450980D02*
X335216Y1356621D01*
X612583Y1335872D01*
X839036Y1372512D01*
X-1107626Y2609904D02*
X-793753Y2717098D01*
X-57253Y2626124D02*
X95531Y2588581D01*
X213894Y2579782D01*
X213895D02*
X389660Y2633849D01*
%TF.MD5,c11fa6406deda5f90762147a1b16d511*%
M02*
