%TF.GenerationSoftware,Altium Limited,Altium Designer,21.4.1 (30)*%
G04 Layer_Color=32896*
%FSLAX26Y26*%
%MOIN*%
%TF.SameCoordinates,C79CEFAC-E130-474B-83DD-F1A68A00FB65*%
%TF.FilePolarity,Positive*%
%TF.FileFunction,Legend,Bot*%
%TF.Part,Single*%
G01*
G75*
%TA.AperFunction,NonConductor*%
%ADD38C,0.012000*%
%ADD39C,0.010000*%
%ADD40C,0.005000*%
%ADD41C,0.006000*%
D38*
X153425Y3951000D02*
G03*
X153425Y3951000I-5000J0D01*
G01*
D39*
X615748Y2976024D02*
X753740D01*
Y2842559D02*
Y2976024D01*
X-722244D02*
X-584252D01*
X-722244Y2842559D02*
Y2976024D01*
Y903976D02*
Y1040000D01*
Y903976D02*
X-584252D01*
X615748D02*
X753740D01*
Y1040000D01*
X250608Y4076000D02*
Y4151000D01*
X173425D02*
X250608D01*
X-250000D02*
X-176575D01*
X-250000Y4076000D02*
Y4151000D01*
Y3651000D02*
Y3726000D01*
Y3651000D02*
X-176575D01*
X173425D02*
X250608D01*
Y3726000D01*
D40*
X160000Y3851000D02*
Y3871000D01*
X148750Y3861000D02*
X173425D01*
X145000D02*
X148750D01*
X823133Y1294000D02*
Y1321164D01*
X844000D01*
X964868Y1294000D02*
Y1321164D01*
X944000D02*
X964868D01*
Y966835D02*
Y994000D01*
X944000Y966835D02*
X964868D01*
X823133D02*
X844000D01*
X823133D02*
Y994000D01*
D41*
X812005Y1373994D02*
X816004Y1377992D01*
X824001D01*
X828000Y1373994D01*
Y1369995D01*
X824001Y1365996D01*
X816004D01*
X812005Y1361997D01*
Y1357999D01*
X816004Y1354000D01*
X824001D01*
X828000Y1357999D01*
X804008Y1354000D02*
X796010D01*
X800009D01*
Y1377992D01*
X804008Y1373994D01*
X751995Y3023996D02*
Y3000004D01*
X739999D01*
X736000Y3004003D01*
Y3008001D01*
X739999Y3012000D01*
X751995D01*
X739999D01*
X736000Y3015999D01*
Y3019997D01*
X739999Y3023996D01*
X751995D01*
X728003Y3000004D02*
X720005D01*
X724004D01*
Y3023996D01*
X728003Y3019997D01*
X264991Y4216996D02*
Y4193004D01*
X248996D01*
X225004Y4212997D02*
X229003Y4216996D01*
X237000D01*
X240999Y4212997D01*
Y4208999D01*
X237000Y4205000D01*
X229003D01*
X225004Y4201001D01*
Y4197003D01*
X229003Y4193004D01*
X237000D01*
X240999Y4197003D01*
X217006Y4193004D02*
X209009D01*
X213008D01*
Y4216996D01*
X217006Y4212997D01*
%TF.MD5,4f96169fe587f5fdd6a3b242a482c388*%
M02*
